<?xml version="1.0" encoding="utf-8"?>
<!-- Generator: Adobe Illustrator 24.0.2, SVG Export Plug-In . SVG Version: 6.00 Build 0)  -->
<svg version="1.1" id="Capa_1" xmlns="http://www.w3.org/2000/svg" xmlns:xlink="http://www.w3.org/1999/xlink" x="0px" y="0px"
	 viewBox="0 0 25 19" style="enable-background:new 0 0 25 19;" xml:space="preserve">
<style type="text/css">
	.st0{fill:#E6C290;}
	.st1{fill:none;}
	.st2{fill:#40918B;}
	.st3{fill:#125355;}
	.st4{fill:#F3B880;}
	.st5{fill:#F6BB80;}
</style>
<g>
	<path class="st0" d="M10.8,6.9c0.8-0.7,0.3-2.1-0.9-2.5C10.8,5,11,5.9,10.8,6.9z"/>
	<g>
		<path class="st1" d="M10.8,6.9c0.8-0.7,0.3-2.1-0.9-2.5C10.8,5,11,5.9,10.8,6.9z"/>
		<path class="st2" d="M1.7,13.5L1.7,13.5C1.6,13.5,1.6,13.5,1.7,13.5L1.7,13.5z"/>
		<g>
			<path class="st1" d="M1.7,13.7c-0.1,0-0.1-0.1-0.1-0.1C1.7,13.6,1.7,13.7,1.7,13.7z"/>
			<path class="st3" d="M10.2,4.1C10.1,4,10.1,4,10,3.9l1.3,1.3C11.1,4.7,10.7,4.3,10.2,4.1z"/>
			<g>
				<path class="st3" d="M23,9.2C23.6,8,24,6.8,24,5.5c0-1.3-0.6-2.3-1.8-2.9c-1-0.4-2.1-0.7-2.8-0.6c-1.5,0.2-1.1,0.5-1.5,1
					c-0.1,0.1-0.5,0.2-0.6,0.2c-1.4,1.3-1.8,2.8-1.1,4.6c0,0.1,0.1,0.2,0.1,0.2c0.2,0.5,0.2,0.6-0.3,0.7c-0.4,0.1-0.6,0.4-0.6,0.8
					c0,0.1,0,0.3,0,0.4c0,0.2-0.1,0.4-0.3,0.5c-0.2,0.1-0.4,0-0.6-0.2c-0.3-0.4-0.8-0.5-1.3-0.5c-0.4,0-0.7,0.2-1,0.4
					c-0.5,0.4-0.8,0.2-0.9-0.4C11.1,9,11,8.8,10.1,8.9c-0.2,0-0.4,0-0.5-0.3C9.5,8.3,9.5,8.1,9.8,7.9c0.4-0.2,0.7-0.5,1.1-0.7
					c0.6-0.3,0.8-1,0.6-1.7c-0.2-0.7-0.6-1.2-1.3-1.5C9.9,4,9.8,3.8,9.5,3.6C8.9,3.2,8.1,2.9,7.5,2.4c-0.3-0.2-0.7-0.1-1,0
					C6.3,2.5,6.2,2.6,6,2.6c0.1-0.1,0.3-0.1,0.4-0.2c0.3-0.1,0.8-0.2,1,0c0.6,0.5,1.4,0.7,2.1,1.2C9.7,3.7,9.8,3.8,10,3.9L9.1,3.1
					C9,3,8.9,3,8.8,3c-0.3,0-0.4-0.1-0.6-0.3C7.7,2.1,7.1,2,6.3,2.3C5.8,2.5,5.3,2.8,4.8,3.2C4.1,3.7,3.7,4.4,3.6,5.4
					c0,1,0.2,1.9,0.5,2.9c0.1,0.3,0,0.4-0.2,0.6c-0.4,0.3-0.6,0.8-0.5,1.3c0.1,0.3,0,0.4-0.1,0.6c-0.6,0.8-1.1,1.6-1.5,2.4
					c-0.1,0.1-0.2,0.2-0.2,0.4c0,0,0,0,0,0c0,0,0,0.1,0.1,0.1c0.1-0.1,0.3-0.4,0.4-0.6c0.4-0.6,0.8-1.2,1.2-1.7
					c0.5-0.7,0.6-0.7,1.3-0.3c1.1,0.7,2.2,0.9,3.5,1c0.9,0,1,0.2,0.9,1.1c-0.2,1.1-0.5,1.9-1,2.9c-0.3,0.5-0.7,0.9-1.4,1.3
					c0,0-0.3,0.1-0.3,0.1c0.2,0.1,2,0.2,3.1-4.4c0.2-0.8,0.1-0.8,0.9-0.9c0.6,0,0.9-0.3,1-0.8c0-0.2,0.1-0.3,0.3-0.3
					c0.2,0,0.3,0.1,0.4,0.3c0.5,0.9,1.8,1,2.5,0.2c0.5-0.5,0.6-0.5,0.8,0.1c0.1,0.3,0.3,0.5,0.6,0.5c0.2,0,0.6-0.1,0.9-0.1
					c-0.2,1.4-0.2,2.6,0,4.6c0,0.2,0.1-0.6,0.1-0.7c0.1-0.8,0.2-1.5,0.2-2.3c0-0.5,0.1-0.9,0.1-1.4c0-0.3,0.2-0.3,0.5-0.3
					c0.8,0,1.5,0.3,2.3,0.2c0.9,0,1.7-0.2,2.4-0.7v0c0,0,0,0,0,0c0.6-0.5,0.8-1.1,0.5-1.7C22.8,9.6,22.8,9.4,23,9.2z M10.8,6.9
					c0.2-1,0-1.9-0.9-2.5C11.1,4.8,11.6,6.2,10.8,6.9z M9.4,6.8c0.1-0.1,0.3-0.2,0.2-0.4C9.6,6.2,9.4,6.3,9.3,6.3
					C9.1,6.4,8.9,6.5,8.9,6.8C9,7.4,9.1,7.9,9.2,8.4C9.3,9.1,9.1,9.6,9,10.2c0,0.1-0.2,0.2-0.3,0.2c-0.3,0.1-0.7,0.1-0.9,0.1
					c-0.9,0-1.7-0.2-2.4-0.5C5,9.9,4.7,9.7,4.8,9.2c0.1-0.4-0.2-0.8-0.3-1.2C4.3,7.1,4.1,6.3,4.1,5.4c0-0.7,0.3-1.4,0.9-1.8
					c0.5-0.4,1.1-0.7,1.7-0.9c0.2-0.1,0.4-0.1,0.6,0c0.2,0.1,0.5,0.2,0.5,0.4c0,0.2-0.3,0.2-0.4,0.3C7,3.6,6.5,3.8,6.1,4
					C6,4.1,5.8,4.2,5.9,4.4c0.1,0.3,0.3,0,0.4,0C7,4.1,7.5,3.8,8.1,3.6c0.6-0.2,1,0,1.2,0.5c0.1,0.2,0.1,0.3-0.2,0.3
					C8.6,4.5,8,4.8,7.5,5C7.3,5.1,7.1,5.2,7.2,5.4c0.1,0.2,0.3,0.1,0.5,0C8.3,5.3,8.8,5,9.4,5c0.5,0,0.7,0.2,0.9,0.6
					c0.2,0.6,0.1,1.5-0.3,1.8C9.8,7.5,9.6,7.7,9.5,7.6C9.4,7.3,9.2,7.1,9.4,6.8z M13.6,11.3c-0.4,0-0.7,0-1-0.2
					c0.1-0.4,0.2-0.6,0.7-0.6c0.5,0,0.5,0.3,0.6,0.6C13.9,11.3,13.7,11.3,13.6,11.3z M19,10.5c-0.3,0-0.7-0.2-1-0.3
					c-0.5-0.2-0.8-0.4-0.7-1c0.1-0.3-0.2-0.5-0.3-0.7c-0.8-1.4-0.9-2.7-0.2-4.2c0,0,0-0.1,0-0.1c0.3-0.4,0.6-0.9,1.1-0.8
					c0.6,0.1,0.7,0.6,0.8,1.1c0.1,0.3,0.1,0.6,0.1,1c0,0.4-0.2,0.5-0.6,0.3c-0.3-0.2-0.5-0.5-0.6-0.8c-0.1-0.2-0.1-0.3-0.3-0.2
					c-0.2,0.1-0.1,0.2-0.1,0.4c0.2,0.5,0.5,0.9,0.9,1.1c0.3,0.1,0.4,0.2,0.4,0.5c0,0.1,0,0.2,0.1,0.3c0.1,0.5,0.3,0.9-0.1,1.4
					c-0.1,0.1,0,0.2,0,0.4c0,0.1,0,0.3,0.2,0.3c0.1,0,0.2,0,0.3-0.2c0-0.6,0.3-0.7,0.9-0.5c0.3,0.1,0.7-0.1,0.9-0.4
					c0.2-0.2,0.3-0.6,0.7-0.7c0.2,0,0.1-0.3-0.1-0.4c-0.3-0.1-0.6-0.2-1-0.3c-0.1,0-0.3,0-0.3,0.1c0,0.1,0,0.3,0.1,0.3
					c0.3,0.1,0.4,0.2,0.2,0.5c-0.2,0.3-0.5,0.4-0.8,0.3c-0.4-0.2-0.5-0.5-0.5-0.9c-0.1-1.1,0.7-1.7,1.8-1.5c0.3,0.1,0.6,0.2,0.9,0.2
					c0.2,0,0.4,0.1,0.5-0.1c0.1-0.3-0.1-0.3-0.3-0.4c-0.9-0.3-1.7-0.4-2.6,0c0-0.1,0-0.2,0-0.3c-0.1-1-0.1-1,0.9-0.9
					c0.5,0,1,0.1,1.5,0.2c0.2,0,0.3,0.1,0.3-0.1c0.1-0.2-0.1-0.3-0.3-0.3c-0.9-0.3-1.8-0.3-2.6-0.2c-0.5,0.1-0.6-0.3-0.7-0.5
					c-0.1-0.2,0.2-0.4,0.4-0.5c0.4-0.2,0.8,0,1.3,0c0.8,0.1,1.6,0.3,2.3,0.7c0.8,0.4,0.9,1.2,1,1.9c0.2,1.4-0.3,2.6-0.9,3.7
					C21.6,10.8,20.5,10.6,19,10.5z"/>
				<path class="st2" d="M8.1,12.1c-1.2,0-2.4-0.3-3.5-1c-0.7-0.5-0.8-0.4-1.3,0.3c-0.4,0.6-1.7,2.1-1.7,2.1c0,0,0,0,0,0
					c0,0-0.9,1.9-0.5,2.6c1.1,1.9,3.5,2.4,5.5,1.4c0.6-0.4,1-0.7,1.3-1.2c0.6-0.9,0.9-2,1.1-3.1C9.1,12.3,8.9,12.1,8.1,12.1z"/>
			</g>
			<path class="st3" d="M2,13c0,0-0.4,0.6-0.4,0.6C1.6,13.6,2,13,2,13z"/>
		</g>
		<path class="st2" d="M22.4,11.5L22.4,11.5c-0.7,0.5-1.5,0.6-2.4,0.7c-0.8,0-1.6-0.2-2.3-0.2c-0.2,0-0.5,0-0.5,0.3
			c0,0.5-0.1,0.9-0.1,1.4c0,0.8-0.2,1.5-0.3,2.3c0,0.1,0,0.2,0,0.3c0,0.1,0,0.3,0,0.4c0,0.1,0.2,0.6,0.3,0.6c0,0,0,0,0,0
			c0.9,0.5,1.9,0.6,3,0.5c1.2-0.1,2.2-0.9,2.5-2.1C23,14.3,22.7,12.9,22.4,11.5z"/>
		<polygon class="st2" points="22.4,11.5 22.4,11.5 22.4,11.5 		"/>
		<path class="st4" d="M23.4,5.2c-0.1-0.8-0.3-1.5-1-1.9c-0.7-0.4-1.3-0.7-2.1-0.8c-0.4,0-1-0.2-1.5,0c-0.2,0.1-0.5,0.3-0.4,0.5
			c0.1,0.3,0.2,0.6,0.7,0.5c0.9-0.1,1.8,0,2.6,0.2c0.2,0,0.3,0.1,0.3,0.3c-0.1,0.2-0.2,0.1-0.3,0.1c-0.5-0.1-1-0.2-1.5-0.2
			c-1-0.1-1-0.1-0.9,0.9c0,0.1,0,0.1,0,0.3c0.9-0.4,1.8-0.3,2.6,0c0.2,0.1,0.4,0.1,0.3,0.4c-0.1,0.2-0.3,0.1-0.5,0.1
			c-0.3-0.1-0.6-0.2-0.9-0.2c-1.1-0.2-1.9,0.4-1.8,1.5c0,0.4,0.2,0.7,0.5,0.9c0.4,0.2,0.6,0,0.8-0.3c0.2-0.3,0.1-0.4-0.2-0.5
			c-0.1,0-0.1-0.2-0.1-0.3c0-0.2,0.2-0.2,0.3-0.1c0.3,0.1,0.6,0.2,1,0.3c0.2,0.1,0.2,0.3,0.1,0.4C21,7.4,20.9,7.7,20.7,8
			c-0.2,0.3-0.6,0.5-0.9,0.4c-0.6-0.2-0.8-0.1-0.9,0.5c0,0.2-0.1,0.2-0.3,0.2c-0.2,0-0.2-0.1-0.2-0.3c0-0.1,0-0.3,0-0.4
			C18.9,8,18.7,7.5,18.6,7c0-0.1-0.1-0.2-0.1-0.3c0.1-0.3-0.1-0.4-0.4-0.5c-0.5-0.2-0.8-0.6-0.9-1.1c0-0.1-0.1-0.3,0.1-0.4
			c0.2-0.1,0.3,0.1,0.3,0.2c0.1,0.3,0.3,0.6,0.6,0.8c0.4,0.2,0.6,0.1,0.6-0.3c0-0.3,0-0.6-0.1-1c-0.1-0.5-0.2-1-0.8-1.1
			c-0.6-0.1-0.9,0.4-1.1,0.8c0,0,0,0.1,0,0.1c-0.7,1.4-0.6,2.8,0.2,4.2c0.1,0.2,0.4,0.4,0.3,0.7c-0.1,0.6,0.3,0.8,0.7,1
			c0.3,0.1,0.7,0.3,1,0.3c1.5,0.1,2.7,0.3,3.6-1.6C23.1,7.7,23.6,6.5,23.4,5.2z"/>
		<path class="st5" d="M10,7.4c0.4-0.3,0.5-1.2,0.3-1.8C10.1,5.2,9.8,5,9.4,5C8.8,5,8.3,5.3,7.7,5.4c-0.2,0.1-0.4,0.2-0.5,0
			C7.1,5.2,7.3,5.1,7.5,5C8,4.8,8.6,4.5,9.1,4.5c0.3,0,0.3-0.1,0.2-0.3C9.1,3.6,8.7,3.4,8.1,3.6C7.5,3.8,7,4.1,6.4,4.4
			c-0.1,0.1-0.3,0.3-0.4,0C5.8,4.2,6,4.1,6.1,4C6.5,3.8,7,3.6,7.4,3.4c0.2-0.1,0.5-0.1,0.4-0.3c0-0.2-0.3-0.3-0.5-0.4
			c-0.2-0.1-0.4-0.1-0.6,0C6.1,2.9,5.5,3.2,5,3.6C4.3,4.1,4.1,4.7,4.1,5.4c0,0.9,0.2,1.7,0.5,2.5c0.1,0.4,0.3,0.8,0.3,1.2
			C4.7,9.7,5,9.9,5.4,10c0.7,0.4,1.5,0.5,2.4,0.5c0.2,0,0.6,0,0.9-0.1c0.1,0,0.3-0.1,0.3-0.2c0-0.6,0.3-1.2,0.2-1.8
			C9.1,7.9,9,7.4,8.9,6.8C8.9,6.5,9.1,6.4,9.3,6.3c0.1,0,0.3-0.1,0.4,0.1c0.1,0.2-0.1,0.3-0.2,0.4c-0.2,0.2,0,0.5,0.1,0.7
			C9.6,7.7,9.8,7.5,10,7.4z"/>
	</g>
</g>
</svg>
