<?xml version="1.0" encoding="utf-8"?>
<!-- Generator: Adobe Illustrator 24.0.2, SVG Export Plug-In . SVG Version: 6.00 Build 0)  -->
<svg version="1.1" id="Capa_1" xmlns="http://www.w3.org/2000/svg" xmlns:xlink="http://www.w3.org/1999/xlink" x="0px" y="0px"
	 viewBox="0 0 147 139.7" style="enable-background:new 0 0 147 139.7;" xml:space="preserve">
<style type="text/css">
	.st0{fill:#0B4144;}
	.st1{fill:#155758;}
	.st2{fill:#145657;}
	.st3{fill:#43938C;}
	.st4{fill:#E08340;}
	.st5{fill:#DF8341;}
	.st6{fill:#44938C;}
	.st7{fill:#165858;}
	.st8{fill:#145858;}
	.st9{fill:#155857;}
	.st10{fill:#195857;}
</style>
<rect x="21.1" y="55.6" class="st0" width="100" height="60.4"/>
<g>
	<path class="st1" d="M7,41.9c0-0.8,0-1.5,0-2.3c0.3-0.2,0.2-0.5,0.2-0.8C7.5,37.3,8,36,9.6,35.5c1.1-0.4,11.2-0.2,14.8-1.8
		c3.1-1.4,5.8-3.3,8.5-5.4C42.1,21,51.7,14.2,61.2,7.3c2.6-1.9,5-4.2,8.3-5.2c0.5,0,0.9,0,1.4,0c2.3,0.7,4.2,2.2,6.2,3.6
		c12.7,9.3,25.5,18.6,38.2,28c1.3,1,2.8,1.5,4.4,1.5c2.9-0.1,5.8,0,8.7,0c2.6,0,4.6,0.8,5.2,3.6c0,1.2,0,2.5,0,3.7
		c-0.6,2.2-2.2,3-4.3,3.1c-0.8,0-1.7,0.1-2.5,0.1c-4.8,0-9.6-0.1-14.4-0.1c-30.6,0-61.1,0-91.7,0c-2.6,0-5.1,0-7.7,0
		c-0.9-0.1-1.8-0.2-2.7-0.3c-1.7-0.3-2.8-1.2-3.1-3C7.2,42.1,7.2,41.9,7,41.9z M98.3,34.5c-0.2-0.7-0.7-1.1-1.2-1.4
		c-8.2-5.9-16.4-11.8-24.5-17.7c-2-1.5-2.7-1.5-4.7,0C59.4,21.6,51,27.8,42.6,34c-0.2,0.1-0.4,0.2-0.4,0.5
		C60.8,34.5,79.5,34.5,98.3,34.5z"/>
	<path class="st2" d="M134.8,138c-42.3,0-84.6,0-127,0c0-2.1,0-4.3,0-6.4c0-0.7,0.1-1.3,0.3-2c0.8-2.3,2.5-3.6,4.9-4.1
		c0.1,0,0.3,0,0.4,0c37.9,0,75.8,0,113.7,0c0.3,0,0.6,0,0.9,0c0.1,0,0.2,0,0.4,0c3.1-0.3,6.5,2.3,6.4,6.4
		C134.7,134,134.8,136,134.8,138z"/>
	<path class="st3" d="M128.1,45.6c0,1.6,0,3.2,0,4.8c0,2.9-0.8,4.2-3.6,5.3c-2.6,0-5.3,0-7.9,0c-3.4,0-6.8,0-10.1,0
		c-3.4,0-6.9,0-10.3,0c-1.3,0-2.6,0-3.9,0c-5.4,0-10.8,0-16.3,0c-2.9,0-5.8,0-8.7,0c-4.3,0-8.6,0-12.9,0c-2.4,0-4.9,0-7.3,0
		c-3.4,0-6.9,0-10.3,0c-0.4,0-0.8,0-1.2,0c-6.3,0-12.6,0-18.9,0c-2.8-1.1-3.7-2.4-3.7-5.4c0-1.6,0-3.2,0-4.8c2.6,0,5.2,0,7.7,0
		c30.9,0,61.8,0,92.8,0C118.4,45.6,123.3,45.6,128.1,45.6z"/>
	<path class="st4" d="M98.3,34.5c-18.7,0-37.4,0-56.1,0c0-0.3,0.2-0.4,0.4-0.5c8.4-6.2,16.9-12.4,25.3-18.6c2-1.4,2.7-1.4,4.7,0
		c8.2,5.9,16.4,11.8,24.5,17.7C97.6,33.4,98.1,33.7,98.3,34.5z M69.9,30.2c2,0,3.9,0,5.9,0c0.5,0,1,0,1.3-0.6
		c0.2-0.6-0.1-0.9-0.5-1.3c-1.8-1.8-3.6-3.6-5.4-5.4c-0.8-0.7-1.1-0.8-1.9-0.1c-2,1.8-4,3.6-6,5.5c-0.4,0.4-0.7,0.7-0.5,1.3
		c0.2,0.6,0.8,0.6,1.3,0.6C66,30.2,68,30.2,69.9,30.2z"/>
	<path class="st5" d="M124.6,115.3c1.7,0.6,2.9,1.7,3.4,3.4c0.2,0.7,0.1,1.3,0.1,2c0,1.6,0,3.2,0,4.7c-0.3,0-0.6,0-0.9,0
		c-37.9,0-75.8,0-113.7,0c-0.1,0-0.3,0-0.4,0c0-1.9,0-3.8,0-5.7c0-2.2,1.3-3.6,3.7-4.5c0.9,0,1.8,0,2.8-0.1c5.4,0,10.9,0,16.3,0
		c0.4,0,0.7,0,1.1-0.1c3.4,0.1,6.9,0.1,10.3,0c3.2,0,6.4,0,9.6,0c3.5,0,7,0,10.5,0c2.9,0.1,5.8,0.1,8.7,0c5.2,0,10.4,0,15.6,0
		c1.5,0,3,0,4.5,0c3.4,0.1,6.9,0.1,10.3,0c0.4,0,0.8,0.1,1.2,0.1C113.4,115.3,119,115.1,124.6,115.3z"/>
	<path class="st6" d="M20.4,107.7c0-14.8,0-29.6,0-44.4c4.2,0.9,8.3,0.8,12.5,0c0,8.4,0,16.7,0,25.1c0,6.4,0,12.8,0,19.3
		c-0.9-0.4-1.9-0.6-2.9-0.5c-2.2,0-4.4,0-6.7,0C22.3,107.2,21.3,107.3,20.4,107.7z"/>
	<path class="st7" d="M20.4,107.7c0.9-0.4,1.9-0.6,2.9-0.5c2.2,0,4.4,0,6.7,0c1,0,2,0.2,2.9,0.5c1.3,0.7,2.3,1.7,3,3
		c0.8,1.4,0.7,2.9,0.7,4.5c-0.3,0-0.7,0.1-1,0.1c-5.4,0-10.7,0-16.1,0c-0.9,0-1.8,0-2.7,0.1c-0.2-2.4,0.1-4.7,2-6.4
		C19.2,108.4,19.8,108.1,20.4,107.7z"/>
	<path class="st8" d="M32.9,63.4c-4.2,0.8-8.3,0.9-12.5,0c-3.1-1.6-4-4.3-3.7-7.6c6.2,0,12.4,0,18.6,0c0.4,0,0.8,0,1.2,0
		c0,1.9,0,3.7-1.2,5.3C34.7,62.1,33.8,62.7,32.9,63.4z"/>
	<path class="st6" d="M121.6,63.4c0,14.8,0,29.6,0,44.4c-0.9-0.4-1.9-0.6-2.9-0.5c-2.2,0-4.4,0-6.7,0c-1,0-2,0.2-2.9,0.5
		c0-14.8,0-29.6,0-44.3c1.3,0.5,2.7,0.6,4.1,0.5c1.6,0,3.2,0,4.7,0C119.2,63.9,120.4,63.8,121.6,63.4z"/>
	<path class="st7" d="M109.1,107.7c0.9-0.4,1.9-0.6,2.9-0.5c2.2,0,4.4,0,6.7,0c1,0,2,0.2,2.9,0.5c2.8,1.5,3.9,3.9,3.7,7
		c0,0.5-0.2,0.6-0.6,0.6c-0.5,0-0.9,0-1.4,0c-5.6-0.2-11.1,0-16.7-0.1c-0.4,0-0.8,0-1.2-0.1c0-0.4,0-0.8,0-1.2
		C105.4,111.1,106.7,109.1,109.1,107.7z"/>
	<path class="st8" d="M121.6,63.4c-1.2,0.5-2.4,0.6-3.7,0.5c-1.6,0-3.2,0-4.7,0c-1.4,0-2.7,0-4.1-0.5c-0.9-0.6-1.9-1.3-2.6-2.2
		c-1.1-1.6-1.2-3.4-1.2-5.3c3.3,0,6.7,0,10,0c2.6,0,5.2,0,7.8,0c0.1,0,0.2,0,0.3,0c1.9,0.1,1.9,0.1,1.8,2
		C125.1,60.3,123.8,62.1,121.6,63.4z"/>
	<path class="st0" d="M105.4,55.8c0,1.9,0,3.7,1.2,5.3c0.7,1,1.6,1.6,2.6,2.2c0,14.8,0,29.6,0,44.3c-2.4,1.3-3.7,3.4-3.7,6.2
		c0,0.4,0,0.8,0,1.2c-3.4,0.1-6.8,0.1-10.2,0c0-1.8,0.1-3.6-1.1-5.2c-0.9-1.2-2-2-3.3-2.6c0-14.5,0-29.1,0-43.6
		c0.1-0.1,0.3-0.2,0.4-0.3c1.7-0.7,2.9-2,3.6-3.7c0.5-1.3,0.3-2.6,0.4-3.9C98.6,55.8,102,55.8,105.4,55.8z"/>
	<path class="st0" d="M32.9,63.4c0.9-0.6,1.9-1.3,2.6-2.2c1.1-1.6,1.2-3.4,1.2-5.3c3.4,0,6.8,0,10.2,0c0,0.4,0,0.9,0,1.3
		c-0.1,2.9,1.3,4.8,3.7,6.2c0,14.2,0,28.5,0,42.7c0,0.6,0,1.1,0,1.7c-1.1,0.5-2,1.3-2.7,2.3c-1.1,1.6-1.1,3.3-1,5.1
		c-3.4,0.1-6.8,0.1-10.2,0c0-1.5,0-3-0.7-4.5c-0.7-1.3-1.7-2.3-3-3c0-6.4,0-12.8,0-19.3C32.9,80.1,32.9,71.7,32.9,63.4z"/>
	<path class="st0" d="M75.3,115.1c-2.9,0.1-5.8,0.1-8.6,0c0.2-3.2-0.7-5.9-3.7-7.4c0-0.1,0-0.3,0-0.4c0-14.6,0-29.2,0-43.9
		c0.1-0.1,0.2-0.2,0.3-0.2c1.9-1.1,3-2.7,3.4-4.9c0.1-0.8,0-1.6,0.1-2.5c2.9,0,5.7,0,8.6,0c0,1.1,0,2.2,0.3,3.3
		c0.4,1.6,1.5,2.8,2.7,3.9c0,15,0,30,0,45C75.9,109.8,75.1,112.3,75.3,115.1z"/>
	<path class="st8" d="M78.3,63c-1.2-1.1-2.3-2.2-2.7-3.9c-0.3-1.1-0.2-2.2-0.3-3.3c5.4,0,10.7,0,16.1,0c1.3,0,2.6,0,3.9,0
		c-0.1,1.3,0.1,2.6-0.4,3.9c-0.7,1.7-1.9,3-3.6,3.7c-0.2,0.1-0.3,0.2-0.4,0.3c-2.2,0.3-4.4,0.1-6.7,0.2C82.1,63.9,80.1,64,78.3,63z"
		/>
	<path class="st9" d="M66.7,55.8c-0.1,0.8,0,1.6-0.1,2.5c-0.4,2.2-1.4,3.8-3.4,4.9c-0.1,0.1-0.2,0.2-0.3,0.2
		c-1.5,0.6-3.1,0.5-4.7,0.5c-1.5,0-2.9,0-4.4,0c-1.2,0-2.3-0.1-3.4-0.5c-2.4-1.4-3.8-3.3-3.7-6.2c0-0.4,0-0.9,0-1.3
		c2.4,0,4.8,0,7.2,0C58.2,55.8,62.4,55.8,66.7,55.8z"/>
	<path class="st10" d="M69.9,30.2c-1.9,0-3.9,0-5.8,0c-0.5,0-1,0-1.3-0.6c-0.2-0.6,0.1-0.9,0.5-1.3c2-1.8,4-3.6,6-5.5
		c0.8-0.7,1.1-0.7,1.9,0.1c1.8,1.8,3.6,3.6,5.4,5.4c0.4,0.4,0.7,0.7,0.5,1.3c-0.2,0.6-0.8,0.6-1.3,0.6
		C73.8,30.2,71.9,30.2,69.9,30.2z"/>
	<path class="st9" d="M62.9,107.7c3,1.6,3.9,4.3,3.7,7.4c-3.5,0-6.9,0-10.4,0c-3.2,0-6.3,0-9.5,0c0-1.8-0.1-3.6,1-5.1
		c0.7-1,1.6-1.8,2.7-2.3c0.9-0.4,1.8-0.6,2.8-0.5c2.1,0,4.2,0,6.3,0C60.7,107.2,61.9,107.3,62.9,107.7z"/>
	<path class="st8" d="M75.3,115.1c-0.2-2.9,0.6-5.3,3-7.1c0.9-0.3,1.8-0.9,2.8-0.9c3.2,0.1,6.4-0.2,9.7,0.2c1.3,0.6,2.5,1.4,3.3,2.6
		c1.1,1.6,1.1,3.4,1.1,5.2c-1.5,0-3,0-4.5,0C85.6,115.2,80.4,115.2,75.3,115.1z"/>
	<path class="st6" d="M90.8,107.4c-3.2-0.4-6.4-0.1-9.7-0.2c-1,0-1.9,0.6-2.8,0.9c0-15,0-30,0-45c1.8,1,3.8,0.9,5.8,0.9
		c2.2-0.1,4.4,0.1,6.7-0.2C90.8,78.3,90.8,92.8,90.8,107.4z"/>
	<path class="st3" d="M62.9,107.7c-1.1-0.5-2.2-0.6-3.3-0.5c-2.1,0-4.2,0-6.3,0c-1,0-1.9,0.2-2.8,0.5c0-0.6,0-1.1,0-1.7
		c0-14.2,0-28.5,0-42.7c1.1,0.4,2.2,0.6,3.4,0.5c1.5,0,2.9,0,4.4,0c1.6,0,3.2,0.1,4.7-0.5c0,14.6,0,29.2,0,43.9
		C63,107.4,62.9,107.6,62.9,107.7z"/>
</g>
</svg>
