<?xml version="1.0" encoding="utf-8"?>
<!-- Generator: Adobe Illustrator 24.0.2, SVG Export Plug-In . SVG Version: 6.00 Build 0)  -->
<svg version="1.1" id="Capa_1" xmlns="http://www.w3.org/2000/svg" xmlns:xlink="http://www.w3.org/1999/xlink" x="0px" y="0px"
	 viewBox="0 0 20 19" style="enable-background:new 0 0 20 19;" xml:space="preserve">
<style type="text/css">
	.st0{fill:#145356;}
	.st1{fill:#135255;}
	.st2{fill:#052C2C;}
	.st3{fill:#E28542;}
	.st4{fill:#4C958F;}
	.st5{fill:#E18542;}
	.st6{fill:#E28441;}
	.st7{fill:#E18441;}
</style>
<g>
	<path class="st0" d="M17.4,13.3c-0.9-0.8-1.8-1.6-2.7-2.4c-1.4-1.3-2.8-2.5-4.3-3.8c-0.1-0.1-0.2-0.1-0.1-0.2
		c0.2-0.2,0.3-0.6,0.7-0.6c0.7,0.1,1.1-0.3,1.5-0.8c0.4-0.4,0.4-1,0-1.4c-1-1-2.1-2-3.3-3C9,0.9,8.6,0.9,8.3,1
		C7.7,1.1,7,2.1,7.2,2.7c0,0.2,0,0.3-0.1,0.4C6.3,3.9,5.5,4.7,4.8,5.5C4.7,5.6,4.6,5.6,4.4,5.6C3.8,5.4,3.2,5.8,2.8,6.5
		C2.5,7,2.6,7.4,3.1,8C4,8.9,4.9,9.8,5.9,10.6c0.4,0.3,0.8,0.6,1.3,0.3c0.5-0.3,1.1-0.7,1.1-1.5C8.2,9,8.5,8.8,8.8,8.6
		c0.2-0.1,0.3,0.2,0.5,0.3c0,0,0,0,0.1,0.1c2,2.1,4.1,4.2,6.1,6.4c0.7,0.7,1.6,0.7,2.2,0.1C18.1,15,18.3,14,17.4,13.3z M7.9,1.9
		C8.3,1.4,8.6,1.4,9,1.7c1,0.9,1.9,1.8,2.9,2.6c0.2,0.2,0.4,0.4,0.2,0.7c-0.2,0.3-0.4,0.6-0.8,0.6c-0.2,0-0.3-0.1-0.5-0.2
		C9.9,4.7,9,3.8,8,3C7.6,2.6,7.6,2.3,7.9,1.9z M7.5,9.9c-0.4,0.5-0.7,0.6-1.1,0.3c-1.1-0.8-2.1-1.8-3-2.8C3.2,7.3,3.1,7,3.3,6.8
		c0.2-0.3,0.4-0.6,0.8-0.6c0.2,0,0.3,0.1,0.5,0.2c1,0.9,1.9,1.8,2.9,2.7C7.8,9.4,7.8,9.6,7.5,9.9z M8,8.3c-0.2,0.2-0.3,0.2-0.4,0
		C6.8,7.6,6.1,6.9,5.3,6.2C5.1,6,5.1,5.9,5.3,5.8C6,5.1,6.7,4.4,7.4,3.6c0.1-0.1,0.2-0.2,0.3,0C8.5,4.3,9.3,5,10.1,5.8
		c0.1,0,0.1,0.1,0.2,0.1c-0.1,0.1-0.1,0.2-0.2,0.2C9.4,6.8,8.7,7.6,8,8.3z M17.3,14.4c0,0.4-0.2,0.6-0.5,0.7
		c-0.3,0.2-0.6,0.1-0.8-0.2c-0.5-0.4-0.9-0.9-1.4-1.4c-1.3-1.3-2.5-2.6-3.8-3.9c-0.4-0.4-0.8-0.9-1.3-1.3C9.5,8.3,9.4,8.2,9.6,8
		c0.2-0.1,0.2-0.5,0.5-0.2c0.6,0.5,1.2,1,1.8,1.6c1.7,1.5,3.3,2.9,5,4.4C17.1,14,17.3,14.2,17.3,14.4z"/>
	<polygon class="st1" points="8.3,18 8.3,18 8.3,18 	"/>
	<path class="st1" d="M11.5,14.9c-0.1-0.1-0.2-0.1-0.2-0.2c0-0.6-0.4-0.8-0.9-1c-0.9-0.3-1.8-0.4-2.7-0.4c-0.9,0-1.9,0-2.8,0.1
		c-0.6,0.1-1.2,0.2-1.8,0.4c-0.3,0.1-0.6,0.4-0.6,0.8c0,0.2-0.1,0.2-0.2,0.3c-0.6,0.4-0.9,0.9-0.8,1.6c0.1,0.6,0.6,0.8,1.1,1
		c1,0.3,2,0.4,3.1,0.5c0.4-0.1,0.8-0.1,1.2-0.1c0.4,0,0.9-0.1,1.4,0.1c0.3,0,0.6,0,0.9-0.1c0.8-0.1,1.6-0.2,2.3-0.5
		c0.9-0.4,1.1-1.1,0.6-1.9C11.9,15.3,11.7,15.1,11.5,14.9z M3.8,14.3C4.8,14,5.9,14,6.9,14c1,0,2.1,0.1,3.1,0.3
		c0.2,0,0.5,0.1,0.5,0.3c0,0.3-0.3,0.3-0.5,0.3c-0.9,0.2-1.8,0.3-2.6,0.3c-1.2,0-2.3,0-3.4-0.3c0,0-0.1,0-0.1,0
		c-0.2-0.1-0.5,0-0.5-0.3C3.3,14.3,3.6,14.3,3.8,14.3z M11.1,16.8c-1.3,0.4-2.7,0.5-4.1,0.5c-1.2,0-2.6-0.1-3.8-0.4
		c-0.1,0-0.3-0.1-0.4-0.1c-0.3-0.1-0.6-0.2-0.4-0.6c0.2-0.5,0.6-0.8,0.9-0.7c1.4,0.4,2.8,0.5,4.2,0.5c1.1,0,2.2-0.1,3.3-0.4
		c0.3-0.1,0.8,0.3,0.9,0.8C11.7,16.6,11.4,16.7,11.1,16.8z"/>
	<path class="st2" d="M5.7,18c0.9,0,1.7,0,2.6,0C7.4,18,6.6,18,5.7,18z"/>
	<polygon class="st2" points="8.3,18 8.3,18 8.3,18 	"/>
	<path class="st2" d="M6.9,17.9c-0.4,0-0.8-0.1-1.2,0.1c0.9,0,1.7,0,2.6,0l0,0c0,0,0,0,0,0C7.9,17.8,7.4,17.9,6.9,17.9z"/>
	<path class="st3" d="M10.3,5.9c-0.1-0.1-0.1-0.1-0.2-0.1C9.3,5,8.5,4.3,7.7,3.6c-0.1-0.1-0.2-0.1-0.3,0C6.7,4.4,6,5.1,5.3,5.8
		C5.1,5.9,5.1,6,5.3,6.2c0.8,0.7,1.6,1.4,2.3,2.1c0.2,0.2,0.3,0.2,0.4,0c0.7-0.7,1.4-1.5,2.1-2.2C10.2,6.1,10.2,6,10.3,5.9z"/>
	<path class="st4" d="M17,13.8c-1.7-1.5-3.3-3-5-4.4c-0.6-0.5-1.2-1-1.8-1.6C9.9,7.5,9.8,7.9,9.6,8c-0.2,0.1-0.1,0.2,0,0.4
		c0.4,0.4,0.8,0.9,1.3,1.3c1.2,1.3,2.5,2.6,3.8,3.9c0.4,0.5,0.9,0.9,1.4,1.4c0.2,0.2,0.5,0.3,0.8,0.2c0.3-0.1,0.5-0.4,0.5-0.7
		C17.3,14.2,17.1,14,17,13.8z"/>
	<path class="st5" d="M7.5,9c-1-0.9-1.9-1.8-2.9-2.7C4.4,6.2,4.3,6.1,4.1,6.1c-0.4,0-0.6,0.3-0.8,0.6C3.1,7,3.2,7.3,3.4,7.5
		c1,1,1.9,2,3,2.8c0.4,0.3,0.7,0.2,1.1-0.3C7.8,9.6,7.8,9.4,7.5,9z"/>
	<path class="st5" d="M8,3c1,0.9,2,1.7,2.9,2.6c0.1,0.1,0.3,0.2,0.5,0.2c0.4,0,0.6-0.3,0.8-0.6c0.2-0.3,0-0.5-0.2-0.7
		C11,3.5,10,2.6,9,1.7C8.6,1.4,8.3,1.4,7.9,1.9C7.6,2.3,7.6,2.6,8,3z"/>
	<path class="st6" d="M10.7,15.4c-1.1,0.4-2.2,0.4-3.3,0.4c-1.4,0-2.8,0-4.2-0.5c-0.3-0.1-0.8,0.2-0.9,0.7c-0.1,0.4,0.1,0.5,0.4,0.6
		c0.1,0,0.3,0.1,0.4,0.1c1.3,0.3,2.6,0.4,3.8,0.4c1.4,0,2.8-0.1,4.1-0.5c0.3-0.1,0.6-0.2,0.5-0.6C11.5,15.8,11,15.3,10.7,15.4z"/>
	<path class="st7" d="M3.8,14.8C3.8,14.9,3.9,14.9,3.8,14.8c1.2,0.3,2.4,0.3,3.5,0.3c0.9,0,1.8,0,2.6-0.3c0.2,0,0.5,0,0.5-0.3
		c0-0.3-0.3-0.3-0.5-0.3C9,14,7.9,14,6.9,14c-1,0-2.1,0.1-3.1,0.3c-0.2,0-0.5,0-0.5,0.3C3.3,14.8,3.6,14.8,3.8,14.8z"/>
</g>
</svg>
