<?xml version="1.0" encoding="utf-8"?>
<!-- Generator: Adobe Illustrator 24.0.2, SVG Export Plug-In . SVG Version: 6.00 Build 0)  -->
<svg version="1.1" id="Capa_1" xmlns="http://www.w3.org/2000/svg" xmlns:xlink="http://www.w3.org/1999/xlink" x="0px" y="0px"
	 viewBox="0 0 20 19" style="enable-background:new 0 0 20 19;" xml:space="preserve">
<style type="text/css">
	.st0{fill:#135556;}
	.st1{fill:#145456;}
	.st2{fill:#0B383A;}
	.st3{fill:#F2C090;}
	.st4{fill:#E28542;}
	.st5{fill:#E08644;}
</style>
<g>
	<path class="st0" d="M15.2,13.4c-0.1,0-0.1-0.1-0.2-0.1c-0.6-0.4-1.2-0.9-1.9-1.2c-0.5-0.3-1-0.2-1.5,0.3c-0.2,0.2-0.4,0.4-0.6,0.6
		c-0.6,0.7-1.2,0.5-1.8,0.1c-0.4-0.3-0.8-0.7-1.1-1.1c-0.8-0.9-1.5-1.8-2-2.8C5.8,8.4,5.9,8,6.7,7.6c0.3-0.1,0.5-0.3,0.7-0.4
		C8,6.8,8.2,6.3,8,5.6C7.7,4.8,7.4,4.1,7.1,3.3C6.9,2.9,6.7,2.5,6.4,2.2C6.1,2,5.8,1.8,5.4,1.9C3.5,2.3,1.9,4,2,6.3
		C2,7.2,2.2,8,2.4,8.8c0.7,2.2,2,4,3.5,5.6c1.3,1.4,2.8,2.6,4.7,3.1c1.9,0.6,3.8,0,4.9-1.6C16.3,14.9,16.2,14.2,15.2,13.4z"/>
	<path class="st1" d="M17.3,4.4c0-0.7-0.4-1.2-1.2-1.2c-1.7,0-3.5,0-5.2,0c-0.6,0-1,0.3-1.1,0.8c0.1,0.1,0.1,0.2,0.1,0.3
		c0,1.6,0,3.1,0,4.7c0,0.1,0,0.2-0.1,0.3c0,0,0,0,0,0c0,0,0,0,0,0c0.1,0.5,0.4,0.8,0.9,0.9c0.6,0.1,1.2,0.1,1.8,0
		c0.4,0,0.8,0.1,1.1,0.5c0.1,0.2,0.3,0.3,0.5,0.5c0.5,0.4,0.8,0.3,1-0.3c0.2-0.6,0.2-0.6,0.8-0.6c0.1,0,0.1,0,0.2,0
		c0.7-0.1,1.1-0.5,1.1-1.2C17.3,7.6,17.3,6,17.3,4.4z M15.3,9.8c-0.5,0-0.5,0-0.5,0.5c0,0.2,0.1,0.5-0.1,0.5
		c-0.2,0.1-0.3-0.2-0.5-0.3c0,0-0.1-0.1-0.1-0.1c-0.4-0.6-1-0.7-1.6-0.6c0,0-0.1,0-0.1,0c-0.7,0-0.8-0.1-0.5-0.8
		c0.3-0.8,1.2-1.2,2.1-1.1c0.9,0.1,1.5,0.7,1.6,1.5c0,0,0,0.1,0,0.2C15.6,9.8,15.4,9.8,15.3,9.8z M13,6.4c0.2-0.2,0.4-0.3,0.5-0.6
		c0.1-0.2,0.1-0.1,0.2,0C14,6,14.1,6.2,14.1,6.5c0,0.4-0.2,0.6-0.5,0.8c-0.3,0.2-0.5-0.1-0.7-0.3C12.8,6.7,12.8,6.6,13,6.4z M16.8,9
		c0,0.3,0,0.6-0.4,0.8c-0.1,0.1-0.2,0.1-0.2-0.1c-0.1-1-0.5-1.8-1.6-2.1c0.7-0.8,0.5-2.1,0-2.5c-0.5-0.4-1-0.5-1.5-0.3
		c-0.6,0.2-0.9,0.6-0.9,1.2c0,0.5,0,1,0.3,1.4c0.1,0.1,0.1,0.2-0.1,0.2c-0.8,0.4-1.2,1.1-1.3,2c0,0.2-0.1,0.2-0.3,0.2
		c-0.2-0.1-0.4-0.3-0.4-0.6c0-1.6,0-3.2,0-4.8c0-0.4,0.3-0.7,0.6-0.7c1.7,0,3.4,0,5.1,0c0.4,0,0.6,0.3,0.6,0.7c0,0.6,0,1.1,0,1.7
		C16.8,7.1,16.8,8,16.8,9z"/>
	<path class="st2" d="M9.8,4.1c-0.1,0.7,0,1.5,0,2.2c0,1.1,0,2.1,0,3.2c0,0,0,0,0,0C9.9,7.6,9.9,5.8,9.8,4.1z"/>
	<path class="st2" d="M9.9,9.1c0-1.6,0-3.1,0-4.7c0-0.1,0-0.2-0.1-0.3c0.1,1.8,0,3.5,0,5.3c0,0,0,0,0,0c0,0,0,0,0,0
		C9.9,9.3,9.9,9.2,9.9,9.1z"/>
	<path class="st3" d="M16.8,4.5c0-0.4-0.2-0.7-0.6-0.7c-1.7,0-3.4,0-5.1,0c-0.4,0-0.6,0.3-0.6,0.7c0,1.6,0,3.2,0,4.8
		c0,0.3,0.2,0.5,0.4,0.6c0.1,0.1,0.2,0.1,0.3-0.2c0.1-0.9,0.5-1.6,1.3-2c0.1-0.1,0.2-0.1,0.1-0.2c-0.3-0.4-0.3-0.9-0.3-1.4
		c0-0.6,0.3-1,0.9-1.2c0.6-0.2,1.1-0.1,1.5,0.3c0.5,0.4,0.7,1.7,0,2.5c1.1,0.3,1.5,1.1,1.6,2.1c0,0.2,0.1,0.2,0.2,0.1
		c0.3-0.1,0.4-0.4,0.4-0.8c0-0.9,0-1.9,0-2.8C16.8,5.6,16.8,5,16.8,4.5z"/>
	<path class="st4" d="M15.5,9.4c-0.1-0.9-0.7-1.4-1.6-1.5C13,7.8,12.1,8.2,11.8,9c-0.3,0.7-0.3,0.8,0.5,0.8c0,0,0.1,0,0.1,0
		c0.7-0.1,1.2,0,1.6,0.6c0,0.1,0.1,0.1,0.1,0.1c0.2,0.1,0.3,0.4,0.5,0.3c0.2-0.1,0.1-0.4,0.1-0.5c0-0.5,0-0.5,0.5-0.5
		c0.2,0,0.3,0,0.3-0.1C15.5,9.5,15.5,9.5,15.5,9.4z"/>
	<path class="st5" d="M13.6,7.3c0.3-0.2,0.5-0.4,0.5-0.8c0-0.3-0.1-0.5-0.3-0.7c-0.1-0.1-0.2-0.1-0.2,0C13.4,6,13.2,6.2,13,6.4
		c-0.2,0.2-0.2,0.4-0.1,0.6C13.1,7.2,13.3,7.4,13.6,7.3z"/>
</g>
</svg>
