<?xml version="1.0" encoding="utf-8"?>
<!-- Generator: Adobe Illustrator 24.0.2, SVG Export Plug-In . SVG Version: 6.00 Build 0)  -->
<svg version="1.1" id="Capa_1" xmlns="http://www.w3.org/2000/svg" xmlns:xlink="http://www.w3.org/1999/xlink" x="0px" y="0px"
	 viewBox="0 0 355 176.2" style="enable-background:new 0 0 355 176.2;" xml:space="preserve">
<style type="text/css">
	.st0{fill:#127071;}
	.st1{fill:#489E99;}
	.st2{fill:#F0803E;}
	.st3{fill:#53A79D;}
	.st4{fill:#155859;}
	.st5{fill:#156D6F;}
	.st6{fill:#F9CAA5;}
	.st7{fill:#175859;}
	.st8{fill:#18595E;}
	.st9{fill:#14474D;}
	.st10{fill:#F9C9A3;}
	.st11{fill:#F9C9A4;}
	.st12{fill:#204F55;}
	.st13{fill:#185456;}
	.st14{fill:#FFFFFF;}
	.st15{fill:#185356;}
	.st16{fill:#6FBEB8;}
	.st17{fill:#244B54;}
	.st18{fill:#284F55;}
	.st19{fill:#244A51;}
	.st20{fill:#182225;}
	.st21{fill:#542B17;}
	.st22{fill:#BD9686;}
	.st23{fill:#160D0A;}
	.st24{fill:#16242B;}
	.st25{fill:#182429;}
	.st26{fill:#1B2629;}
	.st27{fill:#156D6E;}
	.st28{fill:#902530;}
	.st29{fill:#166B6C;}
	.st30{fill:#25484F;}
	.st31{fill:#254248;}
	.st32{fill:#274C52;}
	.st33{fill:#25494E;}
	.st34{fill:#27474F;}
	.st35{fill:#223E43;}
	.st36{fill:#243E44;}
	.st37{fill:#1B2627;}
	.st38{fill:#1C2C2F;}
	.st39{fill:none;stroke:#204F55;stroke-miterlimit:10;}
</style>
<g>
	<path class="st1" d="M46.4,196.9c-1.9-3.7-4.1-7.2-5.7-11c-3-7.3-5.5-14.8-7.1-22.6c-1.5-7.2-2.4-14.5-2.1-21.8
		c0.4-8.8,2.5-17.1,8.1-24.3c0.6-0.8,1.5-1.5,1.9-2.4c0.2-1.1,1.1-1.6,1.8-2.3c3.3-2.7,7-4.8,10.8-6.9c3.6-1.9,7.3-3.5,11.1-5
		c3.3-1.3,6.7-2.2,10.2-3.2c1.2-0.3,2.2-0.9,2.6-2.3c0.2-0.8,0.7-1.3,1.7-1.2c1.8,0.9,3.4,2.2,5.3,3c5.3,2.3,10.8,3.4,16.6,2.9
		c2.4-0.2,4.6-0.7,6.8-1.5c1-0.3,1.8-0.8,2.4-1.7c0.4-0.7,1.3-0.9,1.9-0.4c1.3,1,2.9,1.5,4.3,2.2c4.1,1.9,8.2,4,12.3,5.9
		c3.7,1.8,7,4,10.1,6.8c0.4,0.4,0.9,0.8,1,1.4c2.4,2.3,4.3,4.9,6.2,7.6c0.5,0.2,0.6,0.7,0.7,1.1c0.5,2.1,1.5,4,2.6,5.7
		c3.5,7.3,5.9,15.1,7.7,22.9c0.3,1.3,0.6,2.6,0.5,3.9c-0.8,5-3,8.9-8,10.8c-1.6,0.6-3.1,1.7-4.9,1.6c-1-1.2-2.1-1-3.4-0.7
		c-1.9,0.5-3.9,0.8-5.9,1.1c-1.7,0.2-2,0-1.8-1.7c0.6-4.6,1.1-9.2,1.8-13.9c0.9-6.4-0.2-12.6-1.9-18.8c-0.1-0.3-0.2-0.7-0.7-0.8
		c-0.3,0.6,0,1.2,0.2,1.8c1.2,4.6,2.2,9.3,1.9,14.1c-0.2,3.7-0.7,7.3-1.2,10.9c-0.3,2.4-0.6,4.8-0.9,7.3c-0.1,1.2-0.7,1.7-1.8,1.9
		c-8.9,2-17.9,3.7-26.9,5.3c-7.3,1.3-14.7,2.3-22.2,3c-1.2,0.1-1.8-0.3-2.2-1.5c-2.4-7.6-4.9-15-7.4-22.6c-1.2-3.6-2.4-7.1-3.6-10.7
		c-0.1-0.4-0.2-0.9-0.8-1.1c-0.3,0.7,0.1,1.3,0.3,1.9c3.4,9.8,6.5,19.8,9.9,29.6c0.4,1.1,0.7,2.3,1,3.4c0.6,1.6,0.9,1.9,2.7,1.7
		c2.7-0.2,5.3-0.6,7.9-0.9c16.2-2,32.1-5.5,48-8.7c0.4-0.1,0.9-0.2,1.3-0.3c1-0.2,1.6,0.2,2,1.1c2.7,6.4,5.6,12.7,7.9,19.2
		c0.6,1.7,0.5,1.9-1.1,2.6c-1.8,0.7-3.5,1.8-5.2,2.7c2.1-0.8,4.3-1.7,6.4-2.4c1.5-0.5,0.9-1.6,1-2.6c0.1-0.4,0.4-0.7,0.8-0.9
		c5-2.4,9.4-5.8,14.7-7.8c0.5-0.2,1-0.6,1.7-0.3c0.6,0.4,0.5,1.1,0.7,1.7c0.6,1.7,1.4,2.2,3.2,2c0.5-0.1,1-0.2,1.4,0.2
		c-0.4,2.8-1.5,5.3-3,7.5c-3.1,4.7-7.4,7.9-13,9.1c-6.1,1.3-11.4-0.1-15.4-5.1c-0.4-0.5-0.8-0.4-1.3-0.2c-1.8,0.9-3.6,1.7-5.3,2.5
		c-1.3,1-2.9,1.5-4.3,2.2c-8.8,4.1-17.6,8.1-27,10.9c-2.2,0.7-4.4,1.4-6.7,1.7c-2.3,0.1-4.4,0.7-6.6,1.1c-5.3,0.9-10.7,1.1-16,0.9
		c-2.8-0.1-5.6-0.6-8.4-1.4c-0.6-0.2-1.2-0.4-1.8-0.4c-0.6,0.1-1.1-0.1-1.6-0.3c-6.1-2.3-11.1-6.1-14.9-11.5
		C47.1,198.4,46.6,197.7,46.4,196.9z"/>
	<path class="st2" d="M140.2,112.4c-3.2-3.2-6.8-5.7-10.8-7.6c-0.2-0.1-0.3-0.3-0.4-0.5c-0.2-0.5,0-0.9,0.2-1.3
		c2.9-6.5,3.3-13.3,2.8-20.3c-0.3-4.8-1.5-9.4-2.6-14.1c-0.2-1-0.4-2-0.1-3c0.1-0.4,0.2-0.8,0.3-1.2c0.2-1,0.1-2.1,0.1-3.1
		c0-4.8,0.1-9.5-0.1-14.3c-0.1-0.3-0.2-0.6-0.3-0.9c-0.2-4.3-0.4-8.6,0.2-13c-0.9,0.6-1,0.8-1.3,3.1c-0.1,0.4-0.2,0.7-0.4,1.1
		c-0.1,0.2-0.2,0.4-0.4,0.6c-2.7,3.4-6.5,4.8-10.7,5.4c-2.7,0.4-5.4,0.4-8.1,0.3c-0.6,0-1.3,0.1-1.8-0.5c-0.1-0.7,0.4-1.1,0.8-1.4
		c3.8-3.3,5.1-7.7,5.4-12.6c0-0.2,0-0.4,0-0.5c-0.1-0.3,0-0.7-0.4-0.7c-0.4,0-0.4,0.4-0.4,0.7c-0.1,1.6-0.3,3.2-0.7,4.8
		c-0.8,3.4-2.6,6.2-5.5,8.3c-0.7,0.5-1.1,1.3-1.8,1.8c-3.5,0.3-7.1,0.1-10.7,0.1c-0.3,0-0.5-0.1-0.8-0.2c-0.7-0.7,0-1,0.4-1.4
		c1.8-1.6,3.3-3.4,4.6-5.4c1.7-2.7,2.4-5.7,3-8.8c0.1-0.3,0.1-0.8-0.3-0.9c-0.5-0.1-0.5,0.4-0.6,0.7c-0.3,1.7-0.8,3.4-1.4,5.1
		c-2,5.6-6,9.4-11.4,11.8c-0.8,0.4-1.9,0.5-1.8,1.8c-0.5,3.5-1.4,7-2.6,10.4c-0.2,0.5-0.4,1.1-1,1.1c-0.7,0.1-0.9-0.6-1.2-1.1
		c-1.7-3.1-4.3-5.1-7.8-6c-3.6-0.9-7.3,0.7-9.1,4c-3,5.4-1.2,13.1,3.9,16.3c1.4,0.9,3,1.2,4.5,1.8c0.2,0.1,0.2,0.3,0.3,0.5
		c1.2,3.7,3.6,6.3,7.5,7.1c0.1,0.1,0.2,0.2,0.3,0.4c0.2,3.9,0.7,7.7,0.1,11.6c-0.1,0.7-0.2,1.3-0.9,1.7c-0.8,0-1.2,0.6-1.2,1.1
		c-0.2,1.6-1.4,2.4-2.7,2.6c-2.8,0.6-5.5,1.4-8.1,2.4c-2.8,1-5.5,2.2-8.2,3.4c-4.3,1.9-8.4,4.2-12.3,6.8c-1.9,1.3-3.7,2.7-5.3,4.4
		c-1.5-1.9-2.3-4.2-2.9-6.5C35.7,97.7,38.1,88,43.6,79c2.4-3.9,5.2-7.7,7-11.9c2.1-4.7,3.2-9.7,4.1-14.7c1.4-7.4,2.7-14.9,6.5-21.5
		c5-8.6,11.9-14.8,21.5-17.7c5.6-1.7,11.3-2.1,17.1-1.8c7.1,0.3,13.9,1.5,20.2,5.1c7.1,4.1,11.9,9.9,13.9,17.9
		c1.1,4.2,1.4,8.5,1.6,12.8c0.4,6.8,0.4,13.7,1.7,20.5c0.9,4.8,2.4,9.5,4,14.1c2.1,5.9,3.4,12,2.9,18.3c-0.3,3.9-1.4,7.7-3.4,11.1
		C140.7,111.5,140.5,111.9,140.2,112.4z"/>
	<path class="st3" d="M171.8,96.4c11.6-5.1,23.3-10.1,34.9-15.2c7.6-3.3,15.2-6.5,22.8-9.7c1.2-0.5,2.5-0.9,3.8-1.2
		c0.1,0.3-0.1,0.5-0.3,0.7c-3,1.8-4.7,4.8-5.9,7.9c-2.6,6.2-3.8,12.8-4.7,19.5c-0.7,5.6-0.7,11.3-0.5,16.9c0.2,5,0.9,9.9,1.8,14.8
		c0.6,3.4,1.5,6.7,2.6,10c1.4,4,3.2,7.8,6,11c0.2,0.3,0.7,0.5,0.5,1c-2.3-0.4-4.4-1.5-6.6-2.3c-13.4-5-26.8-10.1-40.2-15.1
		c-2.9-1.1-5.9-2.2-8.8-3.3c-1.8-0.1-3.5-0.9-5.1-1.6c-0.7-0.3-1-1.2-1.2-1.9c-1.2-3.8-2.1-7.6-2.5-11.6c-0.2-1.7-0.2-3.3-0.2-5
		c-0.2-4.4,0.4-8.6,2-12.7C170.5,97.8,170.8,96.9,171.8,96.4z"/>
	<path class="st5" d="M171.8,96.4c-1.9,2.7-2.4,6-3,9.2c-0.3,1.9-0.2,3.9-0.3,5.8c-0.3,2.2,0,4.4,0.3,6.6c0.6,3.7,1.3,7.4,2.7,10.9
		c0.4,1-0.3,1-0.9,0.9c-2.8-0.2-5.5,0-8.3-0.1c-2.5,0.1-5.1,0-7.5-0.3c-2-0.3-4-0.6-5.2-2.5c-1.7-2-2.4-4.4-3.1-6.9
		c-1.1-5-1.3-10,0.3-14.9c1.4-4.6,4.8-7.3,9.7-7.6C161.5,97.2,166.6,96.6,171.8,96.4z"/>
	<path class="st6" d="M177,142.3c1.8-0.6,3.6-1.1,5.5-0.8c2.6,0.3,4.2,1.9,5.3,4.1c1.2,2.4,1.6,5,1.7,7.7c0.1,3.9,0,7.8-1,11.7
		c-1.4,5.2-4.9,8.4-9.6,10.5c-0.7,0.3-1.5,0.8-2.3,0.6c-0.7-0.7-0.4-1.5-0.4-2.3c0-0.7-0.3-1.1-1.1-1c-1.6,0.2-2.9-0.5-3.9-1.7
		c-1-1.6-0.8-2.5,0.8-3.3c2.9-1.5,5.9-1.8,9-0.6c0.2,0.1,0.4,0.2,0.6,0.2c0.2,0,0.4,0.1,0.5-0.1c0.2-0.3,0-0.4-0.2-0.6
		c-0.5-0.3-1.1-0.5-1.6-0.6c-3-0.7-5.8-0.2-8.6,1c-0.8,0.3-1.5,0.5-2.3,0c-1.8-1.8-1.6-3.6,0.5-5.1c4.4-2.6,9.3-3.3,14.4-3.2
		c-1.1-0.8-2.4-0.8-3.6-0.7c-3.7,0.3-7.2,1.2-10.5,2.9c-0.9,0.5-1.8,0.8-2.6,0c-0.9-0.8-1.1-1.9-0.8-3c0.4-1.3,1.3-2.1,2.3-2.9
		c0.6-0.5,1.3-0.9,1.9-1.3c0.8-0.4,1.6-0.7,2.3-1.1c0.1-0.1,0.2-0.1,0.4-0.2c3-1.1,6-2.2,9.3-2.2c0.3,0,0.7,0,0.7-0.4
		c0-0.5-0.5-0.5-0.8-0.4c-0.9,0.1-1.8,0.1-2.7,0.3c-2.5,0.5-4.9,1.3-7.2,2.3c-0.1,0.1-0.2,0.1-0.4,0.2c-1.4,0.4-2.5,1.3-3.8,1.9
		c-1,0.4-1.5-0.2-1.8-0.9c-0.5-1.1-0.4-2.2,0-3.3c0.8-2,2.3-3.4,4-4.6c1.4-0.9,2.7-1.7,4.2-2.4C175.7,142.4,176.3,142.2,177,142.3z"
		/>
	<path class="st7" d="M232.8,152.2c-3.9-3.9-6-8.8-7.6-14c-3.4-11.3-4.4-22.9-3.8-34.7c0.4-7.9,1.8-15.8,4.6-23.3
		c1.1-2.9,2.5-5.6,4.6-7.9c0.8-0.8,1.7-1.3,2.6-1.9c4-1.3,7.4,0.6,10,4.2c2.9,3.9,4.3,8.5,5.5,13c1.5,5.5,2.3,11,2.8,16.7
		c0.5,5.6,0.6,11.2,0.2,16.8c-0.6,8.6-1.9,17-5.4,25c-0.7,1.5-1.5,3-2.5,4.3C241.3,153.6,237.6,155,232.8,152.2z"/>
	<path class="st8" d="M171.2,170.8c1.3,1.1,2.6,2,4.4,1.4c0.5-0.2,0.8,0,0.8,0.7c0,1,0,2.1,0,3.1c0.2,2.7-0.9,4.7-3.3,5.9
		c-0.1,0-0.3,0-0.4,0c-3.5,0.5-4,0.1-4.8-3.3c0-0.2-0.1-0.3-0.2-0.5c-0.5-0.6-0.3-1.3-0.2-1.9c0.2-1.1,0.1-2.1-0.5-3.1
		c-0.7-1.2-0.4-2.5,0.9-3.7c0.6-0.6,0.7-1,0-1.6c-1.4-1.1-1.9-2.6-1.3-4.4c0.2-0.6,0.1-1.1-0.3-1.6c-1.7-1.9-1.8-3.7-0.3-5.9
		c0.3-0.4,0.6-0.8,0.1-1.3c-2-2.4-1-6.3,1-8c1.1-0.9,1.5-2,1.3-3.3c-0.2-1.5-0.9-2.1-2.4-1.6c-0.5,0.2-1,0.5-1.5,0.5
		c-0.7-0.4-0.2-0.7,0.1-1c1.9-1.5,3.9-1,4.8,1.3c0.6,1.5,1.7,1.9,3.1,1.1c0.5-0.3,0.9-0.6,1.4-0.8c1.2-0.4,2.1-1.1,2.6-2.3
		c0.1,0,0.3,0,0.4,0.1c0,0.5,0.1,1.1,0.1,1.6c-2.3,0.9-4.5,2.1-6.5,3.6c-1.5,1.1-2.8,2.5-3.4,4.4c-0.3,1.1-0.1,2,0.4,3
		c0.3,0.5,0.7,0.8,1.3,0.4c1.4-0.5,2.5-1.4,3.9-1.9l0,0c2.5-0.9,5-1.9,7.6-2.4c1.1-0.2,2.1-0.3,3.2-0.3c0.3,0,0.7,0.1,0.7,0.5
		c0,0.4-0.3,0.5-0.6,0.6c-0.7,0.1-1.4,0.1-2,0.2c-2.8,0.3-5.5,1.1-8,2.3l0,0c-0.8,0.2-1.5,0.7-2.2,1c-1.2,0.8-2.5,1.5-3.4,2.6
		c-0.9,1-1.2,2.2-0.9,3.5c0.4,1.3,1.4,1.8,2.6,1.2c2.6-1.3,5.2-2.2,8-2.8c2-0.4,3.9-0.5,5.9-0.2c0.4,0.1,1.1,0,1.1,0.6
		c0,0.7-0.7,0.4-1.1,0.4c-4.4-0.3-8.6,0.6-12.6,2.6c-0.4,0.2-0.8,0.3-1,0.7c-1.9,1.6-2,2.9-0.5,4.6c0.6,0.8,1.4,0.4,2.1,0.1
		c2.9-1.2,5.9-1.8,9.1-0.9c0.6,0.2,1.1,0.4,1.6,0.7c0.2,0.2,0.5,0.4,0.3,0.8c-0.2,0.5-0.7,0.2-1,0.1c-1.6-0.9-3.2-1-5-0.9
		c-1.8,0-3.4,0.5-4.9,1.4C170.3,168.8,170.2,169.6,171.2,170.8z"/>
	<path class="st9" d="M176.9,140.7c-0.1,0-0.1,0-0.2,0c-0.7-0.9-0.4-2-0.4-3c0-1.1-0.4-1.6-1.5-1.9c-3.3-0.8-6.6-1.6-9.9-2.1
		c-1-0.2-1.8-0.2-1.8,1.2c0,0.3,0,0.9-0.7,0.6c-0.3-2-0.9-4.1-0.2-6.1c3,0,6.1-0.1,9.3,0.1c-1.3-3-1.9-6.1-2.5-9.1
		c-0.4-2.1-0.8-4.1-0.7-6.3c0-0.6,0.1-1.2-0.2-1.7c-0.1-0.4-0.3-0.8,0.4-0.9c0,5.5,1.1,10.9,2.7,16.2c0.4,1.3,1,2.3,2.5,2.6
		c1.2,0.3,2.4,0.9,3.5,1.3C177.3,134.6,177,137.6,176.9,140.7z"/>
	<path class="st10" d="M107.3,42.8c0,0.3,0.2,0.4,0.4,0.4c4.2,0,8.5,0.3,12.6-1.1c2.8-0.9,5.3-2.3,7.2-4.6c0.4,0.3,0.4,0.8,0.4,1.3
		c0,1.7,0.1,3.3,0.2,5c0.3,6.5,0.5,13,0.3,19.5c-0.1,3.9-0.5,7.8-1.2,11.7c0,2.2-0.9,4-1.8,5.9c-1.2,2.4-2.7,4.6-4.7,6.5
		c-0.9,0.9-1.7,1.8-3,2.2c-1.8,0.6-3.5,1.6-5.4,2.1c-5.8,1.3-11.2,0.3-16.5-2.2c-0.6-0.3-1.1-0.6-1.7-0.7c-0.7-0.1-1.2-0.6-1.8-0.9
		c-2.3-1.7-4.6-3.3-6.3-5.7c-0.2-0.3-0.4-0.7-0.8-0.6c-0.5,0.3-0.3,0.8-0.1,1.2c0.8,2.2,2.1,4.1,3.7,5.8c5.1,5.5,11.4,8.5,18.8,9.4
		c0.4,0,0.7,0,1,0.3c-1.7,1-3.7,1.3-5.6,1.6c-3.8,0.5-7.6,0.4-11.4-0.5c-4.3-1-8.5-2.6-12-5.5c0.8-1.9,0.8-3.9,0.8-5.8
		c0-2.6-0.1-5.1-0.2-7.7c-0.4-0.5-0.4-1-0.4-1.5c0-1.4-0.1-2.9,0-4.3c0-0.9-0.1-1.3-1.1-1.2c-1.6,0.1-3.1,0-4.7,0
		c-0.6,0-1.3,0-1.7-0.6c-5.3-0.7-9.1-4.6-10-10.2c-0.6-3.8,0-7.2,2.7-10.1c3.2-3.4,8.5-3.5,12.6-0.2c1.5,1.2,2.9,2.6,3.7,4.4
		c0.1,0.3,0.2,0.8,0.7,0.7c0.4,0,0.5-0.4,0.7-0.8c0.9-2.4,1.7-4.8,2.1-7.3c0.2-1.1,0.8-2.1,0.6-3.3c2.5-0.6,4.7-1.8,6.8-3.2
		c0.3-0.2,0.5-0.4,0.9-0.2c0.3,0.3,0.7,0.4,1.1,0.4c3.6,0,7.1,0,10.7,0C105.6,43.1,106.4,42.7,107.3,42.8z"/>
	<path class="st11" d="M164.5,142.1c0.1,0,0.2-0.1,0.2-0.1c1-0.5,2.1-1.4,3.2-0.5c1.3,1,0.9,2.5,0.8,3.8c-0.1,0.8-0.9,1.2-1.5,1.7
		c-1.6,1.7-2.2,3.7-1.8,5.9c0.1,0.6,0.3,1.2,0.8,1.5c0.8,0.6,0.5,1.1,0,1.7c-1.7,2.2-1.4,4.2,0.7,6c0.3,0.2,0.4,0.3,0.2,0.7
		c-1.1,2.7-0.5,4.2,2.1,5.6c-0.8,1-2,1.6-2.3,2.9c-0.1,0.4-0.3,0.8,0,1.2c1.3,1.4,0.9,3.1,0.7,4.8c0,0.3-0.1,0.6-0.1,0.9
		c-4.4,1.3-8.2,4-12.2,6.1c-1.6,0.8-3.1,1.7-4.7,2.6c-0.5-0.1-0.5-0.6-0.8-0.9c-2.4-6.1-5.1-12-7.4-18.1c-0.2-0.6-0.6-1.1-0.1-1.8
		c0.9-0.4,1.7-0.4,2.6-0.2c2.4-0.6,4.5-1.7,6.7-2.7c3.3-1.6,4.6-4.7,5.6-7.9c0.2-0.5,0.3-1,0.4-1.6c0.2-4.3,2.1-7.7,5-10.7
		C163.3,142.6,163.8,142.1,164.5,142.1z"/>
	<path class="st12" d="M108.4,98.4c-10-0.8-17.9-5.1-23.2-13.9c-0.5-0.8-0.8-1.6-0.9-2.5c0-0.4,0-0.8,0.5-1c0.5-0.2,0.8,0.1,1,0.5
		c1.6,2.6,4.1,4.4,6.5,6.2c1.4,1.3,3.3,1.8,5,2.6c4.8,2,9.8,2.8,14.9,1.5c3.1-0.8,6.1-1.8,8.3-4.5c1.9-1.9,3.3-4,4.6-6.3
		c1.5-2.3,1.9-5,2.3-7.7c1.2-7.4,1.2-14.8,1-22.2c-0.1-4.9-0.7-9.7-0.3-14.6c-0.2-1.2,0.3-2.2,0.6-3.3c0.1-0.5,0.6-0.8,1.1-0.7
		c0.5,0.1,0.6,0.6,0.5,1c-1.1,4.2-0.3,8.4-0.5,12.7c0.2,0.7,0.3,1.5,0.3,2.3c0,4.9,0,9.8,0,14.7c0,0.9-0.1,1.7-0.3,2.5
		c-0.1,2.6,0.7,5,1.3,7.4c1.4,6.1,2.1,12.3,1.5,18.6c-0.4,4-1.2,7.8-2.8,11.4c-0.2,0.4-0.4,0.8-0.6,1.2c-0.3,0.4-0.5,0.1-0.8,0
		c-4.7-2.5-9.6-4.6-14.4-7c-1.7-0.8-2.8-1.7-3.8,0.6C109.9,98.2,109,98.2,108.4,98.4z"/>
	<path class="st13" d="M145.1,165.9c-0.8,0.4-1.7,0.4-2.6,0.4c-0.3,0.3-0.2,0.5-0.1,0.8c2.2,5.4,4.5,10.8,6.7,16.2
		c0.4,0.9,0.6,1.9,1.2,2.7c0.2,0.3,0.3,0.6,0.5,0.9c0.7,2.5,0.7,2.5-1.7,3.4c-2.3,0.9-4.6,1.9-7,2.6c-0.1-0.6,0.4-0.8,0.7-0.9
		c2-1,3.9-2.1,5.9-3c0.9-0.4,1-0.7,0.6-1.6c-2.5-6.7-5.5-13.3-8.2-19.9c-0.3-0.8-0.8-0.7-1.4-0.6c-6.3,1.3-12.5,2.6-18.8,3.9
		c-8.7,1.8-17.5,3.4-26.4,4.7c-4.4,0.6-8.8,1.3-13.3,1.5c-1,0-1.6-0.3-1.9-1.3C75.7,164,71.9,152.5,68,141c0,0,0-0.1,0-0.1
		c0-0.6-0.7-1.5,0.3-1.8c0.9-0.3,1,0.7,1.2,1.3c3.7,11.3,7.5,22.5,11.1,33.8c0.3,0.9,0.5,1.1,1.5,1c9.3-0.8,18.5-2.3,27.7-4
		c7.1-1.3,14.1-2.8,21.2-4.2c1.1-0.2,1.7-0.5,1.9-1.9c0.6-5.8,1.6-11.6,2-17.5c0.4-5.1-0.7-10.1-2-15c-0.1-0.3-0.1-0.5-0.2-0.8
		c-0.2-0.5-0.3-1,0.4-1.2c0.7-0.2,1,0.2,1.2,0.8c0.5,2.2,1.1,4.5,1.6,6.7c1.4,6.4,0.5,12.9-0.4,19.3c-0.3,2.6-0.6,5.2-1,7.8
		c-0.2,1.2,0.4,1.1,1.1,0.9c2.3-0.4,4.5-0.8,6.8-1.3C143.4,164.6,144.6,164.2,145.1,165.9z"/>
	<path class="st14" d="M163.1,143.1c-1.6,1.4-2.7,3.2-3.6,5.1c-0.8,1.8-1.5,3.5-1.8,5.5c-0.5-4.9-2-9.6-3.4-14.2
		c-1.3-4.3-2.9-8.5-4.8-12.5c2.6,2.1,5.8,2.2,8.9,2.4c1.3,0.1,2.5,0,3.8,0c0.1,2.1,0.3,4.1,0.4,6.2c0.1,0.1,0.2,0.1,0.2,0.2
		C163.3,138.2,163.8,140.6,163.1,143.1z"/>
	<path class="st15" d="M98.1,109.4c-6.5-0.1-13.3-2.2-19.5-6.5c-0.5-0.4-1-0.8-1.4-1.3c-0.3-0.4-0.4-0.9,0-1.2
		c0.4-0.3,0.7-0.1,1.1,0.2c6.1,5.1,13.3,7.2,21.2,7.2c4.3,0,8.4-1.1,11.8-4.1c0.6-0.5,1-1.1,1.6-1.7c0.4-0.4,0.7-1,1.3-0.5
		c0.6,0.5,0.1,1-0.1,1.4c-0.5,0.9-1.2,1.6-2,2.2C108.2,108.1,103.8,109.4,98.1,109.4z"/>
	<path class="st17" d="M92.9,42.9c-1.9,1.3-3.8,2.5-6,3.2c-0.5,0.2-1.1,0.5-1.7,0.1c-0.2-0.9,0.2-1.4,1.1-1.7
		c5.2-2.1,9.3-5.3,11.7-10.5c0.9-2.1,1.5-4.2,1.9-6.4c0.1-0.7,0.1-1.5,1-1.4c0.8,0.1,0.7,0.9,0.6,1.6C100.6,33.9,97.8,39,92.9,42.9z
		"/>
	<path class="st18" d="M79.8,80.4c-2.8,0-4.4-1.8-6-3.7c-0.8-1-1.5-2-1.6-3.3c2.4-0.3,4.8-0.1,7.1-0.1c0.4,0,0.6,0.2,0.6,0.6
		C79.8,76,80.1,78.2,79.8,80.4z"/>
	<path class="st19" d="M107.3,42.8c-0.9,0.2-1.6,1.1-2.6,0.4c-0.1-0.6,0.3-1,0.8-1.3c4.7-2.9,6.2-7.4,6.6-12.6c0-0.2,0-0.4,0-0.5
		c0-0.7,0-1.5,0.9-1.5c0.9,0,0.8,0.9,0.8,1.6C113.5,34.4,111.9,39.3,107.3,42.8z"/>
	<path class="st20" d="M128.1,36.4c0.2,0.2,0.3,0.5,0.2,0.7c-0.2,3.6,0.4,7.1,0.3,10.7c-0.1,1.7,0.2,3.4,0.3,5.1
		c0.2,4.7,0,9.5-0.3,14.2c-0.3,4.7-1,9.3-3.1,13.6c0,0.1-0.1,0.2-0.1,0.2c0,0-0.1-0.1-0.2-0.1c0.8-1.8,1.5-3.7,1.9-5.7
		c0.1-1.9,0.7-3.8,0.8-5.7c0.2-2.5,0.4-5,0.5-7.5c0-6.1,0-12.3-0.3-18.4c-0.1-2.2-0.3-4.3-0.2-6.5C127.9,36.9,128,36.7,128.1,36.4z"
		/>
	<path class="st10" d="M127.8,37.2c0.6,10.5,1,21,0.2,31.6c-0.2,2.2-0.5,4.4-1.1,6.5c-0.5-1.3,0.4-2.5,0.4-3.8
		c0-1.2,0.4-2.5,0.5-3.7c0.4-5.9,0.4-11.8,0.2-17.7c-0.1-4.2-0.5-8.3-0.5-12.5C127.6,37.4,127.7,37.3,127.8,37.2z"/>
	<path class="st21" d="M129.7,65.6c0-6.5,0-13,0-19.5c0.1,0.3,0.2,0.5,0.2,0.8c0.2,0.2,0.2,0.5,0.2,0.8c0,5.5,0,10.9,0,16.4
		c0,0.2,0,0.5-0.1,0.7C129.9,65,129.8,65.3,129.7,65.6z"/>
	<path class="st22" d="M130,64.6c0-5.9,0-11.9,0-17.8c0.4,0.2,0.3,0.5,0.3,0.8c0,5.4,0,10.7,0,16.1C130.2,64.1,130.3,64.4,130,64.6z
		"/>
	<path class="st23" d="M79.8,80.4c0-2,0-4,0-6c0-0.8-0.3-1.1-1.1-1.1c-2.2,0-4.3,0-6.5,0c0-0.2,0-0.3-0.1-0.5
		c2.6,0.4,5.2,0.1,7.9,0.1c0,2.4,0,4.9,0,7.4C79.9,80.4,79.8,80.4,79.8,80.4z"/>
	<path class="st24" d="M169.9,162.1c-0.2-0.7,0.5-0.6,0.7-0.8c4.2-2,8.7-3.2,13.4-2.6c0.1,0,0.2-0.1,0.3-0.1
		c-0.3-0.5-0.8-0.5-1.3-0.5c-4.6-0.4-8.8,0.8-12.9,2.7c-0.9,0.4-1.8,1.2-2.9,0.1c-0.7-0.8-1-2.3-0.5-3.5c0.9-1.9,2.6-2.9,4.4-3.8
		c0.2,0.1,0.2,0.2,0,0.3c-1.2,0.8-2.5,1.5-3.4,2.6c-0.7,0.9-1.2,1.8-0.9,3c0.4,1.5,1.3,1.9,2.7,1.2c3.4-1.6,7-2.8,10.8-3
		c1.1-0.1,2.2,0,3.2,0.2c0.5,0.1,1.2,0.1,1.1,0.9c-0.1,0.8-0.7,0.5-1.2,0.5c-4-0.3-7.8,0.3-11.5,1.9
		C171.4,161.4,170.6,161.8,169.9,162.1z"/>
	<path class="st25" d="M171.2,170.8c-1-0.5-1.2-1.7-0.3-2.5c0.9-0.8,2-1.3,3.1-1.5c2.4-0.5,4.8-0.7,7.1,0.4c0.3,0.2,0.7,0.2,1.2,0.3
		c-0.4-0.9-1-1.1-1.7-1.3c-3.1-0.9-6.1-0.4-9.1,0.8c-0.7,0.3-1.3,0.4-2,0.3c-0.2,0-0.6-0.1-0.3-0.5c0.7,0.5,1.3,0.2,2,0
		c2.8-1.2,5.7-1.7,8.7-1c0.5,0.1,1,0.2,1.4,0.4c0.6,0.3,1.6,0.6,1.1,1.5c-0.4,0.7-1.1,0.2-1.7-0.1c-3.2-1.4-6.3-0.9-9.3,0.7
		C170.4,168.9,170.5,169.8,171.2,170.8z"/>
	<path class="st26" d="M173.4,152.7c1.4-1.2,3.2-1.3,4.8-1.9c1.8-0.7,3.8-0.4,5.6-1.1c-1.6-0.4-3.2-0.2-4.9,0.2
		c-2.2,0.5-4.2,1.6-6.4,2c3.3-1.7,6.9-2.7,10.6-2.9c0.5,0,1,0,1.1,0.7c0,0.7-0.4,0.8-0.9,0.8c-3.2-0.1-6.2,1-9.1,2
		C173.9,152.6,173.7,152.6,173.4,152.7z"/>
	<path class="st26" d="M172.6,151.8c-1.2,0.8-2.4,1.7-3.9,1.9C169.9,152.9,171.1,152.2,172.6,151.8z"/>
	<path class="st26" d="M171.3,153.8c0-0.1,0-0.2,0-0.3c0.7-0.3,1.3-0.9,2.2-0.8C172.8,153.2,172,153.5,171.3,153.8z"/>
	<path class="st27" d="M223.6,100.6c-0.8-1.3-0.1-2.7,0.1-3.9c0.7-5.8,2-11.4,4.1-16.9c0.8-2.3,2.1-4.2,3.6-6.1
		c2.2-2.8,6.4-2.2,8.7-0.2c2.6,2.2,3.9,5.3,5.1,8.3c1.5,3.8,2.7,7.7,3.4,11.8c0.5,3,0.9,5.9,1.3,8.9c0.8,5.3,0.5,10.7,0.5,16.1
		c0,3.8-0.5,7.6-1.1,11.4c-0.8,5.1-2,10.1-4,14.9c-1,2.3-2.3,4.5-4.5,6c-2.2,1.4-4.3,1.4-6.6,0.2c-2.7-1.5-4-4.2-5.2-6.8
		c-2-4.3-3.3-8.8-4.2-13.3c-0.6-2.6-0.8-5.3-1.2-8c1-0.6,2.2-0.5,3.2-0.8c3-0.7,5.1-2.4,6.4-5.1c0.8-1.8,1.6-3.6,1.4-5.7
		c-0.5-4.2-2.2-7.6-6.2-9.4c-1.1-0.5-2.3-0.7-3.5-0.9C224.5,100.8,224,100.9,223.6,100.6z"/>
	<path class="st28" d="M223.6,100.6c3.2-0.1,6,0.9,8.3,3.2c1.3,1.3,2,3,2.6,4.8c0.5,1.5,0.5,2.9,0.5,4.4c-0.1,3.6-3.5,8.3-6.9,9.3
		c-1.4,0.4-2.9,1-4.5,0.6c-0.8-5.8-0.6-11.7-0.6-17.5C223,103.7,222.9,102.1,223.6,100.6z"/>
	<path class="st29" d="M163.1,143.1c-0.2-2.5-0.4-5-0.5-7.6c0.1-0.1,0.2-0.2,0.2-0.3c0.3-2.1,0.3-2.1,2.3-1.8
		c3.6,0.5,7,1.5,10.5,2.2c0.8,0.2,1.1,0.6,1,1.4c-0.1,1.2,0,2.4,0,3.7c-0.1,1.4-1.1,1.9-2.3,2.3c-0.5,0.2-1.1,0.5-1.5,0.9
		c-1.2,1.4-2.4,0.6-3.3-0.1c-0.4-0.3-0.5-1.2-0.7-1.9c-0.3-0.9-1-1.3-1.9-1.1c-1,0.1-2,0.3-2.5,1.4
		C164,142.4,163.6,142.8,163.1,143.1z"/>
	<path class="st30" d="M112.8,69.8c0.5,0,1.3,0.1,2.2-0.2c1.6-0.5,2-1.2,1.3-2.7c-1.4-2.9-3-5.7-4.5-8.6c-0.4-0.7-0.8-1.3-0.9-2.1
		c-0.1-0.4-0.1-0.9,0.4-1c0.4-0.1,0.8,0.1,1,0.5c1.8,3.6,4,6.9,5.5,10.6c1.2,2.9-0.1,4.8-3.6,5.1c-1,0.1-2.1,0.1-3.1,0
		c-0.6,0-1.3-0.2-1.2-0.9c0-0.7,0.6-0.7,1.2-0.7C111.6,69.9,112,69.8,112.8,69.8z"/>
	<path class="st31" d="M102.8,77.6c-1.2-0.9-2.4-1.8-3.3-3.1c-0.3-0.5-0.8-1-0.1-1.5c0.6-0.5,1,0.2,1.3,0.5c1.4,1.5,3,2.8,4.9,3.6
		c1.8,0.5,3.5,1.3,5.4,1.3c0.9,0,1.7,0,2.5-0.1c0.5-0.1,1.1-0.3,1.5,0.2l-0.1,0c0.6,0.6,0.2,1.1-0.3,1.4c-0.6,0.4-1.3,0.6-2.1,0.6
		C109.1,80.4,105.7,79.8,102.8,77.6z"/>
	<path class="st32" d="M117.5,57c0-2.2,1-3.6,2.5-3.5c1.4,0.1,2.6,1.9,2.4,3.8c-0.2,1.9-1.2,3.2-2.5,3.2
		C118.4,60.4,117.5,59,117.5,57z"/>
	<path class="st33" d="M104.7,57.9c0,0,0,0.2,0,0.4c-0.2,1.7-1.4,2.9-2.6,2.9c-1.3,0-2.2-1.3-2.3-3.1c0-1,0.1-2,0.7-2.8
		c1-1.5,2.8-1.4,3.6,0.1C104.5,56.1,104.8,56.8,104.7,57.9z"/>
	<path class="st34" d="M71.4,57.1c1.7,0.4,3.2,1.4,4.5,2.6c1.4,1.3,2.5,2.9,3.3,4.7c0.2,0.5,0.5,1.1-0.2,1.4
		C78.4,66,78,65.6,77.7,65c-0.7-1.5-1.6-2.8-2.7-4c-1.1-1.1-2.4-2-3.9-2.5c-0.4-0.2-0.8-0.3-0.7-0.8C70.5,57.1,70.9,57,71.4,57.1z"
		/>
	<path class="st35" d="M106.4,47.6c0,0.1,0,0.2,0,0.3c-0.2,0.8-0.7,0.9-1.3,0.7c-2.9-0.7-5.6-0.3-8.2,1.2c-0.5,0.3-1,0.3-1.3-0.2
		c-0.4-0.5-0.1-1,0.3-1.4c0.4-0.5,1.1-0.6,1.7-0.9c0.5-0.1,1.1-0.2,1.5-0.5c2-0.8,4.1-0.6,6.1-0.2C105.6,46.6,106.3,46.8,106.4,47.6
		z"/>
	<path class="st36" d="M119.3,46.2c1.3,0.1,2.9,0.3,4.4,1c0.7,0.3,1.1,0.7,0.8,1.5c-0.3,0.7-0.9,0.5-1.5,0.2
		c-2.2-1.3-4.4-1.1-6.8-0.6c-0.5,0.1-1.1,0.6-1.4-0.2c-0.3-0.8,0.2-1.1,0.9-1.4C116.8,46.4,117.8,46.2,119.3,46.2z"/>
	<path class="st37" d="M120.5,87.2c-0.4,1.3-1.6,1.9-2.7,2.5c-4,2.5-8.4,3.2-13.1,2.7c-4.2-0.4-7.9-1.9-11.6-3.8
		c-0.4-0.2-0.8-0.4-0.9-0.9c0.5,0.3,1.1,0.6,1.6,0.8c2.2,0.9,4.3,2.1,6.6,2.6c5.6,1.4,11.2,1.5,16.4-1.5c0.3-0.2,0.5-0.3,0.9-0.3
		C118.8,88.8,119.6,87.9,120.5,87.2z"/>
	<path class="st10" d="M117.8,89.3c-2.8,1.8-5.9,2.7-9.2,2.9c-5.3,0.2-10.1-1-14.6-3.7c1.3-0.1,2.3,0.8,3.4,1.3
		c3.9,1.7,7.9,2.3,12,2c2.5-0.2,4.8-0.9,7.1-2.1C116.8,89.5,117.2,88.9,117.8,89.3z"/>
	<path class="st10" d="M97.5,47.3c-0.5,0.3-0.9,0.5-1.3,0.9c-0.4,0.3-1,0.7-0.5,1.3c0.4,0.5,0.9,0.3,1.3,0c2-1.2,4.2-1.6,6.5-1.4
		c0.6,0.1,1.2,0.2,1.9,0.3c0.5,0.1,0.9,0,1.1-0.5c0.2,1-0.5,1.2-1.2,1c-3-0.9-5.7-0.3-8.4,1.2c-0.6,0.3-1.1,0.2-1.4-0.3
		c-0.4-0.6-0.3-1.3,0.2-1.7C96.1,47.6,96.8,47.2,97.5,47.3z"/>
	<path class="st10" d="M102.8,77.6c2.5,1.5,5.2,2.4,8.1,2.8c1.1,0.1,2.1,0,3.1-0.2c0.8-0.2,1.3-0.7,0.9-1.6c1.1,0.7,0.3,1.2-0.2,1.6
		c-0.9,0.7-2,0.6-3.1,0.6c-2.8-0.1-5.4-0.8-7.8-2.1C103.5,78.3,102.9,78.2,102.8,77.6z"/>
	<path class="st10" d="M115,78.6c-1.6-0.3-3.2,0.3-4.9,0c-1.6-0.3-3.1-0.7-4.5-1.4c1.1-0.3,1.9,0.5,2.9,0.7c1.8,0.4,3.6,0.5,5.3,0.3
		C114.3,78.1,114.7,78.1,115,78.6z"/>
	<path class="st10" d="M106.4,47.6c-0.6-0.9-1.6-1-2.6-1.1c-1.6-0.1-3.2-0.1-4.8,0.3c0.7-0.5,0.7-0.5,1.3-0.6c0.5,0,1-0.2,1.5-0.1
		c1.4,0.1,2.9-0.1,4.2,0.6C106.3,46.9,106.8,47,106.4,47.6z"/>
	<path class="st38" d="M150.3,186c-0.1,0-0.1,0.1-0.2,0.1c-0.1-0.2-0.2-0.4-0.3-0.6c-2.5-6.1-5-12.1-7.5-18.2
		c-0.1-0.3-0.7-0.8,0.2-1c0.3,1.7,1.1,3.2,1.8,4.8c1.9,4.8,3.9,9.5,5.9,14.3C150.2,185.6,150.3,185.8,150.3,186z"/>
</g>
<path class="st39" d="M143,55.6l6.1,0.1h45.6c0,0-2.8,19.1-15.7,26.2c0,0,21.9-1.9,38.3-25.3c75.3,0,91.6,0,91.6,0s17.8,0,21.6-18.5
	c0.5-9.1,0.7-23.7,0.7-39.2"/>
<path class="st39" d="M27.4,0c0.4,19.8,0.8,35.9,0.8,35.9s0,14.3,16.3,18.5"/>
</svg>
