<?xml version="1.0" encoding="utf-8"?>
<!-- Generator: Adobe Illustrator 24.0.2, SVG Export Plug-In . SVG Version: 6.00 Build 0)  -->
<svg version="1.1" id="Capa_1" xmlns="http://www.w3.org/2000/svg" xmlns:xlink="http://www.w3.org/1999/xlink" x="0px" y="0px"
	 viewBox="0 0 65 51" style="enable-background:new 0 0 65 51;" xml:space="preserve">
<style type="text/css">
	.st0{fill:#1B605F;}
	.st1{fill:#F6F0E0;}
	.st2{fill:#95A49F;}
	.st3{fill:#F0A95D;}
</style>
<g>
	<path class="st0" d="M7.6,9.7c0-0.7,0-1.4,0-2c0-1.3,0.1-1.5,1.4-2c3.9-1.5,8-1.8,12.1-1C25,5.3,28.5,6.8,31.7,9
		c0.5,0.3,0.8,0.3,1.3,0c5.1-3.4,10.7-5.2,16.9-4.6c2,0.2,4,0.9,6,1.4C56.6,6,57,6.5,56.9,7.4c0,0.7,0,1.5,0,2.3c1.1,0,2.2,0,3.2,0
		c1.1,0,1.5,0.4,1.5,1.5c0,11.1,0,22.2,0,33.3c0,1-0.4,1.4-1.4,1.5c-0.2,0-0.4,0-0.6,0C41.4,46,23.2,46,5,46c-0.3,0-0.6,0-0.8,0
		c-0.8-0.1-1.2-0.5-1.2-1.3c0-0.3,0-0.6,0-0.8c0-10.8,0-21.5,0-32.3c0-1.5,0.3-1.8,1.8-1.8C5.6,9.7,6.6,9.7,7.6,9.7z M31,42.3
		c0-0.2,0.1-0.3,0.1-0.4c0-9.9,0-19.9,0-29.8c0-0.3-0.2-0.7-0.5-0.9c-1.1-0.7-2.2-1.4-3.3-2c-5.2-2.5-10.5-3.3-16.1-1.7
		c-0.7,0.2-1.1,0.5-1.1,1.4c0,9.7,0,19.5,0,29.2c0,0.3,0,0.6,0,1c3.6-1.1,7.1-1.3,10.7-0.7C24.5,39,27.8,40.4,31,42.3z M33.5,42.4
		c6.7-4,13.5-5.4,20.9-3.3c0-0.2,0.1-0.2,0.1-0.3c0-10.1,0-20.2,0-30.3c0-0.5-0.2-0.7-0.6-0.8c-1-0.2-2.1-0.6-3.1-0.7
		c-6-0.8-11.4,0.8-16.4,4c-0.6,0.4-0.9,0.8-0.9,1.5c0,9.6,0,19.2,0,28.8C33.5,41.6,33.5,41.9,33.5,42.4z M36.7,43.4
		c7.7,0,15.1,0,22.5,0c0-10.5,0-20.9,0-31.2c-0.8,0-1.4,0-2.2,0c0,0.4,0,0.8,0,1.1c0,9.1,0,18.1,0,27.2c0,1.4-0.7,1.9-2,1.4
		c-3.3-1.3-6.7-1.6-10.2-1.1C42,41.1,39.4,42,36.7,43.4z M5.4,43.5c7.5,0,14.9,0,22.5,0c-0.4-0.2-0.6-0.4-0.8-0.4
		c-5.7-2.7-11.6-3.4-17.6-1.1c-1.1,0.4-1.8-0.1-1.9-1.3c0-0.3,0-0.6,0-0.8c0-8.8,0-17.7,0-26.5c0-0.4,0-0.7,0-1.1
		c-0.8,0-1.5,0-2.2,0C5.4,22.7,5.4,33,5.4,43.5z"/>
	<path class="st1" d="M31,42.3c-3.2-2-6.5-3.3-10.1-3.9c-3.6-0.6-7.1-0.4-10.7,0.7c0-0.4,0-0.7,0-1c0-9.7,0-19.5,0-29.2
		c0-0.9,0.3-1.2,1.1-1.4c5.6-1.6,11-0.8,16.1,1.7c1.1,0.6,2.2,1.3,3.3,2c0.3,0.2,0.5,0.6,0.5,0.9c0,9.9,0,19.9,0,29.8
		C31,42,31,42.1,31,42.3z"/>
	<path class="st1" d="M33.5,42.4c0-0.5,0-0.8,0-1.1c0-9.6,0-19.2,0-28.8c0-0.7,0.2-1.2,0.9-1.5c5-3.2,10.4-4.8,16.4-4
		c1.1,0.1,2.1,0.5,3.1,0.7c0.4,0.1,0.6,0.3,0.6,0.8c0,10.1,0,20.2,0,30.3c0,0.1,0,0.1-0.1,0.3C47,37,40.2,38.4,33.5,42.4z"/>
	<path class="st2" d="M36.7,43.4c2.7-1.4,5.3-2.3,8.1-2.7c3.5-0.5,6.9-0.2,10.2,1.1c1.3,0.5,2,0,2-1.4c0-9.1,0-18.1,0-27.2
		c0-0.4,0-0.7,0-1.1c0.8,0,1.5,0,2.2,0c0,10.4,0,20.8,0,31.2C51.8,43.4,44.3,43.4,36.7,43.4z"/>
	<path class="st2" d="M5.4,43.5c0-10.4,0-20.8,0-31.2c0.7,0,1.4,0,2.2,0c0,0.4,0,0.7,0,1.1c0,8.8,0,17.7,0,26.5c0,0.3,0,0.6,0,0.8
		c0,1.2,0.8,1.7,1.9,1.3c6-2.4,11.9-1.6,17.6,1.1c0.2,0.1,0.4,0.2,0.8,0.4C20.3,43.5,12.9,43.5,5.4,43.5z"/>
</g>
<g>
	<path class="st3" d="M44.1,33c-4.3,0-7.9-4-7.9-8.9c0-4.9,3.5-8.9,7.9-8.9c4.3,0,7.9,4,7.9,8.9C52,29,48.5,33,44.1,33z M42.5,29.4
		c0.4-0.5,0.9-0.9,1.3-1.3c1.8-1.9,3.6-3.8,5.4-5.7c0.2-0.2,0.4-0.5,0.4-0.9c0-0.5-0.2-0.9-0.6-1.2c-0.4-0.2-0.9-0.1-1.2,0.2
		c-1.1,1.2-2.3,2.4-3.4,3.6c-0.6,0.6-1.2,1.2-1.8,1.9c-0.1-0.1-0.1-0.1-0.2-0.2c-0.7-0.8-1.3-1.6-2-2.4c-0.3-0.3-0.6-0.5-1-0.4
		c-0.4,0.1-0.7,0.3-0.9,0.8c-0.1,0.5,0,0.9,0.3,1.3c1.2,1.4,2.3,2.8,3.5,4.2C42.4,29.3,42.4,29.4,42.5,29.4z"/>
	<path class="st0" d="M42.5,29.4c-0.1-0.1-0.1-0.1-0.2-0.2c-1.2-1.4-2.3-2.8-3.5-4.2c-0.3-0.4-0.4-0.8-0.3-1.3
		c0.1-0.5,0.5-0.7,0.9-0.8c0.4-0.1,0.7,0.1,1,0.4c0.7,0.8,1.3,1.6,2,2.4c0.1,0.1,0.1,0.1,0.2,0.2c0.6-0.6,1.2-1.3,1.8-1.9
		c1.1-1.2,2.3-2.4,3.4-3.6c0.4-0.4,0.8-0.5,1.2-0.2c0.4,0.2,0.6,0.7,0.6,1.2c0,0.4-0.2,0.7-0.4,0.9c-1.8,1.9-3.6,3.8-5.4,5.7
		C43.3,28.5,42.9,29,42.5,29.4z"/>
</g>
</svg>
