<?xml version="1.0" encoding="utf-8"?>
<!-- Generator: Adobe Illustrator 24.0.2, SVG Export Plug-In . SVG Version: 6.00 Build 0)  -->
<svg version="1.1" id="Capa_1" xmlns="http://www.w3.org/2000/svg" xmlns:xlink="http://www.w3.org/1999/xlink" x="0px" y="0px"
	 viewBox="0 0 65 51" style="enable-background:new 0 0 65 51;" xml:space="preserve">
<style type="text/css">
	.st0{fill:#1B605F;}
	.st1{fill:#EFDBC3;}
</style>
<g>
	<path class="st0" d="M46.3,26.6c-1.5,0-2.7-1.2-2.7-2.7V7.6c0-1.5,1.2-2.7,2.7-2.7c1.5,0,2.7,1.2,2.7,2.7v16.3
		C49,25.4,47.8,26.6,46.3,26.6z"/>
</g>
<g>
	<polygon class="st1" points="16.7,19.9 32.4,5.8 48.1,21.3 48.1,46.1 16.7,46.1 	"/>
</g>
<g>
	<path class="st0" d="M48.9,48H15.6c-0.8,0-1.4-0.6-1.4-1.4V19.9c0-0.8,0.6-1.4,1.4-1.4c0.8,0,1.4,0.6,1.4,1.4v25.3h30.6V20
		c0-0.8,0.6-1.4,1.4-1.4s1.4,0.6,1.4,1.4v26.6C50.3,47.4,49.7,48,48.9,48z"/>
</g>
<g>
	<path class="st0" d="M38.2,45.5V33c0-1.6-1.3-2.9-2.9-2.9h-5.8c-1.6,0-2.9,1.3-2.9,2.9v12.5H38.2z"/>
	<path class="st0" d="M38.2,46.6H26.6c-0.6,0-1.1-0.5-1.1-1.1V33c0-2.2,1.8-4,4-4h5.8c2.2,0,4,1.8,4,4v12.5
		C39.3,46.1,38.8,46.6,38.2,46.6z M27.7,44.4h9.4V33c0-1-0.8-1.8-1.8-1.8h-5.8c-1,0-1.8,0.8-1.8,1.8V44.4z"/>
</g>
<g>
	<path class="st0" d="M53.3,25.9c-0.5,0-0.9-0.2-1.3-0.5L32.1,7.1L12.5,25.4c-0.8,0.7-2,0.7-2.7-0.1c-0.7-0.8-0.7-2,0.1-2.7
		L30.8,3.1c0.7-0.7,1.9-0.7,2.6,0l21.2,19.5c0.8,0.7,0.8,1.9,0.1,2.7C54.4,25.7,53.8,25.9,53.3,25.9z"/>
</g>
</svg>
