<?xml version="1.0" encoding="utf-8"?>
<!-- Generator: Adobe Illustrator 24.0.2, SVG Export Plug-In . SVG Version: 6.00 Build 0)  -->
<svg version="1.1" id="Capa_1" xmlns="http://www.w3.org/2000/svg" xmlns:xlink="http://www.w3.org/1999/xlink" x="0px" y="0px"
	 viewBox="0 0 65 51" style="enable-background:new 0 0 65 51;" xml:space="preserve">
<style type="text/css">
	.st0{fill:#1C5F5D;}
	.st1{fill:#80ACA2;}
</style>
<path class="st0" d="M58.2,18.4c0.3,4.2-2.2,8.1-5.5,11.5c-5.3,5.5-10.7,10.9-16,16.2c-2.3,2.2-4.5,2.5-6.7,0.6
	c-6.8-6.1-13.9-11.9-19.6-19.1c-6.5-8.2-4.2-18.8,5-23.2C20.5,1.9,27.1,3,31.5,7c0.8,0.7,1.2,1.2,2.3,0.2c4.7-4.7,10.3-5.3,16.3-2.7
	C55.7,7,58.1,11.7,58.2,18.4z"/>
<path class="st1" d="M54.6,17c0,3.8-1,6.4-3.1,8.6C45.7,31.5,40,37.3,34.3,43.1c-0.9,0.9-1.6,1.1-2.6,0.2
	c-6.5-5.9-13.4-11.4-18.8-18.5c-5.5-7.2-1.8-16.6,7.2-17.9c3.8-0.6,7.1,0.9,9.7,3.8c2.7,3,3,3,5.7-0.1c3.2-3.6,8-4.8,12.3-3.1
	C52.1,9.1,54.6,12.9,54.6,17z"/>
</svg>
