<?xml version="1.0" encoding="utf-8"?>
<!-- Generator: Adobe Illustrator 24.0.2, SVG Export Plug-In . SVG Version: 6.00 Build 0)  -->
<svg version="1.1" id="Capa_1" xmlns="http://www.w3.org/2000/svg" xmlns:xlink="http://www.w3.org/1999/xlink" x="0px" y="0px"
	 viewBox="0 0 51 51" style="enable-background:new 0 0 51 51;" xml:space="preserve">
<style type="text/css">
	.st0{fill:#F4DCB8;}
	.st1{fill:#1F5853;}
</style>
<polygon class="st0" points="30.6,30.3 43,30.3 44.3,44.8 39.4,46.4 31.8,46.1 29.7,43.9 29.7,37 "/>
<path class="st0" d="M6.9,4.3h32.8v24.3c0,0-6.6-1.2-9.7,3.4s-0.7,12.8-0.7,12.8H6.9V4.3z"/>
<g>
	<path class="st1" d="M37.7,49.2c-2.3,0.1-4.4-0.4-6.3-1.5c-0.3-0.1-0.5-0.3-0.8-0.4c-0.1,0-0.1-0.1-0.2-0.1c0,0,0,0,0,0
		c-0.1-0.1-0.2-0.1-0.3-0.2c0,0,0,0,0,0c-0.1,0-0.1-0.1-0.2-0.1c0,0,0,0,0,0c-0.1-0.1-0.1-0.1-0.2-0.1c-1.4,0-2.7,0-4.1,0
		c-0.1,0-0.2,0-0.3,0c-3,0-6.1,0-9.1,0c-0.1,0-0.2,0-0.3,0c-2.6,0-5.3,0-7.9,0c-0.5,0-1-0.2-1.5-0.4c-0.6-0.4-1-1-1.1-1.7
		c0-0.1,0-0.3,0-0.4c0-13.1,0-26.2,0-39.3C5.7,4,6.3,3.5,7.1,3C7.1,3,7.2,3,7.2,3c0,0,0,0,0,0c0.1,0,0.2,0,0.3-0.1c0,0,0,0,0,0
		c0.1,0,0.3,0,0.4,0c0.1,0,0.3,0,0.4,0c6.6,0,13.3,0,19.9,0c3.6,0,7.3,0,10.9,0c0.1,0,0.3,0,0.4,0c1,0.3,1.8,0.9,2,2
		c0,0.2,0,0.4,0,0.5c0,7.2,0,14.5,0,21.7c0,0.2-0.1,0.4,0.1,0.6c1.8,0.8,3.3,2,4.4,3.6c0.7,1,1.3,2,1.6,3.2c0.3,0.7,0.4,1.5,0.5,2.3
		c0,0,0,0.1,0,0.1c0.1,1.4,0,2.7-0.3,4.1c-0.4,1.5-1.2,2.9-2.2,4.2c0,0.1-0.1,0.1-0.1,0.2c0,0,0,0,0,0c-0.1,0.1-0.1,0.1-0.2,0.2
		c-0.1,0.1-0.1,0.1-0.2,0.2c0,0-0.1,0.1-0.1,0.1c0,0,0,0,0,0c0,0-0.1,0.1-0.1,0.1c0,0,0,0,0,0c0,0-0.1,0.1-0.1,0.1c0,0,0,0,0,0
		c0,0-0.1,0.1-0.1,0.1c-0.1,0.1-0.1,0.1-0.2,0.2c0,0-0.1,0.1-0.1,0.1c0,0,0,0,0,0c-0.1,0.1-0.1,0.1-0.2,0.2c0,0,0,0,0,0
		c0,0-0.1,0.1-0.1,0.1c0,0,0,0,0,0c-0.1,0-0.1,0.1-0.2,0.1c0,0-0.1,0-0.1,0.1c-0.1,0.1-0.2,0.2-0.4,0.3c0,0,0,0,0,0
		c0,0-0.1,0.1-0.1,0.1c0,0,0,0,0,0c-0.1,0-0.1,0.1-0.2,0.1c0,0,0,0,0,0c0,0-0.1,0.1-0.1,0.1c0,0,0,0,0,0c-0.1,0-0.1,0.1-0.2,0.1
		c0,0,0,0,0,0c-0.1,0.1-0.2,0.1-0.3,0.2c0,0,0,0,0,0c-0.3,0.2-0.5,0.3-0.8,0.5c0,0,0,0,0,0C40.7,48.7,39.2,49.1,37.7,49.2z
		 M33.1,35.8C33.1,35.9,33.2,35.9,33.1,35.8L33.1,35.8c0.1,0.1,0.1,0.1,0.2,0.2l0,0c0,0,0.1,0.1,0.1,0.1l0,0
		c0.1,0.1,0.1,0.1,0.2,0.2c0.4,0.5,0.9,1,1.4,1.4c0.1,0.1,0.1,0.1,0.2,0.2l0,0c0,0,0,0,0,0.1c-0.4,0.4-0.8,0.8-1.1,1.1
		c0,0-0.1,0.1-0.1,0.1c-0.1,0.1-0.3,0.3-0.4,0.4c0,0-0.1,0.1-0.1,0.1c0,0-0.1,0.1-0.1,0.1c0,0-0.1,0.1-0.1,0.1
		c-0.1,0.1-0.3,0.2-0.3,0.3c0,0-0.1,0.1-0.1,0.1c-0.1,0.1-0.1,0.1-0.2,0.2c0,0-0.1,0.1-0.1,0.1l0,0c0,0-0.1,0.1-0.1,0.1l0,0
		c0,0-0.1,0.1-0.1,0.1l0,0c0,0-0.1,0.1-0.1,0.1l0,0c0,0-0.1,0.1-0.1,0.1l0,0c0,0-0.1,0.1-0.1,0.1l0,0c0,0-0.1,0.1-0.1,0.1
		c0,0,0,0-0.1,0.1c0,0-0.1,0.1-0.1,0.1l0,0c0,0-0.1,0.1-0.1,0.1c0,0,0,0,0,0c0,0-0.1,0.1-0.1,0.1l0,0c0,0-0.1,0.1-0.1,0.1l0,0
		c0,0-0.1,0.1-0.1,0.1l0,0c-0.1,0.1-0.2,0.1-0.2,0.3c-0.3,0.6-0.2,1.2,0.4,1.6c0.5,0.4,1.2,0.4,1.7-0.1c1.2-1.2,2.4-2.4,3.7-3.6
		c0.1,0,0.1,0,0.2,0c0.1,0.2,0.3,0.3,0.4,0.4c0,0,0.1,0.1,0.1,0.1c0.1,0.1,0.2,0.2,0.3,0.3c0,0,0.1,0.1,0.1,0.1
		c0.1,0.1,0.2,0.2,0.3,0.2c0,0,0.1,0.1,0.1,0.1c0,0,0,0,0.1,0.1c0,0,0.1,0.1,0.1,0.1l0,0c0,0,0.1,0.1,0.1,0.1l0,0
		c0,0,0.1,0.1,0.1,0.1l0,0c0,0,0.1,0.1,0.1,0.1l0,0c0,0,0.1,0.1,0.1,0.1l0,0c0,0,0.1,0.1,0.1,0.1l0,0c0,0,0.1,0.1,0.1,0.1l0,0
		c0,0,0.1,0.1,0.1,0.1l0,0c0,0,0.1,0.1,0.1,0.1l0,0c0,0,0.1,0.1,0.1,0.1c0.4,0.4,0.8,0.8,1.1,1.2c0.6,0.6,1.5,0.7,2,0.1
		c0.6-0.6,0.5-1.4-0.2-2c-1.1-1.1-2.2-2.2-3.3-3.3c-0.2-0.2-0.2-0.3,0-0.5c1.1-1.1,2.2-2.2,3.3-3.3c0.3-0.3,0.5-0.5,0.5-0.9
		c0.1-0.6-0.2-1.1-0.7-1.3c-0.5-0.2-1.1-0.1-1.5,0.3c-1.1,1.1-2.3,2.2-3.4,3.3c-0.2,0.2-0.3,0.2-0.5,0c-1.1-1.2-2.3-2.3-3.5-3.4
		c-0.6-0.6-1.3-0.5-1.9,0c-0.5,0.5-0.5,1.3,0.1,1.9l0,0l0,0c0,0,0.1,0.1,0.1,0.1l0,0c0,0,0.1,0.1,0.1,0.1l0,0c0,0,0.1,0.1,0.1,0.1
		l0,0c0,0,0.1,0.1,0.1,0.1l0,0c0,0,0.1,0.1,0.1,0.1l0,0c0,0,0.1,0.1,0.1,0.1l0,0l0,0c0,0,0.1,0.1,0.1,0.1l0,0c0,0,0.1,0.1,0.1,0.1
		l0,0c0,0,0.1,0.1,0.1,0.1l0,0c0,0,0.1,0.1,0.1,0.1l0,0c0,0,0.1,0.1,0.1,0.1l0,0c0,0,0.1,0.1,0.1,0.1l0,0c0,0,0.1,0.1,0.1,0.1l0,0
		c0,0,0.1,0.1,0.1,0.1l0,0C32.9,35.7,33,35.7,33.1,35.8L33.1,35.8C33,35.8,33.1,35.8,33.1,35.8L33.1,35.8z M39.1,5.5
		c0-0.1-0.1-0.1-0.2-0.1c-0.1,0-0.2,0-0.3,0c-0.2,0-0.4,0-0.7,0c-9.8,0-19.6,0-29.5,0C8.1,5.5,8,5.5,8,5.9c0,12.6,0,25.2,0,37.8
		c0,0.4,0.1,0.4,0.4,0.4c6.2,0,12.5,0,18.7,0c0.1,0,0.2,0.1,0.2-0.1c-0.2-0.3-0.4-0.6-0.5-0.9c-1.5-3.2-1.7-6.5-0.2-9.7
		c1.8-4,5.1-6.2,9.4-6.7c0.6-0.1,1.3-0.1,1.9,0c0.1,0,0.1,0,0.2,0c0.2,0,0.4,0.1,0.6,0.1c0,0,0.1,0,0.1,0c0.3,0,0.2-0.3,0.2-0.4
		c0-5,0-9.9,0-14.9C39.1,9.5,39.1,7.5,39.1,5.5z"/>
	<path class="st1" d="M32,12.4c0.8,0.3,1.2,0.9,1,1.6c-0.1,0.7-0.7,1.1-1.4,1.1c-1.9,0-3.8,0-5.7,0c-3.9,0-7.9,0-11.8,0
		c-0.8,0-1.4-0.4-1.5-1.1c-0.1-0.6,0.2-1.2,1-1.5c0.2,0,0.4-0.1,0.6-0.1c2.3,0,4.5,0,6.8,0C24.7,12.4,28.4,12.4,32,12.4z"/>
	<path class="st1" d="M27.8,22.2c-2.6,0-5.2,0-7.8,0c-1.9,0-3.8,0-5.7,0c-0.9,0-1.4-0.3-1.6-1c-0.2-0.6,0-1.1,0.7-1.6
		c0.3-0.1,0.6-0.1,1-0.1c4.4,0,8.8,0,13.2,0c0.2,0,0.4,0,0.6,0c0.7,0.3,1.1,0.8,1,1.5c-0.1,0.6-0.5,1-1.3,1.2
		C27.9,22.2,27.9,22.2,27.8,22.2z"/>
	<path class="st1" d="M22.8,26.7c0.9,0.4,1.2,1,1,1.7c-0.1,0.3-0.3,0.6-0.6,0.8c-0.3,0.1-0.6,0.2-0.9,0.2c-2.7,0-5.5,0-8.2,0
		c-0.2,0-0.5,0-0.7-0.1c-1.2-0.6-1-1.8-0.3-2.3c0.2-0.1,0.4-0.1,0.5-0.3C16.7,26.7,19.8,26.7,22.8,26.7z"/>
</g>
</svg>
