<?xml version="1.0" encoding="utf-8"?>
<!-- Generator: Adobe Illustrator 24.0.2, SVG Export Plug-In . SVG Version: 6.00 Build 0)  -->
<svg version="1.1" id="Capa_1" xmlns="http://www.w3.org/2000/svg" xmlns:xlink="http://www.w3.org/1999/xlink" x="0px" y="0px"
	 viewBox="0 0 65 51" style="enable-background:new 0 0 65 51;" xml:space="preserve">
<style type="text/css">
	.st0{fill:#1C5F5D;}
	.st1{fill:#80ACA2;}
	.st2{fill:#EEC280;}
	.st3{fill:#808682;}
	.st4{fill:#7E8781;}
</style>
<g>
	<path class="st0" d="M47.4,12.3c1.2,0.2,2.4,0.5,3.6,0.6c4.4,0.1,6.8,2.6,8.9,6.1c3.1,5.1,2.8,10.6,2.5,16.2
		c-0.1,1.7-0.8,3.4-2.7,3.7c-2.1,0.3-2.7,1.5-3.3,3.1c-1.1,2.6-4.3,4.3-7.1,4c-3.3-0.4-6.1-1.9-7.1-5.2c-0.4-1.4-0.9-1.5-2.1-1.5
		c-4.4,0-8.7,0-13.1,0c-0.7,0-1.4-0.3-1.7,1c-0.9,3.5-3.2,5.4-6.8,5.7c-2.8,0.3-6.4-1.6-7.7-4.4c-0.8-1.7-1.6-2.3-3.4-2.2
		c-1.4,0.1-2.8-0.3-3.5-1.8c-0.5-3.4-0.6-6.7-0.6-10.1c0-5.9,0-11.8,0-17.8c0-3.5,1-4.5,4.4-4.8c0.3,0,0.7,0,1,0
		c11,0.2,21.9-0.3,32.9-0.3C46.6,4.7,47,5,47,9.8C47.1,10.6,46.7,11.6,47.4,12.3z"/>
	<path class="st1" d="M25.1,7.7c5.7,0,11.3,0,17,0c1.5,0,2.2,0.3,2.1,2c-0.1,7.4,0,14.8,0,22.2c0,2.5-1.4,3.7-3.8,3.8
		c-4.4,0.1-8.7,0.1-13.1,0.3c-1.3,0-2-0.3-2.7-1.5c-3.4-5.6-10.7-5.5-13.7,0.2c-1,1.9-2.1,1.2-3.6,1c-1.4-0.1-1.3-1.1-1.3-2
		c0-7.9,0-15.9-0.1-23.8c0-1.6,0.6-2.1,2.2-2.1C13.7,7.8,19.4,7.8,25.1,7.7C25.1,7.7,25.1,7.7,25.1,7.7z"/>
	<path class="st2" d="M58.8,27.4c0,2.4,0,4.8,0,7.1c0,0.7-0.3,1.1-1,1.3c-0.7,0.3-1.1-0.1-1.5-0.7c-1.6-2.9-4.2-4.1-7.4-3.9
		c-1.1,0.1-1.6-0.1-1.5-1.4c0.1-4,0-8-0.1-12c0-1.2,0.3-1.6,1.6-1.7c5.3-0.3,5.6-0.2,7.7,4.6C57.4,22.4,58.9,25.6,58.8,27.4z"/>
	<path class="st3" d="M17.7,33.5c2.3,0,4.5,2.3,4.5,4.8c0,2.3-2.2,4.5-4.4,4.5c-2.3,0-4.5-2.3-4.5-4.8
		C13.3,35.7,15.4,33.4,17.7,33.5z"/>
	<path class="st4" d="M54,38.4c0,2.7-1.9,4.8-4.5,4.8c-2.2,0-4.3-2-4.4-4.4c-0.1-2.6,2.1-4.9,4.7-4.9C52.3,34,54,35.7,54,38.4z"/>
</g>
</svg>
