<?xml version="1.0" encoding="utf-8"?>
<!-- Generator: Adobe Illustrator 24.0.2, SVG Export Plug-In . SVG Version: 6.00 Build 0)  -->
<svg version="1.1" id="Capa_1" xmlns="http://www.w3.org/2000/svg" xmlns:xlink="http://www.w3.org/1999/xlink" x="0px" y="0px"
	 viewBox="0 0 65 51" style="enable-background:new 0 0 65 51;" xml:space="preserve">
<style type="text/css">
	.st0{fill:#1C5F5D;}
	.st1{fill:#88AAA5;}
	.st2{fill:#ECD7C0;}
	.st3{fill:#F0A95D;}
	.st4{fill:#E0C89A;}
</style>
<path class="st0" d="M13.4,23.3c-1.1-1.6-2.9-2.8-3.7-4.7C7.9,14.3,8.3,10.2,11,6.5c2.8-3.7,6.7-5.1,11.2-4c4.4,1,7.2,4.1,8.1,8.5
	c1,4.8-0.6,8.8-4.6,12c3.5,1.4,6.6,3.3,8.5,6.7c1.9-2.2,4-3.8,6.7-4.8c-2.7-3-3.7-6.4-2.6-10.3c1.2-4.3,5.5-7.3,9.9-6.8
	c5,0.6,8.3,4,8.6,8.8c0.1,2.7-0.4,5.2-2.3,7.2c-0.5,0.6-1,0.9,0.2,1.5c6.6,3.2,8.4,8.9,8,15.8c-0.2,4.6-1.6,5-5.6,5.6
	c-7,0.9-14.1,1-21.1,0.3c-1.8-0.2-2.9,0.5-5,0.9C27.1,48.5,15.3,48,11.4,48c-2,0-3.9-0.5-5.8-0.9c-1.1-0.3-2.1-0.9-2.2-2.1
	c-0.2-4.7-0.9-9.4,1.1-13.9c1.5-3.5,4.2-5.6,7.6-7.1C12.5,23.8,13.1,23.7,13.4,23.3z"/>
<path class="st1" d="M18.2,45.2c-3.5,0-7,0.2-10.5-0.4c-1.2-0.2-1.8-0.6-1.8-1.9c0.1-2.3-0.1-4.5,0.1-6.8c0.5-4.5,3-7.6,7.2-9.3
	c3.8-1.6,7.7-1.6,11.5-0.5c5.4,1.6,8.2,5.7,8.4,12.1c0.1,5.7,0.2,5.7-5.4,6.5c-1.6,0.2-3.2,0.3-4.8,0.3
	C21.4,45.3,19.8,45.2,18.2,45.2z"/>
<path class="st2" d="M12,13.4c0-4.4,3.5-8,7.8-8c4.1,0,7.5,3.7,7.4,8.1c0,4.4-3.4,7.9-7.6,8C15.3,21.5,12,18,12,13.4z"/>
<path class="st3" d="M47.3,11c3.6,0,6.1,2.5,6.2,6.2c0.1,3.7-2.8,6.9-6.1,6.9c-3.3,0-6.3-3.2-6.3-6.6C41.1,13.9,43.8,11.1,47.3,11z"
	/>
<path class="st4" d="M59.4,38.5c-0.1-5.2-3-9.4-7.6-10.8C46,26,39.5,27.9,36.8,32.2c-0.5,0.7-1,1.4-0.7,2.4c0.7,2.9,0.5,5.9,0.5,8.9
	c1.6,0.8,3.4,0.5,5.1,0.5c4.2,0,12.7-0.4,12.7-0.4C59.4,43.5,59.4,43.4,59.4,38.5z"/>
</svg>
