<?xml version="1.0" encoding="UTF-8"?>
<svg version="1.1" xmlns="http://www.w3.org/2000/svg" width="320" height="320">
<path d="M0 0 C1.14073975 0.00563965 2.28147949 0.0112793 3.45678711 0.01708984 C12.0686033 0.14077181 19.88705916 0.86791328 28.1875 3.3125 C28.84443848 3.50054199 29.50137695 3.68858398 30.17822266 3.88232422 C45.14654957 8.27531673 58.98480851 15.45819379 70.20703125 26.40234375 C72.14973668 28.3669836 72.14973668 28.3669836 74.44921875 29.94140625 C75.30966797 30.62009766 75.30966797 30.62009766 76.1875 31.3125 C76.1875 31.9725 76.1875 32.6325 76.1875 33.3125 C76.8475 33.3125 77.5075 33.3125 78.1875 33.3125 C99.52451712 56.86792154 106.3890183 84.8130087 105.3828125 115.95507812 C104.15818317 137.00645637 94.66862462 157.35467607 81.1875 173.3125 C80.49785156 174.13621094 79.80820313 174.95992187 79.09765625 175.80859375 C62.90236214 194.50860821 39.68511857 206.83188435 15.1875 210.3125 C-0.65115642 211.40354091 -16.63188095 211.28881446 -31.8125 206.3125 C-32.78050537 205.99901611 -32.78050537 205.99901611 -33.76806641 205.67919922 C-48.58772489 200.69701738 -62.65213562 192.30660196 -73.8125 181.3125 C-73.8125 180.6525 -73.8125 179.9925 -73.8125 179.3125 C-74.4725 179.3125 -75.1325 179.3125 -75.8125 179.3125 C-98.46303418 155.46254853 -105.68771499 127.33629722 -104.953125 95.40917969 C-104.66981891 89.17054359 -103.52837497 83.32177639 -101.8125 77.3125 C-101.54566406 76.32121094 -101.27882812 75.32992187 -101.00390625 74.30859375 C-93.03699507 47.71681464 -74.38135979 25.96818721 -50.4140625 12.38671875 C-34.29982708 3.93127163 -18.22126112 -0.09507926 0 0 Z M-68.1328125 46.26953125 C-69.96072423 48.49278203 -70.60116282 49.46072112 -70.8125 52.3125 C-65.9666031 60.21502718 -58.54517854 66.75628749 -51.93118286 73.17166138 C-29.48741552 95.00922461 -9.373809 122.14533627 -8.65478516 154.90917969 C-8.63345504 156.68420529 -8.61591003 158.45927922 -8.6015625 160.234375 C-8.57352461 162.16537351 -8.54486042 164.096363 -8.515625 166.02734375 C-8.47418205 169.05810583 -8.43727408 172.08869378 -8.41113281 175.11962891 C-8.38365955 178.05405802 -8.33782931 180.98773316 -8.2890625 183.921875 C-8.28580963 184.83330261 -8.28255676 185.74473022 -8.27920532 186.68377686 C-8.26263885 187.52515198 -8.24607239 188.3665271 -8.22900391 189.23339844 C-8.21687363 190.34542633 -8.21687363 190.34542633 -8.20449829 191.47991943 C-7.9466847 193.72687714 -7.9466847 193.72687714 -4.8125 195.3125 C-2.40099742 195.62912439 -2.40099742 195.62912439 0.1875 195.5625 C1.486875 195.57023437 1.486875 195.57023437 2.8125 195.578125 C5.453295 195.46664552 5.453295 195.46664552 8.1875 193.3125 C8.47730171 190.3421763 8.5801576 187.56971175 8.55859375 184.59765625 C8.57602317 182.77669128 8.59360681 180.95572778 8.61132812 179.13476562 C8.62126034 176.28324955 8.62503477 173.43185464 8.62329102 170.58032227 C8.66178487 141.50719871 15.75947981 113.78630071 35.33984375 91.546875 C37.01416426 89.52211532 38.13850722 87.70705943 39.1875 85.3125 C39.8475 85.3125 40.5075 85.3125 41.1875 85.3125 C42.70290777 83.81419155 42.70290777 83.81419155 44.27734375 81.84765625 C48.20333626 77.23057523 52.42859047 72.99458447 56.75 68.75 C59.58831249 65.96187871 62.40451017 63.15588517 65.1875 60.3125 C65.81382324 59.68230957 66.44014648 59.05211914 67.08544922 58.40283203 C70.29002974 55.08224223 70.29002974 55.08224223 71.41796875 50.765625 C69.67702108 47.2947833 67.25174205 44.74147199 64.5 42.0625 C63.63084961 41.20869751 63.63084961 41.20869751 62.74414062 40.33764648 C23.5358693 2.98766192 -31.74627401 10.72467426 -68.1328125 46.26953125 Z M-80.8125 67.3125 C-83.85507754 72.52834721 -85.63045513 77.68582369 -87.125 83.5 C-87.30836914 84.18900391 -87.49173828 84.87800781 -87.68066406 85.58789062 C-88.65127366 89.54307686 -89.02242035 92.4195957 -87.8125 96.3125 C-86.24326671 98.10306158 -86.24326671 98.10306158 -84.1640625 99.546875 C-83.0347229 100.40104004 -83.0347229 100.40104004 -81.88256836 101.27246094 C-81.0756958 101.86317383 -80.26882324 102.45388672 -79.4375 103.0625 C-77.78458168 104.31174013 -76.13223628 105.56173867 -74.48046875 106.8125 C-73.67657715 107.41449219 -72.87268555 108.01648438 -72.04443359 108.63671875 C-53.73156024 122.38639745 -40.48140105 138.56801937 -36.21875 161.5078125 C-35.65915387 166.74864552 -35.4493687 171.98470528 -35.25 177.25 C-35.20681641 178.31541016 -35.16363281 179.38082031 -35.11914062 180.47851562 C-35.01375579 183.08971769 -34.91269274 185.70109356 -34.8125 188.3125 C-31.5125 189.3025 -28.2125 190.2925 -24.8125 191.3125 C-21.51938914 188.01938914 -22.51700643 183.91798577 -22.48291016 179.43432617 C-22.48673478 178.08121086 -22.49247059 176.72809977 -22.5 175.375 C-22.50215515 174.69466705 -22.5043103 174.01433411 -22.50653076 173.31338501 C-22.64971565 145.24376755 -29.06890104 119.41533946 -48.69921875 98.28125 C-49.79962174 97.19321109 -50.91134734 96.11640699 -52.03808594 95.05566406 C-53.78172317 93.34273481 -55.35835084 91.56451716 -56.94140625 89.703125 C-61.13759292 84.87229561 -65.60364007 80.33754482 -70.125 75.8125 C-70.93517578 74.99007812 -71.74535156 74.16765625 -72.58007812 73.3203125 C-73.74120117 72.15628906 -73.74120117 72.15628906 -74.92578125 70.96875 C-75.62485596 70.26556641 -76.32393066 69.56238281 -77.04418945 68.83789062 C-78.67567976 67.09477282 -78.67567976 67.09477282 -80.8125 67.3125 Z M77.2355957 69.02148438 C76.45273193 69.80845703 75.66986816 70.59542969 74.86328125 71.40625 C73.99896484 72.2725 73.13464844 73.13875 72.24414062 74.03125 C71.33857422 74.9490625 70.43300781 75.866875 69.5 76.8125 C68.61376953 77.699375 67.72753906 78.58625 66.81445312 79.5 C62.27395452 84.07074619 57.87770289 88.70642313 53.68286133 93.59619141 C51.67180447 95.90439218 49.51366629 98.06032633 47.375 100.25 C24.42035666 125.58046639 22.88246812 156.84355109 23.1875 189.3125 C24.72776015 190.67338728 24.72776015 190.67338728 27.1875 191.3125 C29.97574238 190.58351296 32.56415092 189.4968275 35.1875 188.3125 C35.20208252 187.72460693 35.21666504 187.13671387 35.23168945 186.53100586 C35.85418368 163.97383878 38.38938291 144.41131235 53.1875 126.3125 C53.81914062 125.50554687 54.45078125 124.69859375 55.1015625 123.8671875 C62.69861149 114.74486226 72.62266527 107.96817361 82.25 101.140625 C83.4565625 100.26664063 83.4565625 100.26664063 84.6875 99.375 C85.69296875 98.68083984 85.69296875 98.68083984 86.71875 97.97265625 C88.91245519 95.49306926 89.01115793 93.59246243 89.1875 90.3125 C88.59842264 86.6662397 88.59842264 86.6662397 87.5 82.9375 C87.31791992 82.28064209 87.13583984 81.62378418 86.94824219 80.94702148 C85.53372953 76.04171967 83.71361974 71.73320954 81.1875 67.3125 C79.00590223 67.09292075 79.00590223 67.09292075 77.2355957 69.02148438 Z M-86.8125 117.3125 C-88.0306457 118.30609152 -88.0306457 118.30609152 -87.90234375 120.25390625 C-86.65134747 141.77745755 -73.29982291 160.01809671 -57.75 173.9375 C-56.44256154 175.06837839 -55.13202051 176.19574269 -53.8125 177.3125 C-52.8225 176.9825 -51.8325 176.6525 -50.8125 176.3125 C-49.70651434 159.5383841 -55.53218983 146.14803824 -65.9375 133.1875 C-71.32632875 127.33498133 -79.24140257 119.83619914 -86.8125 117.3125 Z M85.1875 117.3125 C82.53301284 119.06488693 82.53301284 119.06488693 79.8125 121.5 C78.87664062 122.29792969 77.94078125 123.09585938 76.9765625 123.91796875 C76.05617187 124.70816406 75.13578125 125.49835938 74.1875 126.3125 C73.32511719 126.98410156 72.46273437 127.65570313 71.57421875 128.34765625 C61.88679985 136.32273269 53.43883962 150.61696225 51.3515625 163.140625 C51.01970118 167.53383683 51.03943854 171.91178445 51.1875 176.3125 C52.1775 176.6425 53.1675 176.9725 54.1875 177.3125 C57.16845351 175.38364773 59.62432119 172.75937402 62.1875 170.3125 C62.91582031 169.65894531 63.64414063 169.00539062 64.39453125 168.33203125 C76.79970902 156.75241698 84.01173663 141.5922042 88.1875 125.3125 C88.26153678 122.98034156 88.28265886 120.64389212 88.1875 118.3125 C87.1975 117.9825 86.2075 117.6525 85.1875 117.3125 Z " fill="#960833" transform="translate(160.8125,54.6875)"/>
<path d="M0 0 C4.30381849 1.49613555 6.05154105 4.66257954 8.3125 8.375 C8.70493896 9.00857422 9.09737793 9.64214844 9.50170898 10.29492188 C10.30040367 11.58945323 11.09478936 12.8866534 11.88476562 14.18652344 C12.84625698 15.74999931 13.84909372 17.28791106 14.859375 18.8203125 C34.05733028 49.02626967 37.77017644 89.57563209 31 124 C28.88821788 132.19259417 25.99479257 140.09659227 23 148 C22.58878906 149.16660156 22.17757812 150.33320313 21.75390625 151.53515625 C16.59680074 165.26854713 7.71239675 178.12413906 -2 189 C-2.825 189.94488281 -3.65 190.88976562 -4.5 191.86328125 C-9.35333894 197.33068594 -14.29073794 202.43053666 -20 207 C-21.32257813 208.06154297 -21.32257813 208.06154297 -22.671875 209.14453125 C-38.46821262 221.409677 -56.75541196 230.56964271 -76 236 C-76.65838867 236.19754883 -77.31677734 236.39509766 -77.99511719 236.59863281 C-102.5241398 243.70495468 -132.78704613 242.47819103 -157 235 C-158.13091064 234.67104736 -158.13091064 234.67104736 -159.28466797 234.33544922 C-175.00844908 229.70059654 -189.95538146 221.89591752 -203 212 C-203.99 211.34 -204.98 210.68 -206 210 C-205.45015228 206.12488273 -203.72444669 204.40423494 -200.9375 201.75 C-200.20402344 201.04359375 -199.47054687 200.3371875 -198.71484375 199.609375 C-197.86599609 198.81273437 -197.86599609 198.81273437 -197 198 C-192.42599951 200.49691814 -187.9153207 203.04344148 -183.5 205.8125 C-170.70138336 213.47586923 -157.519248 218.66547033 -143 222 C-141.989375 222.23460937 -140.97875 222.46921875 -139.9375 222.7109375 C-108.91581704 228.7918924 -74.82097153 223.11103185 -47.671875 206.8828125 C-46 206 -46 206 -44 206 C-44 205.34 -44 204.68 -44 204 C-43.071875 203.525625 -42.14375 203.05125 -41.1875 202.5625 C-36.49612497 199.91460734 -32.53801416 196.4116294 -28.453125 192.92578125 C-26 191 -26 191 -23 190 C-23 189.34 -23 188.68 -23 188 C-21.85228671 186.81853044 -20.69715787 185.6432713 -19.50390625 184.5078125 C-17.27137104 182.2694785 -15.31768373 179.8126482 -13.33203125 177.35546875 C-12.89246094 176.90816406 -12.45289063 176.46085938 -12 176 C-11.34 176 -10.68 176 -10 176 C-9.73445312 175.26523438 -9.46890625 174.53046875 -9.1953125 173.7734375 C-8.01127749 171.02616671 -6.67088897 169.00559701 -4.875 166.625 C2.01611321 156.88880063 6.98420426 146.83847753 10.8125 135.5625 C11.09029297 134.75385498 11.36808594 133.94520996 11.65429688 133.11206055 C15.95561534 119.80649178 17.56432806 106.66295625 17.4375 92.75 C17.43445862 92.03488251 17.43141724 91.31976501 17.42828369 90.58297729 C17.35385416 78.68897305 16.31493251 67.45846535 13 56 C12.78569336 55.23204102 12.57138672 54.46408203 12.35058594 53.67285156 C8.18505478 39.06620737 2.07224214 26.06018485 -7.7265625 14.3671875 C-9 12 -9 12 -8.4375 9.43359375 C-6.96634744 6.94302841 -5.47351607 5.16943184 -3.375 3.1875 C-2.74335938 2.58292969 -2.11171875 1.97835937 -1.4609375 1.35546875 C-0.97882813 0.90816406 -0.49671875 0.46085937 0 0 Z " fill="#FAAC3B" transform="translate(276,68)"/>
<path d="M0 0 C0.70833984 0.16628906 1.41667969 0.33257812 2.14648438 0.50390625 C22.126606 5.4036636 42.19753234 14.71226688 58 28 C57.45015228 31.87511727 55.72444669 33.59576506 52.9375 36.25 C52.20402344 36.95640625 51.47054687 37.6628125 50.71484375 38.390625 C50.14894531 38.92171875 49.58304688 39.4528125 49 40 C44.82949497 37.68305276 40.80652101 35.23558475 36.8125 32.625 C8.26550192 14.51826708 -27.62757369 7.90173496 -60.875 14.625 C-63.94748621 15.32223733 -66.97406637 16.12366257 -70 17 C-70.71720215 17.20367187 -71.4344043 17.40734375 -72.17333984 17.6171875 C-93.68746068 23.94688117 -111.76701262 35.73529608 -128 51 C-128.59039062 51.5259375 -129.18078125 52.051875 -129.7890625 52.59375 C-139.11972398 61.26109431 -146.35391076 72.69034137 -152 84 C-152.42667969 84.78246094 -152.85335937 85.56492187 -153.29296875 86.37109375 C-162.95091715 104.46860321 -166.23290251 124.23339037 -166.25 144.5 C-166.25067474 145.21720215 -166.25134949 145.9344043 -166.25204468 146.67333984 C-166.23646771 157.082832 -165.85725052 166.90208653 -163 177 C-162.82839355 177.63679687 -162.65678711 178.27359375 -162.47998047 178.9296875 C-158.31829397 194.22267667 -152.26253045 207.92179864 -143.13671875 220.890625 C-141 224 -141 224 -139 228 C-142.3 231.3 -145.6 234.6 -149 238 C-173.51819654 213.48180346 -182.23496001 177.04442352 -182.2510376 143.45739746 C-182.22842043 132.38613815 -181.74950274 121.76579778 -179 111 C-178.70198486 109.80358887 -178.70198486 109.80358887 -178.39794922 108.58300781 C-175.49847208 97.26744536 -171.54166058 86.9562328 -165.93310547 76.71630859 C-165.08450511 75.15543456 -164.27622373 73.57280945 -163.47265625 71.98828125 C-157.68257476 60.74493742 -149.65792521 51.14529187 -141 42 C-140.18015625 41.11570313 -139.3603125 40.23140625 -138.515625 39.3203125 C-119.20224631 19.14983121 -93.98557586 6.39683987 -67 0 C-66.31550781 -0.16661133 -65.63101563 -0.33322266 -64.92578125 -0.50488281 C-44.17054176 -5.35245567 -20.71086897 -4.87540382 0 0 Z " fill="#7ABAA0" transform="translate(195,15)"/>
<path d="M0 0 C0.64324219 0.4125 1.28648437 0.825 1.94921875 1.25 C2.64402344 1.6625 3.33882812 2.075 4.0546875 2.5 C10.82762687 6.97293557 14.31199973 13.2313715 17.32421875 20.625 C19.1410857 31.16282831 18.14096735 39.60687438 12.40625 48.6953125 C6.83075277 56.42700888 0.13693195 60.78918778 -9.22265625 62.69140625 C-18.36551266 64.07448166 -26.66393637 62.13640135 -34.42578125 57.125 C-41.62896809 51.62144152 -46.27862171 44.15473556 -48.05078125 35.25 C-49.23208746 25.44953368 -46.78110425 15.7382633 -40.6640625 7.87890625 C-30.35243666 -2.53259006 -13.50952266 -7.41093814 0 0 Z M-26.77734375 16.94140625 C-31.21998772 21.98412298 -32.35288098 24.97674286 -32.265625 31.71484375 C-31.85750146 36.53070156 -29.77804824 39.38514196 -26.73828125 43 C-22.3989796 46.63290371 -18.74443921 47.47452833 -13.17578125 47.3125 C-7.36051525 46.59218004 -3.76659154 43.64886366 -0.05078125 39.25 C2.88160237 34.6022678 2.56700476 29.56295969 1.94921875 24.25 C-0.24906425 19.68433531 -3.51983692 15.67487639 -8.05078125 13.25 C-14.97827433 11.38358451 -21.39963889 11.67320216 -26.77734375 16.94140625 Z " fill="#970833" transform="translate(176.05078125,87.75)"/>
<path d="M0 0 C1.05513794 0.00132935 1.05513794 0.00132935 2.1315918 0.00268555 C8.65637571 0.15082228 14.11463856 1.46861413 18.91796875 6.01171875 C19.33691406 6.46160156 19.75585938 6.91148438 20.1875 7.375 C17.69033699 6.95880616 15.56914636 6.58004727 13.32714844 5.37548828 C10.8702527 4.22665684 8.900508 3.9724519 6.203125 3.7421875 C4.80126953 3.61650391 4.80126953 3.61650391 3.37109375 3.48828125 C2.40300781 3.40964844 1.43492187 3.33101563 0.4375 3.25 C-1.03783203 3.12044922 -1.03783203 3.12044922 -2.54296875 2.98828125 C-4.96561603 2.77659362 -7.38865667 2.57243721 -9.8125 2.375 C-9.8125 3.035 -9.8125 3.695 -9.8125 4.375 C-11.10038008 4.90512738 -12.39296678 5.4238329 -13.6875 5.9375 C-14.76644531 6.37255859 -14.76644531 6.37255859 -15.8671875 6.81640625 C-17.8125 7.375 -17.8125 7.375 -19.8125 6.375 C-13.34280681 1.75379058 -7.93435688 -0.01794035 0 0 Z " fill="#822341" transform="translate(160.8125,84.625)"/>
<path d="M0 0 C32.54311003 -0.7210438 32.54311003 -0.7210438 46 5 C45.67 5.66 45.34 6.32 45 7 C42.03 7 39.06 7 36 7 C35.505 6.01 35.505 6.01 35 5 C28.17317914 2.29333094 20.81610128 2.32171346 13.5625 1.875 C12.25861328 1.78863281 10.95472656 1.70226563 9.61132812 1.61328125 C6.40793008 1.40206819 3.20424591 1.19785972 0 1 C0 0.67 0 0.34 0 0 Z " fill="#8B2D49" transform="translate(148,55)"/>
<path d="M0 0 C0.70382813 0.06058594 1.40765625 0.12117188 2.1328125 0.18359375 C15.44284651 1.31303528 28.63574264 2.3633786 42 2 C42 2.66 42 3.32 42 4 C37.14365099 4.0496911 32.28745224 4.08585664 27.4309082 4.10986328 C25.78114237 4.11987851 24.13139409 4.1334946 22.48168945 4.15087891 C20.10102995 4.17532542 17.72060653 4.18652803 15.33984375 4.1953125 C14.24566383 4.21079636 14.24566383 4.21079636 13.12937927 4.22659302 C8.38680589 4.22761619 4.50583078 3.49418829 0 2 C0 1.34 0 0.68 0 0 Z " fill="#E5B36C" transform="translate(134,291)"/>
<path d="M0 0 C0.33 0.66 0.66 1.32 1 2 C0.0625 4.625 0.0625 4.625 -1 7 C-1.66 7 -2.32 7 -3 7 C-3.33 8.65 -3.66 10.3 -4 12 C-4.99 12.33 -5.98 12.66 -7 13 C-7.061875 13.7425 -7.12375 14.485 -7.1875 15.25 C-8.25841636 18.87464 -9.8291869 20.0371157 -13 22 C-13.99 21.67 -14.98 21.34 -16 21 C-14.38405168 18.95880212 -12.7143618 16.95927063 -11 15 C-10.34 15 -9.68 15 -9 15 C-8.74476563 14.28457031 -8.48953125 13.56914062 -8.2265625 12.83203125 C-6.9123112 9.79753382 -5.30503984 7.36811089 -3.375 4.6875 C-2.74335938 3.80449219 -2.11171875 2.92148438 -1.4609375 2.01171875 C-0.97882813 1.34785156 -0.49671875 0.68398437 0 0 Z " fill="#EDAE53" transform="translate(275,229)"/>
<path d="M0 0 C0.33 0 0.66 0 1 0 C1.83232811 6.65862485 1.83232811 6.65862485 -0.34765625 10.171875 C-3.80470406 14.21396167 -7.41860868 17.31820996 -12 20 C-12.66 19.67 -13.32 19.34 -14 19 C-13.51789063 18.52949219 -13.03578125 18.05898437 -12.5390625 17.57421875 C-11.90742188 16.95160156 -11.27578125 16.32898438 -10.625 15.6875 C-9.99851563 15.07261719 -9.37203125 14.45773438 -8.7265625 13.82421875 C-6.81913393 11.91187472 -6.81913393 11.91187472 -5 9 C-4.34 9 -3.68 9 -3 9 C-2.01 6.03 -1.02 3.06 0 0 Z " fill="#8D2242" transform="translate(232,103)"/>
<path d="M0 0 C2.23413013 3.35119519 2.23847762 4.4177755 2.1953125 8.32421875 C2.18886719 9.35224609 2.18242188 10.38027344 2.17578125 11.43945312 C2.15902344 12.51130859 2.14226562 13.58316406 2.125 14.6875 C2.11597656 15.77095703 2.10695313 16.85441406 2.09765625 17.97070312 C2.0740734 20.6473571 2.04116126 23.32356797 2 26 C2.66 26 3.32 26 4 26 C4 26.66 4 27.32 4 28 C2.68 28 1.36 28 0 28 C0 18.76 0 9.52 0 0 Z " fill="#9C2E4E" transform="translate(124,217)"/>
<path d="M0 0 C0.66 0.33 1.32 0.66 2 1 C1.42002201 4.91485143 -0.34178606 7.1262552 -3 10 C-4.95851344 11.39355764 -6.95127113 12.74282547 -9 14 C-9.66 13.34 -10.32 12.68 -11 12 C-7.37 8.04 -3.74 4.08 0 0 Z " fill="#952A4C" transform="translate(223,170)"/>
<path d="M0 0 C2 1 2 1 2.60546875 2.7109375 C4.13712514 11.59757755 2.98152665 18.96584801 -1 27 C-1.33 27 -1.66 27 -2 27 C-2.33 25.02 -2.66 23.04 -3 21 C-2.34 21 -1.68 21 -1 21 C-0.07811539 18.23434618 0.11785222 16.61716298 0.09765625 13.76953125 C0.09443359 12.96708984 0.09121094 12.16464844 0.08789062 11.33789062 C0.07951172 10.50451172 0.07113281 9.67113281 0.0625 8.8125 C0.05573242 7.5450293 0.05573242 7.5450293 0.04882812 6.25195312 C0.03705403 4.16793845 0.0191189 2.08396023 0 0 Z " fill="#95274A" transform="translate(191,107)"/>
<path d="M0 0 C3.465 1.98 3.465 1.98 7 4 C4.3333581 5.33332095 2.83319697 4.67102033 0 4 C-4.15825278 8.4024476 -4.15825278 8.4024476 -6 14 C-6.99 13.34 -7.98 12.68 -9 12 C-8.45015228 8.12488273 -6.72444669 6.40423494 -3.9375 3.75 C-3.20402344 3.04359375 -2.47054687 2.3371875 -1.71484375 1.609375 C-1.14894531 1.07828125 -0.58304688 0.5471875 0 0 Z " fill="#EBAE55" transform="translate(79,266)"/>
<path d="M0 0 C3.24271506 0.5590888 4.93057424 1.4132178 7 4 C7 4.66 7 5.32 7 6 C7.99 5.67 8.98 5.34 10 5 C10.45375 6.11375 10.9075 7.2275 11.375 8.375 C12.72465986 11.96199008 12.72465986 11.96199008 15 14 C15 14.66 15 15.32 15 16 C13.68 15.34 12.36 14.68 11 14 C11 13.34 11 12.68 11 12 C10.34 12 9.68 12 9 12 C7.39593747 10.24248022 5.86432623 8.41824776 4.375 6.5625 C3.55773437 5.55316406 2.74046875 4.54382813 1.8984375 3.50390625 C0 1 0 1 0 0 Z " fill="#922546" transform="translate(76,222)"/>
<path d="M0 0 C0.66 0.33 1.32 0.66 2 1 C0.55616857 3.88766287 -1.24857471 4.00718603 -4.25 5.0625 C-5.20390625 5.40410156 -6.1578125 5.74570312 -7.140625 6.09765625 C-11.25131655 7.39488268 -15.00053605 8.13558413 -19.3125 8.0625 C-21.1378125 8.0315625 -21.1378125 8.0315625 -23 8 C-23 7.67 -23 7.34 -23 7 C-21.75863281 6.66226562 -20.51726562 6.32453125 -19.23828125 5.9765625 C-17.5963124 5.5261939 -15.95438763 5.07566461 -14.3125 4.625 C-13.49587891 4.40328125 -12.67925781 4.1815625 -11.83789062 3.953125 C-8.48075446 3.02889318 -5.26360866 2.10934362 -2.04296875 0.7734375 C-1.36878906 0.51820313 -0.69460937 0.26296875 0 0 Z " fill="#E9B160" transform="translate(212,283)"/>
<path d="M0 0 C0 3 0 3 -1.57421875 4.61328125 C-2.27160156 5.17402344 -2.96898438 5.73476563 -3.6875 6.3125 C-6.29800657 8.48639015 -8.60097646 10.56828224 -10.6875 13.25 C-12.95622456 15.94794272 -14.89017225 17.40066001 -18 19 C-16.6952877 16.12066182 -15.30730853 14.05896303 -13.06640625 11.8359375 C-12.49986328 11.27132812 -11.93332031 10.70671875 -11.34960938 10.125 C-10.75986328 9.5475 -10.17011719 8.97 -9.5625 8.375 C-8.97662109 7.78976563 -8.39074219 7.20453125 -7.78710938 6.6015625 C-5.26007718 4.10034562 -2.97575385 1.9838359 0 0 Z " fill="#85B4A1" transform="translate(68,44)"/>
<path d="M0 0 C1.65 0 3.3 0 5 0 C1.29750507 3.20743441 -2.34313573 5.26361588 -6.8125 7.25 C-7.97394531 7.77078125 -9.13539063 8.2915625 -10.33203125 8.828125 C-11.65267578 9.40820312 -11.65267578 9.40820312 -13 10 C-13 9.34 -13 8.68 -13 8 C-12.34 8 -11.68 8 -11 8 C-11 7.01 -11 6.02 -11 5 C-7.37 4.01 -3.74 3.02 0 2 C0 1.34 0 0.68 0 0 Z " fill="#F1AE4E" transform="translate(236,285)"/>
<path d="M0 0 C0.66 0.33 1.32 0.66 2 1 C1.79503906 1.89460937 1.59007812 2.78921875 1.37890625 3.7109375 C-0.20155555 10.80411057 -1.51520961 17.74486111 -2 25 C-2.33 25 -2.66 25 -3 25 C-3.08156437 22.14524694 -3.14076372 19.29286435 -3.1875 16.4375 C-3.21263672 15.63763672 -3.23777344 14.83777344 -3.26367188 14.01367188 C-3.33054885 8.55205195 -2.4909519 4.87075897 0 0 Z " fill="#982849" transform="translate(214,205)"/>
<path d="M0 0 C5.94 0.33 11.88 0.66 18 1 C18 1.66 18 2.32 18 3 C11.79772119 3.92347813 6.8853313 4.37917648 1 2 C0.67 1.34 0.34 0.68 0 0 Z " fill="#912344" transform="translate(151,147)"/>
<path d="M0 0 C-3.30889999 1.71039758 -6.69151077 3.18242836 -10.125 4.625 C-11.70667969 5.29402344 -11.70667969 5.29402344 -13.3203125 5.9765625 C-16 7 -16 7 -18 7 C-17.67 5.35 -17.34 3.7 -17 2 C-11.23918159 0.7017874 -5.91260345 -0.25706972 0 0 Z " fill="#922646" transform="translate(138,73)"/>
<path d="M0 0 C0 0.66 0 1.32 0 2 C-2.1171875 3.47265625 -2.1171875 3.47265625 -4.875 5.0625 C-5.77992188 5.58972656 -6.68484375 6.11695313 -7.6171875 6.66015625 C-11.4228958 8.80008731 -13.60182506 9.0956125 -18 9 C-14.82505993 6.44624385 -11.51896339 4.62552847 -7.875 2.8125 C-6.82054687 2.28269531 -5.76609375 1.75289063 -4.6796875 1.20703125 C-2 0 -2 0 0 0 Z " fill="#EBB159" transform="translate(232,274)"/>
<path d="M0 0 C3.63 0.33 7.26 0.66 11 1 C11 1.66 11 2.32 11 3 C14.3 3 17.6 3 21 3 C21 3.33 21 3.66 21 4 C6.21867882 4.3690205 6.21867882 4.3690205 0 2 C0 1.34 0 0.68 0 0 Z " fill="#EEAF55" transform="translate(134,291)"/>
<path d="M0 0 C-3.35583515 3.915141 -7.28066362 6.0795774 -12 8 C-12.66 8 -13.32 8 -14 8 C-14 7.34 -14 6.68 -14 6 C-9.80700883 1.89214571 -6.07816041 -0.91172406 0 0 Z " fill="#922546" transform="translate(218,248)"/>
<path d="M0 0 C-1.44077046 3.36179774 -3.24750021 5.59156268 -6 8 C-6.66 8 -7.32 8 -8 8 C-8 8.66 -8 9.32 -8 10 C-9.98 10.33 -11.96 10.66 -14 11 C-3.32352941 0 -3.32352941 0 0 0 Z " fill="#EAB058" transform="translate(253,258)"/>
<path d="M0 0 C1.65 0 3.3 0 5 0 C2.69 4.29 0.38 8.58 -2 13 C-2.33 13 -2.66 13 -3 13 C-2.88490339 11.58249437 -2.75746342 10.16598831 -2.625 8.75 C-2.55539063 7.96109375 -2.48578125 7.1721875 -2.4140625 6.359375 C-1.98492887 3.914123 -1.21399362 2.15163097 0 0 Z " fill="#9F3656" transform="translate(219,193)"/>
<path d="M0 0 C1.00796724 3.16069729 0.97083624 5.33511958 0.25 8.5625 C0.09015625 9.32691406 -0.0696875 10.09132812 -0.234375 10.87890625 C-1.09956716 13.27584168 -2.01062056 14.42758645 -4 16 C-4.66 16 -5.32 16 -6 16 C-4.27933894 10.55123997 -2.15294651 5.28830549 0 0 Z " fill="#F0AE50" transform="translate(285,208)"/>
<path d="M0 0 C4.52615993 3.67832017 8.39424999 7.41086363 12 12 C8.47967572 12 7.5614657 11.29648649 5 9 C5 8.34 5 7.68 5 7 C4.34 7 3.68 7 3 7 C3 6.01 3 5.02 3 4 C2.34 4 1.68 4 1 4 C0.67 2.68 0.34 1.36 0 0 Z " fill="#871B3B" transform="translate(97,116)"/>
<path d="M0 0 C1.89646998 0.11493757 3.79218332 0.24239642 5.6875 0.375 C6.74324219 0.44460938 7.79898438 0.51421875 8.88671875 0.5859375 C11.90677269 0.98760089 14.24078054 1.74069019 17 3 C17 3.66 17 4.32 17 5 C10.95198929 4.45018084 5.69398894 3.09570426 0 1 C0 0.67 0 0.34 0 0 Z " fill="#92324F" transform="translate(123,258)"/>
<path d="M0 0 C1.27230469 0.00902344 2.54460937 0.01804687 3.85546875 0.02734375 C5.31919922 0.04474609 5.31919922 0.04474609 6.8125 0.0625 C7.4725 1.3825 8.1325 2.7025 8.8125 4.0625 C7.905 3.711875 6.9975 3.36125 6.0625 3 C0.70021404 1.41895486 -4.72695466 2.39898546 -10.1875 3.0625 C-10.1875 2.4025 -10.1875 1.7425 -10.1875 1.0625 C-6.62704823 -0.12431726 -3.74941663 -0.03439832 0 0 Z " fill="#8E2D49" transform="translate(162.1875,98.9375)"/>
<path d="M0 0 C1.53271273 4.58798777 0.02911182 6.77944742 -2 11 C-2.66 11 -3.32 11 -4 11 C-4.33 11.99 -4.66 12.98 -5 14 C-5.33 13.34 -5.66 12.68 -6 12 C-4.78515625 9.1796875 -4.78515625 9.1796875 -3.0625 5.875 C-2.49660156 4.77929688 -1.93070313 3.68359375 -1.34765625 2.5546875 C-0.90292969 1.71164063 -0.45820313 0.86859375 0 0 Z " fill="#942D4C" transform="translate(207,189)"/>
<path d="M0 0 C-5.33835539 1.92471317 -10.34979382 3.39891424 -16 4 C-11.34365691 -0.07430021 -5.67385429 -3.48283466 0 0 Z " fill="#8E2A49" transform="translate(128,63)"/>
<path d="M0 0 C0.33 1.32 0.66 2.64 1 4 C0.21625 4.556875 -0.5675 5.11375 -1.375 5.6875 C-4.08704858 8.07668565 -4.96133543 9.60073413 -6 13 C-6.66 11.68 -7.32 10.36 -8 9 C-6.71937515 7.2925002 -5.38232443 5.62626404 -4 4 C-3.34 4 -2.68 4 -2 4 C-1.34 2.68 -0.68 1.36 0 0 Z " fill="#902746" transform="translate(204,136)"/>
<path d="M0 0 C0.99 0 1.98 0 3 0 C2.53199289 4.05606165 2.12046792 7.46588679 0 11 C-0.66 11 -1.32 11 -2 11 C-1.125 3.375 -1.125 3.375 0 0 Z " fill="#8F1F41" transform="translate(61,125)"/>
<path d="M0 0 C0.33 0.66 0.66 1.32 1 2 C0.0625 4.125 0.0625 4.125 -1 6 C-1.66 6 -2.32 6 -3 6 C-3.33 7.32 -3.66 8.64 -4 10 C-5.65 10 -7.3 10 -9 10 C-8.06409496 8.8944811 -7.12620142 7.79064547 -6.1875 6.6875 C-5.66542969 6.07261719 -5.14335937 5.45773438 -4.60546875 4.82421875 C-3.12827531 3.14575321 -1.59960869 1.56117966 0 0 Z " fill="#8E2947" transform="translate(217,123)"/>
<path d="M0 0 C-0.1875 1.875 -0.1875 1.875 -1 4 C-3.5625 5.25 -3.5625 5.25 -6 6 C-6 6.66 -6 7.32 -6 8 C-7.32 7.67 -8.64 7.34 -10 7 C-8.71372289 5.82739389 -7.42080217 4.6620717 -6.125 3.5 C-5.04605469 2.52546875 -5.04605469 2.52546875 -3.9453125 1.53125 C-2 0 -2 0 0 0 Z " fill="#8C2946" transform="translate(235,162)"/>
<path d="M0 0 C0.66 0.33 1.32 0.66 2 1 C2 1.99 2 2.98 2 4 C-0.5 6.1875 -0.5 6.1875 -3 8 C-4.32 7.34 -5.64 6.68 -7 6 C-4.69 4.02 -2.38 2.04 0 0 Z " fill="#902344" transform="translate(242,155)"/>
<path d="M0 0 C0.33 0 0.66 0 1 0 C1.48929664 7.21712538 1.48929664 7.21712538 -0.875 11 C-3 13 -3 13 -5 13 C-3.25 7.25 -3.25 7.25 -1 5 C-0.35232207 2.42938689 -0.35232207 2.42938689 0 0 Z " fill="#8C173A" transform="translate(232,103)"/>
<path d="M0 0 C0.99 0.33 1.98 0.66 3 1 C0.69 3.31 -1.62 5.62 -4 8 C-5.32 7.34 -6.64 6.68 -8 6 C-7.67 5.34 -7.34 4.68 -7 4 C-4.6859378 3.26924352 -2.35171131 2.59861742 0 2 C0 1.34 0 0.68 0 0 Z " fill="#952144" transform="translate(97,94)"/>
<path d="M0 0 C-4.26311718 4.12989477 -7.28758534 4.61271765 -13 5 C-13.33 4.34 -13.66 3.68 -14 3 C-4.58997722 -0.44419134 -4.58997722 -0.44419134 0 0 Z " fill="#87B4A1" transform="translate(128,16)"/>
<path d="M0 0 C10.55808656 -0.3690205 10.55808656 -0.3690205 15 2 C15 2.66 15 3.32 15 4 C13.24871182 3.71617054 11.49899997 3.42260471 9.75 3.125 C8.77546875 2.96257812 7.8009375 2.80015625 6.796875 2.6328125 C4.22735883 2.05144152 2.27928944 1.29159735 0 0 Z " fill="#EAB25F" transform="translate(115,301)"/>
<path d="M0 0 C4.97209562 1.76429199 9.43438061 4.3939166 14 7 C14 7.33 14 7.66 14 8 C6.60180995 7.50678733 6.60180995 7.50678733 3.625 5 C3.08875 4.34 2.5525 3.68 2 3 C1.34 2.67 0.68 2.34 0 2 C0 1.34 0 0.68 0 0 Z " fill="#EBB25E" transform="translate(86,271)"/>
<path d="M0 0 C3.3125 0.625 3.3125 0.625 7 2 C9 5 9 5 10 8 C9.67 8.66 9.34 9.32 9 10 C8.443125 9.278125 7.88625 8.55625 7.3125 7.8125 C5.02090666 5.02542701 2.58540143 2.51358472 0 0 Z " fill="#94304E" transform="translate(86,180)"/>
<path d="M0 0 C7.34693878 -0.48979592 7.34693878 -0.48979592 10.5 1.875 C12 4 12 4 12 6 C7.76570244 4.68938409 3.92592596 3.05643741 0 1 C0 0.67 0 0.34 0 0 Z " fill="#EAB05A" transform="translate(92,291)"/>
<path d="M0 0 C0.6875 1.625 0.6875 1.625 1 4 C-0.4375 7.25 -0.4375 7.25 -2 10 C-2.66 10 -3.32 10 -4 10 C-4 9.34 -4 8.68 -4 8 C-4.66 7.67 -5.32 7.34 -6 7 C-5.195625 6.21625 -4.39125 5.4325 -3.5625 4.625 C-1.01309583 2.28017144 -1.01309583 2.28017144 0 0 Z " fill="#902041" transform="translate(250,147)"/>
<path d="M0 0 C1.32 0.66 2.64 1.32 4 2 C2.37829621 3.00533667 0.75252763 4.00411907 -0.875 5 C-2.23238281 5.8353125 -2.23238281 5.8353125 -3.6171875 6.6875 C-6 8 -6 8 -8 8 C-8 7.01 -8 6.02 -8 5 C-2.25 2 -2.25 2 0 2 C0 1.34 0 0.68 0 0 Z " fill="#8F2A4A" transform="translate(116,79)"/>
<path d="M0 0 C0.33 1.32 0.66 2.64 1 4 C0.34 4 -0.32 4 -1 4 C-0.649375 4.763125 -0.29875 5.52625 0.0625 6.3125 C1 9 1 9 0 12 C-1.32 10.35 -2.64 8.7 -4 7 C-2.92598892 4.08482708 -2.22189824 2.22189824 0 0 Z " fill="#E7B261" transform="translate(271,73)"/>
<path d="M0 0 C0.33 0.66 0.66 1.32 1 2 C-5.27 1.67 -11.54 1.34 -18 1 C-18 0.67 -18 0.34 -18 0 C-5.93188582 -1.41849443 -5.93188582 -1.41849443 0 0 Z " fill="#A3516A" transform="translate(178,70)"/>
<path d="M0 0 C1.29608947 0.93137592 2.58671632 1.8703566 3.875 2.8125 C4.59429687 3.33457031 5.31359375 3.85664063 6.0546875 4.39453125 C8 6 8 6 10 9 C8.35 8.67 6.7 8.34 5 8 C5 7.34 5 6.68 5 6 C4.01 6 3.02 6 2 6 C2 5.34 2 4.68 2 4 C1.34 4 0.68 4 0 4 C0 2.68 0 1.36 0 0 Z " fill="#8D2A48" transform="translate(72,149)"/>
<path d="M0 0 C0.33 0.66 0.66 1.32 1 2 C-0.2363168 2.89422914 -1.48971562 3.76487891 -2.75 4.625 C-3.44609375 5.11226562 -4.1421875 5.59953125 -4.859375 6.1015625 C-5.56578125 6.39804687 -6.2721875 6.69453125 -7 7 C-8.32 6.34 -9.64 5.68 -11 5 C-7.37 3.35 -3.74 1.7 0 0 Z " fill="#87B7A4" transform="translate(103,23)"/>
<path d="M0 0 C1.32 0.33 2.64 0.66 4 1 C0.04 4.465 0.04 4.465 -4 8 C-4.33 7.34 -4.66 6.68 -5 6 C-4.67 5.34 -4.34 4.68 -4 4 C-3.01 4 -2.02 4 -1 4 C-0.67 2.68 -0.34 1.36 0 0 Z " fill="#EEAF55" transform="translate(257,269)"/>
<path d="M0 0 C0.33 0 0.66 0 1 0 C1 3.63 1 7.26 1 11 C0.01 11 -0.98 11 -2 11 C-1.125 3.375 -1.125 3.375 0 0 Z " fill="#8F2747" transform="translate(200,203)"/>
<path d="M0 0 C1.11375 0.598125 2.2275 1.19625 3.375 1.8125 C4.00148438 2.14894531 4.62796875 2.48539063 5.2734375 2.83203125 C7 4 7 4 9 7 C6.69 6.67 4.38 6.34 2 6 C1.34 4.02 0.68 2.04 0 0 Z " fill="#8D2243" transform="translate(82,158)"/>
<path d="M0 0 C1.875 0.625 1.875 0.625 4 2 C5.25 5.125 5.25 5.125 6 8 C5.01 8 4.02 8 3 8 C0 2.25 0 2.25 0 0 Z " fill="#912545" transform="translate(130,128)"/>
<path d="M0 0 C3.09592835 3.5087188 4.74194623 6.49197399 6 11 C3 10 3 10 1.3125 7.1875 C0 4 0 4 0 0 Z " fill="#932C4C" transform="translate(251,106)"/>
<path d="M0 0 C4.62 1.32 9.24 2.64 14 4 C14 4.33 14 4.66 14 5 C11.03 5 8.06 5 5 5 C5 4.34 5 3.68 5 3 C3.35 2.67 1.7 2.34 0 2 C0 1.34 0 0.68 0 0 Z " fill="#8AB6A4" transform="translate(198,16)"/>
<path d="M0 0 C2.55803184 3.83704776 4.34505724 7.75712791 3.625 12.4375 C3.41875 12.953125 3.2125 13.46875 3 14 C0.81005752 10.71508627 0.64722661 9.16904361 0.375 5.3125 C0.30023438 4.31863281 0.22546875 3.32476562 0.1484375 2.30078125 C0.09945312 1.54152344 0.05046875 0.78226563 0 0 Z " fill="#9A3957" transform="translate(121,203)"/>
<path d="M0 0 C0.99 0.33 1.98 0.66 3 1 C4.67563646 5.35665479 5.36503641 8.49537986 4 13 C3.67 13 3.34 13 3 13 C2.01 8.71 1.02 4.42 0 0 Z " fill="#973453" transform="translate(106,206)"/>
<path d="M0 0 C0.99 0 1.98 0 3 0 C3 1.32 3 2.64 3 4 C3.66 4 4.32 4 5 4 C5 5.32 5 6.64 5 8 C5.66 8.33 6.32 8.66 7 9 C6.34 9.66 5.68 10.32 5 11 C4.16151196 9.54462432 3.32936066 8.08559627 2.5 6.625 C1.80390625 5.40683594 1.80390625 5.40683594 1.09375 4.1640625 C0 2 0 2 0 0 Z " fill="#932A4A" transform="translate(66,205)"/>
<path d="M0 0 C0.66 0.33 1.32 0.66 2 1 C0.71264403 3.57471193 -0.28489811 3.70416657 -2.9375 4.6875 C-3.64777344 4.95949219 -4.35804688 5.23148437 -5.08984375 5.51171875 C-7 6 -7 6 -9 5 C-3.375 1.125 -3.375 1.125 0 0 Z " fill="#8E324E" transform="translate(150,86)"/>
<path d="M0 0 C0.33 1.32 0.66 2.64 1 4 C-2.25978366 6.22257977 -5.44774296 8.28564986 -9 10 C-8.06409496 8.8944811 -7.12620142 7.79064547 -6.1875 6.6875 C-5.66542969 6.07261719 -5.14335938 5.45773438 -4.60546875 4.82421875 C-3.12827531 3.14575321 -1.59960869 1.56117966 0 0 Z " fill="#81203E" transform="translate(92,80)"/>
<path d="M0 0 C0.33 0.99 0.66 1.98 1 3 C-0.65 4.32 -2.3 5.64 -4 7 C-4.66 6.34 -5.32 5.68 -6 5 C-3.375 1.125 -3.375 1.125 0 0 Z " fill="#8D1B3E" transform="translate(218,177)"/>
<path d="M0 0 C3.375 -0.1875 3.375 -0.1875 7 0 C7.66 0.99 8.32 1.98 9 3 C8.67 3.99 8.34 4.98 8 6 C7.236875 5.34 6.47375 4.68 5.6875 4 C3.15722061 1.70149462 3.15722061 1.70149462 0 2 C0 1.34 0 0.68 0 0 Z " fill="#942E4C" transform="translate(73,171)"/>
<path d="M0 0 C0.66 0.33 1.32 0.66 2 1 C0.9024777 3.99324263 0.32317108 4.84610901 -2.625 6.25 C-3.40875 6.4975 -4.1925 6.745 -5 7 C-5.66 6.34 -6.32 5.68 -7 5 C-4.69 3.35 -2.38 1.7 0 0 Z " fill="#8E2D4A" transform="translate(105,70)"/>
<path d="M0 0 C1.65 0 3.3 0 5 0 C1.80009492 2.74277578 -1.00499382 4.6302836 -5 6 C-5 5.01 -5 4.02 -5 3 C-3.35 2.67 -1.7 2.34 0 2 C0 1.34 0 0.68 0 0 Z " fill="#EDB25F" transform="translate(236,285)"/>
<path d="M0 0 C1.0625 1.875 1.0625 1.875 2 4 C1.67 4.66 1.34 5.32 1 6 C0.34 6 -0.32 6 -1 6 C-1.33 7.98 -1.66 9.96 -2 12 C-2.66 12 -3.32 12 -4 12 C-2.66666667 8 -1.33333333 4 0 0 Z " fill="#89B7A5" transform="translate(25,99)"/>
<path d="M0 0 C-1.98 2.31 -3.96 4.62 -6 7 C-7 3 -7 3 -6 0 C-3 -1 -3 -1 0 0 Z " fill="#942949" transform="translate(152,103)"/>
<path d="M0 0 C-3 2 -3 2 -6 3 C-7.66710346 4.49985609 -7.66710346 4.49985609 -9 6 C-9.66 5.67 -10.32 5.34 -11 5 C-4.75324675 -1.58441558 -4.75324675 -1.58441558 0 0 Z " fill="#861A3B" transform="translate(146,92)"/>
<path d="M0 0 C0.99 0.99 1.98 1.98 3 3 C1.02 3.99 1.02 3.99 -1 5 C-2.65 3.68 -4.3 2.36 -6 1 C-3.03 1.495 -3.03 1.495 0 2 C0 1.34 0 0.68 0 0 Z " fill="#912243" transform="translate(113,249)"/>
<path d="M0 0 C6.625 -0.25 6.625 -0.25 10 2 C5.94568308 3.15837626 3.78187881 2.83691257 0 1 C0 0.67 0 0.34 0 0 Z " fill="#8F2B49" transform="translate(179,71)"/>
<path d="M0 0 C2.64 0 5.28 0 8 0 C8 0.66 8 1.32 8 2 C8.99 2 9.98 2 11 2 C11 2.66 11 3.32 11 4 C7.37 3.01 3.74 2.02 0 1 C0 0.67 0 0.34 0 0 Z " fill="#EBB15D" transform="translate(104,297)"/>
<path d="M0 0 C1.2077558 3.62326739 0.54311128 4.64146369 -1 8 C-2.32 7.67 -3.64 7.34 -5 7 C-3.35 4.69 -1.7 2.38 0 0 Z " fill="#8A2341" transform="translate(235,210)"/>
<path d="M0 0 C0.99 0.33 1.98 0.66 3 1 C3.33 3.97 3.66 6.94 4 10 C1.7448078 7.7448078 1.02276532 5.9952413 0 3 C0 2.01 0 1.02 0 0 Z " fill="#983553" transform="translate(62,195)"/>
<path d="M0 0 C2 2 2 2 2.125 4.625 C2.08375 5.40875 2.0425 6.1925 2 7 C2.66 7.33 3.32 7.66 4 8 C3.01 9.485 3.01 9.485 2 11 C1.01 7.7 0.02 4.4 -1 1 C-0.67 0.67 -0.34 0.34 0 0 Z " fill="#983451" transform="translate(131,180)"/>
<path d="M0 0 C1.32 0 2.64 0 4 0 C5.8125 2.3125 5.8125 2.3125 7 5 C6.67 5.99 6.34 6.98 6 8 C4.02 5.36 2.04 2.72 0 0 Z " fill="#912F4B" transform="translate(111,152)"/>
<path d="M0 0 C1 2 1 2 1 6 C-0.98 6.66 -2.96 7.32 -5 8 C-1.125 1.125 -1.125 1.125 0 0 Z " fill="#8C2846" transform="translate(195,146)"/>
<path d="M0 0 C0.99 0.33 1.98 0.66 3 1 C0.525 4.465 0.525 4.465 -2 8 C-3.24546405 5.50907189 -2.7767578 4.58919267 -2 2 C-1.34 2 -0.68 2 0 2 C0 1.34 0 0.68 0 0 Z " fill="#EEB156" transform="translate(281,243)"/>
<path d="M0 0 C0.99 0.33 1.98 0.66 3 1 C1.25 5.875 1.25 5.875 -1 7 C-0.67 4.69 -0.34 2.38 0 0 Z " fill="#910F36" transform="translate(209,186)"/>
<path d="M0 0 C0.33 0.66 0.66 1.32 1 2 C0.22265625 3.7265625 0.22265625 3.7265625 -0.9375 5.625 C-1.618125 6.73875 -2.29875 7.8525 -3 9 C-3.66 8.34 -4.32 7.68 -5 7 C-3.35 4.69 -1.7 2.38 0 0 Z " fill="#85B7A2" transform="translate(40,74)"/>
<path d="M0 0 C0.66 0.33 1.32 0.66 2 1 C2 1.66 2 2.32 2 3 C0.1875 4.6875 0.1875 4.6875 -2 6 C-2.99 5.67 -3.98 5.34 -5 5 C-3.35 3.35 -1.7 1.7 0 0 Z " fill="#983755" transform="translate(229,218)"/>
<path d="M0 0 C0.33 0 0.66 0 1 0 C1 1.65 1 3.3 1 5 C0.67 5 0.34 5 0 5 C0 3.35 0 1.7 0 0 Z M-3 5 C-2.01 5.33 -1.02 5.66 0 6 C-0.33 6.99 -0.66 7.98 -1 9 C-1.99 9.33 -2.98 9.66 -4 10 C-3.67 8.35 -3.34 6.7 -3 5 Z " fill="#F4AD47" transform="translate(292,192)"/>
<path d="M0 0 C1.65 0 3.3 0 5 0 C3.625 2.5 3.625 2.5 2 5 C1.34 5 0.68 5 0 5 C0 3.35 0 1.7 0 0 Z " fill="#982749" transform="translate(219,193)"/>
<path d="M0 0 C0.66 0 1.32 0 2 0 C2.625 1.8125 2.625 1.8125 3 4 C2.01 5.485 2.01 5.485 1 7 C0.34 7 -0.32 7 -1 7 C-0.67 4.69 -0.34 2.38 0 0 Z " fill="#922646" transform="translate(248,180)"/>
<path d="M0 0 C1 2 2 4 3 6 C2.34 6.66 1.68 7.32 1 8 C-0.98 4.535 -0.98 4.535 -3 1 C-2.01 0.67 -1.02 0.34 0 0 Z " fill="#96304E" transform="translate(122,161)"/>
<path d="M0 0 C3.37503669 1.1858237 5.64722731 2.27573689 8 5 C4.62537285 4.45276317 2.91765 3.9451 0 2 C0 1.34 0 0.68 0 0 Z " fill="#8E304C" transform="translate(173,87)"/>
<path d="M0 0 C-3.18762365 2.12508244 -5.26512223 2.5020163 -9 3 C-8.34 2.67 -7.68 2.34 -7 2 C-7 1.34 -7 0.68 -7 0 C-4.3333581 -1.33332095 -2.83319697 -0.67102033 0 0 Z " fill="#86B6A3" transform="translate(128,30)"/>
</svg>
