<?xml version="1.0" encoding="utf-8"?>
<!-- Generator: Adobe Illustrator 24.0.2, SVG Export Plug-In . SVG Version: 6.00 Build 0)  -->
<svg version="1.1" id="Capa_1" xmlns="http://www.w3.org/2000/svg" xmlns:xlink="http://www.w3.org/1999/xlink" x="0px" y="0px"
	 viewBox="0 0 214.7 214.7" style="enable-background:new 0 0 214.7 214.7;" xml:space="preserve">
<style type="text/css">
	.st0{fill:#7CA092;}
</style>
<g>
	<path class="st0" d="M108.1,208c-56.3-0.1-101-45.1-100.8-101.6C7.5,50.2,52.7,5.7,109.4,6c55.4,0.3,99.9,45.1,99.9,100.7
		C209.4,163.2,164.5,208,108.1,208z M74.1,96.6c-8.8,0.6-13.2,9.7-7.1,17.3c7,8.7,15.4,16.3,23.6,23.8c4.9,4.5,10.6,3.4,15.2-1
		c14.4-14.1,28.7-28.3,42.8-42.8c5.4-5.5,6.2-12.2-0.1-17.7c-5.9-5.2-11.5-2.3-16.3,2.4c-9.6,9.4-19.3,18.8-28.5,28.6
		c-4.9,5.3-8.4,5.6-13.4,0.1C86,102.4,82.1,96.3,74.1,96.6z"/>
</g>
</svg>
