<?xml version="1.0" encoding="utf-8"?>
<!-- Generator: Adobe Illustrator 24.0.2, SVG Export Plug-In . SVG Version: 6.00 Build 0)  -->
<svg version="1.1" id="Capa_1" xmlns="http://www.w3.org/2000/svg" xmlns:xlink="http://www.w3.org/1999/xlink" x="0px" y="0px"
	 viewBox="0 0 10.4 9.5" style="enable-background:new 0 0 10.4 9.5;" xml:space="preserve">
<style type="text/css">
	<!-- .st0{fill:#7CA193;} -->
	.st0{fill:#458f82;}
	<!-- .st0{fill:red;} -->
</style>
<g>
	<path class="st0" d="M5.2,8.5c-2.1,0-3.8-1.7-3.8-3.8c0-2.1,1.7-3.8,3.8-3.7c2.1,0,3.7,1.7,3.7,3.8C9,6.8,7.3,8.5,5.2,8.5z
		 M3.9,4.3C3.6,4.3,3.4,4.7,3.6,5c0.3,0.3,0.6,0.6,0.9,0.9C4.7,6,4.9,6,5.1,5.8c0.5-0.5,1.1-1.1,1.6-1.6c0.2-0.2,0.2-0.5,0-0.7
		C6.5,3.4,6.3,3.5,6.1,3.6C5.7,4,5.4,4.3,5,4.7c-0.2,0.2-0.3,0.2-0.5,0C4.3,4.5,4.2,4.3,3.9,4.3z"/>
</g>
</svg>
