<?xml version="1.0" encoding="utf-8"?>
<!-- Generator: Adobe Illustrator 24.0.2, SVG Export Plug-In . SVG Version: 6.00 Build 0)  -->
<svg version="1.1" id="Capa_1" xmlns="http://www.w3.org/2000/svg" xmlns:xlink="http://www.w3.org/1999/xlink" x="0px" y="0px"
	 viewBox="0 0 214.7 214.7" style="enable-background:new 0 0 214.7 214.7;" xml:space="preserve">
<style type="text/css">
	.st0{fill:none;}
	.st1{fill:#F1A445;}
</style>
<g>
	<path class="st0" d="M105,134.2c3.1-4,8.2-7.7,8.8-12.1c2.6-18.4,3.8-36.9,5.5-56.3c-1.6-8.5,1.8-22.3-13.6-21.8
		c-14.1,0.5-13.7,12.5-13,23.1c1.4,18.5,2.4,37,4.5,55.4C97.8,126.7,102.3,130.3,105,134.2z"/>
	<path class="st1" d="M107.3,5.6C50.8,5.2,5.3,49.9,5,106c-0.3,55.4,44.6,101.4,99.6,102c56.4,0.7,102.1-43.9,102.7-100
		C207.9,51.1,163.8,6.1,107.3,5.6z M105.8,44c13.8,0,13.8,11,13.6,21.8c-1.8,19.4-3,38-5.5,56.3c-0.6,4.3-3.8,12.2-8.8,12.1
		c-4.7-0.1-7.1-7.5-7.6-11.6c-2.1-18.4-3.2-36.9-4.5-55.4C92,56.5,91.6,44,105.8,44z M106.5,177c-7.2,0-13-6-13-13.5
		c0-7.5,5.8-13.5,13-13.5s13,6,13,13.5C119.5,170.9,113.7,177,106.5,177z"/>
</g>
</svg>
