<?xml version="1.0" encoding="utf-8"?>
<!-- Generator: Adobe Illustrator 24.0.2, SVG Export Plug-In . SVG Version: 6.00 Build 0)  -->
<svg version="1.1" id="Capa_1" xmlns="http://www.w3.org/2000/svg" xmlns:xlink="http://www.w3.org/1999/xlink" x="0px" y="0px"
	 viewBox="0 0 8.3 8.2" style="enable-background:new 0 0 8.3 8.2;" xml:space="preserve">
<style type="text/css">
	.st0{fill:none;}
	.st1{fill:#F1A546;}
</style>
<g>
	<path class="st0" d="M4.1,1.9c-0.5,0-0.5,0.4-0.5,0.8c0,0.7,0.1,1.3,0.2,2c0,0.1,0.1,0.4,0.3,0.4c0.2,0,0.3-0.3,0.3-0.4
		c0.1-0.6,0.1-1.3,0.2-2C4.6,2.3,4.7,1.9,4.1,1.9z"/>
	<path class="st1" d="M4.2,0.6c-2,0-3.6,1.6-3.6,3.5c0,2,1.6,3.6,3.5,3.6c2,0,3.6-1.6,3.6-3.5C7.7,2.2,6.2,0.6,4.2,0.6z M4.1,6.6
		c-0.2,0-0.4-0.2-0.4-0.4s0.2-0.4,0.4-0.4s0.4,0.2,0.4,0.4S4.4,6.6,4.1,6.6z M4.4,4.7c0,0.2-0.1,0.4-0.3,0.4c-0.2,0-0.3-0.3-0.3-0.4
		C3.8,4,3.7,3.4,3.7,2.7c0-0.4,0-0.8,0.5-0.8c0.5,0,0.5,0.3,0.5,0.8C4.5,3.4,4.5,4,4.4,4.7z"/>
</g>
</svg>
