<?xml version="1.0" encoding="utf-8"?>
<!-- Generator: Adobe Illustrator 24.0.2, SVG Export Plug-In . SVG Version: 6.00 Build 0)  -->
<svg version="1.1" id="Capa_1" xmlns="http://www.w3.org/2000/svg" xmlns:xlink="http://www.w3.org/1999/xlink" x="0px" y="0px"
	 viewBox="0 0 51 51" style="enable-background:new 0 0 51 51;" xml:space="preserve">
<style type="text/css">
	.st0{fill:#7CA092;}
</style>
<g>
	<path class="st0" d="M2.5,25.4c0-12.9,10.5-23.3,23.4-23.3c12.9,0,23.2,10.5,23.2,23.4c0,12.8-10.5,23.2-23.4,23.2
		C12.9,48.8,2.5,38.3,2.5,25.4z M23.4,28.9c0,1.8,0,3.7,0,5.5c0,0.7,0.3,1.2,0.9,1.4c0.6,0.2,1.2,0.3,1.8,0.3
		c1.6-0.1,2.1-0.7,2.1-2.3c0-3.5,0-6.9,0-10.4c0-1-0.4-1.6-1.4-1.7c-0.7-0.1-1.4-0.1-2,0c-1,0.2-1.3,0.7-1.3,1.7
		C23.4,25.2,23.4,27,23.4,28.9z M25.8,18.7c1.3,0,2.4-1,2.5-2.2c0-1.2-1.1-2.2-2.5-2.2c-1.4,0-2.5,1-2.5,2.2
		C23.3,17.7,24.4,18.7,25.8,18.7z"/>
</g>
</svg>
