<?xml version="1.0" encoding="utf-8"?>
<!-- Generator: Adobe Illustrator 24.0.2, SVG Export Plug-In . SVG Version: 6.00 Build 0)  -->
<svg version="1.1" id="Capa_1" xmlns="http://www.w3.org/2000/svg" xmlns:xlink="http://www.w3.org/1999/xlink" x="0px" y="0px"
	 viewBox="0 0 214.7 214.7" style="enable-background:new 0 0 214.7 214.7;" xml:space="preserve">
<style type="text/css">
	.st0{fill:#6B1320;}
</style>
<g>
	<g>
		<path class="st0" d="M8.2,106.2C8.3,50.5,53.9,5.6,109.9,5.8c55.6,0.2,100.6,45.8,100.4,101.8c-0.2,55.6-45.8,100.6-101.8,100.4
			C53,207.8,8,162.2,8.2,106.2z M106.1,172.3c2.1,0.1,4.3,0.1,6.4,0.2c14-21.2,28.4-42.1,41.8-63.7c3.3-5.4,5.1-12.9,4.8-19.2
			c-1.1-21.1-11.6-36.5-31.3-44.7c-18.7-7.8-40.4-3-54.5,11.7c-14.2,14.8-18.9,35.2-8.6,53.2C77,131.4,92.1,151.5,106.1,172.3z"/>
		<path class="st0" d="M109.2,71.4c10.2,0,18.5,8,18.8,18.2c0.4,10.6-8.3,19.6-18.7,19.7c-10.4,0-19.2-9-18.9-19.5
			C90.8,79.5,99,71.5,109.2,71.4z"/>
	</g>
</g>
</svg>
