<?xml version="1.0" encoding="utf-8"?>
<!-- Generator: Adobe Illustrator 24.0.2, SVG Export Plug-In . SVG Version: 6.00 Build 0)  -->
<svg version="1.1" id="Capa_1" xmlns="http://www.w3.org/2000/svg" xmlns:xlink="http://www.w3.org/1999/xlink" x="0px" y="0px"
	 viewBox="0 0 8.3 8.2" style="enable-background:new 0 0 8.3 8.2;" xml:space="preserve">
<style type="text/css">
	.st0{fill:#6B1320;}
</style>
<g>
	<g>
		<path class="st0" d="M0.5,4.1c0-2,1.6-3.6,3.6-3.6c2,0,3.6,1.6,3.6,3.6c0,2-1.6,3.6-3.6,3.6C2.1,7.7,0.5,6.1,0.5,4.1z M4,6.4
			c0.1,0,0.2,0,0.2,0c0.5-0.8,1-1.5,1.5-2.3C5.9,4,5.9,3.7,5.9,3.5c0-0.8-0.4-1.3-1.1-1.6C4.1,1.6,3.4,1.8,2.9,2.3
			C2.4,2.8,2.2,3.6,2.6,4.2C3,5,3.5,5.7,4,6.4z"/>
		<path class="st0" d="M4.1,2.8c0.4,0,0.7,0.3,0.7,0.6c0,0.4-0.3,0.7-0.7,0.7c-0.4,0-0.7-0.3-0.7-0.7C3.5,3.1,3.8,2.8,4.1,2.8z"/>
	</g>
</g>
</svg>
