<?xml version="1.0" encoding="utf-8"?>
<!-- Generator: Adobe Illustrator 24.0.2, SVG Export Plug-In . SVG Version: 6.00 Build 0)  -->
<svg version="1.1" id="Capa_1" xmlns="http://www.w3.org/2000/svg" xmlns:xlink="http://www.w3.org/1999/xlink" x="0px" y="0px"
	 viewBox="0 0 8.3 8.2" style="enable-background:new 0 0 8.3 8.2;" xml:space="preserve">
<style type="text/css">
	.st0{fill:#27759f;}
	<!-- .st0{fill:#5CA0A0;} -->
</style>
<g>
	<path class="st0" d="M4.2,0.6c2,0,3.6,1.6,3.6,3.6c0,2-1.6,3.6-3.6,3.6c-2,0-3.6-1.6-3.6-3.6C0.6,2.2,2.2,0.6,4.2,0.6z M4.4,2.9
		C4.4,2.9,4.4,3,4.4,2.9C3.8,3.5,3.2,4.1,2.7,4.7C2.6,4.7,2.5,4.9,2.5,5C2.4,5.3,2.3,5.6,2.2,5.8c0,0.1,0,0.2,0,0.2
		c0.1,0.1,0.1,0.1,0.2,0C2.8,6,3,5.9,3.3,5.9c0.2,0,0.3-0.1,0.5-0.3C4.3,5,4.8,4.5,5.3,4c0,0,0-0.1,0.1-0.1C5.1,3.6,4.7,3.2,4.4,2.9
		z M5.6,3.7C5.7,3.5,5.9,3.4,6,3.3c0.2-0.2,0.2-0.4,0-0.6C5.9,2.6,5.8,2.4,5.6,2.3c-0.2-0.1-0.4-0.2-0.6,0C4.9,2.4,4.8,2.6,4.7,2.7
		C5,3,5.3,3.4,5.6,3.7z"/>
</g>
</svg>
