<?xml version="1.0" encoding="utf-8"?>
<!-- Generator: Adobe Illustrator 24.0.2, SVG Export Plug-In . SVG Version: 6.00 Build 0)  -->
<svg version="1.1" id="Capa_1" xmlns="http://www.w3.org/2000/svg" xmlns:xlink="http://www.w3.org/1999/xlink" x="0px" y="0px"
	 viewBox="0 0 214.7 214.7" style="enable-background:new 0 0 214.7 214.7;" xml:space="preserve">
<style type="text/css">
	.st0{fill:#5B9F9F;}
</style>
<g>
	<path class="st0" d="M106.6,5.9c55.8,0,100.9,45.3,100.9,101.2c0,55.7-45.4,100.8-101.4,100.8c-55.7,0-100.6-45.5-100.6-101.6
		C5.6,51,51,5.9,106.6,5.9z M113.6,72.2c-0.5,0.4-1.2,1-1.9,1.7c-15.6,15.7-31.4,31.4-46.8,47.3c-2.7,2.8-4.8,6.4-6.1,10.1
		c-2.7,7.5-4.7,15.3-6.9,22.9c-0.7,2.3-1,4.6,1,6.5c2,1.9,4.2,1.5,6.5,0.8c7.2-2.1,14.3-4.2,21.5-6.2c5-1.4,9.2-3.9,12.8-7.6
		c15.2-15.3,30.5-30.5,45.7-45.8c0.7-0.7,1.4-1.5,1.9-2.1C132,90.5,122.8,81.4,113.6,72.2z M147.3,93.7c3.7-3.7,7.7-7.1,11.2-11
		c4.4-4.9,4.4-12.1,0-17c-3.4-3.7-7-7.3-10.7-10.7c-4.5-4.1-11.5-4.7-15.9-0.8c-4.3,3.7-7.9,8.3-11.6,12.4
		C129,75.4,138.1,84.5,147.3,93.7z"/>
</g>
</svg>
