<?xml version="1.0" encoding="utf-8"?>
<!-- Generator: Adobe Illustrator 24.0.2, SVG Export Plug-In . SVG Version: 6.00 Build 0)  -->
<svg version="1.1" id="Capa_1" xmlns="http://www.w3.org/2000/svg" xmlns:xlink="http://www.w3.org/1999/xlink" x="0px" y="0px"
	 viewBox="0 0 214.7 214.7" style="enable-background:new 0 0 214.7 214.7;" xml:space="preserve">
<style type="text/css">
	.st0{fill:#7CA092;}
</style>
<g>
	<path class="st0" d="M108.8,5.9C164.6,6,209.6,51.2,209.5,107.2C209.5,163.1,164.3,208,108.3,208C52.4,207.9,7.4,162.7,7.5,106.7
		C7.6,50.8,52.8,5.9,108.8,5.9z M85.9,92.9c3.1-3.6,6.1-7,9-10.5c2.8-3.4,2.8-6-0.3-9.1c-5.7-5.8-11.5-11.4-17.3-17
		c-2.6-2.5-5.5-2.5-8.7-0.7C60.3,60.4,56.9,67.9,56.2,77c-1.1,12.6,3.6,23.4,10.6,33.2c10.4,14.6,22.9,27.3,37.4,37.9
		c7.1,5.2,14.8,9.5,23.6,10.8c15,2.2,25.8-1.2,31.9-11.8c1.9-3.2,1.9-6.1-0.6-8.7c-5.7-6-11.4-11.8-17.3-17.6
		c-2.8-2.8-5.6-2.7-8.8-0.1c-2.9,2.3-5.5,4.9-8.4,7.1c-0.9,0.7-2.8,1.1-3.8,0.6C105.4,120.5,93.9,108.7,85.9,92.9z"/>
</g>
</svg>
