<?xml version="1.0" encoding="utf-8"?>
<!-- Generator: Adobe Illustrator 24.0.2, SVG Export Plug-In . SVG Version: 6.00 Build 0)  -->
<svg version="1.1" xmlns="http://www.w3.org/2000/svg" xmlns:xlink="http://www.w3.org/1999/xlink" x="0px" y="0px"
	 viewBox="0 0 309.7 91.7" style="enable-background:new 0 0 309.7 91.7;" xml:space="preserve">
<style type="text/css">
	.st0{fill:#FCFCFC;}
	.st1{fill:#24448F;}
	.st2{fill:#186432;}
	.st3{fill:#196533;}
	.st4{fill:#CA9D0E;}
	.st5{fill:#244590;}
	.st6{fill:#264691;}
	.st7{fill:#2486C7;}
	.st8{fill:#2C4B94;}
	.st9{fill:#FBFBFB;}
	.st10{fill:#F8DE18;}
	.st11{fill:#F6DE1B;}
	.st12{fill:#F1F2F4;}
	.st13{fill:#F6F6F6;}
	.st14{fill:#090A0C;}
	.st15{fill:#188F3A;}
	.st16{fill:#C29200;}
	.st17{fill:#010102;}
</style>
<g id="Capa_1">
	<path class="st0" d="M316,98.3c-0.1-0.1-0.1-0.1-0.2-0.2C316,98,316.1,98.1,316,98.3z"/>
	<path class="st0" d="M-12.9,98.1c-0.1,0.1-0.1,0.1-0.2,0.2C-13.2,98.1-13.1,98-12.9,98.1z"/>
	<path class="st0" d="M318.7,105.6c0.1-0.1,0.1-0.1,0.2-0.2C319,105.5,318.9,105.6,318.7,105.6z"/>
	<path class="st1" d="M48.3,24.9c5.9,4.5,8.7,10.7,9.6,17.9c0.8,7.1-0.4,13.8-4.3,19.8c-2.5,3.9-5.8,6.8-10.4,8
		c-5.6,1.5-10.5,0-14.8-3.9c-4.5-4.2-6.8-9.5-7.8-15.5c-0.9-5.8-0.2-11.4,2.1-16.8c1.6-3.8,4-7,7.4-9.5c0.2-0.2,0.4-0.3,0.7-0.5
		c0.8-0.4,1.5-0.8,2.3-1.2c0.2,0,0.3,0,0.4-0.2c1.7-0.5,3.4-1,5.2-1.1c2.2-0.1,4.2,0.4,6.3,1C46,23.7,47.1,24.3,48.3,24.9z
		 M39.1,46.6c-5.7,0-11.4,0-17,0c-0.7,0-0.9,0.1-0.8,0.8c0.2,2,0.3,3.9,0.8,5.9c1.1,4.8,3.2,9,6.8,12.4c2.6,2.5,5.6,4,9.3,4.3
		c0.8,0.1,1-0.1,1-1C39.1,61.6,39.1,54.1,39.1,46.6c5.9,0,11.9,0,17.8,0c-1.5-0.9-3-1-4.6-0.6c-1.1,0.3-2.2,0.3-3.3,0
		c-1.1-0.3-2.1-0.3-3.2,0c-1.2,0.4-2.4,0.4-3.6,0c-0.8-0.2-1.5-0.2-2.3-0.2C39.4,45.8,39.1,46,39.1,46.6z M39.1,31.8
		c0,2.6,0,5.2,0,7.8c0,0.8,0.3,1,1,0.8c0.7-0.2,1.4,0,2.1,0.2c1.1,0.3,2.3,0.4,3.4,0c1.2-0.4,2.4-0.4,3.6,0c1,0.3,1.9,0.3,2.9,0
		c1.2-0.3,2.4-0.4,3.6-0.1c0.6,0.2,0.6,0,0.5-0.6c-0.3-1.5-0.7-3-1.3-4.4c-2.9-6.6-7.1-11.6-14.8-12.6c-0.8-0.1-1.1,0.1-1,0.9
		C39.2,26.6,39.1,29.2,39.1,31.8z M40.9,52.7c-0.1,0.7,0.5,1.2,0.1,1.9c-0.4,0.7,0,1.1,0.7,1.1c0.3,0,0.6,0.1,0.8,0.3
		c1.3,1.4,2.4,2.9,2.3,4.9c0,0.2-0.2,0.5,0.2,0.5c0.4,0,0.4-0.2,0.4-0.5c0-0.6,0-1.2,0-1.7c0-0.2,0-0.4,0.3-0.4
		c0.3,0,0.4,0.1,0.4,0.4c0.1,0.6,0.2,1.2,0,1.8c-0.1,0.3-0.1,0.5,0.3,0.5c0.3,0,0.5-0.1,0.5-0.5c-0.1-0.5-0.1-1,0-1.4
		c0.1-0.9,1.1-1.8,2.3-1.8c1.1,0,1.2,0.7,1.5,1.5c0.3,0.8-0.1,1.4-0.4,2.3c1.6-0.3,0.8-1.7,1.3-2.5c0.4,0.6,0.6,1.2,0.4,1.8
		c0,0.2-0.4,0.5,0.1,0.6c0.4,0.1,0.6-0.2,0.6-0.5c0-1.7,0.8-3.3,0.5-5.1c-0.3-1.9-0.8-2.5-2.8-2.5c-2,0-4,0-6.1,0
		c-0.6,0-1,0-0.7-0.8C43,53,41.6,53,40.9,52.7z M30.5,37.3c0.5-1.6,0.5-1.6,2.4-1.6c0,0,0.1,0,0.1,0c0.8-0.1,1.1,0.1,0.8,1
		c-0.6,1.4-1,2.9-1.5,4.3c-0.4,1,0,1.7,0.8,2.3c0.8,0.6,1.9,0.6,2.7,0c0.7-0.6,1.1-1.3,0.8-2.3c-0.5-1.4-1-2.9-1.5-4.3
		c-0.1-0.4-0.3-0.7,0-1.1c0.2-0.3,0.1-0.6-0.1-0.8c-0.3-0.2-0.5-0.2-0.8,0c-0.8,0.4-1.7,0.1-2.6,0.2c-0.2,0-0.5-0.1-0.4-0.3
		c0.1-0.8-0.4-1.7,0.5-2.4c0.6-0.5,0.5-1.2-0.1-1.7c-0.5-0.5-1.2-0.6-1.7,0c-0.6,0.5-0.6,1.3-0.1,1.7c0.8,0.6,0.5,1.4,0.6,2.1
		c0,0.4-0.2,0.7-0.6,0.6c-0.9-0.1-1.8,0.2-2.6-0.2c-0.6-0.3-1.1,0.2-0.9,0.7c0.3,0.6,0,1.1-0.1,1.6c-0.5,1.3-0.9,2.6-1.4,3.9
		c-0.3,1,0,1.7,0.8,2.3c0.7,0.6,1.9,0.5,2.6,0c0.8-0.6,1.1-1.5,0.8-2.4c-0.4-1.2-0.8-2.4-1.2-3.6c-0.6-1.8-0.6-1.7,1.2-1.8
		c1.1,0,1.8,0.1,1.6,1.4C30.2,37.2,30.3,37.4,30.5,37.3z M40.7,44.5c-0.4,0.1-0.9,0-1.3,0.3c-0.2,0.1-0.3,0.2-0.3,0.4
		c0,0.2,0.2,0.2,0.4,0.2c1.1-0.3,2.2,0,3.3,0.3c0.8,0.2,1.6,0.3,2.3,0c1.5-0.5,3.1-0.5,4.6,0c0.7,0.2,1.4,0.2,2.1,0
		c1.5-0.5,3-0.5,4.5,0c0.2,0.1,0.5,0.2,0.6-0.2c0.1-0.3-0.1-0.4-0.4-0.4c-1.4-0.4-2.9-0.6-4.3-0.1c-1,0.3-2.1,0.3-3.1,0
		c-0.6-0.2-1.2-0.4-1.8-0.3C45.1,45.1,42.9,45.3,40.7,44.5z M40.7,40.9c-0.3,0.1-0.7,0.1-1.1,0.2c-0.3,0-0.5,0.1-0.5,0.4
		c0.1,0.3,0.4,0.2,0.6,0.2c0.9-0.2,1.7-0.1,2.5,0.2c1.2,0.4,2.3,0.4,3.5,0c1.1-0.4,2.2-0.4,3.3,0c0.8,0.3,1.6,0.4,2.4,0.2
		c1.5-0.4,3-0.8,4.6-0.2c0.1,0.1,0.4,0.1,0.5-0.2c0-0.2-0.1-0.4-0.3-0.4c-1-0.2-1.9-0.6-2.9-0.3c-1.7,0.5-3.3,0.7-5,0
		c-0.7-0.3-1.4-0.2-2,0c-1.5,0.5-3,0.6-4.5,0C41.5,41,41.2,41,40.7,40.9z M54,42.6c0.8,0.2,1.5,0.4,2.1,0.5c0.2,0,0.5,0.2,0.6-0.1
		c0.1-0.3-0.2-0.4-0.4-0.5c-1.3-0.4-2.6-0.6-3.9-0.1c-1.1,0.4-2.3,0.4-3.4,0c-1.1-0.4-2.1-0.4-3.2,0c-1.2,0.4-2.4,0.4-3.6,0
		c-0.8-0.3-1.7-0.4-2.6-0.1c-0.2,0.1-0.5,0-0.5,0.4c0.1,0.4,0.3,0.2,0.6,0.2c0.6-0.2,1.2-0.2,1.7,0c1.7,0.7,3.5,0.6,5.2,0
		c0.3-0.1,0.6-0.1,0.8-0.1C49.7,43.3,51.9,43.6,54,42.6z M40.7,43.3c-0.4,0.1-0.9,0.1-1.3,0.3c-0.2,0.1-0.4,0.2-0.3,0.4
		c0.1,0.2,0.2,0.2,0.4,0.2c1-0.3,2-0.1,3,0.2c1,0.3,2,0.3,3,0c1.2-0.4,2.4-0.4,3.7,0c0.8,0.3,1.7,0.4,2.6,0.1c1.5-0.5,2.9-0.6,4.4,0
		c0.2,0.1,0.5,0.2,0.6-0.2c0-0.2-0.1-0.4-0.4-0.4c-0.7-0.1-1.4-0.6-2.2-0.4c-2.3,0.5-4.6,0.2-6.9,0.1C45.2,43.4,42.9,44.2,40.7,43.3
		z"/>
	<path class="st2" d="M18.6,41.1c1.1,2.6-0.6,5.4-2.2,6.6c-0.3,0.2-0.5,0.4-0.8,0.6c-1,0.8-0.6,1.8-0.7,2.8c0,0.7,0.1,1.4,0.2,2.1
		c0.6-1.1,0.5-2.4,1.3-3.4c0.5-0.7,1.1-1.3,1.8-1.8c0.7-0.4,1-0.2,1,0.6c-0.2,2.2-0.8,4.2-2.9,5.4c-0.7,0.4-1,1-0.7,1.6
		c0.6,1.1,0.5,2.3,0.8,3.4c0.1,0.2,0.1,0.4,0.3,0.6c-0.2-2.8,1.1-5,2.8-7.1c0.6,0.5,0.3,1.1,0.4,1.7c0.3,1.5,0.1,3-0.4,4.4
		c-0.2,0.9-0.7,1.7-1.5,2.2c-0.6,0.5-1,1,0,1.6c0.2,0.1,0.5,0.5,0.5,0.7c-0.2,1.5,1,2.4,1.6,3.5c0.1,0.1,0.2,0.2,0.3,0.2
		c0.1-0.2,0.1-0.3,0-0.5c-1-2.1-1.4-4.3-0.1-6.4c0.2-0.4,0.5-1,0.9-1c0.4,0,0.5,0.6,0.7,1c0.8,2.2,0.5,4.3-0.7,6.2
		c-0.5,0.8-0.6,1.2,0.1,2c0.9,1,1.8,2,2.9,2.9c-1.7-2.2-1.7-4.6-0.8-7.1c2.4,1.6,2.9,4.7,2.2,7.2c-0.2,0.8-0.2,1.3,0.5,1.7
		c0.7,0.4,1.3,0.9,2.1,1.5c-0.1-1-0.8-1.5-1-2.2C26.8,70.8,27,69.4,27,68c0-0.4,0.2-0.5,0.5-0.3c2,1.3,3.3,3.8,2.2,6.6
		c-0.2,0.6-0.2,1,0.4,1.2c1.2,0.5,2.3,1.3,3.6,1.5c0,0,0,0,0,0c0.1,0.3,0.3,0.2,0.5,0.2c0.5,0.6,1.3,0.6,2,0.9
		c1.1,0.6,1.2,0.7,0.8,2c-0.9,0.2-1.9,0.3-2.8,0.8c-0.4-0.1-0.7,0.2-1.1,0.3c-0.1-0.6,0.3-1.2,0.2-1.8c0.8,0.5,1.5-0.3,2.3-0.4
		c-1.8-0.6-3.4-1.9-5.5-1.7c-0.3,0-0.6,0.2-0.8,0.4c-2.1,1.5-4.4,2.1-6.9,0.9c-0.4-0.2-0.9-0.3-1.4-0.4c1.4-2.1,3.3-2.5,8.6-2
		c-1.2-0.8-2.2-1.5-3.3-2c-0.6-0.3-1.4-0.1-2.2,0.3c-3,1.3-7.2,0.5-9.1-2.4c1.2,0,2.2-0.6,3.4-0.7c2.2-0.3,4,0.7,5.6,2
		c0.5,0.4,0.9,0.6,1.6,0.4c-1.6-1.1-2.8-2.4-4.1-3.6c0,0,0,0,0,0l0,0c-0.5-0.4-0.8-1.2-1.6-1.2c-0.2,0-0.4-0.1-0.6-0.1
		c-1.4,0.4-2.7,0-3.9-0.7c-1.5-0.9-2.8-2-3.9-3.7c2.7,0,5.1,0.4,7.1,2.2c0.1,0.1,0.2,0.4,0.3,0.3c0.2-0.2,0-0.3-0.1-0.4
		c-0.4-0.7-0.8-1.4-1.2-2.1c-0.2-0.2-0.4-0.3-0.6-0.7c-0.2-0.4-0.7-0.7-1.2-0.8c-1.3-0.3-2.4-0.9-3.4-1.8c-1.6-1.3-2.2-3-2.4-4.9
		c3.6,1,5,2.3,6,5.9c0.1,0.3,0.2,0.6,0.5,0.7c0.1,0,0.2,0,0.2,0c0-0.1-0.1-0.1-0.1-0.2c-0.8-2-1.5-4.1-1.9-6.2
		c-0.1-0.7-0.7-1-1.4-1.2c-2.8-0.8-5-3.9-4.7-7c3,1.4,5.5,3.2,5.5,7.1c0.1-0.1,0.2-0.1,0.3-0.2c-0.1-1.7-0.2-3.3-0.4-5
		c0-0.3-0.4-0.6-0.6-0.8c-2.6-1.1-3.3-3.4-3.9-5.8c-0.1-0.6-0.2-1.2-0.3-1.8c0-0.2,0-0.4,0.1-0.5c0.2-0.2,0.4,0,0.5,0.2
		c2.3,1.9,4.4,4,4.1,7.3c0,0.1,0,0.3,0.2,0.4c0.1-1.3,0-2.6,0.2-3.9c0.2-1.2-0.4-1.9-1.2-2.6c-1.6-1.3-2.8-3.8-1.7-6.5
		c0.9,1.1,2.1,1.8,2.6,3.3c0.4,1.3-0.1,2.7,0.5,4.3c0.4-1.6,0.7-2.9,0.9-4.2c0.1-0.6-0.1-1.2-0.6-1.7c-1.8-1.7-1.7-3.7-1.2-5.9
		c0.1-0.5,0.4-0.4,0.7-0.1c1.2,1,1.7,2.3,1.7,3.9c0,0.5-0.1,1.1-0.2,1.6c-0.3,0.2-0.2,0.5-0.1,0.9c0.1-0.3,0.1-0.6,0.2-0.8
		c0.4-1,0.7-1.9,1.1-2.9c0.2-0.5,0.1-1-0.1-1.5c-1.3-2.1-0.4-4.1,0.5-6.3c0.8,1.7,1.1,3.3,0.8,4.9c-0.1,0.2-0.3,0.3-0.2,0.4
		c0.3,0.2,0.3-0.1,0.3-0.3c0.6-0.8,1.2-1.5,1.5-2.5c0.7-1.9,2.3-3,4.3-3c-0.5,2-1.6,3.4-3.7,3.9c-0.8,0.2-1,0.9-1.5,1.5
		c0.7,0,1.1-0.5,1.6-0.7c0.6-0.1,1.4-0.4,1.6,0c0.3,0.4-0.2,1.1-0.6,1.5c-0.8,0.9-1.8,1.6-3.1,1.5c-0.7,0-1.2,0.1-1.1,1
		c0,0.1,0,0.1-0.1,0.2c-0.3,0-0.2,0.3-0.2,0.4c-0.1,0.1-0.2,0.3-0.2,0.4c-0.1,0.2-0.2,0.5-0.3,0.7c-0.1,0.2-0.1,0.4,0.1,0.5
		c0.3,0.1,0.4-0.1,0.5-0.4c0.2-0.2,0.4-0.4,0.6-0.5c0.1-0.1,0.3-0.1,0.4-0.2c0,0,0,0,0,0c0.1-0.1,0.2-0.1,0.4-0.2
		c0.1,0,0.1-0.1,0.2-0.1c0.4-0.1,0.7-0.3,1.2-0.4c0,2.2-1.1,3.8-3.1,4.6c-1,0.4-1.6,0.9-1.4,2c0,0.2,0,0.5-0.2,0.7c0,0,0,0,0,0
		C15,44.2,15,45.5,15,46.9c-0.1,0.1-0.1,1-0.1,1.3c0,0.1,0,0.2,0,0.3c0.2-0.1,0.3-0.2,0.3-0.3c0.6-0.8,0-1.8,0.3-2.7
		c0-0.1,0.3-1.7,0.6-2.2C16.4,42.8,17.5,41.4,18.6,41.1z"/>
	<path class="st3" d="M44.7,76.8c0.8,0,1.5-0.5,2.2-0.7c0.6-0.2,0.3-0.7,0.2-1c-0.4-2.1,0.1-4,1.2-5.7c0.3-0.5,0.6-1.2,1.3-0.9
		c0.6,0.2,0.4,1,0.3,1.5c-0.2,1.9-0.7,3.7-2,5.6c1.3-0.4,2.2-1.2,3.2-1.8c0.3-0.2,0-0.4,0-0.6c-0.2-2.4-0.5-4.8,0.8-7
		c0.3-0.5,0.6-1,1.1-1.4c0.3,1.4,0.2,2.8,0.1,4.2c-0.1,1.4-0.8,2.6-1.1,4.1c0.9-0.4,1.5-1,2-1.7c-0.1-0.2,0.1-0.2,0.2-0.3
		c1.2-0.6,1.2-0.7,0.9-1.9c-0.8-2.3-0.7-4.6,0.2-6.8c0.1-0.4,0.3-1,0.8-0.9c0.5,0.1,0.5,0.7,0.5,1.1c0.1,1.9,0.1,3.8-0.4,5.7
		c-0.1,0.3-0.2,0.6-0.1,1c0.8-0.7,1.3-1.6,1.9-2.4c0.1-0.1,0.1-0.3,0.1-0.4c0.1-0.3-0.4-0.6-0.2-0.8c0.3-0.3,0.6,0.2,0.6,0.2
		c0.3-0.3,0.5-0.6,0.3-1.1c-0.7-1.2-1.2-2.5-1.5-3.9c-0.4-1.7-0.3-3.3,0.6-5c1.4,2.6,1.7,5.4,1.6,8.2c0.9-1.3,1.4-2.7,1.9-4.1
		c0.1-0.4-0.2-0.6-0.4-0.9c-1-1.5-1.9-3-2.3-4.7c-0.2-0.9-0.2-1.9,0.1-2.8c0.1-0.2,0.1-0.5,0.4-0.5c0.3,0,0.3,0.3,0.4,0.5
		c1.1,2.1,2,4.3,1.8,6.7c0,0.1,0,0.3,0,0.4c0,0.1,0.1,0.1,0.2,0.3c0.5-1.5,1-2.9,0.8-4.4c0-0.1,0-0.3,0-0.4c0.6-0.6,0.6-1.1-0.1-1.7
		c-1.8-1.4-2.8-3.3-3.3-5.4c-0.1-0.3-0.2-0.7,0.2-0.9c0.4-0.2,0.6,0.2,0.8,0.4c0.8,0.8,1.2,2,2,2.9c0,0,0,0,0,0
		c0.3,0.8,0.6,1.7,0.9,2.5c0.1,0,0.1,0,0.2,0c0-0.8,0-1.5,0-2.3l0-0.1c0.3-1.3-0.3-2.1-1.3-2.9c-2.3-1.9-3.2-3.8-3.2-6.1
		c2.3,1.5,3.4,3.8,4.4,6.2c-0.3-1.1,0.1-2.3-0.5-3.3c0-0.1,0-0.2,0-0.3c0.4-0.4,0.1-0.7-0.2-1c-0.6-0.5-1.3-1-2-1.5
		c-1.1-0.8-2-1.9-2.6-3.3c2.4,0.3,3.4,2.1,4.5,3.7c-0.2-0.9-0.5-1.8-0.7-2.6c-0.3-1.4-1.4-1.3-2.1-1.8c-1.1-0.7-2.1-1.5-3.1-2.6
		c1.1-0.2,1.9,0.2,2.7,0.7c0.4,0.3,0.8,0.5,1.3,0.4c0.1,0,0.2-0.2,0.1-0.4c-0.3-0.5-0.3-1.1-1.1-1.3c-1.6-0.2-2.9-0.9-3.8-2.3
		c-0.1-0.1-0.1-0.2-0.2-0.5c1.6,0.2,2.7,0.9,3.9,1.9c-0.3-1.1-0.5-1.5-1.4-1.7c-0.7-0.2,0.4-0.5-0.1-0.8c-0.5-0.3-0.8-0.9-1.4-1.1
		c-1-0.4-1.8-0.9-2.6-1.6c-0.3-0.2-0.6-0.5-0.7-1.1c2.6,0.1,3.6,2.4,5.5,3.8c-0.7-1.6-1-3-0.8-4.6c1,0.7,1.2,1.7,1.4,2.7
		c0.1,0.3,0.1,0.7,0,1c-0.5,1.7,0.7,2.9,1.4,4.2c0-1.8-0.1-3.6,0.5-5.5c0.7,0.6,0.9,1.4,1,2.1c0.1,1.1,0.2,2.3-0.3,3.2
		c-0.9,1.9,0,3.6,0.6,5.5c0.2-1.5-0.2-2.9,0.3-4.3c0.3-0.8,0.6-1.7,1-2.4c0.2-0.3,0.3-0.8,0.7-0.7c0.3,0.1,0.3,0.6,0.3,0.9
		c0.1,2.5-0.3,4.8-1.8,6.9c-0.1,0.1-0.2,0.3-0.1,0.4c0,0,0,0,0,0c-0.5,0.2-0.1,0.6-0.2,0.9l0,0c0.4,1,0.4,2.1,0.8,3.2
		c0.5-2.9,1.3-5.7,3.4-8.1c0.4,2,0.3,3.7-0.4,5.5c-0.5,1.2-1.2,2.4-2.1,3.3c-0.7,0.7-1,1.4-0.5,2.3c0,0.1-0.1,0.1-0.1,0.2
		c0,0.9,0,1.8,0,2.8c0.4-0.3,0.5-0.8,0.6-1.2c0.6-2,1.8-3.8,3.1-5.5c0.1-0.1,0.2-0.3,0.4-0.4c0.3-0.3,0.6-0.8,1.1-0.5
		c0.4,0.2,0.3,0.8,0.2,1.1c-0.5,2.7-1.8,5-4.2,6.5c-1.1,0.7-1.3,1.3-1.1,2.4c0,0.1,0,0.1-0.1,0.2c-0.1,0.7-0.3,1.4-0.1,2.3
		c0.4-0.9,1.1-1.4,1.1-2.3l0,0c0.3,0.1,0.2-0.1,0.2-0.2l0,0c1.1-1.1,2-2.3,3.3-3.2c0.2-0.2,0.5-0.3,0.9-0.6c0,1.8-0.7,3.1-1.7,4.3
		c-0.9,1-1.9,1.9-3,2.5c-0.9,0.5-1.3,1.1-1.5,2c-0.1,0.5-0.2,1-0.3,1.5c-0.2,0.2-0.2,0.4-0.1,0.6c0.1-0.1,0.2-0.3,0.3-0.4
		c1.1-1.3,2.1-2.6,3.6-3.4c0.7-0.3,1.7-1,2.1-0.5c0.4,0.5-0.5,1.3-0.9,1.8c-1.4,1.7-3.2,2.8-5.1,3.8c-0.3,0.2-0.9,0.1-0.6,0.8
		c0.1,0.2-0.1,0.4-0.2,0.6c-0.5,0.4-0.7,0.9-1,1.7c1.1-0.7,2.1-1.3,3.1-1.9c0.8-0.4,1.5-1,2.5-0.9c0.3,0,0.6-0.1,0.7,0.2
		c0.1,0.3,0,0.5-0.2,0.8c-1.4,1.9-3.3,2.7-5.7,2.6c-0.5,0-1.1-0.3-1.1,0.6c0,0,0,0,0,0c-0.3,0.1-0.3,0.3-0.2,0.5
		c0.1,0.1,0.1,0.3,0.2,0.4c-0.8,0.2-0.8,0.2-1.8,2c2.1-1.3,4.4-2.4,7.1-2c-1,1.7-2.3,2.7-4.1,3c-1.1,0.2-2.2,0.4-3.4,0.1
		c-0.5-0.1-0.8,0.1-1.1,0.5c-0.1,0.1,0,0.3-0.2,0.4c-0.7,0.8-1.4,1.7-2.1,2.5c-0.1-0.1-0.2-0.1-0.3-0.2c1-0.3,2.1-0.6,3.1-0.9
		c1.3-0.3,2.7-0.6,4-0.5c0.3,0,0.8,0,0.9,0.3c0.2,0.4-0.2,0.7-0.5,0.9c-2.5,1.7-5.3,2.2-8.2,1.7c-1-0.2-1.8-0.2-2.2,0.9
		c-0.2,0.4-0.5-0.1-0.8,0.1c-0.8,0.5-1.7,1-2.5,1.6c3.5-1,7-0.8,10.6,0.1c-0.9,1.2-2.1,1.5-3.4,1.8c-2.7,0.5-5.3-0.3-7.8-1.1
		c-0.6-0.2-1-0.2-1.5,0c-1.5,0.6-3.1,1.2-4.8,1.8c1,0.3,1.9,0.5,2.8,0.8c0.4,0.4,0.2,0.9,0.3,1.4c-0.3-0.1-0.5-0.1-0.8-0.2
		c-0.7-0.3-1.4-0.6-2.1-0.6c-0.1-0.1-0.3-0.2-0.4-0.2c0-1.7,0-1.7,1.5-2.4C43.2,77.5,44,77.3,44.7,76.8z"/>
	<path class="st4" d="M30.7,24.5c-0.2,0.2-0.4,0.3-0.7,0.5c-1.8,0.1-3.6,0.3-5.4,0.4c0-0.1-0.1-0.2-0.1-0.3c1.8-1.1,3.6-2.2,5.7-3.5
		c-2.4,0.1-4.6,0.6-6.3-1.3c2,0.5,3.5-0.5,5.2-1.5c-1.6-1-3.1-1.9-4.6-2.8c0-0.1,0.1-0.2,0.1-0.3c2.1,0.2,4.1,0.3,6.2,0.5
		c-1.6-1.4-3.8-2.3-4-5c1.3,1.7,3.2,1.8,5.2,2c-0.7-1.7-1.4-3.3-2-4.9C30,8.1,30.1,8.1,30.2,8c1.5,1.3,3,2.5,4.5,3.8
		c0.1,0,0.2,0.1,0.2,0.1c0-0.1,0-0.2,0-0.3c-0.4-1-0.9-2.1-1.1-3.2c-0.2-1,0-2,0.6-2.9c0.1,2.2,1.7,3.4,3.2,4.8
		c0.4-1.8,0.9-3.5,1.3-5.2c0.9,1.8,1.1,3.7,1.7,5.7c0.7-2.2,0.9-4.4,3.3-5.3c-1.5,1.9-0.5,3.8-0.3,6c1.5-1.3,2.9-2.4,4.3-3.6
		c-0.2,1.8-1.2,3.4-1.8,5.3c1.7-1.4,3.2-2.7,5.7-2.1c-1.2,0.5-2.1,1-2.6,1.9c-0.5,0.9-0.9,1.8-1.5,2.9c2-0.2,3.9-0.3,5.8-0.5
		c0,0.1,0.1,0.2,0.1,0.3c-1.4,0.9-2.9,1.8-4.3,2.7c1.8,0.1,3.7,0,5,1.7c-2.2-0.6-3.9,0.7-5.8,1.7c1.7,1.1,3.4,2.1,5,3.1
		c0,0.1,0,0.2-0.1,0.3c-1.8,0.1-3.6-0.3-5.4-0.3c-1.1-0.6-2.3-1.3-3.4-1.9c0.5-1.2,0.7-2.4,0.4-3.7c-0.7-3.6-4.3-5.9-7.8-4.9
		c-1.3,0.4-2.3,1.2-3.3,2C34,15.7,34.9,15.6,35,15c0.7,0,1.1-0.5,1.6-0.7C36.5,14,36.2,14,36.1,14c-0.7-0.2-1.4-0.6-2.1-0.2
		c-0.8-1.2-1.6-2.3-2.6-3.3c0.7,1.9,1.5,3.8,2.3,5.7c0.1,0.2,0.3,0.3,0.5,0.4c-1.3,2.1-1.7,4.3-0.8,6.6c-0.1,0.2-0.2,0.2-0.4,0.2
		c0-0.3-0.3-0.5-0.6-0.4c-1.7,0.6-3.5,1.1-5.3,1.7C28.4,24.9,29.5,24.3,30.7,24.5z M51,24.1c0.1,0,0.2,0.1,0.2,0.1c0,0,0,0,0.1-0.1
		C51.2,24.1,51.1,24.1,51,24.1c-1.3-1.2-2.9-1.9-4.4-2.8c-0.2-0.1-0.6-0.8-0.8-0.1c-0.1,0.4-0.6,1.2,0.3,1.5
		C47.7,23.1,49.3,23.7,51,24.1z M46.3,10.3c-0.3,0-0.5,0.2-0.7,0.4c-1.1,1-2.3,1.9-3.4,2.9c-0.2,0.2-0.6,0.3-0.5,0.6
		c0.1,0.4,0.6,0.4,1,0.6c0.3,0.2,0.5,0,0.7-0.3C44.3,13.1,45.3,11.7,46.3,10.3c0.2-0.1,0.3-0.2,0.3-0.4c0,0-0.1-0.1-0.1-0.1
		C46.4,9.9,46.3,10.1,46.3,10.3z M27,16.9c-0.1-0.1-0.1-0.1-0.2-0.1c0,0,0,0-0.1,0.1C26.8,16.8,26.9,16.8,27,16.9
		c1.5,1.1,3.2,2,4.8,3c0.2,0.1,0.6,0.5,0.7,0.1c0.1-0.4,0.6-1.1-0.1-1.4C30.6,17.9,28.8,17.1,27,16.9z M27.8,12.7
		c0,0-0.1-0.1-0.1-0.1C27.7,12.7,27.8,12.7,27.8,12.7c0.7,1.4,4.2,3.6,5.4,3.4c-0.3-0.7-0.6-1.3-0.8-2c-0.1-0.3-0.3-0.5-0.7-0.6
		C30.4,13.4,29.1,13.1,27.8,12.7z M34.3,7.1c-0.1,0.6-0.1,1,0,1.4c0.3,1.4,1.1,2.6,1.4,4.1c0.1,0.5,0.6,0.6,1,0.9
		c0.1,0.1,0.2,0.1,0.4,0c0.5-0.5,0.5-2.6-0.1-3.1C36,9.3,34.9,8.4,34.3,7.1z M50.3,11.5c-1.1,0.1-1.7,0.5-2.3,1
		c-1.1,0.9-2.4,1.5-2.8,3c-0.1,0.3-0.3,0.5,0.1,0.7c0.7,0.3,2-0.1,2.4-0.8C48.4,14.1,48.9,12.6,50.3,11.5z M42.8,6.9
		c-1.1,1.8-2,3.7-1.7,6c0,0.2,0,0.5,0.3,0.5c0.5,0.1,1.9-1.5,1.8-2.1C43.1,9.9,42.5,8.5,42.8,6.9z M52.9,19.6
		c-2.3-0.6-4.5-0.7-6.5,0.9c1.1,1.1,2.1,1.4,3.5,0.4C50.7,20.2,51.8,19.9,52.9,19.6z M32,20.7c-0.6-0.6-1.1-0.8-1.6-1.2
		c-0.3-0.2-0.7-0.6-1.1-0.3c-1.2,0.7-2.4,1.3-3.7,1.7C27.6,21.4,29.7,21.4,32,20.7z M39.1,7.4c-0.3,0.2-0.3,0.4-0.4,0.6
		c-0.4,1.7-0.7,3.3-1.1,5c-0.1,0.3-0.3,0.7,0,1c0.3,0.3,0.7,0,1.1-0.1c0.5-0.1,0.4-0.4,0.4-0.8C39.1,11.2,39.1,9.3,39.1,7.4z
		 M51.3,16.4c0-0.1,0-0.1,0-0.2c-1.8,0.1-3.7,0.3-5.5,0.4c-0.3,0-0.9-0.2-0.7,0.5c0.1,0.4,0.1,1.2,1,1C47.7,17.6,49.5,17,51.3,16.4z
		 M39.4,13.3c0.6,0.2,0.6,0.2,1.2,0C40,13.1,40,13.1,39.4,13.3z"/>
	<path class="st5" d="M86.5,40c0.7-1.7,1.3-3,1.8-4.5c0.3-0.8,0.7-1.2,1.7-1.2c1.8,0.1,1.8,0,1.8,1.8c0,2.3,0,4.6,0,6.9
		c0,0.8-0.3,1-1,0.9c-0.6-0.1-1.2,0.2-1.1-0.9c0.1-2,0-4,0-6.2c-0.8,1.2-1.1,2.4-1.6,3.5c-0.1,0.2-0.2,0.5-0.3,0.8
		c-0.2,0.8-0.7,0.9-1.4,0.9c-0.7,0-1.1-0.2-1.4-0.9c-0.5-1.4-1.1-2.7-1.9-4c0,2-0.1,4,0,6c0,0.8-0.4,0.8-0.9,0.7
		c-0.5,0-1.1,0.2-1.1-0.7c0.1-2.7,0-5.4,0-8.1c0-0.6,0.2-0.8,0.8-0.8c2.2-0.1,2.2-0.1,3,2C85.4,37.5,85.9,38.6,86.5,40z"/>
	<path class="st6" d="M248.4,41.9c0-2.3,0-4.5,0-6.7c0-0.9,0.3-0.9,1-0.9c0.6,0,1.1,0,1.1,0.9c-0.1,2.7,0,5.3,0,8
		c0,0.7-0.3,0.7-0.8,0.8c-2.1,0.4-3.3-0.4-3.9-2.5c-0.6-1.8-1.5-3.4-2.3-5.1c0-0.1-0.1-0.1-0.3-0.3c0,1.1,0,2.1,0,3
		c0,1.2,0,2.4,0,3.6c0,1.1-0.8,1.6-1.8,1.2c-0.3-0.1-0.2-0.4-0.2-0.6c0-2.8,0-5.6,0-8.4c0-0.5,0.2-0.7,0.7-0.6c0.1,0,0.1,0,0.2,0
		c2.7,0,2.7,0,3.8,2.4c0.7,1.5,1.4,3,2,4.4C247.8,41.4,247.9,41.8,248.4,41.9z"/>
	<path class="st6" d="M207.8,57.8c-0.8,0-1.4,0-2,0c-0.4,0-0.7-0.2-0.9-0.5c-0.4-0.6-0.9-1.2-1.2-1.8c-0.4-0.7-0.9-0.7-1.5-0.7
		c-0.4,0-0.5,0.2-0.5,0.6c0,0.4,0,0.9,0,1.3c0.1,0.9-0.2,1.2-1.1,1.2c-0.9,0-1.2-0.3-1.2-1.2c0.1-2.5,0-5,0-7.5c0-0.7,0.1-1,0.9-0.9
		c1.3,0.1,2.5,0,3.8,0.1c1.4,0.1,2.6,0.9,2.9,2c0.5,1.6,0.1,3-1.1,3.8c-0.5,0.3-0.4,0.5-0.1,0.8C206.5,55.8,207.1,56.7,207.8,57.8z
		 M202.8,53c0.3,0,0.5,0,0.7,0c0.9,0,1.5-0.6,1.5-1.4c0-0.9-0.5-1.4-1.4-1.5c-1.9-0.2-1.8-0.2-1.9,1.7
		C201.7,52.7,201.7,53.4,202.8,53z"/>
	<path class="st6" d="M86.9,56.2c-1.7,1.7-3.6,1.9-5,0.8c-1.5-1.2-1.8-3.8-0.6-5.5c1-1.5,2.8-1.8,5-0.6c0-0.8,0-1.5,0-2.3
		c-0.1-1,0.7-0.7,1.1-0.7c0.5,0,1.1-0.3,1.1,0.7c0,2.6,0,5.1,0,7.7c0,0.4,0.4,1.1-0.6,1.1C87.2,57.5,86.4,57.8,86.9,56.2z M84.6,52
		c-1.1,0-1.9,0.8-1.9,2c0,1.1,0.8,2.1,1.8,2.1c1,0,1.8-0.9,1.8-2.1C86.4,52.8,85.7,52,84.6,52z"/>
	<path class="st5" d="M235,56.7c0,0.7,0,1.2-0.9,1.2c-0.7-0.1-0.9-0.2-0.9-0.9c0-2.6,0.1-5.2,0-7.8c0-1.1,0.6-0.8,1.2-0.9
		c0.6,0,1.3-0.1,1.1,0.9c-0.1,0.7,0,1.4,0,2.2c0.6-0.3,1-0.7,1.6-0.8c2.1-0.4,3.9,0.9,4,3.1c0,0.6,0,1.2-0.1,1.7
		c-0.3,1.2-1,2.2-2.2,2.6C237.3,58.3,236,57.9,235,56.7z M238.9,54.2c0-1.2-0.8-2.1-1.8-2.1c-1,0-1.8,0.9-1.8,2.1
		c0,1.2,0.7,2,1.8,2.1C238.1,56.3,238.9,55.4,238.9,54.2z"/>
	<path class="st1" d="M184.5,51.2c0-0.8,0.1-1.5,0-2.3c-0.1-0.9,0.5-0.7,1-0.7c0.4,0,1.1-0.3,1.1,0.7c0,2.7,0,5.4,0,8.1
		c0,0.5-0.1,0.8-0.7,0.8c-0.5-0.1-1.1,0.2-1-0.7c0-0.1,0-0.2-0.1-0.4c-0.7,0.9-1.6,1.4-2.6,1.4c-0.8,0-1.5-0.2-2.2-0.8
		c-1.4-1.2-1.7-3.7-0.7-5.4C180.3,50.3,181.8,50.1,184.5,51.2z M184.5,54.2c0-1.3-0.7-2-1.8-2c-1,0-1.8,0.9-1.8,2.1
		c0,1.2,0.7,2,1.8,2C183.9,56.3,184.5,55.5,184.5,54.2z"/>
	<path class="st1" d="M219,51.7c0.9-1.3,2-1.5,3.2-1.1c1.2,0.4,1.5,1.6,1.5,2.7c0.1,1.3,0,2.6,0,3.9c0,0.9-0.6,0.6-1.1,0.6
		c-0.4,0-1.1,0.3-1.1-0.6c0-0.9,0-1.8,0-2.8c0-1.5-0.3-2-1.3-2c-1,0-1.3,0.5-1.3,2c0,0.9,0,1.8,0,2.8c0.1,1-0.7,0.6-1.1,0.7
		c-0.5,0-1,0.2-1-0.7c0-2.7,0-5.5,0-8.2c0-1,0.7-0.6,1.1-0.6c0.4,0,1.1-0.3,1,0.6C219,49.7,219,50.5,219,51.7z"/>
	<path class="st5" d="M280.7,54.2c0-2.2,1.7-3.9,4-3.8c2.3,0,4.1,1.7,4,3.9c-0.1,2.7-1.8,3.8-4,3.8
		C282.5,58.1,280.8,56.9,280.7,54.2z M286.5,54.2c0-1.3-0.7-2.1-1.8-2.1c-1.1,0-1.8,0.8-1.8,2.1c0,1.3,0.7,2.1,1.9,2
		C285.9,56.2,286.5,55.5,286.5,54.2z"/>
	<path class="st5" d="M275.9,44.2c-2.3,0-3.9-1.5-3.9-3.8c0-2.3,1.6-3.8,4-3.8c2.4,0,4.1,1.6,4,3.9C280,42.7,278.4,44.2,275.9,44.2z
		 M277.8,40.3c0-1.2-0.8-2.1-1.8-2.1c-1,0-1.8,0.9-1.8,2.1c0,1.2,0.7,2,1.9,2C277.2,42.3,277.8,41.6,277.8,40.3z"/>
	<path class="st5" d="M145.5,44.2c-2.4,0-4-1.5-3.9-3.8c0-2.4,1.5-3.8,4-3.8c2.4,0,3.9,1.5,4,3.8C149.5,42.7,148,44.2,145.5,44.2z
		 M143.7,40.4c0,1.3,0.7,2,1.8,2c1.1,0,1.9-0.8,1.9-2c0-1.2-0.8-2.1-1.9-2C144.4,38.4,143.7,39.1,143.7,40.4z"/>
	<path class="st5" d="M232.8,36.5c2.4,0,3.9,1.5,3.9,3.9c0,2.3-1.6,3.8-3.9,3.8c-2.4,0-4-1.5-4-3.8C228.8,38,230.3,36.5,232.8,36.5z
		 M230.9,40.4c0,1.3,0.6,1.9,1.8,1.9c1.1,0,1.9-0.8,1.9-2c0-1.2-0.8-2.1-1.9-2.1C231.7,38.2,230.9,39.1,230.9,40.4z"/>
	<path class="st5" d="M149.3,54c0,2.4-1.5,3.7-4,3.8c-2.1,0.1-4.1-1.5-3.9-4c0.1-2.2,1.6-3.7,4-3.7C147.5,50.1,149.5,51.6,149.3,54z
		 M147.3,53.9c0-1.3-0.7-2-1.9-2c-1.1,0-1.8,0.8-1.8,2c0,1.2,0.8,2,1.8,2.1C146.4,56.1,147.3,55.2,147.3,53.9z"/>
	<path class="st6" d="M212.9,54.8c-0.6,0-1.3,0-1.9,0c-0.6,0-0.6,0.3-0.4,0.7c0.5,0.9,1.7,1.2,2.6,0.5c0.4-0.3,0.7-0.4,1.1-0.4
		c0.4,0.1,0.9-0.2,1,0.2c0.2,0.4-0.2,0.8-0.5,1.2c-1.1,1.2-3,1.5-4.6,0.7c-1.4-0.8-2.2-2.6-1.8-4.3c0.5-1.9,1.7-2.9,3.5-3
		c1.6,0,2.9,0.9,3.4,2.4c0.6,1.7,0.3,2.1-1.4,2.1C213.6,54.8,213.2,54.8,212.9,54.8z M210.4,53.6c0.9,0,1.7,0,2.5,0
		c0.8,0,0.7-0.4,0.4-0.9c-0.3-0.6-0.9-0.6-1.5-0.6C210.9,52.2,210.6,52.8,210.4,53.6z"/>
	<path class="st6" d="M192.6,54.8c-0.7,0-1.4,0-2.1,0c-0.5,0-0.6,0.2-0.3,0.6c0.5,0.9,1.8,1.3,2.6,0.6c0.6-0.5,1.2-0.3,1.8-0.3
		c0.6,0,0.3,0.4,0.2,0.7c-0.4,1-1.9,1.9-3.2,1.8c-1.5-0.1-2.7-0.7-3.3-2.1c-0.7-1.6-0.5-3.1,0.6-4.4c1-1.2,2.4-1.4,3.8-1
		c1.6,0.4,2.8,2.3,2.5,3.9c-0.1,0.4-0.3,0.4-0.6,0.4C194,54.8,193.3,54.8,192.6,54.8z M190,53.6c0.9,0,1.8,0,2.6,0
		c0.7,0,0.6-0.3,0.4-0.8c-0.3-0.6-0.8-0.7-1.5-0.7C190.6,52.2,190.3,52.7,190,53.6z"/>
	<path class="st5" d="M130.5,55.3c-0.4,1.7-1.5,2.5-3.4,2.5c-1.8,0-3.2-1.1-3.5-2.9c-0.3-1.5,0-2.9,1.2-3.9c1.1-0.9,2.3-1.1,3.6-0.6
		c1.5,0.5,2.5,2.1,2.3,3.7c-0.1,0.5-0.4,0.5-0.7,0.5c-1.3,0-2.5,0-3.8,0c-0.2,0-0.5-0.1-0.6,0.2c-0.1,0.3,0.1,0.5,0.2,0.7
		c0.5,0.7,1.7,1.1,2.3,0.5C128.8,55.1,129.6,55.3,130.5,55.3z M127,53.3c0.2,0,0.3,0,0.5,0c0.4-0.1,0.9,0.3,1-0.3
		c0.1-0.5-0.4-0.9-0.9-1.1c-0.5-0.2-1-0.1-1.5,0.1c-0.4,0.2-0.7,0.6-0.6,1c0.1,0.5,0.6,0.2,0.9,0.3C126.6,53.4,126.8,53.3,127,53.3z
		"/>
	<path class="st5" d="M94.5,54.5c-0.6,0-1.2,0-1.8,0c-0.2,0-0.5-0.1-0.6,0.2c-0.1,0.3,0,0.5,0.2,0.8c0.5,0.8,1.8,0.9,2.5,0.2
		c0.6-0.6,1.3-0.4,1.9-0.4c0.5,0,0.2,0.4,0.1,0.7c-0.9,2.1-4.3,2.5-5.9,0.7c-1.3-1.4-1.3-4,0-5.4c1.1-1.3,3.3-1.5,4.8-0.6
		c1.2,0.8,1.5,1.9,1.6,3.2c0,0.4-0.1,0.6-0.6,0.6C95.8,54.5,95.1,54.5,94.5,54.5z M93.5,53.3c0.1,0,0.3,0,0.4,0c0.4-0.1,1,0.3,1-0.2
		c0.1-0.5-0.3-0.9-0.9-1.1c-0.6-0.2-1.2-0.1-1.7,0.3c-0.3,0.2-0.5,0.5-0.4,0.9c0.1,0.4,0.5,0.2,0.8,0.2C93,53.3,93.3,53.3,93.5,53.3
		z"/>
	<path class="st5" d="M128.1,40.9c-0.7,0-1.3,0-2,0c-0.7,0-0.6,0.4-0.4,0.8c0.4,0.9,1.8,1.2,2.5,0.5c0.5-0.5,1.1-0.4,1.7-0.5
		c0.6,0,0.7,0.1,0.4,0.7c-1,2-4,2.5-5.7,0.9c-1.3-1.2-1.6-3.8-0.4-5.4c1-1.4,3.1-1.8,4.7-1c0.6,0.3,1.1,0.8,1.4,1.4
		c0.3,0.7,0.6,1.4,0.4,2.1c-0.3,0.9-1.2,0.2-1.8,0.4C128.7,40.9,128.4,40.9,128.1,40.9z M127.2,39.7c0.2,0,0.3,0,0.5,0
		c0.3-0.1,0.9,0.2,1-0.2c0.1-0.4-0.3-0.8-0.7-1c-0.6-0.3-1.2-0.3-1.7,0.1c-0.3,0.2-0.7,0.5-0.5,0.9c0.1,0.4,0.6,0.1,0.9,0.2
		C126.8,39.7,127,39.7,127.2,39.7z"/>
	<path class="st7" d="M32.1,73.3c0.2-0.2,0.3-0.4,0.5-0.5c1.7-1.6,2.1-1.6,4.1-0.4c1.2,0.8,1.9,1.9,2.2,3.3c0,0.2,0,0.5,0.3,0.7
		c0.3-2.3,1.6-3.8,3.7-4.6c0.9-0.3,1.6-0.3,2.2,0.5c0.3,0.4,0.8,0.8,1.1,1.2c-0.7,0.3-1.7,0.1-2.1,1c-0.4-0.3-0.6,0-0.9,0.2
		c-1.4,0.6-2.2,1.8-3.1,3c-0.7,0-1.3,0-2,0c-1-1.5-2.1-2.8-3.9-3.3C33.6,73.6,32.7,73.7,32.1,73.3z"/>
	<path class="st6" d="M220,42.9c-0.7,1-1.5,1.4-2.6,1.3c-1.2-0.1-2-0.8-2.2-2c-0.3-1.6-0.1-3.2-0.2-4.8c0-0.4,0.1-0.5,0.5-0.6
		c1.6-0.2,1.7-0.1,1.7,1.5c0,0.9,0,1.8,0,2.8c0,0.8,0.4,1.3,1.2,1.3c0.7,0,1.2-0.5,1.2-1.2c0-1.2,0.1-2.3,0-3.5
		c-0.1-0.9,0.5-0.8,1-0.8c0.5,0,1.2-0.3,1.2,0.7c-0.1,1.8,0,3.6,0,5.4c0,0.5,0.2,1-0.7,1.1C220,44,219.9,43.6,220,42.9z"/>
	<path class="st6" d="M265.3,56.9c-1,1.1-2.4,1.4-3.6,0.9c-1-0.4-1.4-1.2-1.2-2.4c0.1-1,1-1.7,2.5-1.9c0.4,0,0.8,0,1.2,0
		c0.2,0,0.7,0.2,0.7-0.3c0-0.4-0.2-0.7-0.6-0.7c-0.7,0-1.5-0.1-2.3,0c-0.7,0.1-0.8-0.2-0.8-0.8c0-0.5-0.1-1.1,0.8-1
		c0.7,0.1,1.4,0,2,0c1.9,0,2.9,1.1,2.9,2.9c0,1.1,0,2.3,0,3.4c0,0.4,0.3,1-0.5,1C265.9,57.8,265.2,58,265.3,56.9z M264.1,54.6
		c-1.1,0-1.5,0.3-1.5,1c0,0.7,0.5,0.9,1.1,0.9c0.9,0,1.3-0.5,1.3-1.4C265,54.3,264.4,54.7,264.1,54.6z"/>
	<path class="st1" d="M291.8,52.2c0.5-1.2,1.2-1.7,2.2-1.7c1.4-0.1,2.4,0.6,2.7,2c0.4,1.7,0.1,3.3,0.2,5c0,0.1-0.1,0.3-0.1,0.3
		c-0.6,0-1.2,0.1-1.7,0c-0.5-0.1-0.3-0.6-0.3-1c0-1.1,0-2.1,0-3.2c0-0.8-0.4-1.3-1.3-1.3c-0.9,0-1.2,0.5-1.3,1.3
		c0,1.1-0.1,2.3,0,3.4c0.1,0.9-0.5,0.8-1,0.8c-0.5,0-1.1,0.2-1.1-0.7c0.1-1.9,0-3.8,0-5.6c0-0.6,0.1-0.9,0.8-0.8c0.6,0,1,0,0.9,0.8
		C291.8,51.5,291.8,51.7,291.8,52.2z"/>
	<path class="st6" d="M256.7,43.1c-0.9,1-1.9,1.3-3.1,0.9c-1.2-0.4-1.7-1.1-1.7-2.3c0-1.1,0.7-1.8,1.8-2.1c0.6-0.1,1.2-0.1,1.8-0.2
		c0.3,0,0.8,0.2,0.9-0.2c0-0.5-0.4-0.8-0.9-0.8c-0.6,0-1.3,0-2,0c-0.4,0-0.9,0.3-0.8-0.5c0.1-0.5-0.4-1.2,0.6-1.3
		c1.1-0.1,2.1-0.2,3.2,0.1c1.2,0.3,1.9,1.3,2,2.8c0,1.1,0,2.3,0,3.4c0,0.3,0.4,1-0.5,1C257.4,44,256.7,44.2,256.7,43.1z M255.1,42.7
		c0.8,0,1.3-0.6,1.4-1.4c0-0.9-0.6-0.5-1-0.5c-0.7-0.1-1.4,0.1-1.4,1C254,42.4,254.6,42.6,255.1,42.7z"/>
	<path class="st6" d="M294.2,43.1c-0.8,0.8-1.8,1.2-3,0.9c-1.3-0.4-1.8-1.1-1.7-2.4c0.1-1.1,0.8-1.8,2-2c0.6-0.1,1.3-0.1,1.9-0.1
		c0.2,0,0.4,0.1,0.5-0.2c0.1-0.3-0.1-0.5-0.3-0.6c-0.2-0.2-0.5-0.3-0.8-0.3c-0.5,0-1,0-1.4,0c-1.2,0-1.2,0-1.1-1.2
		c0-0.3,0.1-0.4,0.5-0.5c1.2-0.2,2.4-0.2,3.5,0.2c1.1,0.4,1.7,1.3,1.8,2.7c0,1.1,0,2.2,0,3.3c0,0.4,0.4,0.9-0.4,1.1
		C294.9,44.1,294.5,43.9,294.2,43.1z M293.2,40.7c-1.1,0-1.6,0.3-1.6,1c0,0.7,0.5,0.9,1.1,1c0.7,0,1.3-0.6,1.3-1.4
		C294.1,40.5,293.6,40.7,293.2,40.7z"/>
	<path class="st1" d="M111.4,51.8c0.8-1.5,1.8-1.9,3.1-1.6c1.2,0.3,1.9,1.3,1.9,2.7c0,1.3-0.1,2.6,0,3.9c0.1,0.9-0.5,0.8-1,0.8
		c-0.5,0-1.1,0.3-1.1-0.7c0.1-1.1,0-2.1,0-3.2c0-1-0.5-1.7-1.3-1.6c-0.9,0.1-1.2,0.7-1.3,1.6c0,1.1,0,2.2,0,3.3c0,1-0.7,0.6-1.1,0.6
		c-0.4,0-1,0.3-1-0.6c0.1-1.9,0-3.8,0-5.6c0-0.6,0-0.9,0.8-0.9c0.7,0,1,0.2,0.9,0.9C111.3,51.3,111.3,51.4,111.4,51.8z"/>
	<path class="st1" d="M99.8,38.1c1.1-1.5,2.1-1.9,3.4-1.5c1.1,0.4,1.7,1.4,1.7,2.9c0,1.2-0.1,2.5,0,3.7c0.1,1-0.6,0.7-1.1,0.8
		c-0.6,0.1-1,0-1-0.8c0.1-1,0-2.1,0-3.1c0-1-0.5-1.6-1.3-1.6c-0.8,0-1.3,0.6-1.3,1.6c0,1.1,0,2.1,0,3.2c0.1,1.1-0.7,0.7-1.2,0.7
		c-0.5,0-1,0.2-1-0.7c0.1-1.9,0.1-3.8,0-5.7c0-0.7,0.3-0.8,0.8-0.8c0.5,0,1-0.1,0.9,0.7C99.8,37.6,99.8,37.8,99.8,38.1z"/>
	<path class="st5" d="M229.9,56.7c-1.5,1.7-3.9,1.6-4.7,0.1c-0.7-1.3-0.1-2.7,1.3-3.1c0.7-0.2,1.5-0.3,2.2-0.3
		c0.3,0,0.7,0.2,0.7-0.2c0-0.4-0.3-0.8-0.8-0.8c-0.7,0-1.4,0-2.2,0c-0.6,0-0.8-0.1-0.7-0.7c0.1-0.5-0.3-1.2,0.7-1.1
		c1.1,0.1,2.1-0.2,3.2,0.2c1.3,0.4,1.9,1.2,1.9,2.5c0,1.2,0,2.4,0,3.6c0,0.5,0.2,1-0.7,1C230.1,57.8,229.7,57.7,229.9,56.7z
		 M228.6,54.6c-1.1,0-1.6,0.3-1.6,0.9c0.1,0.7,0.5,1,1.2,1c0.9,0,1.2-0.5,1.2-1.3C229.6,54.4,229,54.7,228.6,54.6z"/>
	<path class="st1" d="M283.2,38.1c0.8-1.5,1.9-1.7,3.1-1.5c1.2,0.2,1.6,1.2,1.8,2.3c0.3,1.5,0.1,3.1,0.1,4.6c0,0.4-0.2,0.5-0.5,0.5
		c-0.4,0-0.8,0-1.1,0c-0.5,0-0.6-0.2-0.6-0.7c0-1.2,0-2.3,0-3.5c0-0.9-0.4-1.4-1.2-1.4c-0.9,0-1.2,0.6-1.2,1.4c0,1.2,0,2.3,0,3.5
		c0,1-0.7,0.5-1.2,0.6c-0.4,0.1-0.9,0.2-0.9-0.6c0.1-1.9,0-3.8,0-5.7c0-0.6,0.1-0.9,0.8-0.8c0.6,0,1,0,0.9,0.8
		C283.1,37.6,283.2,37.7,283.2,38.1z"/>
	<path class="st1" d="M185.3,38.2c0.9-1.5,1.6-1.9,3.1-1.7c1,0.1,1.7,0.8,1.9,2.2c0.3,1.6,0.1,3.2,0.1,4.8c0,0.2-0.1,0.3-0.3,0.4
		c-1.2,0.4-1.9-0.1-1.9-1.3c0-0.9,0-1.8,0-2.7c0-0.8-0.2-1.5-1.2-1.6c-0.8,0-1.3,0.6-1.3,1.6c0,1.1,0,2.2,0,3.3
		c0.1,1-0.7,0.6-1.1,0.7c-0.5,0-1,0.2-1-0.7c0.1-1.9,0-3.8,0-5.6c0-0.6,0.1-0.9,0.8-0.9c0.7,0,0.9,0.2,0.8,0.8
		C185.3,37.7,185.3,37.9,185.3,38.2z"/>
	<path class="st1" d="M44.1,74.3c0.5-0.9,1.4-0.7,2.1-1c0.6,1,0.2,1.7-0.4,2.5c-0.3,0.4-0.7,0.7-1.1,1c-0.6,0.5-1.5,0.7-2.2,1.1
		c-1.6,0.8-1.6,0.7-1.5,2.4c-0.2,0.5-0.8,0.6-1.2,0.8c-0.5,0-0.9,0-1.4,0c-0.4-0.4-0.8-0.6-1.3-0.7c0-0.1,0-0.2,0-0.3
		c0.4-1.3,0.4-1.4-0.8-2c-0.6-0.3-1.5-0.3-2-0.9c-0.1-0.2-0.3-0.3-0.5-0.2c0,0,0,0,0,0c-0.2-0.6-0.9-0.7-1.3-1.2
		c-0.6-0.8-1.2-1.6-0.4-2.5c0.7,0.4,1.5,0.3,2.1,0.8c0.4,1.5,1.5,2.4,2.6,3.4c0.5,0.5,0.9,0.6,1.4,0c0.7,0,1.3,0,2,0
		c0.3,0.3,0.5,0.6,1,0.2C42.4,76.8,43.5,75.8,44.1,74.3z"/>
	<path class="st8" d="M166.7,45.9c0-3.6,0-7.2,0-10.8c0-0.4-0.1-0.9,0.6-0.9c0.7,0,0.6,0.5,0.6,0.9c0,7.2,0,14.3,0,21.5
		c0,0.5,0.1,0.9-0.6,0.9c-0.8,0-0.6-0.5-0.6-0.9C166.7,53.1,166.7,49.5,166.7,45.9z"/>
	<path class="st6" d="M191.6,41.7c0.8,0,1.6-0.2,2.3,0.6c0.4,0.5,1.2,0.4,1.8,0.1c0.6-0.2,0.6-0.8,0-1.1c-0.5-0.2-1-0.2-1.5-0.3
		c-1.8-0.2-2.8-1.4-2.4-2.9c0.1-0.3,0.3-0.6,0.5-0.9c1.1-1.1,3.9-1.1,4.9,0.1c0.4,0.4,0.9,1,0.5,1.4c-0.4,0.3-1.3,0.5-1.8-0.2
		c-0.4-0.4-0.8-0.6-1.4-0.5c-0.4,0-0.8,0.1-0.8,0.6c0,0.5,0.4,0.6,0.8,0.7c0.4,0.1,0.9,0.1,1.3,0.2c1.6,0.3,2.3,1.1,2.3,2.3
		c0,1.1-0.9,2-2.4,2.2c-0.9,0.1-1.8,0.1-2.6-0.3C192.1,43.5,191.6,42.8,191.6,41.7z"/>
	<path class="st6" d="M113.8,44.2c-1.7,0-2.7-0.6-3.2-1.7c-0.2-0.6-0.1-0.8,0.5-0.7c0.6,0,1.2-0.1,1.6,0.6c0.1,0.2,0.4,0.2,0.6,0.3
		c0.6,0.1,1.5,0.2,1.7-0.5c0.2-0.9-0.7-0.7-1.3-0.9c-0.4-0.1-0.9,0-1.3-0.2c-1.2-0.4-1.8-1-1.7-2.1c0-1,0.6-1.7,1.8-2.1
		c1.3-0.4,2.6-0.3,3.7,0.7c0.4,0.4,0.9,1.1,0.5,1.5c-0.4,0.3-1.3,0.4-1.8-0.2c-0.3-0.4-0.8-0.5-1.3-0.5c-0.4,0-0.9,0.1-0.9,0.6
		c0,0.5,0.4,0.6,0.9,0.7c0.4,0.1,0.8,0.1,1.2,0.2c1.6,0.3,2.4,1.2,2.4,2.4c-0.1,1.2-1.3,2.2-2.9,2.2C114,44.2,113.9,44.2,113.8,44.2
		z"/>
	<path class="st6" d="M275.5,55.1c0,1.7-1.4,2.9-3.4,3c-1.8,0-3.2-0.8-3.7-3.1c-0.3-1.5,0.3-3.2,1.5-4c1.2-0.8,3-0.9,4.2,0
		c0.3,0.2,0.5,0.4,0.7,0.7c0.3,0.5,0.8,1.1,0.4,1.6c-0.1,0.2-0.8,0-1.3,0.1c-0.5,0.1-0.6-0.3-0.9-0.6c-0.3-0.5-0.8-0.7-1.3-0.6
		c-0.6,0.1-1,0.5-1.2,1c-0.2,0.7-0.2,1.4,0,2c0.3,1,1.7,1.4,2.4,0.6C274,54.9,274,54.9,275.5,55.1z"/>
	<path class="st6" d="M259.7,40.3c0-1.8,0.8-3,2.3-3.6c1.4-0.5,3.1-0.2,4,0.9c0.1,0.1,0.2,0.2,0.3,0.3c0.2,0.5,0.7,0.9,0.2,1.5
		c-0.3,0.3-1.8,0-2-0.4c-0.3-0.5-0.7-0.6-1.2-0.6c-0.7,0-1.1,0.3-1.4,0.9c-0.3,0.9-0.4,1.8,0.3,2.6c0.4,0.6,1.1,0.5,1.7,0.4
		c0.2,0,0.5-0.2,0.5-0.4c0.2-0.7,0.7-0.7,1.3-0.7c1.2,0,1.3,0.2,0.7,1.3c-0.6,1.3-2.3,2-3.9,1.7c-1.5-0.3-2.7-1.6-2.8-3.2
		C259.7,40.7,259.7,40.5,259.7,40.3z"/>
	<path class="st5" d="M202.4,44c-2-0.1-2.7-0.8-2.7-2.8c0-0.6,0-1.3,0-1.9c0-0.5,0.1-1-0.7-1c-0.5,0-0.3-0.5-0.3-0.8
		c0-0.3-0.2-0.7,0.3-0.7c1,0.1,0.8-0.6,0.7-1.1c-0.1-0.8,0.3-0.9,1-0.9c0.8,0,1.1,0.2,1,1c-0.2,0.9,0.3,1.1,1.1,1.1
		c0.4,0,1-0.4,1.1,0.5c0.1,0.7,0,1.2-0.9,1.1c-1-0.2-1.4,0.2-1.2,1.2c0.1,0.5,0,1,0,1.4c0,0.8,0.3,1.4,1.2,1.2
		c0.9-0.1,0.9,0.4,1,1.1c0,0.9-0.5,0.7-1,0.7C202.7,44,202.5,44,202.4,44z"/>
	<path class="st6" d="M209.7,40.5c0-0.5,0-1,0-1.5c0-0.4-0.1-0.6-0.5-0.6c-0.7,0-0.6-0.4-0.6-0.9c0-0.6,0.2-0.7,0.7-0.7
		c0.7,0,0.4-0.6,0.4-0.9c-0.1-0.8,0.2-1,1-1.1c0.9,0,1.1,0.4,1,1.1c-0.2,1,0.4,0.9,1.1,0.9c0.4,0,1.1-0.3,1.1,0.6
		c0,0.8-0.3,1.1-1,0.9c-1-0.2-1.3,0.2-1.2,1.2c0.1,0.4,0,0.8,0,1.2c0,1.2,0.2,1.5,1.4,1.5c0.8,0,0.7,0.5,0.8,1
		c0,0.6-0.2,0.8-0.8,0.8c-2.6,0-3.2-0.6-3.3-3.1C209.7,40.7,209.7,40.6,209.7,40.5z"/>
	<path class="st5" d="M223.9,40.7c0-0.8,0-1.3,0-1.8c0-0.3-0.1-0.7-0.5-0.6c-0.7,0.1-0.7-0.3-0.7-0.8c0-0.5,0.1-0.7,0.7-0.7
		c0.8,0,0.5-0.6,0.5-1c-0.1-0.9,0.3-1,1.1-1c0.8,0,1,0.3,0.9,1c-0.2,1,0.3,1.1,1.1,1c0.5,0,1.1-0.2,1,0.8c0,0.6-0.2,0.9-0.8,0.8
		c-1.1-0.2-1.5,0.3-1.3,1.3c0,0.3,0,0.7,0,1c0,1.3,0.2,1.5,1.4,1.5c0.8,0,0.6,0.5,0.7,0.9c0,0.4,0.1,0.9-0.6,0.8c-0.4,0-0.8,0-1.1,0
		c-1.4-0.1-2.1-0.8-2.2-2.2C223.9,41.4,223.9,40.9,223.9,40.7z"/>
	<path class="st6" d="M258.5,57.9c-2.1,0-2.9-0.8-2.9-2.9c0-0.6,0-1.2,0-1.8c0-0.5,0.2-1.1-0.8-1c-0.5,0-0.3-0.4-0.3-0.7
		c0-0.3-0.2-0.8,0.3-0.8c0.9,0,0.8-0.5,0.8-1.1c-0.1-0.7,0.2-1,0.9-0.9c0.6,0.1,1.2-0.1,1.1,0.8c-0.2,0.9,0.2,1.2,1.1,1.1
		c0.4,0,1.1-0.3,1.1,0.6c0,0.7-0.1,1.1-0.9,0.9c-1.1-0.2-1.5,0.2-1.3,1.3c0.1,0.5,0,1,0,1.5c0,0.6,0.3,1.2,1.1,1.1
		c0.9-0.1,1.2,0.2,1.1,1.1C259.6,57.9,259.7,57.9,258.5,57.9z"/>
	<path class="st6" d="M118.5,40.3c0-0.6,0-1,0-1.4c0-0.3,0-0.6-0.4-0.5c-0.8,0.1-0.6-0.5-0.7-0.9c0-0.5,0.1-0.7,0.7-0.7
		c0.7,0,0.4-0.6,0.4-0.9c-0.1-0.9,0.3-1,1.1-1c0.7,0,1.1,0.2,1,1c-0.2,0.9,0.3,1.1,1.1,1c0.6-0.1,1-0.1,1,0.8c0,0.9-0.4,0.9-1,0.8
		c-0.9-0.2-1.2,0.3-1.1,1.1c0.1,0.4,0,0.8,0,1.1c0,1.4,0.1,1.6,1.5,1.7c0.6,0,0.6,0.4,0.5,0.8c-0.1,0.4,0.3,1-0.4,1
		c-0.7,0-1.4,0-2-0.2c-0.8-0.2-1.3-0.7-1.4-1.6C118.6,41.6,118.5,40.9,118.5,40.3z"/>
	<path class="st6" d="M121.6,57.7c-2.4,0-3.2-0.7-3.2-3c0-0.5,0-1,0-1.5c0-0.6,0.2-1.2-0.8-1.2c-0.5,0-0.3-0.6-0.3-0.9
		c0-0.3-0.1-0.7,0.4-0.6c0.8,0.1,0.8-0.4,0.7-1c-0.1-0.8,0.2-1,0.9-1c0.7,0,1.1,0.1,1,0.9c-0.2,1,0.4,1,1.1,1c0.4,0,1-0.3,1.1,0.6
		c0,0.7-0.2,1.1-1,1c-1-0.2-1.4,0.2-1.2,1.2c0.1,0.4,0,0.9,0,1.3c0,0.9,0.4,1.5,1.3,1.4c1-0.1,0.8,0.5,0.8,1.1
		C122.6,57.7,122.1,57.7,121.6,57.7z"/>
	<path class="st8" d="M300,39.1c0,1.4-0.1,2.7,0,4.1c0.1,0.9-0.5,0.8-1,0.7c-0.5,0-1.2,0.3-1.2-0.7c0.1-2.1,0-4.3,0-6.4
		c0-0.4,0.1-0.8-0.5-0.9c-0.6-0.1-0.3-0.7-0.3-1.1c-0.1-0.4,0.3-0.4,0.6-0.5c2.4-0.2,2.4-0.2,2.4,2.2C300,37.4,300,38.3,300,39.1z"
		/>
	<path class="st6" d="M181.6,39.2c0,1.3,0,2.7,0,4c0,0.6-0.1,0.8-0.7,0.8c-1.9-0.1-1.5,0.2-1.5-1.5c0-2.4,0-4.9,0-7.3
		c0-1.1,0.7-0.8,1.3-0.9c0.7-0.1,1.1,0,1,0.9C181.5,36.5,181.6,37.9,181.6,39.2z"/>
	<path class="st1" d="M249,53.1c0,1.3-0.1,2.6,0,3.9c0.1,0.8-0.4,0.9-1,0.8c-0.5,0-1.1,0.2-1.1-0.8c0.1-2.1,0-4.2,0-6.4
		c0-0.3,0.1-0.7-0.5-0.8c-0.7-0.1-0.3-0.8-0.3-1.2c0-0.5,0.4-0.3,0.7-0.3c2.2-0.1,2.2-0.1,2.2,2.1C249,51.3,249,52.2,249,53.1z"/>
	<path class="st1" d="M100.6,52.8c0,1.3,0,2.7,0,4c0,1-0.7,0.6-1.1,0.7c-0.5,0-1,0.2-1-0.7c0.1-2.2,0-4.3,0-6.5
		c0-0.4,0.2-0.8-0.5-0.9c-0.6-0.1-0.2-0.7-0.3-1c-0.1-0.4,0.2-0.4,0.5-0.5c2.3-0.3,2.4-0.2,2.4,2.1C100.6,51,100.6,51.9,100.6,52.8z
		"/>
	<path class="st6" d="M152.6,51.8c0.6-0.9,1.1-1.5,2-1.5c0.4,0,0.7,0,0.6,0.5c-0.1,0.4,0.4,1.1-0.4,1.3c-1.9,0.5-1.9,0.5-1.9,2.5
		c0,0.8,0,1.5,0,2.3c0,0.6-0.2,0.7-0.7,0.7c-1.5,0-1.5,0.1-1.5-1.5c0-1.6,0-3.2,0-4.8c0-0.6,0-1,0.8-0.9c0.6,0,1.2,0,1,0.9
		C152.5,51.3,152.6,51.5,152.6,51.8z"/>
	<path class="st1" d="M105.5,52.7c0-1.4,0-2.7,0-4.1c0-0.9,0.6-0.6,1-0.6c0.4,0,1.1-0.3,1.1,0.6c0,2.8,0,5.5,0,8.3
		c0,1-0.7,0.5-1.1,0.5c-0.4,0-1,0.3-1-0.5C105.5,55.5,105.5,54.1,105.5,52.7z"/>
	<path class="st6" d="M133.7,51.9c0.4-0.6,0.7-1.2,1.3-1.4c0.4-0.2,0.9-0.3,1.3-0.1c0.4,0.2,0.1,0.7,0.2,1.1
		c0.1,0.5-0.2,0.5-0.6,0.6c-1.4,0.2-1.8,0.7-1.8,2.1c0,0.9,0,1.8,0,2.7c0,1-0.7,0.5-1.2,0.6c-0.4,0.1-0.9,0.2-0.9-0.6
		c0.1-1.9,0-3.9,0-5.8c0-0.7,0.3-0.7,0.8-0.7c0.5,0,1,0,0.9,0.7C133.6,51.3,133.7,51.6,133.7,51.9z"/>
	<path class="st1" d="M133.9,38.4c0.6-1,1.1-1.6,2-1.6c0.3,0,0.8-0.2,0.7,0.4c-0.1,0.5,0.5,1.1-0.4,1.4c-1.8,0.5-1.9,0.6-1.9,2.4
		c0,0.8-0.1,1.6,0,2.4c0.1,0.8-0.4,0.8-0.9,0.7c-0.5-0.1-1.3,0.5-1.2-0.6c0-1.9,0-3.9,0-5.8c0-0.7,0.3-0.7,0.9-0.7
		c0.6,0,1,0,0.8,0.8C133.8,37.7,133.9,37.9,133.9,38.4z"/>
	<path class="st6" d="M245,54.3c0,0.9-0.1,1.8,0,2.7c0.1,1-0.5,0.8-1.1,0.8c-0.6,0-1.1,0.1-1.1-0.9c0.1-1.4,0-2.7,0-4.1
		c0-0.2,0.2-0.7-0.3-0.6c-1,0-0.7-0.6-0.7-1.1c0-0.8,0.6-0.5,1-0.5c2.1,0,2.1,0,2.1,2.1C245,53.2,245,53.8,245,54.3z"/>
	<path class="st6" d="M140,54c0,1,0,1.9,0,2.9c0,0.5-0.2,0.6-0.7,0.6c-1.6,0.1-1.6,0.1-1.6-1.5c0-1.1,0-2.2,0-3.3
		c0-0.4,0.1-0.7-0.5-0.8c-0.7-0.1-0.3-0.7-0.3-1.1c-0.1-0.4,0.2-0.5,0.6-0.5c0.1,0,0.1,0,0.2,0c2.3-0.1,2.3-0.1,2.3,2.2
		C140,53.1,140,53.5,140,54z"/>
	<path class="st8" d="M109.2,40.4c0,0.9-0.1,1.8,0,2.8c0.1,1.1-0.7,0.7-1.2,0.8c-0.6,0.1-1.1,0.1-1-0.8c0.1-1.4,0-2.7,0-4.1
		c0-0.2,0.1-0.6-0.3-0.7c-1-0.1-0.6-0.9-0.6-1.3c0-0.6,0.6-0.3,0.9-0.3c2.1,0,2.1,0,2.1,2.1C109.2,39.4,109.2,39.9,109.2,40.4z"/>
	<path class="st6" d="M253.4,54.2c0,1,0,2,0,3c0,1-0.7,0.5-1.2,0.6c-0.4,0.1-1,0.2-0.9-0.6c0.1-1.4,0-2.9,0-4.3
		c0-0.3,0.1-0.7-0.4-0.7c-0.9,0-0.5-0.7-0.6-1.1c-0.1-0.6,0.4-0.5,0.8-0.5c2.3-0.1,2.3-0.1,2.3,2.2
		C253.4,53.2,253.4,53.7,253.4,54.2z"/>
	<path class="st5" d="M279.3,54.3c0,1,0,1.9,0,2.9c0,0.9-0.6,0.6-1,0.6c-0.4,0-1.1,0.4-1.1-0.6c0-1.4,0-2.9,0-4.3
		c0-0.5,0-0.8-0.6-0.8c-0.7,0-0.3-0.6-0.4-0.9c-0.1-0.4,0-0.7,0.5-0.6c0,0,0.1,0,0.1,0c2.5-0.2,2.5-0.2,2.5,2.3
		C279.3,53.4,279.3,53.8,279.3,54.3z"/>
	<path class="st5" d="M96.3,40.3c0,0.9-0.1,1.8,0,2.7c0.1,0.9-0.3,1-1,1c-0.8,0-1.2-0.1-1.1-1c0.1-1.3,0-2.5,0-3.8
		c0-0.3,0.2-0.7-0.3-0.7c-1,0-0.7-0.8-0.7-1.2c0-0.7,0.7-0.4,1-0.4c2,0,2,0,2,2C96.3,39.3,96.3,39.8,96.3,40.3z"/>
	<path class="st1" d="M140.1,40.4c0,1,0,2,0,3c0,1-0.8,0.5-1.2,0.6c-0.4,0.1-1,0.2-1-0.6c0.1-1.4,0-2.9,0-4.3c0-0.3,0.2-0.7-0.4-0.7
		c-1,0-0.6-0.7-0.6-1.2c0-0.6,0.5-0.4,0.8-0.4c2.3-0.1,2.3,0,2.3,2.2C140.1,39.4,140.1,39.9,140.1,40.4z"/>
	<path class="st1" d="M270.6,40.4c0,1,0,1.9,0,2.9c0.1,1-0.7,0.6-1.1,0.7c-0.5,0-1,0.2-1-0.7c0.1-1.4,0-2.8,0-4.2
		c0-0.4,0-0.8-0.6-0.8c-0.7,0-0.3-0.7-0.4-1c-0.1-0.5,0.3-0.4,0.6-0.5c2.5-0.2,2.5-0.2,2.5,2.3C270.6,39.5,270.6,40,270.6,40.4z"/>
	<path class="st1" d="M207.5,40.4c0,1,0,1.9,0,2.9c0.1,1-0.6,0.7-1.1,0.7c-0.5,0-1.1,0.3-1-0.7c0.1-1.4,0-2.8,0-4.2
		c0-0.4,0-0.8-0.6-0.8c-0.7,0-0.3-0.7-0.4-1c-0.1-0.5,0.3-0.4,0.6-0.4c2.5-0.2,2.5-0.2,2.5,2.3C207.5,39.5,207.5,39.9,207.5,40.4z"
		/>
	<path class="st7" d="M33.4,79.5c0,0.6-0.4,1.2-0.2,1.8c-0.1,1-0.3,2-0.4,2.9c-0.1,0.7-0.1,1.4-0.2,2.1c-1.2-1.1-1.2-1.1-2.8,0
		c0.2-1.3,0.5-2.5,0.7-3.7c0.1-0.5,0.1-1,0.2-1.5c0-0.5,0.2-0.9,0.7-1C32,79.8,32.7,79.4,33.4,79.5z"/>
	<path class="st7" d="M44.3,81.3c-0.1-0.5,0.1-1-0.3-1.4c0.7-0.4,2,0.1,2.5,1c-0.1,0.5,0.1,1,0.3,1.5c0.3,1.2,0.6,2.4,0.9,3.6
		c-1-0.9-1.9-1.6-2.8,0.2c-0.1-0.7-0.2-1.2-0.3-1.6C44.7,83.5,44.5,82.4,44.3,81.3z"/>
	<path class="st1" d="M32.8,84.2c0.1-1,0.3-2,0.4-2.9c0.4-0.1,0.7-0.4,1.1-0.3c0.2,0.5,0.5,1,0.7,1.5c0,0.8,0.5,1.5,0.6,2.3
		c-0.5,0.1-1.1,0.1-1.6,0.2C33.4,85,33,84.7,32.8,84.2z"/>
	<path class="st7" d="M35.6,84.7C35.4,84,35,83.3,35,82.5c0.7-0.7,1.4-1.3,2.1-2c0.5,0.2,0.9,0.3,1.3,0.7
		C37.7,82.6,36.8,83.8,35.6,84.7z"/>
	<path class="st7" d="M39.7,81.1c0.4-0.3,1-0.3,1.2-0.8c0.1,0.1,0.3,0.2,0.4,0.2c0.6,0.6,1.1,1.1,1.7,1.7c-0.1,0.8-0.2,1.5-0.7,2.2
		C41.2,83.5,40.5,82.3,39.7,81.1z"/>
	<path class="st8" d="M287.1,47c-0.5,1-0.9,1.7-1.4,2.5c-0.2,0.3-1.5,0.5-1.8,0.3c-0.1-0.1-0.1-0.3-0.1-0.3c0.3-0.7,0.5-1.6,1-2.2
		C285.3,46.7,286.2,47.1,287.1,47z"/>
	<path class="st1" d="M42.4,84.4c0.4-0.7,0.5-1.4,0.7-2.2c0.3-0.3,0.4-0.7,0.4-1.1c0.3,0.1,0.5,0.1,0.8,0.2c0.2,1.1,0.4,2.2,0.3,3.3
		C43.9,84.5,43.1,84.8,42.4,84.4z"/>
	<path class="st6" d="M252.1,49.9c-0.8,0-1.2-0.4-1.2-1.1c0-0.7,0.5-1.1,1.2-1c0.7,0,1.2,0.4,1.1,1.1
		C253.3,49.6,252.8,50,252.1,49.9z"/>
	<path class="st6" d="M107.9,33.9c0.7,0,1.1,0.3,1.1,1.1c0,0.8-0.5,1.1-1.2,1.1c-0.7,0-1.2-0.3-1.1-1.1
		C106.7,34.2,107.1,33.9,107.9,33.9z"/>
	<path class="st6" d="M243.6,47.8c0.8,0,1.3,0.3,1.3,1.1c0,0.7-0.4,1.1-1.2,1.1c-0.7,0-1.1-0.4-1.2-1
		C242.5,48.2,242.9,47.8,243.6,47.8z"/>
	<path class="st6" d="M206.2,33.9c0.8,0,1.2,0.4,1.2,1.1c0,0.7-0.5,1-1.2,1c-0.7,0-1.2-0.4-1.2-1.1
		C205.1,34.3,205.5,33.8,206.2,33.9z"/>
	<path class="st6" d="M138.8,36.1c-0.7,0-1.2-0.4-1.2-1.1c0-0.7,0.4-1.1,1.2-1.1c0.8,0,1.2,0.4,1.2,1.1
		C140,35.7,139.5,36,138.8,36.1z"/>
	<path class="st6" d="M93.8,35.2c0-0.9,0.4-1.3,1.1-1.3c0.8,0,1.1,0.3,1.1,1.1c0,0.8-0.5,1.1-1.1,1.1C94.3,36.1,93.8,35.8,93.8,35.2
		z"/>
	<path class="st6" d="M137.6,48.7c0-0.9,0.4-1.2,1.1-1.2c0.7,0,1.2,0.4,1.2,1.1c0,0.8-0.5,1.1-1.2,1.1
		C138,49.7,137.5,49.4,137.6,48.7z"/>
	<path class="st6" d="M277.9,47.8c0.8,0,1.2,0.2,1.2,1.1c0,0.7-0.3,1.1-1.1,1.1c-0.7,0-1.2-0.3-1.2-1
		C276.8,48.2,277.2,47.8,277.9,47.8z"/>
	<path class="st6" d="M269.3,36c-0.7,0-1.2-0.3-1.2-1.1c0-0.8,0.4-1.1,1.2-1.1c0.7,0,1.1,0.3,1.1,1C270.4,35.7,270.1,36,269.3,36z"
		/>
	<path class="st3" d="M46.9,82.4c-0.2-0.5-0.4-0.9-0.3-1.5c0.3,0.1,0.6,0.2,0.9,0.4c0.5,0.3,0.4,0.9,0.3,1.2
		C47.5,83,47.2,82.4,46.9,82.4z"/>
	<path class="st3" d="M30.6,81c-0.1,0.5-0.1,1-0.2,1.5c-0.3-0.1-0.6,0.4-0.8,0.1c-0.2-0.3,0.1-0.5,0.2-0.8
		C29.8,81.3,30.2,81.2,30.6,81z"/>
	<path class="st0" d="M39.1,46.6c0,7.5,0,15,0,22.5c0,0.8-0.2,1-1,1c-3.6-0.3-6.7-1.8-9.3-4.3c-3.6-3.4-5.7-7.7-6.8-12.4
		c-0.5-1.9-0.6-3.9-0.8-5.9c-0.1-0.7,0.1-0.8,0.8-0.8C27.8,46.6,33.4,46.6,39.1,46.6L39.1,46.6z M33.8,57.7c0.7,0.2,1.2,0.6,1.6,1.2
		c0.6,0.9-0.2,1.6-0.3,2.6c0.4-0.3,1.1,0.2,1.1-0.4c0-1.5,0.2-3-1.2-4.1c-0.4-0.3-0.8-0.7-0.3-1.3c0.2-0.3,0.4-0.8,0.2-1.2
		c-0.1-0.2-0.2-0.6,0.2-0.6c0.4-0.1,0.7,0,0.7,0.5c0,0.5,0,1.1,0,1.6c0,0.3,0,0.6,0.2,0.9c0.4,0.4,0.7,0.4,1.2,0.1
		c0.7-0.5-0.3-0.3-0.2-0.5c0-0.2-0.1-0.5-0.1-0.7c0-0.8,0-1.5,0-2.3c0-0.6-0.4-1.1-1.1-0.7c-0.8,0.4-1.6,0.8-2.6,0.3
		c-0.2-0.1-0.7,0-1,0.2c-1.9,0.9-1.9,0.9-2.7-1.1c-0.6-1.5-2-2.2-3.6-1.7c-0.4,0.1-0.8,0.1-1.2,0.1c0.4,0.9,0.6,1.8,0.6,2.8
		c0,0.2-0.2,0.6,0.3,0.6c0.3,0,0.4-0.1,0.6-0.4c0.2-0.4,0.3-1,0.8-1.4c0,1.1,0,2.1,0,3.1c0,0.6-0.1,0.9-0.8,0.8
		c-0.3,0-0.8-0.2-0.7,0.4c0.1,1.1,0,2.3,1.4,2.8c0.1-0.4,0.1-0.6-0.3-0.9C26.3,58,26,57.3,26.5,57c0.4-0.2,1.4-0.4,1.6,0.3
		c0.4,1.3,1.6,2.6,0.4,4.2c0.3-0.3,1.4,0.6,0.9-0.7c0.9-0.7,0.1-1.4,0-2.1c-0.2-1.6-0.1-1.7,1.4-1.7c0.7,0,0.9,0.5,1.3,0.8
		c0.6,0.4,0.6,0.8-0.1,1.2c-0.7,0.4-1,1-0.8,1.9c0.3,0.1,0.6-0.2,0.6-0.3c-0.2-1.1,0.9-1.2,1.4-1.7c0.4-0.3,0.6-0.6,0.3-1
		C33.7,57.8,33.8,57.7,33.8,57.7z"/>
	<path class="st9" d="M39.1,31.8c0-2.6,0-5.2,0-7.8c0-0.8,0.2-1,1-0.9c7.7,1,11.9,6,14.8,12.6c0.6,1.4,1,2.9,1.3,4.4
		c0.1,0.5,0.1,0.7-0.5,0.6c-1.2-0.4-2.4-0.3-3.6,0.1c-1,0.3-1.9,0.3-2.9,0c-1.2-0.4-2.4-0.4-3.6,0c-1.1,0.4-2.3,0.3-3.4,0
		c-0.7-0.2-1.4-0.4-2.1-0.2c-0.7,0.2-1,0-1-0.8C39.2,37,39.1,34.4,39.1,31.8z M48.4,32.1c-0.1-0.5-0.4-0.7-0.9-0.6
		c-0.4,0-0.6,0.3-0.6,0.7c0.1,0.3,0.1,0.6,0,0.9c-0.3,0,0.1,0.5-0.3,0.5c-0.3,0-0.3-0.2-0.3-0.4c0-0.2-0.1-0.4-0.3-0.4
		c-0.4,0-0.3,0.3-0.3,0.5c0,0.6,0.1,1.3,0.1,1.9c-2.1,1.4-4,3-6.1,4.7c5.3,0.4,10.3,0.4,15.7,0c-2.1-1.6-3.9-3.3-6-4.5
		c0-0.7-0.1-1.3,0.2-2c0.1-0.2,0.2-0.6-0.3-0.6c-0.4-0.1-0.4,0.2-0.3,0.5c0,0.3-0.1,0.3-0.3,0.4c-0.5,0,0-0.4-0.3-0.5
		C48.4,32.7,48.4,32.4,48.4,32.1z"/>
	<path class="st10" d="M33.4,23c-0.9-2.3-0.5-4.5,0.8-6.6c0,0,0,0,0,0c1-0.8,2-1.6,3.3-2c3.5-1,7.1,1.3,7.8,4.9
		c0.2,1.3,0,2.5-0.4,3.7c-2-0.6-4.1-1.1-6.3-1C36.8,22,35.1,22.6,33.4,23z M42.4,18.5c0.2,0.2,0.3,0.6,0.8,0.5
		C43.1,18.5,42.7,18.5,42.4,18.5c-0.2-0.3-0.5-0.2-0.8-0.2c-0.3,0-0.6,0-0.4,0.4c0.1,0.4,0.2,0.6,0.7,0.6
		C42.2,19.2,42.1,18.7,42.4,18.5z M35,17.7c1.1-0.3,2.2-0.5,3.3,0.4C37.6,16.8,36.1,16.7,35,17.7c-0.1,0-0.2,0-0.3,0.1
		c0,0,0.1,0.1,0.1,0.1C34.9,17.8,34.9,17.7,35,17.7z M43.7,17.9c-1-1.2-2.8-1.1-3.6,0.3C41.4,17.2,42.5,17.3,43.7,17.9z M35.2,18.9
		c0.4,0.4,0.6-0.4,0.9,0c1,1.1,0.9-0.1,1.4-0.6C36.7,18.4,35.8,18,35.2,18.9z"/>
	<path class="st11" d="M40.9,52.7c0.7,0.4,2.1,0.3,2.8-0.1c-0.2,0.7,0.2,0.8,0.7,0.8c2,0,4,0,6.1,0c2,0,2.5,0.5,2.8,2.5
		c0.3,1.7-0.5,3.4-0.5,5.1c0,0.3-0.2,0.6-0.6,0.5C51.6,61.3,52,61,52,60.8c0.1-0.6,0-1.2-0.4-1.8c-0.4,0.8,0.4,2.2-1.3,2.5
		c0.3-0.8,0.7-1.5,0.4-2.3c-0.3-0.8-0.4-1.5-1.5-1.5c-1.1,0-2.2,0.9-2.3,1.8c0,0.5,0,1,0,1.4c0,0.4-0.1,0.5-0.5,0.5
		c-0.4,0-0.5-0.2-0.3-0.5c0.2-0.6,0.2-1.2,0-1.8c-0.1-0.2-0.2-0.4-0.4-0.4c-0.3,0-0.3,0.2-0.3,0.4c0,0.6,0,1.2,0,1.7
		c0,0.3,0,0.5-0.4,0.5c-0.4,0-0.2-0.3-0.2-0.5c0.1-2-1-3.5-2.3-4.9c-0.2-0.2-0.5-0.3-0.8-0.3c-0.7,0-1.2-0.3-0.7-1.1
		C41.4,53.9,40.8,53.4,40.9,52.7z"/>
	<path class="st11" d="M30.5,37.3c-0.2,0-0.3-0.1-0.3-0.2c0.2-1.3-0.6-1.4-1.6-1.4c-1.8,0.1-1.8,0-1.2,1.8c0.4,1.2,0.8,2.4,1.2,3.6
		c0.3,0.9,0,1.8-0.8,2.4c-0.7,0.5-1.9,0.6-2.6,0c-0.8-0.6-1.1-1.3-0.8-2.3c0.5-1.3,0.9-2.6,1.4-3.9c0.2-0.5,0.4-1,0.1-1.6
		c-0.2-0.6,0.3-1,0.9-0.7c0.9,0.5,1.7,0.2,2.6,0.2c0.4,0,0.6-0.2,0.6-0.6c-0.1-0.7,0.2-1.5-0.6-2.1c-0.5-0.4-0.5-1.2,0.1-1.7
		c0.6-0.5,1.2-0.5,1.7,0c0.5,0.5,0.6,1.3,0.1,1.7c-0.9,0.7-0.4,1.6-0.5,2.4c0,0.2,0.2,0.4,0.4,0.3c0.9-0.1,1.8,0.2,2.6-0.2
		c0.3-0.2,0.6-0.2,0.8,0c0.3,0.2,0.3,0.6,0.1,0.8c-0.2,0.4-0.1,0.7,0,1.1c0.5,1.4,1,2.9,1.5,4.3c0.4,1,0,1.7-0.8,2.3
		c-0.8,0.6-1.9,0.6-2.7,0c-0.7-0.6-1.1-1.3-0.8-2.3c0.5-1.4,1-2.9,1.5-4.3c0.4-0.9,0-1.1-0.8-1c0,0-0.1,0-0.1,0
		C31,35.7,31,35.7,30.5,37.3z M24.7,41.5c0.5,0,0.8,0,1.2,0c0.3,0,0.5,0,0.5-0.4c0-1.3,0-2.6,0-3.9c-0.1,0-0.1,0-0.2,0
		C25.7,38.6,25.2,40,24.7,41.5z M34.7,37.2c0,0-0.1,0-0.1,0c0,1.1,0,2.3,0,3.4c0,0.7,0.2,1,0.9,0.9c0.2,0,0.5,0,0.8,0
		C35.7,40,35.2,38.6,34.7,37.2z M32.5,41.5c0.4,0,0.8,0,1.1,0c0.4,0,0.5-0.1,0.5-0.5c0-1.2,0-2.4,0-3.6c-0.1,0-0.1,0-0.2,0
		C33.5,38.7,33.1,40,32.5,41.5z M26.9,37.3c-0.1,0.1-0.1,0.1-0.1,0.1c0,0.9,0,1.8,0,2.7c0,1.5,0,1.5,1.6,1.3
		C27.9,40.1,27.4,38.7,26.9,37.3z M30.3,31c-0.2,0-0.5,0.2-0.5,0.5c0,0.4,0.2,0.5,0.6,0.6c0.4,0,0.6-0.2,0.6-0.5
		C31,31.2,30.8,31,30.3,31z"/>
	<path class="st12" d="M40.7,44.5c2.2,0.8,4.4,0.6,6.6,0.1c0.6-0.1,1.2,0.1,1.8,0.3c1,0.3,2.1,0.3,3.1,0c1.5-0.5,2.9-0.3,4.3,0.1
		c0.3,0.1,0.5,0.1,0.4,0.4c-0.1,0.3-0.4,0.2-0.6,0.2c-1.5-0.5-3-0.5-4.5,0c-0.7,0.2-1.4,0.3-2.1,0c-1.5-0.5-3.1-0.6-4.6,0
		c-0.8,0.3-1.6,0.2-2.3,0c-1.1-0.3-2.2-0.6-3.3-0.3c-0.2,0-0.3,0.1-0.4-0.2c0-0.2,0.1-0.3,0.3-0.4C39.8,44.5,40.3,44.6,40.7,44.5z"
		/>
	<path class="st12" d="M40.7,40.9c0.4,0.1,0.8,0.1,1.1,0.2c1.5,0.6,3,0.5,4.5,0c0.6-0.2,1.3-0.3,2,0c1.7,0.7,3.3,0.5,5,0
		c1-0.3,1.9,0.1,2.9,0.3c0.2,0,0.4,0.2,0.3,0.4c0,0.3-0.3,0.3-0.5,0.2c-1.6-0.6-3.1-0.2-4.6,0.2c-0.8,0.2-1.6,0.1-2.4-0.2
		c-1.1-0.4-2.2-0.4-3.3,0c-1.2,0.4-2.3,0.4-3.5,0c-0.8-0.3-1.7-0.4-2.5-0.2c-0.2,0-0.5,0.2-0.6-0.2c-0.1-0.3,0.2-0.4,0.5-0.4
		C40,41,40.4,40.9,40.7,40.9z"/>
	<path class="st12" d="M54,42.6c-2.1,0.9-4.3,0.7-6.6,0.1c-0.2-0.1-0.6,0-0.8,0.1c-1.7,0.6-3.5,0.6-5.2,0c-0.5-0.2-1.1-0.1-1.7,0
		c-0.2,0.1-0.5,0.2-0.6-0.2c-0.1-0.4,0.2-0.3,0.5-0.4c0.9-0.3,1.8-0.2,2.6,0.1c1.2,0.4,2.4,0.4,3.6,0c1.1-0.4,2.1-0.4,3.2,0
		c1.1,0.4,2.3,0.4,3.4,0c1.3-0.5,2.6-0.3,3.9,0.1c0.3,0.1,0.5,0.2,0.4,0.5c-0.1,0.3-0.4,0.2-0.6,0.1C55.5,43,54.8,42.8,54,42.6z"/>
	<path class="st12" d="M40.7,43.3c2.2,0.9,4.4,0.1,6.6,0.2c2.3,0.1,4.6,0.4,6.9-0.1c0.7-0.2,1.5,0.3,2.2,0.4c0.3,0,0.4,0.2,0.4,0.4
		c0,0.4-0.4,0.2-0.6,0.2c-1.5-0.5-2.9-0.5-4.4,0c-0.9,0.3-1.8,0.2-2.6-0.1c-1.2-0.4-2.5-0.4-3.7,0c-1,0.3-2,0.4-3,0
		c-1-0.3-2-0.6-3-0.2c-0.2,0.1-0.4,0.1-0.4-0.2c-0.1-0.2,0.1-0.3,0.3-0.4C39.9,43.3,40.3,43.3,40.7,43.3z"/>
	<path class="st13" d="M39.1,46.6c-0.1-0.6,0.2-0.8,0.8-0.8c0.8,0,1.6-0.1,2.3,0.2c1.2,0.4,2.4,0.4,3.6,0c1.1-0.3,2.2-0.3,3.2,0
		c1.1,0.3,2.2,0.3,3.3,0c1.6-0.5,3.1-0.3,4.6,0.6C51,46.6,45.1,46.6,39.1,46.6C39.1,46.6,39.1,46.6,39.1,46.6z"/>
	<path class="st11" d="M30.7,24.5c-1.2-0.1-2.3,0.4-3.6,0.1c1.9-0.6,3.6-1.2,5.3-1.7c0.3-0.1,0.5,0.1,0.6,0.4
		C32.2,23.6,31.4,24.1,30.7,24.5z"/>
	<path class="st13" d="M65,52.3"/>
	<path class="st10" d="M34.3,7.1c0.7,1.4,1.7,2.3,2.7,3.2c0.5,0.5,0.6,2.6,0.1,3.1c-0.1,0.1-0.2,0.1-0.4,0c-0.3-0.3-0.9-0.4-1-0.9
		c-0.3-1.4-1.1-2.6-1.4-4.1C34.2,8.1,34.1,7.6,34.3,7.1z"/>
	<path class="st10" d="M50.3,11.5c-1.4,1.1-1.9,2.6-2.6,3.9c-0.4,0.7-1.7,1.1-2.4,0.8c-0.4-0.2-0.2-0.4-0.1-0.7
		c0.4-1.5,1.7-2.1,2.8-3C48.6,12.1,49.2,11.6,50.3,11.5z"/>
	<path class="st10" d="M42.8,6.9c-0.3,1.5,0.3,3,0.5,4.4c0.1,0.5-1.3,2.1-1.8,2.1c-0.3,0-0.3-0.3-0.3-0.5
		C40.8,10.7,41.7,8.8,42.8,6.9z"/>
	<path class="st10" d="M52.9,19.6c-1.1,0.3-2.1,0.7-3,1.3c-1.3,1-2.4,0.7-3.5-0.4C48.4,18.9,50.6,18.9,52.9,19.6z"/>
	<path class="st10" d="M27.8,12.7c1.3,0.4,2.6,0.7,3.9,0.8c0.4,0.1,0.6,0.3,0.7,0.6c0.3,0.7,0.5,1.3,0.8,2
		C32,16.3,28.5,14.1,27.8,12.7L27.8,12.7z"/>
	<path class="st10" d="M32,20.7c-2.3,0.7-4.3,0.7-6.5,0.2c1.3-0.5,2.6-1,3.7-1.7c0.4-0.2,0.8,0.1,1.1,0.3C30.8,19.8,31.4,20,32,20.7
		z"/>
	<path class="st10" d="M39.1,7.4c0,1.9,0,3.8,0,5.6c0,0.3,0.1,0.7-0.4,0.8c-0.4,0-0.7,0.4-1.1,0.1c-0.3-0.3-0.1-0.6,0-1
		c0.4-1.7,0.8-3.3,1.1-5C38.8,7.7,38.8,7.5,39.1,7.4z"/>
	<path class="st10" d="M35,15c-0.1,0.6-1,0.7-0.8,1.4c0,0,0,0,0,0c-0.2,0-0.4-0.1-0.5-0.4c-0.8-1.9-1.6-3.7-2.3-5.7
		c1,1,1.8,2.2,2.6,3.3c0.3,0.2,1.5,0.1,1.5,0.7C35.5,14.6,34.9,14.9,35,15L35,15z"/>
	<path class="st10" d="M51.3,16.4c-1.8,0.6-3.5,1.1-5.3,1.7c-0.9,0.3-0.8-0.6-1-1c-0.2-0.6,0.4-0.4,0.7-0.5c1.8-0.2,3.7-0.3,5.5-0.4
		C51.2,16.3,51.2,16.4,51.3,16.4z"/>
	<path class="st10" d="M27,16.9c1.9,0.3,3.6,1,5.3,1.6c0.8,0.3,0.2,1,0.1,1.4c-0.1,0.5-0.5,0.1-0.7-0.1C30.2,18.8,28.5,18,27,16.9
		L27,16.9z"/>
	<path class="st10" d="M46.3,10.3c-1,1.4-2,2.9-3,4.3c-0.2,0.2-0.3,0.5-0.7,0.3c-0.3-0.2-0.9-0.2-1-0.6c-0.1-0.3,0.3-0.4,0.5-0.6
		c1.1-1,2.3-1.9,3.4-2.9C45.8,10.5,46,10.2,46.3,10.3L46.3,10.3z"/>
	<path class="st10" d="M51,24.1c-1.7-0.3-3.3-1-5-1.5c-0.9-0.3-0.4-1.1-0.3-1.5c0.2-0.6,0.6,0,0.8,0.1C48.1,22.1,49.7,22.9,51,24.1
		L51,24.1z"/>
	<path class="st11" d="M34.7,14.6c0.1-0.6-0.5-0.6-0.8-0.8c0.7-0.4,1.4,0,2.1,0.2c0.1,0,0.4,0,0.5,0.3C36.1,14.5,35.6,15,35,15
		c0,0,0,0,0,0C35,14.8,35,14.6,34.7,14.6z"/>
	<path class="st11" d="M39.4,13.3c0.6-0.2,0.6-0.2,1.2,0C40,13.6,40,13.6,39.4,13.3z"/>
	<path class="st10" d="M46.3,10.3c0-0.2,0.1-0.4,0.3-0.5c0,0,0.1,0,0.1,0.1C46.6,10.1,46.5,10.2,46.3,10.3
		C46.3,10.3,46.3,10.3,46.3,10.3z"/>
	<path class="st10" d="M27,16.8c-0.1,0-0.2-0.1-0.3-0.1c0,0,0.1-0.1,0.1-0.1C26.8,16.7,26.9,16.8,27,16.8C27,16.9,27,16.8,27,16.8z"
		/>
	<path class="st10" d="M51,24c0.1,0,0.2,0.1,0.3,0.1c0,0-0.1,0.1-0.1,0.1C51.2,24.1,51.1,24.1,51,24C51,24.1,51,24,51,24z"/>
	<path class="st10" d="M27.8,12.8c0,0-0.1-0.1-0.1-0.1C27.7,12.7,27.8,12.7,27.8,12.8C27.8,12.7,27.8,12.8,27.8,12.8z"/>
	<path class="st14" d="M33.6,57.8c0.3,0.5,0.1,0.7-0.3,1c-0.5,0.5-1.6,0.5-1.4,1.7c0,0-0.3,0.3-0.6,0.3c-0.2-0.8,0.1-1.5,0.8-1.9
		c0.7-0.4,0.6-0.8,0.1-1.2c-0.4-0.3-0.7-0.8-1.3-0.8c-1.5,0-1.7,0.2-1.4,1.7c0.1,0.7,0.9,1.4,0,2.1c0.5,1.3-0.6,0.4-0.9,0.7
		c1.1-1.5,0-2.8-0.4-4.2c-0.2-0.7-1.2-0.5-1.6-0.3c-0.5,0.3-0.3,1.1,0.1,1.4c0.4,0.3,0.4,0.5,0.3,0.9c-1.4-0.5-1.3-1.7-1.4-2.8
		c-0.1-0.6,0.5-0.4,0.7-0.4c0.7,0.1,0.8-0.2,0.8-0.8c-0.1-1,0-2,0-3.1c-0.5,0.4-0.5,1-0.8,1.4C26.1,53.9,26,54,25.7,54
		c-0.5,0-0.3-0.4-0.3-0.6c0-0.9-0.1-1.8-0.6-2.8c0.4-0.1,0.8,0,1.2-0.1c1.6-0.5,2.9,0.2,3.6,1.7c0.8,1.9,0.8,1.9,2.7,1.1
		c0.3-0.1,0.7-0.3,1-0.2c1,0.5,1.7,0.1,2.6-0.3c0.7-0.4,1,0,1.1,0.7c0.1,0.7,0,1.5,0,2.3c0,0.2,0.1,0.5,0.1,0.7c0,0.2,1,0,0.2,0.5
		c-0.4,0.3-0.8,0.3-1.2-0.1c-0.2-0.3-0.2-0.6-0.2-0.9c0-0.5,0-1.1,0-1.6c0-0.4-0.4-0.5-0.7-0.5c-0.4,0.1-0.3,0.4-0.2,0.6
		c0.3,0.5,0.1,1-0.2,1.2c-0.5,0.6-0.1,1,0.3,1.3c1.4,1.1,1.2,2.7,1.2,4.1c0,0.6-0.7,0.1-1.1,0.4c0.1-1,0.9-1.7,0.3-2.6
		c-0.4-0.6-0.9-1-1.6-1.2c-0.1-0.1-0.2-0.2-0.3-0.1C33.5,57.6,33.6,57.7,33.6,57.8z"/>
	<path class="st15" d="M49.4,35.3c2.1,1.2,3.8,2.9,6,4.5c-5.4,0.4-10.4,0.4-15.7,0c2.1-1.7,4-3.3,6.1-4.7c0.5,0,1.1-0.1,1.5-0.5
		c0.2-0.1,0.3-0.2,0.5,0C48.2,35.1,48.8,35.1,49.4,35.3z"/>
	<path class="st14" d="M49.4,35.3c-0.5-0.2-1.1-0.2-1.6-0.6c-0.2-0.2-0.3-0.1-0.5,0c-0.4,0.4-1,0.4-1.5,0.5c0-0.6-0.1-1.3-0.1-1.9
		c0-0.2-0.1-0.5,0.3-0.5c0.3,0,0.3,0.2,0.3,0.4c0,0.2,0,0.4,0.3,0.4c0.4,0,0.1-0.4,0.3-0.5c0.5,0,1,0,1.4,0c0.3,0.1-0.2,0.5,0.3,0.5
		c0.3,0,0.4-0.1,0.3-0.4c0-0.2,0-0.5,0.3-0.5c0.4,0.1,0.3,0.4,0.3,0.6C49.3,34,49.4,34.6,49.4,35.3z"/>
	<path class="st12" d="M48.4,33c-0.5,0-1,0-1.4,0c0.1-0.3,0.1-0.6,0-0.9c0.5,0.1,1,0.1,1.5,0C48.4,32.4,48.4,32.7,48.4,33z"/>
	<path class="st14" d="M48.4,32.1c-0.5,0.1-1,0.1-1.5,0c0-0.4,0.2-0.6,0.6-0.7C48,31.4,48.3,31.6,48.4,32.1z"/>
	<path class="st4" d="M43.7,17.9c-1.2-0.6-2.3-0.7-3.6,0.3C40.9,16.7,42.7,16.7,43.7,17.9z"/>
	<path class="st4" d="M35.2,18.9c0.6-0.9,1.4-0.6,2.4-0.7c-0.5,0.5-0.5,1.7-1.4,0.6C35.9,18.5,35.7,19.3,35.2,18.9z"/>
	<path class="st4" d="M35,17.6c1.1-1,2.7-0.9,3.4,0.5C37.2,17.2,36.1,17.4,35,17.6L35,17.6z"/>
	<path class="st4" d="M42.4,18.5c-0.3,0.2-0.2,0.7-0.6,0.8c-0.4,0.1-0.6-0.2-0.7-0.6c-0.1-0.5,0.2-0.4,0.4-0.4
		C41.9,18.3,42.2,18.2,42.4,18.5L42.4,18.5z"/>
	<path class="st4" d="M42.4,18.5c0.3,0,0.7,0,0.8,0.5C42.7,19.1,42.6,18.7,42.4,18.5C42.4,18.5,42.4,18.5,42.4,18.5z"/>
	<path class="st4" d="M35,17.7c-0.1,0-0.1,0.1-0.2,0.1c0,0,0,0-0.1-0.1C34.8,17.7,34.9,17.7,35,17.7C35,17.6,35,17.7,35,17.7z"/>
	<path class="st1" d="M24.7,41.5c0.5-1.5,1-2.9,1.5-4.3c0.1,0,0.1,0,0.2,0c0,1.3,0,2.6,0,3.9c0,0.4-0.2,0.4-0.5,0.4
		C25.5,41.5,25.2,41.5,24.7,41.5z"/>
	<path class="st5" d="M34.7,37.2c0.5,1.4,1,2.8,1.5,4.3c-0.3,0-0.5,0-0.8,0c-0.7,0.1-0.9-0.1-0.9-0.9c0.1-1.1,0-2.3,0-3.4
		C34.6,37.2,34.7,37.2,34.7,37.2z"/>
	<path class="st6" d="M32.5,41.5c0.5-1.5,1-2.8,1.5-4.2c0.1,0,0.1,0,0.2,0c0,1.2,0,2.4,0,3.6c0,0.4-0.1,0.6-0.5,0.5
		C33.3,41.5,33,41.5,32.5,41.5z"/>
	<path class="st6" d="M26.9,37.3c0.5,1.4,0.9,2.7,1.4,4.1c-1.6,0.1-1.6,0.1-1.6-1.3c0-0.9,0-1.8,0-2.7
		C26.8,37.4,26.8,37.4,26.9,37.3z"/>
	<path class="st8" d="M30.3,31c0.5,0,0.7,0.2,0.7,0.5c0,0.3-0.2,0.6-0.6,0.5c-0.4,0-0.6-0.2-0.6-0.6C29.9,31.2,30.1,31,30.3,31z"/>
	<path class="st0" d="M33.6,57.8c0-0.1-0.1-0.2-0.1-0.2c0.1-0.1,0.2-0.1,0.3,0.1C33.8,57.7,33.7,57.8,33.6,57.8z"/>
	<path class="st16" d="M37.6,21.2c0,0,0.8-0.1,1,0c0.1,0.1,0.3,0.3,0.7,0.2c0.4,0,0.2-0.2,0.7-0.2s0.9,0,0.9,0.1
		c0,0.1-0.5-0.1-1,0.2c-0.5,0.2-0.4,0.2-0.7,0.2s-0.4-0.2-0.8-0.3c-0.4-0.1-0.8,0-0.8-0.1C37.5,21.3,37.6,21.2,37.6,21.2z"/>
</g>
<g id="Capa_2">
	<g>
		<path class="st17" d="M21.3,69.7c0,0-0.2,0.4-0.5,0.2c-0.4-0.2-0.7-0.4-1.2,0.2s0.9,0.3,0.9,0.3S21.3,70.2,21.3,69.7z"/>
		<path class="st17" d="M21.3,70c0,0-0.4,0.4-0.3,0.9c0.1,0.4,0.2,0.5,0.2,0.5s0.4-0.1,0.5-0.5C21.7,70.3,21.5,70,21.3,70z"/>
		<path class="st17" d="M21.7,68.1c0,0,0.3-0.4,0.7-0.3c0.5,0.1,0.4,0.6,0.4,0.6s-0.3,0.5-0.7,0.2C21.7,68.2,21.7,68.1,21.7,68.1z"
			/>
		<path class="st17" d="M17,63.9c0,0-0.2,0.3-0.1,0.7s0.3,0.5,0.3,0.5s0.4-0.1,0.3-0.6C17.4,64,17,63.9,17,63.9z"/>
		<path class="st17" d="M17.2,63.5c0,0-0.6-0.1-0.8,0c-0.2,0.1-0.5,0.5-0.2,0.6c0.3,0.1,0.6-0.2,0.9-0.4c0.3-0.2,0.3-0.2,0.3-0.2
			L17.2,63.5z"/>
		<path class="st17" d="M17.8,62.3c0,0,0.7,0.2,1,0.6c0.3,0.4,0.2,0.7,0.1,0.8c-0.1,0.1-0.5-0.5-0.5-0.5S18.2,62.5,17.8,62.3z"/>
		<path class="st17" d="M15.7,56.1c0,0,0.6,0.4,0.8,0.8s0,0.8-0.2,0.7c-0.2-0.1-0.1-0.5-0.2-0.7c-0.1-0.2-0.4-0.5-0.4-0.5V56.1z"/>
		<path class="st17" d="M16,56.1c0,0,0.2-0.4,0.7-0.4c0.5,0,0.4,0.1,0.4,0.1s0,0.3-0.4,0.5C16.2,56.4,16,56.1,16,56.1z"/>
		<path class="st17" d="M15,50.2c0,0,0.4-0.1,0.6,0.1s0,0.4,0,0.4s-0.4,0.2-0.5-0.1S15,50.2,15,50.2z"/>
		<path class="st17" d="M15,50.1c0,0-0.1-0.6,0.6-0.9c0.7,0.2-0.2,0.8-0.2,0.8L15,50.1z"/>
		<path class="st17" d="M14.3,44.4c0,0-0.2,0-0.5,0.3c-0.3,0.3-0.3,0.5,0,0.5c0.3-0.1,0.6-0.7,0.7-0.8S14.3,44.4,14.3,44.4z"/>
		<path class="st17" d="M15.5,42.3c0,0,0.4,0.1,0.7,0.3c0.3,0.2,0.1,0.4,0.1,0.4s-0.2,0-0.5-0.4C15.5,42.3,15.5,42.3,15.5,42.3z"/>
		<path class="st17" d="M15.7,42.3c0,0,0.2-0.4,0.2-0.8c0.1-0.4,0.6-0.4,0.6-0.1s-0.1,0.3-0.2,0.5C16.2,42.1,15.7,42.3,15.7,42.3z"
			/>
		<path class="st17" d="M16.8,34.8c0,0-0.1-0.4-0.1-0.5c-0.1-0.1-0.3-0.3-0.5-0.2c-0.2,0.1,0,0.4,0.1,0.5
			C16.4,34.6,16.8,34.8,16.8,34.8z"/>
		<path class="st17" d="M17.4,34.9c0,0,0.8,0.2,1,0.4s-0.1,0.5-0.3,0.4c-0.1-0.1-0.3-0.5-0.6-0.7C17.4,35,17.4,34.9,17.4,34.9z"/>
		<path class="st17" d="M17.2,35.4c0,0,0,0.2,0.2,0.3c0.2,0.1,0.6,0.3,0.4,0.5c-0.2,0.2-0.5,0-0.5-0.3
			C17.3,35.7,17.2,35.4,17.2,35.4z"/>
		<path class="st17" d="M51.3,74.4c0,0-0.2,0.6,0.3,0.7c0.5,0.1,0.5-0.5,0.4-0.6C51.9,74.5,51.6,74.3,51.3,74.4z"/>
		<path class="st17" d="M53.8,71.1c0,0,0.3,0,0.5-0.5c0.1-0.5,0-0.7-0.2-0.9c-0.3-0.2-0.5,0-0.6,0.4C53.3,70.5,53.5,70.7,53.8,71.1z
			"/>
		<path class="st17" d="M56.4,70.2c0,0,0.3-0.5,0.9-0.5s0.5,0.3,0.5,0.3c0,0.1-0.3,0.4-0.7,0.4C56.7,70.4,56.4,70.2,56.4,70.2z"/>
		<path class="st17" d="M58.2,66.1c0,0,0.4-0.9-0.2-1c-0.5-0.1-0.7,0.5-0.5,0.7C57.8,66,58.2,66.1,58.2,66.1z"/>
		<path class="st17" d="M59.6,66.1c0,0,0.3,0,0.4-0.3c0.2-0.3,0.3-0.7,1-0.4c0.7,0.2-0.1,0.9-0.6,0.9C59.9,66.1,59.6,66.1,59.6,66.1
			z"/>
		<path class="st17" d="M61.6,62.1c0,0,0.3-0.2,0.5-0.9s1.2-0.1,0.8,0.2C62.6,61.8,61.6,62.1,61.6,62.1z"/>
		<path class="st17" d="M62.6,54.6c0,0-0.1-0.3-0.1-0.7s-0.4-0.8-0.8-0.3C61.2,54,62.3,54.5,62.6,54.6z"/>
		<path class="st17" d="M63.8,52.2c0,0,0.1,0.1,0.2-0.2c0.1-0.3,0.2-0.5,0.5-0.5c0.3,0,0.4,0.2,0.3,0.5c-0.2,0.3-0.9,0.5-1,0.4
			C63.7,52.2,63.8,52.2,63.8,52.2z"/>
		<path class="st17" d="M63,49.3c0,0,0-0.1-0.2-0.6c-0.2-0.4-0.3-0.5-0.5-0.4s-0.5,0.6,0.1,0.8C63,49.3,63,49.3,63,49.3z"/>
		<path class="st17" d="M63.8,46.8c0,0,0.2,0.2,0.4-0.8c0.1-0.9,0.4-0.7,0.8-0.4C65.3,45.8,64.7,46.7,63.8,46.8z"/>
		<path class="st17" d="M62.8,43.2c0,0,0-0.6-0.4-0.9c-0.4-0.4-0.9,0.1-0.6,0.5S62.6,43,62.8,43.2z"/>
		<path class="st17" d="M62.9,40.5c0,0-0.1-0.4,0.3-0.9c0.5-0.5,0.8-0.1,0.8,0.1C64,39.9,63.3,40.5,62.9,40.5z"/>
		<path class="st17" d="M61.7,38.1c0,0,0.2-0.2-0.4-0.6c-0.5-0.3-0.6-0.1-0.7,0c-0.1,0.1,0,0.6,0.6,0.6S61.7,38.1,61.7,38.1z"/>
		<path class="st17" d="M61.7,36c0,0,0.1-0.2,0.2-0.8c0-0.6,0.6-0.2,0.5,0.1C62.2,35.6,61.7,36,61.7,36z"/>
		<path class="st17" d="M60.8,35.2c0,0-0.3-0.6-0.6-0.6c-0.3,0-0.5,0-0.5,0.3S60.1,35.5,60.8,35.2z"/>
		<path class="st17" d="M59.9,31.7c0,0-0.4-0.7-0.2-1c0.2-0.3,0.7-0.3,0.7,0.2S60.2,31,59.9,31.7z"/>
		<path class="st17" d="M58.2,30.5c0,0-0.1,0-0.4-0.1c-0.3-0.1-0.6,0.1-0.4,0.4c0.3,0.3,0.8-0.1,0.9-0.1
			C58.5,30.6,58.2,30.5,58.2,30.5z"/>
	</g>
	<path class="st16" d="M-905.9-343.8c0,0,3.3-0.3,3.9,0c0.6,0.3,1.2,1,2.8,0.8c1.6-0.2,0.7-0.9,2.8-1c2.1,0,3.7-0.1,3.7,0.5
		c0,0.6-2.1-0.2-4.2,0.8c-2,1-1.6,0.7-2.6,0.8s-1.4-0.7-3-1.1c-1.6-0.4-3.2,0.2-3.3-0.2C-906-343.5-905.9-343.8-905.9-343.8z"/>
</g>
</svg>
