<?xml version="1.0" encoding="utf-8"?>
<!-- Generator: Adobe Illustrator 24.0.2, SVG Export Plug-In . SVG Version: 6.00 Build 0)  -->
<svg version="1.1" id="Capa_1" xmlns="http://www.w3.org/2000/svg" xmlns:xlink="http://www.w3.org/1999/xlink" x="0px" y="0px"
	 viewBox="0 0 147 123.7" style="enable-background:new 0 0 147 123.7;" xml:space="preserve">
<style type="text/css">
	.st0{fill:#49807F;}
	.st1{fill:#305D60;}
	.st2{fill:#ECAA69;}
	.st3{fill:#48756D;}
	.st4{fill:#3F5148;}
	.st5{fill:#E08641;}
	.st6{fill:#3F6161;}
	.st7{fill:#EBAA69;}
	.st8{fill:#345D62;}
	.st9{fill:#2C5C62;}
</style>
<path class="st0" d="M76.9,84.3c0,0,4.1-11,10.5-14.2c6.4-3.2,5.2-2.4,5.2-2.4l5.4,3.4l22.5-2.3L122,67c0,0,7.6,3.3,10,6
	c9.3,10.4,7.2,34,7.2,34l-63.6-0.2L76.9,84.3z"/>
<path class="st1" d="M60.2,35.2c-0.8-2.6-2.1-11.3-5.6-7.7c-4.5,2.1-10.6,3.6-16.2,3.2c-6.6-0.9-7.7-3.7-8.7,7
	c-0.2,2.1,1,9.1-1.7,7.8c-0.5-1.3-0.7-3-1.9-3.7c-0.2-0.5-1.2-0.4-1.2-1.1c-0.7-5.5,0.4-11.6,3.2-15.5c4.4-7,13.6-9,21.9-7.6
	c1.1-0.1,2,0.2,3.1,0.6c0.6,0.2,1,0.5,1.6,0.6c1.9,0.6,3,2.4,4.4,3.6c2,0.3,3.8,1.5,5,2.9c0,0,0,0.1,0.1,0.1c0,0.1,0.1,0.3,0.3,0.4
	l-0.1,0c2.4,2.7,2.8,8.3,2.6,12c0.3,0.8-0.3,2-0.3,2.8c0.2,1.2-2.5,2.4-2.4,2.7C61.1,51.7,61.4,37.4,60.2,35.2z"/>
<polygon class="st1" points="27.8,32.9 25.8,42.6 34.6,62.1 48.2,65 58,60.2 59.9,54.3 66.7,42.6 65.8,39.7 59,25.1 54.1,24.1 
	31.7,29 "/>
<path class="st1" d="M28.7,69.9c0,0,4.9-2.9,4.9-4.9c3.9,3.9,9.8,4.7,11.7,4.9c3.7,0.3,13.5-5.2,13.5-5.2s0.6,3.6,3.1,5.2
	c0.5,9.4-10.6,12.7-17.5,12.7C37.5,82.6,29.7,77.7,28.7,69.9z"/>
<path class="st2" d="M66.9,41.4c5.9,2.7,1.1,13-3.6,13.2c-0.8,6.3-4.8,12.2-10.7,14.6l0,0C48.1,71,43,71,38.6,69.1
	c-0.1-0.2-2-1.1-2-1.1c-0.1-0.1-1.5-1-1.5-1c-3.8-2.8-6.3-7.4-7-12.1C23,54.6,18.9,41,25.9,41.7c0.1,0.1,0.1,0.2,0.2,0.1
	c0,0.1,0.1,0.2,0.2,0.2c0.8,0.9,0.9,2.4,1.6,3.5l0,0c0.4,0.6,0.7,0.7,1.2,0.2l0,0c1.1-4.5,0.3-9.3,1.6-13.9l0,0
	c0.1-0.1,0.1-0.2,0.1-0.4l0,0c0.3-0.6,0.4-1.8,1.4-1.5c7.2,1.1,15,1,21.5-2.3l0,0c0.3-0.1,2.5-1.6,3.1-1c0.1,0.2,0.1,0.2,0.1,0.2
	c0.2,0.2,0.6,1,0.7,1.1l0,0c2.9,2.9,2.9,19,5.3,17.7l0,0c0.7-0.7,1-1.7,1.3-2.6c0.1,0,0.2-0.3,0.2-0.4l0,0c0-0.1,0.1-0.2,0.1-0.3
	c0.1,0,0.3-0.2,0.3-0.4l0,0c0.1,0,0.3-0.2,0.2-0.3c0.1,0,0.1-0.1,0.1-0.1c0,0.1,0.2-0.1,0.2-0.1l0,0c0,0,0.1-0.1,0.1-0.1
	C66,41.6,66.5,41.4,66.9,41.4z M38.4,43.4c0,0-0.1-0.1-0.1-0.1l0,0c-0.7-0.4-1.1-0.3-1.8,0.3l0,0c-0.2,0.2-0.4,0.5-0.4,0.7
	c-1.9,5.5,5.5,3.8,2.5-0.6l0,0c0,0-0.1-0.1-0.1-0.1l0,0C38.5,43.5,38.4,43.5,38.4,43.4L38.4,43.4z M55.8,58.4L55.8,58.4
	c0.7-0.9,0.2-2.5-0.6-3.3l0,0c-0.3-0.4-0.8-0.9-1.2-1c-0.1-0.2-0.2-0.2-0.4-0.3c-0.1-0.2-0.4-0.3-0.5-0.3c-0.3-0.4-0.8,0-1.1-0.4
	c-1.4-0.7-3.2,0.1-3.4-1.5l0,0c-1.7-0.8-3.3,1.2-5.3-0.2l0,0c-0.7-0.7-0.3-1.9-0.1-2.7l0,0c0.1,0,0.1-0.2,0.1-0.3
	c0.5-1,1.6-3.6,0.6-4.5c-0.8-0.1-1,0.1-1.1,0.9c-0.2,2.3-2.3,4.6-1.3,7l0,0c0.9,1.4-2.3,0.6-3,1.4c-0.1,0-0.2,0-0.3,0.1
	c-0.2,0-0.6,0.2-0.8,0.4l0,0c-4.3,2.7-2.9,5.2,1.6,5.4c2.6,2.6,7.8,2.7,11,1.2l0,0C52.2,58.5,54,60.1,55.8,58.4z M52.1,43.8
	c-0.1,0-0.1,0.2-0.1,0.2l0,0c-0.5,1.1-0.6,2.2,0.1,3.3l0,0c0.2,0.2,0.3,0.5,0.6,0.5c0.7,0.4,1.7-0.2,1.9-0.9c0.6-0.9,0.5-2.2,0-3
	l0,0c-0.1-0.1-0.2-0.4-0.4-0.4c0,0-0.1-0.1-0.1-0.1l0,0c-0.7-0.6-1.4-0.5-1.9,0.3C52.2,43.7,52.1,43.8,52.1,43.8z M33,39.3
	c-0.3,0.4-0.4,1,0.1,1.3c0,0.1,0.2,0.2,0.2,0.1c1.9,0,3.9-1.1,6-0.7c2.3,0.6,2.1-1.8,0.6-2.2l0,0c-2.1-0.9-5.3-0.6-6.9,1.2l0,0
	C33,39.1,33,39.2,33,39.3L33,39.3z M54.2,37.4c-1-0.1-2.1-0.1-3,0.3c-1.7,0.2-2.3,2.9-0.1,2.5c2.2-0.6,4.4,0.6,6.5,0.4l0,0
	C59.3,39,55.5,37.3,54.2,37.4z"/>
<path class="st1" d="M18.7,106.8c-0.3-3.6,0.2-7.3,0.2-10.9c0.4-1.7-0.7-5.7,1-6.5c1.7,0.4,0.8,4.4,1.1,5.9c-0.6,2,2.1,9.2,0,10.7
	C20.6,106.2,19.3,106.9,18.7,106.8z"/>
<path class="st1" d="M72,106.8c0.5-3-1.3-16.5,0.7-17.3c1.7,0.5,1,4.3,1,5.9c-0.1,3.1,0.2,11.5,0.2,11.5S72.8,106.9,72,106.8z"/>
<path class="st3" d="M44.1,106.8c1.4-0.4,3.4-0.1,4.4-0.6c-0.2,0.9,0.6,0.2,0.9,0.6C47.6,106.8,45.8,106.8,44.1,106.8z"/>
<path class="st3" d="M51.3,106.8c1.2-0.5,2.7-0.2,3.8,0C53.9,106.8,52.6,106.8,51.3,106.8z"/>
<path class="st3" d="M42.4,106.5c3.1,0.3-0.8,0.2-2.1,0.2C40.2,106.4,42,106.6,42.4,106.5z"/>
<path class="st3" d="M55.5,106.8c0.7-0.2,1.9-0.4,2.4,0C57,106.8,56.2,106.8,55.5,106.8z"/>
<path class="st3" d="M76.4,76.3"/>
<path class="st3" d="M79.8,79.7c-0.3,0-0.3-0.2-0.3-0.4C79.6,79.5,79.7,79.6,79.8,79.7z"/>
<path class="st3" d="M79.3,79.1c-0.2,0-0.3-0.1-0.3-0.3C79.1,78.9,79.2,79,79.3,79.1z"/>
<path class="st3" d="M79,78.8c0,0-0.1-0.1-0.1-0.1C79,78.7,79,78.8,79,78.8z"/>
<path class="st3" d="M79.9,79.9c0,0-0.1-0.1-0.1-0.1C79.8,79.8,79.8,79.8,79.9,79.9z"/>
<path class="st3" d="M80,80.1c0-0.1-0.1-0.1-0.1-0.2C80,79.9,80,80,80,80.1z"/>
<g>
	<path class="st0" d="M70.7,72.9C70.7,72.9,70.7,72.9,70.7,72.9C70.7,72.9,70.7,72.9,70.7,72.9z"/>
	<path class="st0" d="M70.6,72.9C70.6,72.9,70.7,72.9,70.6,72.9C70.7,72.9,70.6,72.9,70.6,72.9z"/>
	<path class="st0" d="M63.8,70.2C63.8,70.2,63.8,70.2,63.8,70.2C63.8,70.2,63.8,70.2,63.8,70.2z"/>
	<path class="st0" d="M75.3,75.5C75.3,75.5,75.3,75.5,75.3,75.5C75.3,75.5,75.3,75.5,75.3,75.5z"/>
	<path class="st0" d="M79.8,79.7C79.8,79.7,79.8,79.7,79.8,79.7C79.8,79.7,79.8,79.7,79.8,79.7z"/>
	<path class="st0" d="M66.9,71.2c-9.7-2.8-2.4-2.1-8.6,5.7c-8,9.5-27.3,5.8-28.9-7.3C14.7,73,8.3,84.5,8.2,100.2
		c0,2-0.9,6.3,1.4,6.3c2.9,0,6.1,0,9.1,0.2c-0.3-3.6,0.2-7.3,0.2-10.9c0.4-1.7-0.7-5.7,1-6.5c2,2.1,0.2,13.6,0.6,17.4
		c18.3,0,33.4-0.2,51.6,0c0.5-3-1.3-16.5,0.7-17.3c1.7,0.5,0.5,4.4,1,5.9c0.2,3.8,4.1,11.6,0.2,11.5c3.2,0.1,6.4,0,9.5-0.3
		c1-0.1,0.6-27-10.8-32.6 M42.4,106.5c0-0.1,0.1-0.2,0.2-0.1C42.5,106.5,42.4,106.5,42.4,106.5z M73.9,106.8
		c3.2,0.1,5.5,0.2,9.5-0.3c1-0.1,0.6-27-10.8-32.6"/>
	<path class="st0" d="M80.1,80.2C80.1,80.2,80.1,80.2,80.1,80.2C80.1,80.2,80.1,80.2,80.1,80.2z"/>
	<path class="st0" d="M75.5,75.6C75.5,75.6,75.5,75.6,75.5,75.6C75.5,75.6,75.5,75.6,75.5,75.6z"/>
	<path class="st0" d="M79,78.8C79,78.8,79,78.8,79,78.8C79,78.8,79,78.8,79,78.8z"/>
</g>
<path class="st3" d="M42.4,106.5c0-0.1,0.1-0.2,0.2-0.1C42.5,106.5,42.4,106.5,42.4,106.5z"/>
<path class="st3" d="M47.8,106.3C47.8,106.3,47.9,106.3,47.8,106.3C47.9,106.3,47.9,106.3,47.8,106.3L47.8,106.3z"/>
<path class="st2" d="M49.3,78.1C44.2,78.9,38.1,78,35,74c-2.6-5.8-1.5-5.7,1.5-4.1c4,2.1,11.3,4.9,18.5,0c5.2-3.5,2.2,4.2-0.3,5.7
	C53.3,76.7,51.3,77.7,49.3,78.1z"/>
<path class="st4" d="M43.7,78.3c1.4,0.1,2.7,0.1,4.1,0C46.6,78.8,44.9,78.8,43.7,78.3z"/>
<path class="st2" d="M45.4,58.2c0.2,0.3,0.4,0.4,0.7,0.6c0,0,0,0,0,0c0.8,0.6,1.9,1,3,1.2c-2,1.2-10.5,0.4-5.4-0.7
	C44.5,59.2,44.8,58.5,45.4,58.2z"/>
<path class="st5" d="M87.1,70.2c-7.2-3.9-8.8-10.3-7.3-17.6c1.6-8.2,3.7-16.2,7.6-23.6c6.5-12.1,22.8-15.8,33.4-7.5
	c3.5,2.7,5.8,6.4,7.5,10.4c3.1,7,5.4,14.3,6.5,21.9c1,6.6,0.1,13.4-5.8,17.3c-2.2-0.8-4.9-2.9-7.1-3.7c-0.5-0.2-1.1-0.4-1.6-0.6
	c-2.1-0.6-2.5-1.9-1-3.3c2-1.9,3.5-4,4.3-6.6c0.2-0.7,0.8-1,1.4-1.3c3-1.7,3.6-4.2,1.7-7c-1-1.5-2.5-2.9-2.6-4.7
	c-0.2-2.6-1.8-3.7-3.8-4.7c-1.6-0.8-3.1-1.6-4.6-2.4c-5.1-2.4-9.7-5.4-12.8-10.3c-1.1-1.7-1.8-1.4-2.4,0.3
	c-2.1,5.2-5.1,9.9-9.8,13.2c-0.8,0.6-1.4,1.2-1.2,2.3c0.4,3.1-0.8,5.7-2.5,8.1c-1.1,1.6-0.8,3.3,0.8,4c2,0.9,2.6,2.6,3.5,4.3
	c0.7,1.3,1.5,2.6,2.5,3.7c2.8,3.5,2.8,3.4-0.9,5.4C90.8,68.5,89,69.4,87.1,70.2z"/>
<path class="st6" d="M94.2,68.8c-0.5-0.4-1-0.7-1.5-1.1c3.7-2,3.6-2,0.9-5.4c-0.9-1.2-1.8-2.4-2.5-3.7c-0.9-1.7-1.5-3.3-3.5-4.3
	c-1.6-0.7-1.9-2.4-0.8-4c1.7-2.4,2.9-5,2.5-8.1c-0.1-1,0.5-1.7,1.2-2.3c4.7-3.3,7.7-8,9.8-13.2c0.7-1.7,1.4-2,2.4-0.3
	c3.1,4.9,7.7,7.9,12.8,10.3c1.6,0.7,3.1,1.6,4.6,2.4c2,1,3.6,2.1,3.8,4.7c0.2,1.8,1.6,3.2,2.6,4.7c2,2.8,1.3,5.4-1.7,7
	c-0.6,0.3-1.1,0.5-1.4,1.3c-0.8,2.6-2.3,4.7-4.3,6.6c-1.5,1.4-1,2.7,1,3.3c0.5,0.2,1.1,0.4,1.6,0.6c-0.9,0.7-0.7,1.3-1.5,1.6
	c-1.9-0.3-3.9-0.6-4.2-3.1c-7.2,3.4-10.6,3.5-18.5,0.4C98.1,69,95.5,68,94.2,68.8z M101.8,28.4c-2.3,5.4-5.1,9.6-9.6,12.5
	c-0.5,0.3-0.7,0.7-0.6,1.3c0.1,3-0.9,5.7-2.9,8c-1.1,1.2-0.8,2.7,1,3c1.5,0.2,1.8,1,2.2,2.2c2.2,6,8.6,11,14.8,10.8
	c5.9-0.2,12.6-3.3,15-10c0.3-0.9,0.5-2,1.9-2.4c2.5-0.8,3-2.8,1.2-4.7c-1.4-1.4-2.4-3-2.8-4.9c-0.3-1.7-1.3-2.5-2.7-3.3
	C113,37.5,106.3,34.9,101.8,28.4z"/>
<path class="st7" d="M94.2,68.8c1.4-0.7,3.9,0.2,3.6-2.7c7.9,3.1,11.3,3,18.5-0.4c0.3,2.5,2.3,2.8,4.2,3.1c-0.9,3.9-3.9,5.7-7.3,6.8
	c-5.9,1.9-11.6,1.3-16.5-3C95.5,71.6,94.6,70.4,94.2,68.8z"/>
<path class="st7" d="M101.8,28.4c4.6,6.5,11.2,9.1,17.4,12.4c1.4,0.7,2.3,1.6,2.7,3.3c0.4,1.9,1.4,3.5,2.8,4.9
	c1.8,1.9,1.3,3.9-1.2,4.7c-1.4,0.4-1.5,1.4-1.9,2.4c-2.4,6.7-9.1,9.9-15,10c-6.2,0.2-12.6-4.8-14.8-10.8c-0.4-1.1-0.7-2-2.2-2.2
	c-1.8-0.2-2.1-1.7-1-3c2-2.3,3-4.9,2.9-8c0-0.5,0.2-1,0.6-1.3C96.7,38,99.4,33.7,101.8,28.4z M106.9,58.3c2.2-0.3,4.4-0.6,6.2-2.2
	c0.5-0.4,0.7-1,0.3-1.5c-0.4-0.5-0.9-0.4-1.3-0.1c-3.5,2.4-7,2-10.5,0.1c-0.5-0.3-1.1-0.6-1.5,0.1c-0.4,0.6,0.1,1.1,0.5,1.5
	C102.5,57.7,104.7,58,106.9,58.3z M103.6,49.5c0,2.3,1.9,3.6,3.9,3c0.5-0.1,1.1-0.2,1.1-0.8c0-0.6-0.6-0.8-1-0.8
	c-2-0.1-2.1-1.1-1.5-2.7c0.3-0.8,1.4-2.1,0.1-2.6c-1.2-0.4-1.6,1.1-2,2.1C103.9,48.4,103.7,49.1,103.6,49.5z M101.1,46.7
	c0.1-1.9-0.3-3.2-1.9-3.1c-1.3,0-1.6,1.2-1.6,2.4c0,1.3,0.3,2.5,1.7,2.6C100.8,48.7,101.1,47.4,101.1,46.7z M115.8,46.1
	c-0.1-1.3-0.3-2.6-1.9-2.5c-1.4,0.1-1.8,1.3-1.7,2.6c0,1.2,0.4,2.3,1.7,2.3C115.5,48.5,115.7,47.3,115.8,46.1z M99.7,40.6
	c0.8,0,2.1,0.8,2.3-0.6c0.1-1.2-1.2-1.4-2.2-1.6c-0.8-0.2-1.7-0.1-2.4,0.3c-0.7,0.4-1.5,0.7-1.3,1.6c0.3,1,1.1,0.7,1.9,0.5
	C98.6,40.7,99.1,40.7,99.7,40.6z M114.3,39.3c-1.4,0-2.6,0.1-2.6,1.3c0.1,1.2,1.3,0.6,2,0.6c0.5,0.1,1,0,1.5,0.1
	c0.7,0.2,1.6,0.6,1.8-0.4c0.2-0.9-0.8-1.1-1.4-1.4C115.1,39.3,114.5,39.3,114.3,39.3z"/>
<path class="st6" d="M106.9,58.3c-2.2-0.3-4.5-0.6-6.3-2.1c-0.5-0.4-0.9-0.8-0.5-1.5c0.4-0.7,1-0.4,1.5-0.1c3.5,1.9,7,2.3,10.5-0.1
	c0.4-0.3,1-0.4,1.3,0.1c0.4,0.6,0.1,1.1-0.3,1.5C111.4,57.7,109.1,58,106.9,58.3z"/>
<path class="st6" d="M103.6,49.5c0.1-0.4,0.2-1.1,0.5-1.8c0.4-0.9,0.8-2.5,2-2.1c1.2,0.5,0.1,1.7-0.1,2.6c-0.5,1.6-0.5,2.6,1.5,2.7
	c0.5,0,1,0.1,1,0.8c0,0.7-0.6,0.7-1.1,0.8C105.6,53.1,103.6,51.7,103.6,49.5z"/>
<path class="st6" d="M101.1,46.7c0,0.7-0.4,2-1.9,1.8c-1.4-0.1-1.7-1.4-1.7-2.6c0-1.1,0.3-2.4,1.6-2.4
	C100.8,43.5,101.2,44.8,101.1,46.7z"/>
<path class="st6" d="M115.8,46.1c-0.1,1.1-0.3,2.4-1.9,2.4c-1.3,0-1.7-1.2-1.7-2.3c0-1.2,0.3-2.5,1.7-2.6
	C115.5,43.5,115.6,44.9,115.8,46.1z"/>
<path class="st6" d="M99.7,40.6c-0.6,0.1-1.2,0.1-1.7,0.2c-0.7,0.2-1.6,0.6-1.9-0.5c-0.2-0.9,0.6-1.3,1.3-1.6
	c0.8-0.4,1.6-0.5,2.4-0.3c0.9,0.2,2.3,0.4,2.2,1.6C101.8,41.4,100.5,40.6,99.7,40.6z"/>
<path class="st8" d="M114.3,39.3c0.2,0,0.8,0.1,1.3,0.3c0.6,0.3,1.7,0.4,1.4,1.4c-0.2,1.1-1.1,0.6-1.8,0.4c-0.5-0.1-1,0-1.5-0.1
	c-0.7-0.1-2,0.5-2-0.6C111.7,39.3,112.9,39.3,114.3,39.3z"/>
<path class="st9" d="M74.7,106.7c0.3-3.1,0.1-6.2,0.3-9.3c0.2-5,0.6-9.9,2.2-14.7c0.7-2,1.7-3.8,2.9-5.6c0.2-0.3,2.1-2.3,2.6-2.5
	c-1.4,2.7-1.8,3.7-2.3,4.6c-2.3,3.9-2.4,7.3-2.9,11.7c-0.6,5.3-0.5,10.6-0.5,15.9c0,0.1,0,0.1,0,0.2c-0.7,0-1.4,0-2.1,0
	C74.7,106.8,74.7,106.7,74.7,106.7z"/>
<path class="st9" d="M85.3,107c0,0,0.4-16.5,1.2-19c0.8-2.5,1.8-0.9,1.8-0.9s-1,7.2-1,9.1c0,1.9,1,10.7,1,10.7H85.3z"/>
<path class="st9" d="M129.2,107c0,0-0.4-16.5-1.2-19c-0.8-2.5-1.8-0.9-1.8-0.9s1,7.2,1,9.1c0,1.9-1,10.7-1,10.7H129.2z"/>
</svg>
