<?xml version="1.0" encoding="utf-8"?>
<!-- Generator: Adobe Illustrator 24.0.2, SVG Export Plug-In . SVG Version: 6.00 Build 0)  -->
<svg version="1.1" id="Capa_1" xmlns="http://www.w3.org/2000/svg" xmlns:xlink="http://www.w3.org/1999/xlink" x="0px" y="0px"
	 viewBox="0 0 51 51" style="enable-background:new 0 0 51 51;" xml:space="preserve">
<style type="text/css">
	.st0{fill:#A8673B;}
	.st1{fill:#2F8487;}
	.st2{fill:none;}
	.st3{fill:#493528;}
	.st4{fill:#185454;}
	.st5{fill:#B36D3D;}
	.st6{fill:#49433A;}
	.st7{fill:#195353;}
	.st8{fill:#185453;}
	.st9{fill:#4A433A;}
	.st10{fill:#493628;}
	.st11{fill:#483629;}
	.st12{fill:#473629;}
	.st13{fill:#483528;}
	.st14{fill:#473528;}
	.st15{fill:#A9683B;}
</style>
<path class="st0" d="M34.6,13.2c-0.1-0.7-0.6-1.1-1.3-1.1c0.3-1.4,0.6-2.8,0.5-4.2c-0.1-1.2-0.4-2.4-1.1-3.3
	c-0.9-1.2-2.1-1.9-3.4-2.4c-1.6-0.5-3.2-0.6-4.8-0.5c-1.4,0.1-2.6,0.4-3.8,1.2c-0.8,0.5-1.6,1.1-2.2,1.9c-0.8,1.2-1.1,2.5-1.2,3.9
	c0,0.9,0,1.9,0.1,2.8c0,0,0,0-0.1,0c-0.5,0.1-0.8,0.5-1,0.9c-0.4,0.7-0.4,1.5-0.2,2.3c0.3,1.3,1.9,2.2,2.9,2c0.1,0,0.1,0,0.1,0.1
	c0,0.4,0.1,0.7,0.2,1.1c0.2,0.8,0.6,1.4,1,2.1c0,0.5,0,1.1-0.1,1.6c0,0.5-0.1,1-0.1,1.5c0.1,0,0.1,0.1,0.1,0.2
	c0.1,0.3,0.2,0.5,0.5,0.7c0.5,0.4,1.1,0.6,1.7,0.8c1.2,0.4,2.4,0.4,3.6,0.4c0.7,0,1.4-0.1,2.1-0.4c0.2-0.1,0.4-0.2,0.6-0.4
	c0.2-0.2,0.3-0.4,0.3-0.6c0-0.1,0-0.2,0.1-0.2c0-0.5,0-0.9,0-1.4c0.1-0.1,0-0.2,0-0.3c0-0.1,0-0.1,0.1-0.2c0.9-0.6,1.5-1.5,2-2.5
	c0.3-0.6,0.6-1.3,0.8-2c0-0.1,0-0.1,0.1-0.1c0.6,0,1.2-0.3,1.6-0.7C34.6,15.4,34.8,14.3,34.6,13.2z"/>
<path class="st1" d="M19.6,24.3l4.4,1.4h2.3l3.5-1.3l4.2,1.9l4.5,7.1l1.9,7.1l0.2,0.6c-0.3,3.4,2.3,5.9-4.3,7.5l-4.5-0.3l-6.3-1.6
	l-8.2,2.3l-0.1,0c-5.2,0.6-5.3-3.6-5.7-6.1l-0.1-4.9c0,0,1.8-5.7,1.9-6.6c0.1-1,1.3-3.9,1.3-3.9l4-2.3L19.6,24.3z"/>
<polygon class="st2" points="35.2,37.5 35.2,37.5 35.2,37.5 "/>
<polygon class="st2" points="20.3,39.6 20.3,39.6 20.3,39.6 20.3,39.6 20.3,39.6 "/>
<path class="st2" d="M15,48.8c-0.3,0-0.5-0.1-0.7-0.1c0,0,0,0,0,0C14.5,48.8,14.8,48.8,15,48.8z"/>
<polygon class="st2" points="20.3,39.6 20.3,39.6 20.3,39.6 20.3,39.6 "/>
<path class="st2" d="M15.2,48.9c0.1,0,0.2,0,0.3,0C15.4,48.9,15.3,48.9,15.2,48.9z"/>
<path class="st1" d="M41.3,38.9c-0.2-1.6-0.6-3.1-1-4.7c-0.4-1.4-0.8-2.9-1.4-4.2c-0.9-2.1-2.4-3.6-4.4-4.6c-1-0.5-2.1-0.9-3.2-1.3
	c-0.7-0.3-1.5-0.4-2.1-0.8c0,0.7-0.4,1-0.9,1.3c-0.6,0.3-1.3,0.4-2,0.4c-1.5,0.1-2.9-0.1-4.3-0.6c-0.3-0.1-0.7-0.3-1-0.5
	c-0.3-0.2-0.5-0.5-0.5-1c-0.7,0.3-1.5,0.6-2.2,0.9c-1.5,0.6-2.9,1.2-4.3,2c-1.6,0.9-2.8,2.1-3.5,3.8c-0.5,1.3-0.8,2.6-0.9,3.9
	c-0.1,1.6-0.1,3.2,0.2,4.8c0.3,1.8,0.7,3.5,1.2,5.2c0.3,0.8,0.6,1.6,0.9,2.4c0.3,0.6,0.7,1.2,1.1,1.6c0.3,0.3,0.6,0.6,1.3,1
	c0.2,0.1,0.5,0.1,0.7,0.1c0.1,0,0.1,0,0.2,0c0.1,0,0.2,0,0.3,0c0.3,0,0.7,0,1.1,0c1.3-0.1,2.5-0.3,3.7-0.6c1.1-0.3,2.2-0.8,3.3-1.2
	c1.2-0.5,2.5-0.9,3.7-1.4c1-0.4,1.9-0.8,2.8-1.3c0.8-0.4,1.6-0.8,2.3-1.3c0.6-0.4,0.6-0.5,0.5-1.2c-0.2-1-0.6-1.9-1.2-2.7
	c0,0,0-0.1-0.1-0.1c-0.1-0.1-0.2-0.2-0.3-0.4c-0.5-0.1-0.9,0-1.4,0c-0.4,0-0.8,0.1-1.2,0.1c-0.5,0.1-0.9,0.1-1.4,0.2
	c-0.6,0.1-1.3,0.2-1.9,0.3c-0.6,0.1-1.3,0.2-1.9,0.3c-1,0.2-2.1,0.3-3.1,0.5c-1.2,0.2-2.3,0.5-3.4,0.9c-0.2,0.1-0.4,0.1-0.6,0.2
	c-0.5,0.2-1.1,0.4-1.6,0.6c-0.2,0.1-0.4,0.1-0.6,0.1c-0.3,0-0.6-0.2-0.6-0.6c0,0,0-0.1,0-0.1c0-0.2-0.1-0.4-0.3-0.5
	c-0.4-0.1-0.6-0.5-0.5-1c0-0.1,0-0.2-0.1-0.3c-0.3-0.3-0.4-0.6-0.2-1c0-0.1,0-0.1,0.1-0.2c0-0.1,0-0.2,0-0.3
	c-0.3-0.4-0.2-0.9,0.1-1.4c0.4-0.5,0.9-0.8,1.4-1c0.8-0.3,1.6-0.5,2.4-0.3c0.3,0.1,0.6,0.2,0.9,0.3c-0.3-1-0.6-2-0.8-3.1
	c0-0.2-0.1-0.3-0.1-0.5c0,0,0-0.1,0-0.1c0,0,0.1,0,0.1,0.1c0,0.1,0.1,0.1,0.1,0.2c0.4,1.1,0.7,2.2,1,3.3c0,0.1,0,0.1,0,0.2
	c0.1,0.1,0.2,0.2,0.3,0.3c0.9,0.8,1.7,1.7,2.5,2.6c0.2,0.2,0.4,0.4,0.6,0.6c0,0,0.1,0.1,0.1,0.1v0c0.5-0.1,0.9-0.2,1.4-0.3
	c0.5-0.1,1.1-0.2,1.6-0.2c0.7-0.1,1.4-0.2,2.2-0.3c0.7-0.1,1.4-0.2,2-0.3c0.9-0.1,1.7-0.1,2.6-0.1c0.1,0,0.2,0.1,0.4,0.1
	c0,0,0,0,0,0c0.6-0.2,1.2-0.4,1.8-0.5c0.4-0.1,0.9-0.3,1.4-0.3c0,0,0,0,0.1,0c0-0.7,0.1-1.4,0.1-2.1c0-1-0.1-1.9-0.2-2.9
	c0-0.2-0.1-0.5,0-0.7c0-0.1,0-0.2,0.1-0.2c0.1,0,0.1,0.1,0.2,0.2c0.1,0.2,0.2,0.5,0.2,0.8c0.1,0.6,0.1,1.2,0.2,1.8
	c0.1,1.1-0.1,2.1,0,3.2c0,0,0,0,0,0c0.8,0.1,1.4,0.4,2,0.9c0.4,0.3,0.8,0.7,1.2,1.1c0.3,0.4,0.5,0.8,0.4,1.2c0,0,0,0.1,0,0.1
	c-0.2,0.2,0,0.3,0.1,0.3c0,0,0,0,0.1,0c0,0,0.1,0.1,0.1,0.2c0,0.1-0.1,0-0.2,0c-0.2,0-0.4-0.1-0.6-0.1c-0.9-0.2-1.8,0-2.7,0.3
	c-0.7,0.3-1.3,0.6-2,0.8c-0.1,0-0.2,0.1-0.2,0.2c0,0.2-0.1,0.3-0.2,0.4c-0.4,0.5-1,0.8-1.5,1.1c-1.3,0.8-2.7,1.4-4.1,2
	c-0.6,0.2-1.1,0.5-1.7,0.7c0.2,0.1,0.4,0.1,0.5,0.1c1.2,0.3,2.4,0.6,3.7,0.9c0.8,0.2,1.6,0.3,2.3,0.4c0.7,0.1,1.5,0.2,2.2,0.2
	c0.3,0,0.6,0,0.9,0c0.1,0,0.6-0.1,1.6-0.1c0.3,0,0.5-0.1,0.8-0.1c1.5-0.4,2.6-1.2,3.1-2.7c0.3-0.8,0.5-1.6,0.5-2.5
	C41.6,41.7,41.5,40.3,41.3,38.9z M29.7,25.3c-0.2,0.4-0.5,0.7-0.9,0.9c-0.7,0.4-1.5,0.6-2.4,0.7C26,27,25.6,27,25.2,27.1
	c-1.5,0-2.8-0.3-4-0.9c-0.6-0.3-1.1-0.7-1.5-1.1c-0.1-0.1-0.2-0.1-0.1-0.2c0.1-0.1,0.2,0,0.2,0.1c0.6,0.3,1.2,0.7,1.8,0.9
	c0.8,0.3,1.6,0.5,2.5,0.6c0.3,0,0.7,0.1,1,0.1c1.6,0,3-0.4,4.3-1.3c0.1,0,0.1-0.1,0.2-0.1C29.8,25.1,29.8,25.2,29.7,25.3z"/>
<path class="st0" d="M20.8,20.3c1.1,1.2,2.5,1.9,4.1,2.1c1.1,0.1,2.1,0.1,3.1-0.3c0.4-0.1,0.8-0.3,1.1-0.5c0,0.2,0,0.3,0,0.4
	c0,0,0,0,0,0c0.1-0.1,0-0.2,0-0.3c0-0.1,0-0.1,0.1-0.2c0.9-0.6,1.5-1.5,2-2.5c0.3-0.6,0.6-1.3,0.8-2c0-0.1,0-0.1,0.1-0.1
	c0.6,0,1.2-0.3,1.6-0.7c0.9-0.8,1.1-1.9,0.9-3c-0.1-0.7-0.6-1.1-1.3-1.1c0,0-0.1,0-0.1,0.1c-0.4,0.1-0.6,0.4-0.8,0.7
	c0,0,0,0.1,0,0.1c0,0,0,0.1-0.1,0.1c-0.1,0,0-0.1,0-0.1c0-0.3-0.1-0.6-0.1-0.8c0-0.7-0.2-1.4-0.3-2c-0.1-0.4-0.1-0.9-0.1-1.3
	c0-0.5-0.2-1.1-0.3-1.6C31.5,7,31.5,7,31.4,7c-0.9,0.3-1.7,0.4-2.6,0.4c-1.2,0.1-2.5-0.1-3.7-0.4c0,0,0,0,0,0
	c0.1,0.2,0.2,0.3,0.3,0.5c0.2,0.2,0.2,0.2-0.1,0.3c-0.4,0.1-0.8,0.1-1.2,0c-1.1-0.2-2.1-0.6-3.1-1c-0.1-0.1-0.2-0.2-0.3-0.1
	c-0.1,0.1-0.1,0.2-0.1,0.3c-0.3,1.3-0.8,2.6-1.1,4c-0.1,0.5-0.2,1.1-0.2,1.6c0,0.1,0,0.1-0.1,0.1c-0.1,0-0.1-0.1-0.1-0.1
	c-0.2-0.3-0.4-0.6-0.7-0.8c-0.3-0.2-0.7-0.3-1.1-0.3v0c0,0,0,0-0.1,0c-0.5,0.1-0.8,0.5-1,0.9c-0.4,0.7-0.4,1.5-0.2,2.3
	c0.3,1.3,1.9,2.2,2.9,2c0.1,0,0.1,0,0.1,0.1c0,0.4,0.1,0.7,0.2,1.1c0.2,0.8,0.6,1.4,1,2.1c0,0,0,0.1,0,0.1
	C20.6,20.1,20.7,20.2,20.8,20.3z M32.5,14.8c0-0.1,0-0.2,0.1-0.3c0.2-0.4,0.3-0.8,0.4-1.3c0-0.1,0-0.3,0.2-0.2
	c0.1,0,0.1,0.2,0.1,0.3c0,0,0,0.1,0,0.1c0,0.5-0.2,1-0.5,1.5c-0.1,0.1-0.1,0.1-0.2,0.1C32.5,15,32.5,14.9,32.5,14.8z M22.7,13.1
	c-0.1-0.3,0-0.6,0.1-0.9c0.1-0.2,0.3-0.4,0.5-0.4c0.2,0,0.5,0.2,0.5,0.5c0,0.2,0.1,0.3,0,0.4c0,0.1,0,0.1,0,0.2
	c0,0.3-0.2,0.5-0.4,0.5C22.9,13.6,22.8,13.5,22.7,13.1z M28.8,13.6c-0.3,0-0.3-0.3-0.4-0.5c0-0.3,0-0.6,0.1-0.8
	c0.1-0.1,0.1-0.3,0.3-0.3c0.2,0,0.4,0.1,0.5,0.3c0.1,0.2,0,0.4,0,0.5c0,0.1,0,0.2,0,0.2C29.5,13.5,29.2,13.7,28.8,13.6z M27.8,10.1
	c0.2-0.3,0.5-0.3,0.8-0.4c0.7-0.1,1.3,0.1,2,0.4c0.2,0.1,0.4,0.3,0.5,0.6c0,0.1-0.1,0.2-0.2,0.2c-0.4-0.1-0.9-0.3-1.3-0.4
	c-0.4-0.1-0.8-0.1-1.2-0.1c-0.1,0-0.2,0-0.3,0C27.8,10.5,27.7,10.3,27.8,10.1z M25.1,16c0.1-0.1,0.2-0.1,0.3,0
	c0.3,0.1,0.6,0.1,1,0.1c0.5,0,0.7-0.3,0.6-0.8c-0.3-0.8-0.5-1.5-0.8-2.3c0-0.1-0.1-0.3-0.1-0.4c0-0.1-0.1-0.1,0-0.2
	c0.1,0,0.1,0,0.2,0.1c0.2,0.4,0.4,0.8,0.5,1.2c0.2,0.5,0.4,1.1,0.5,1.6c0.2,0.7-0.2,1.1-0.9,1.1c-0.1,0-0.2,0-0.3,0
	c-0.3,0-0.6,0-0.9-0.2C25.3,16.2,25.1,16.1,25.1,16z M26.4,18.3c0.5,0,1-0.2,1.5-0.3c0.1,0,0.2-0.1,0.2,0c0,0.1-0.1,0.1-0.1,0.2
	c-0.4,0.3-0.8,0.4-1.3,0.4c-0.2,0-0.3,0-0.6,0c-0.9,0.1-1.8-0.2-2.5-0.8c-0.1-0.1-0.2-0.1-0.2-0.2c0-0.1-0.1-0.1-0.1-0.2
	c0.1-0.1,0.1,0,0.2,0c0.2,0.1,0.3,0.2,0.5,0.3C24.8,18.1,25.6,18.3,26.4,18.3z M21.1,10.7c0-0.2,0.1-0.3,0.3-0.4
	c0.2-0.2,0.5-0.3,0.8-0.3c0.3-0.1,0.7-0.2,1-0.2c0.4-0.1,0.8,0,1.1,0.3c0.1,0,0.1,0.1,0.2,0.2c0.1,0.2,0,0.3-0.2,0.3
	c-0.2,0-0.4,0-0.6,0c-0.7-0.1-1.4,0.1-2,0.3c-0.1,0-0.2,0.1-0.3,0.1C21.2,11,21.1,10.9,21.1,10.7z M18.7,14.9c0,0-0.1,0-0.1,0
	c-0.1-0.1-0.1-0.1-0.2-0.2c-0.1-0.2-0.1-0.4-0.2-0.6c-0.1-0.3-0.3-0.5-0.5-0.7c0,0-0.1-0.1-0.1-0.1c-0.1-0.1-0.2-0.2-0.1-0.3
	c0.1-0.1,0.2,0,0.3,0c0.4,0.2,0.6,0.6,0.8,1c0.1,0.2,0.1,0.5,0.2,0.8c0,0,0,0,0,0.1C18.8,14.9,18.7,14.9,18.7,14.9z"/>
<path class="st3" d="M32.7,4.5c-0.9-1.2-2.1-1.9-3.4-2.4c-1.6-0.5-3.2-0.6-4.8-0.5c-1.4,0.1-2.6,0.4-3.8,1.2
	c-0.8,0.5-1.6,1.1-2.2,1.9c-0.8,1.2-1.1,2.5-1.2,3.9c0,0.9,0,1.9,0.1,2.8v0c0.4,0,0.8,0.1,1.1,0.3c0.3,0.2,0.5,0.5,0.7,0.8
	c0,0.1,0,0.1,0.1,0.1c0.1,0,0.1-0.1,0.1-0.1c0.1-0.5,0.1-1.1,0.2-1.6c0.3-1.3,0.8-2.6,1.1-4c0-0.1,0-0.3,0.1-0.3
	c0.1-0.1,0.2,0.1,0.3,0.1c1,0.5,2,0.8,3.1,1c0.4,0.1,0.8,0.1,1.2,0c0.3-0.1,0.3-0.1,0.1-0.3c-0.1-0.2-0.3-0.3-0.3-0.5c0,0,0,0,0,0
	c1.2,0.3,2.4,0.5,3.7,0.4c0.9-0.1,1.8-0.2,2.6-0.4c0.1,0,0.1,0,0.1,0.1c0.1,0.5,0.2,1.1,0.3,1.6c0,0.4,0.1,0.9,0.1,1.3
	c0.1,0.7,0.2,1.3,0.3,2c0,0.3,0,0.6,0.1,0.8c0,0,0,0.1,0,0.1c0,0,0.1,0,0.1-0.1c0,0,0-0.1,0-0.1c0.2-0.3,0.4-0.6,0.8-0.7
	c0,0,0.1,0,0.1-0.1c0.3-1.4,0.6-2.8,0.5-4.2C33.8,6.6,33.5,5.5,32.7,4.5z"/>
<path class="st4" d="M15,48.8c0.1,0,0.1,0,0.2,0C15.1,48.9,15.1,48.9,15,48.8z"/>
<path class="st4" d="M13.5,48.3c0.2,0.1,0.4,0.4,0.5,0.4c0.1,0,0.1,0,0.2,0c-0.7-0.4-1-0.7-1.3-1C13.1,47.9,13.3,48.1,13.5,48.3z"/>
<path class="st4" d="M36.8,48.3c-1,0-1.2-0.1-1.3-0.1c-0.3,0-0.6,0-0.9,0c-0.7-0.1-1.5-0.1-2.2-0.2c-0.8-0.1-1.6-0.2-2.3-0.4
	c-1.2-0.3-2.4-0.6-3.7-0.9c-0.2,0-0.3-0.1-0.5-0.1c0.6-0.2,1.2-0.5,1.7-0.7c1.4-0.6,2.8-1.2,4.1-1.9c0.5-0.3,1.1-0.6,1.5-1.1
	c0.1-0.1,0.2-0.2,0.2-0.4c0,0,0,0,0,0c-0.1-0.1-0.1-0.2-0.1-0.4c0-0.5-0.2-1-0.4-1.4c-0.1-0.3-0.3-0.6-0.5-0.9
	c-0.1-0.1-0.2-0.2-0.2-0.4c-0.1-0.2-0.3-0.3-0.4-0.5c-0.1,0-0.1,0-0.1,0.1c0,0,0,0,0,0c0,0,0,0.1,0.1,0.1c0.6,0.8,1,1.7,1.2,2.7
	c0.1,0.7,0.2,0.8-0.5,1.2c-0.7,0.5-1.5,0.9-2.3,1.3c-0.9,0.4-1.9,0.9-2.8,1.3c-1.2,0.5-2.5,0.9-3.7,1.4c-1.1,0.4-2.2,0.9-3.3,1.2
	c-1.2,0.3-2.5,0.6-3.7,0.6c-0.4,0-0.7,0-1.1,0c-0.1,0-0.2,0-0.3,0c-0.1,0-0.1,0-0.2,0c-0.2,0-0.5-0.1-0.7-0.1c0,0,0,0,0,0
	c-0.1,0-0.1,0-0.2,0c-0.1,0-0.4-0.3-0.5-0.4c-0.2-0.2-0.4-0.3-0.6-0.5c0,0,0,0-0.1-0.1c0.3,0.5,0.7,0.9,1.2,1.2
	c0.6,0.5,1.6,0.5,2.4,0.5c0.9-0.1,1.8-0.2,2.7-0.4c0.9-0.2,1.9-0.5,2.7-0.8c1.1-0.4,1.9-0.7,3-1c0.1,0,0.5-0.2,0.6-0.1
	c0.7,0.2,1.1,0.4,1.9,0.6c1.7,0.4,2.9,0.8,4.6,1c0.8,0.1,1.8,0.2,2.6,0.2c1.6-0.1,2.4-0.2,3-0.4C37.5,48.3,36.9,48.3,36.8,48.3z"/>
<path class="st5" d="M20.8,23.9c0.5,0.4,1.1,0.6,1.7,0.8c1.2,0.4,2.4,0.4,3.6,0.4c0.7,0,1.4-0.1,2.1-0.4c0.2-0.1,0.4-0.2,0.6-0.4
	c0.2-0.2,0.3-0.4,0.3-0.6c0-0.1,0-0.2,0.1-0.2c0-0.5,0-0.9,0-1.4c0,0,0,0,0,0c-0.4,0.4-0.8,0.8-1.3,1.1c-0.8,0.4-1.7,0.5-2.5,0.4
	c-0.9-0.1-1.8-0.3-2.6-0.8c-0.9-0.5-1.6-1.2-2-2.2c-0.1-0.2-0.2-0.3-0.2-0.6c0,0,0-0.1,0-0.1c0,0.5,0,1.1-0.1,1.6
	c0,0.5-0.1,1-0.1,1.5c0.1,0,0.1,0.1,0.1,0.2C20.4,23.5,20.6,23.7,20.8,23.9z"/>
<path class="st5" d="M20.9,24c0.3,0.2,0.6,0.4,1,0.5c1.4,0.5,2.9,0.7,4.3,0.6c0.7,0,1.4-0.1,2-0.4c0.5-0.2,1-0.6,0.9-1.3
	C29,23.5,29,23.6,29,23.7c0,0.2-0.1,0.4-0.3,0.6c-0.2,0.2-0.4,0.3-0.6,0.4c-0.7,0.3-1.4,0.4-2.1,0.4c-1.2,0.1-2.4,0-3.6-0.4
	C21.9,24.5,21.3,24.3,20.9,24c-0.2-0.3-0.4-0.5-0.5-0.8c0-0.1,0-0.1-0.1-0.2C20.3,23.5,20.5,23.8,20.9,24z"/>
<path class="st5" d="M29.1,22.1C29.1,22.1,29.1,22.1,29.1,22.1C29.1,22.1,29.1,22.1,29.1,22.1C29.1,22,29.1,22,29.1,22.1z"/>
<path class="st5" d="M20.5,20C20.5,20,20.5,20,20.5,20C20.5,20,20.5,20,20.5,20C20.5,20.1,20.5,20.1,20.5,20z"/>
<path class="st6" d="M21.2,39.3c-0.2-0.2-0.4-0.4-0.6-0.6c-0.8-0.9-1.6-1.8-2.5-2.6c-0.1-0.1-0.2-0.2-0.3-0.3c0,0,0,0,0,0
	c-0.2,0-0.3-0.1-0.4-0.2c0,0,0,0,0,0c-0.3-0.1-0.6-0.2-0.9-0.3c-0.8-0.2-1.7,0-2.4,0.3c-0.6,0.2-1.1,0.5-1.4,1
	c-0.3,0.4-0.4,1-0.1,1.4c0.1,0.1,0.1,0.2,0,0.3c0,0.1,0,0.1-0.1,0.2c-0.1,0.4-0.1,0.7,0.2,1c0.1,0.1,0.1,0.2,0.1,0.3
	c-0.1,0.4,0.1,0.8,0.5,1c0.3,0.1,0.3,0.2,0.3,0.5c0,0,0,0.1,0,0.1c0,0.3,0.2,0.5,0.6,0.6c0.2,0,0.4,0,0.6-0.1
	c0.5-0.2,1.1-0.3,1.6-0.6c0,0,0,0,0,0c0-0.1,0-0.2,0.1-0.2c0.7-0.3,1.4-0.5,2.1-0.7c0.5-0.1,1-0.3,1.5-0.4c0.1,0,0.1,0,0.1-0.1
	c0,0,0,0,0,0c-0.7,0.1-1.5,0.4-2.2,0.6c-1,0.3-2,0.7-3,1c-0.2,0.1-0.4,0.1-0.7,0.2c-0.2,0-0.3,0-0.4-0.2c-0.1-0.3,0-0.5,0.2-0.7
	c0.5-0.3,1.1-0.5,1.7-0.5c0.3,0,0.6,0,0.9,0c0.1,0,0.1,0,0.2-0.1c0-0.1-0.1-0.1-0.1-0.1c-0.8-0.3-1.6-0.2-2.3,0.1
	c-0.2,0.1-0.5,0.2-0.7,0.3c-0.3,0.2-0.7,0-0.7-0.4c0-0.3,0.1-0.5,0.3-0.6c0.9-0.5,1.8-0.7,2.8-0.6c0.2,0,0.5,0,0.8,0
	c0.1,0,0.2,0,0.2-0.1c0-0.1-0.1-0.1-0.1-0.1c-0.2-0.1-0.4-0.1-0.6-0.2c-1.2-0.2-2.3,0.1-3.3,0.7c0,0-0.1,0-0.1,0.1
	c-0.3,0.2-0.4,0.1-0.5-0.2c-0.1-0.4,0-0.8,0.4-1c0.6-0.4,1.2-0.6,1.9-0.7c0.6-0.1,1.2-0.1,1.9-0.1c0.1,0,0.3,0,0.3-0.1
	c0-0.1-0.2-0.1-0.3-0.1c-1.1-0.2-2.2-0.1-3.3,0.4c-0.3,0.1-0.5,0.3-0.8,0.5c-0.1,0.1-0.1,0.1-0.2,0c-0.2-0.4-0.1-0.8,0.3-1.2
	c0.5-0.6,1.2-0.8,1.9-1c0.9-0.2,1.8-0.2,2.6,0.3c0.6,0.3,1.1,0.8,1.5,1.3c0.5,0.5,0.9,1,1.4,1.5c0.2,0.2,0.4,0.5,0.7,0.7
	c-0.2,0.1-0.4,0.1-0.6,0.2c0,0,0,0,0,0C20.7,39.7,21,39.5,21.2,39.3c0.1,0.1,0.1,0.1,0.1,0.1h0v0C21.3,39.4,21.3,39.4,21.2,39.3z"/>
<polygon class="st7" points="20.3,39.6 20.3,39.6 20.3,39.6 "/>
<path class="st7" d="M31.2,38.2c-0.9-0.1-1.7,0-2.6,0.1c-0.7,0.1-1.4,0.2-2,0.3c-0.7,0.1-1.4,0.2-2.2,0.3c-0.5,0.1-1.1,0.2-1.6,0.2
	c-0.5,0.1-1,0.1-1.4,0.3c0,0,0,0,0,0c0,0,0,0,0,0c-0.3,0.1-0.6,0.2-1,0.2c0,0,0,0,0,0c0,0,0,0,0,0c0,0.1,0,0.1-0.1,0.1
	c-0.5,0.1-1,0.2-1.5,0.4c-0.7,0.2-1.4,0.4-2.1,0.7c-0.1,0-0.1,0.1-0.1,0.2c0,0,0,0,0,0c0,0,0,0,0,0c0,0,0,0,0,0.1
	c0.2-0.1,0.4-0.1,0.6-0.2c1.1-0.3,2.3-0.6,3.4-0.9c1-0.2,2.1-0.4,3.1-0.5c0.6-0.1,1.3-0.2,1.9-0.3c0.6-0.1,1.3-0.2,1.9-0.3
	c0.5-0.1,0.9-0.1,1.4-0.2c0.4,0,0.8-0.1,1.2-0.1c0.5,0,0.9-0.1,1.4,0c0,0,0,0,0,0c0-0.1,0-0.2,0.1-0.3c0,0,0,0,0.1,0
	C31.4,38.3,31.3,38.2,31.2,38.2z"/>
<path class="st7" d="M16.5,41C16.5,41,16.5,41,16.5,41C16.5,41,16.5,41.1,16.5,41C16.5,41,16.5,41,16.5,41C16.5,41,16.5,41,16.5,41z
	"/>
<path class="st7" d="M21.3,39.4C21.3,39.4,21.3,39.4,21.3,39.4C21.4,39.4,21.4,39.4,21.3,39.4L21.3,39.4
	C21.4,39.4,21.3,39.4,21.3,39.4z"/>
<path class="st8" d="M29.5,25.2c-1.3,0.9-2.8,1.3-4.3,1.3c-0.3,0-0.7,0-1-0.1c-0.9-0.1-1.7-0.3-2.5-0.6c-0.6-0.2-1.2-0.6-1.8-0.9
	c-0.1,0-0.2-0.1-0.2-0.1c-0.1,0.1,0.1,0.2,0.1,0.2c0.4,0.5,0.9,0.9,1.5,1.1c1.2,0.6,2.6,0.9,4,0.9c0.3,0,0.8-0.1,1.2-0.1
	c0.8-0.1,1.6-0.3,2.4-0.7c0.4-0.2,0.7-0.5,0.9-0.9c0-0.1,0.1-0.2,0-0.2C29.7,25,29.6,25.1,29.5,25.2z"/>
<path class="st9" d="M31.7,39C31.7,39,31.7,39,31.7,39c0,0,0.1-0.1,0.1-0.1c0,0,0,0,0,0C31.7,38.9,31.7,38.9,31.7,39z"/>
<path class="st9" d="M31.7,39C31.7,39,31.6,39,31.7,39C31.7,39,31.7,39,31.7,39C31.7,39,31.7,39,31.7,39z"/>
<path class="st9" d="M33.4,42.6C33.4,42.6,33.4,42.6,33.4,42.6C33.4,42.6,33.4,42.6,33.4,42.6C33.4,42.5,33.4,42.6,33.4,42.6z"/>
<path class="st9" d="M39,41.2C39,41.2,39,41.1,39,41.2c-0.2-0.1-0.4-0.2-0.2-0.4c0,0,0-0.1,0-0.1c0.1-0.5-0.1-0.9-0.4-1.2
	c-0.4-0.4-0.8-0.8-1.2-1.1c-0.6-0.5-1.2-0.8-2-0.9c0,0,0,0,0,0c-0.1,0-0.3,0.1-0.4,0c0,0,0,0,0,0c0,0,0,0-0.1,0
	c-0.5,0-0.9,0.2-1.4,0.3c-0.6,0.2-1.2,0.4-1.8,0.5c0,0,0,0,0,0c0,0,0,0,0,0c0,0,0,0,0,0c-0.1,0.1-0.1,0.2-0.1,0.3c0,0,0,0,0,0
	c0,0,0,0,0,0c0,0.2,0.1,0.3,0.3,0.4c0,0,0,0,0-0.1c0-0.1,0-0.1,0.1-0.1c-0.2-0.2-0.2-0.2,0.1-0.3c0.7-0.2,1.5-0.4,2.2-0.6
	c1.1-0.3,2,0,2.8,0.6c0.5,0.4,1,0.8,1.4,1.3c0.2,0.3,0.3,0.6,0.4,0.9c0,0.1,0,0.2-0.1,0.1c-0.9-0.2-1.7-0.1-2.6,0.1
	c-0.6,0.1-1.1,0.5-1.6,0.7c-0.2,0.1-0.4,0.1-0.6,0.2c-0.2,0.1-0.3,0-0.4-0.2c-0.2-0.4-0.3-0.8-0.5-1.2c-0.2-0.4-0.3-0.8-0.6-1.1
	c0,0,0-0.1-0.1-0.1c0,0.2,0.1,0.3,0.2,0.4c0.2,0.3,0.3,0.6,0.5,1c0.2,0.5,0.3,0.9,0.4,1.4c0,0.2,0,0.3,0.1,0.4c0,0,0,0,0,0
	c0,0,0,0,0,0c0-0.1,0.1-0.1,0.2-0.2c0.7-0.3,1.3-0.6,2-0.8c0.9-0.3,1.8-0.5,2.7-0.3c0.2,0,0.4,0.1,0.6,0.1c0.1,0,0.1,0,0.2,0
	C39.1,41.3,39.1,41.2,39,41.2z"/>
<path class="st9" d="M31.5,38.4C31.5,38.4,31.5,38.3,31.5,38.4L31.5,38.4C31.5,38.3,31.5,38.3,31.5,38.4
	C31.5,38.4,31.5,38.4,31.5,38.4z"/>
<polygon class="st9" points="31.4,38.6 31.4,38.6 31.4,38.6 "/>
<path class="st8" d="M35.2,34.3c0-0.6-0.1-1.2-0.2-1.8c0-0.3-0.1-0.5-0.2-0.8c0-0.1-0.1-0.2-0.2-0.2c-0.1,0-0.1,0.1-0.1,0.2
	c0,0.2,0,0.5,0,0.7c0.2,1,0.2,1.9,0.2,2.9c0,0.7,0,1.4-0.1,2.1c0,0,0,0,0,0c0.1,0,0.3-0.1,0.4,0c0,0,0,0,0,0
	C35.1,36.4,35.3,35.3,35.2,34.3z"/>
<path class="st8" d="M35.2,37.5c-0.1-0.1-0.3,0-0.4,0c0,0,0,0,0,0C34.9,37.5,35,37.5,35.2,37.5z"/>
<path class="st8" d="M34.7,37.5C34.7,37.5,34.7,37.5,34.7,37.5C34.7,37.5,34.7,37.5,34.7,37.5C34.7,37.5,34.7,37.5,34.7,37.5z"/>
<path class="st7" d="M17.9,35.5c-0.3-1.1-0.7-2.2-1-3.3c0-0.1-0.1-0.2-0.1-0.2c0,0,0-0.1-0.1-0.1c0,0,0,0.1,0,0.1
	c0,0.2,0,0.3,0.1,0.5c0.2,1,0.5,2.1,0.8,3.1h0c0,0,0,0,0,0c0.1,0,0.2,0.1,0.4,0.1c0,0,0,0,0,0C17.9,35.7,17.9,35.6,17.9,35.5z"/>
<path class="st7" d="M17.9,35.7C17.9,35.7,17.9,35.7,17.9,35.7C17.9,35.7,17.9,35.7,17.9,35.7c-0.1-0.1-0.2-0.2-0.4-0.2c0,0,0,0,0,0
	c0,0,0,0,0,0C17.6,35.6,17.7,35.8,17.9,35.7z"/>
<polygon class="st7" points="17.5,35.6 17.5,35.6 17.5,35.6 17.5,35.6 17.5,35.6 17.5,35.6 "/>
<path class="st7" d="M17.9,35.7C17.9,35.7,17.9,35.7,17.9,35.7C17.9,35.7,17.9,35.7,17.9,35.7C17.9,35.7,17.9,35.7,17.9,35.7
	C17.9,35.7,17.9,35.7,17.9,35.7z"/>
<path class="st10" d="M29.1,21.6c-0.4,0.2-0.7,0.4-1.1,0.5c-1,0.3-2,0.4-3.1,0.3c-1.6-0.2-3-0.9-4.1-2.1c-0.1-0.1-0.2-0.2-0.3-0.3
	c0,0,0,0,0,0.1c0,0,0,0,0,0c0,0,0,0,0,0c0,0.2,0.1,0.4,0.2,0.6c0.4,1,1.1,1.7,2,2.2c0.8,0.5,1.7,0.7,2.6,0.8c0.9,0.1,1.7,0,2.5-0.4
	c0.5-0.3,0.9-0.6,1.3-1.1c0,0,0,0,0,0c0,0,0,0,0,0C29.1,21.9,29.1,21.8,29.1,21.6z"/>
<path class="st10" d="M20.5,20.1C20.5,20.1,20.5,20.1,20.5,20.1C20.5,20.1,20.5,20.1,20.5,20.1C20.5,20.1,20.5,20.1,20.5,20.1
	C20.5,20.1,20.5,20.1,20.5,20.1z"/>
<polygon class="st10" points="29.1,22 29.1,22.1 29.1,22 "/>
<path class="st10" d="M21.3,10.9c0.1,0,0.2-0.1,0.3-0.1c0.7-0.2,1.3-0.4,2-0.3c0.2,0,0.4,0,0.6,0c0.2,0,0.3-0.1,0.2-0.3
	c0-0.1-0.1-0.2-0.2-0.2c-0.3-0.2-0.7-0.3-1.1-0.3c-0.3,0-0.7,0.1-1,0.2c-0.3,0.1-0.5,0.2-0.8,0.3c-0.1,0.1-0.2,0.2-0.3,0.4
	C21.1,10.9,21.2,11,21.3,10.9z"/>
<path class="st3" d="M28,10.5c0.1,0,0.2,0,0.3,0c0.4-0.1,0.8,0,1.2,0.1c0.5,0.1,0.9,0.2,1.3,0.4c0.2,0,0.2,0,0.2-0.2
	c0-0.3-0.2-0.5-0.5-0.6c-0.6-0.3-1.3-0.5-2-0.4c-0.3,0-0.6,0.1-0.8,0.4C27.7,10.3,27.8,10.5,28,10.5z"/>
<path class="st11" d="M25.5,16.8c0.3,0.2,0.6,0.2,0.9,0.2c0.1,0,0.2,0,0.3,0c0.6-0.1,1.1-0.4,0.9-1.1c-0.2-0.5-0.4-1.1-0.5-1.6
	c-0.1-0.4-0.4-0.8-0.5-1.2c0-0.1-0.1-0.1-0.2-0.1c-0.1,0-0.1,0.1,0,0.2c0,0.1,0.1,0.3,0.1,0.4c0.3,0.8,0.5,1.5,0.8,2.3
	c0.2,0.5,0,0.8-0.6,0.8c-0.3,0-0.6,0-1-0.1c-0.1,0-0.3-0.1-0.3,0C25.2,16.6,25.4,16.7,25.5,16.8z"/>
<path class="st12" d="M23.6,17.4c-0.1,0-0.2-0.1-0.2,0c-0.1,0.1,0,0.2,0.1,0.2c0.1,0.1,0.1,0.1,0.2,0.2c0.8,0.6,1.6,0.8,2.5,0.8
	c0.2,0,0.4,0,0.6,0c0.5,0,0.9-0.2,1.3-0.4c0.1,0,0.2-0.1,0.1-0.2c-0.1-0.1-0.1,0-0.2,0c-0.5,0.2-1,0.3-1.5,0.3
	c-0.8,0.1-1.6-0.1-2.3-0.6C24,17.6,23.8,17.5,23.6,17.4z"/>
<path class="st10" d="M23.7,13c0-0.1,0-0.1,0-0.2c0-0.1,0-0.3,0-0.4c0-0.3-0.2-0.5-0.5-0.5c-0.2,0-0.4,0.1-0.5,0.4
	c-0.1,0.3-0.1,0.6-0.1,0.9c0.1,0.4,0.3,0.5,0.7,0.4C23.6,13.5,23.7,13.3,23.7,13z"/>
<path class="st10" d="M29.4,12.3c-0.1-0.2-0.3-0.3-0.5-0.3c-0.2,0-0.3,0.1-0.3,0.3c-0.2,0.3-0.2,0.5-0.1,0.8c0,0.2,0.1,0.5,0.4,0.5
	c0.4,0.1,0.7-0.1,0.7-0.5c0-0.1,0-0.1,0-0.2C29.5,12.7,29.5,12.5,29.4,12.3z"/>
<path class="st13" d="M18.6,13.9c-0.2-0.4-0.4-0.8-0.8-1c-0.1,0-0.2-0.1-0.3,0c-0.1,0.1,0,0.2,0.1,0.3c0,0,0.1,0.1,0.1,0.1
	c0.2,0.2,0.4,0.4,0.5,0.7c0.1,0.2,0.1,0.4,0.2,0.6c0,0.1,0.1,0.2,0.2,0.2c0,0,0.1,0.1,0.1,0c0.1,0,0.1-0.1,0.1-0.1c0,0,0-0.1,0-0.1
	C18.7,14.4,18.7,14.2,18.6,13.9z"/>
<path class="st14" d="M32.8,14.9c0.3-0.4,0.5-1,0.5-1.5c0-0.1,0-0.1,0-0.1c0-0.1,0-0.3-0.1-0.3c-0.1,0-0.1,0.1-0.2,0.2
	c-0.1,0.4-0.2,0.9-0.4,1.3c0,0.1,0,0.2-0.1,0.3c0,0.1-0.1,0.2,0,0.2C32.7,15.1,32.7,15,32.8,14.9z"/>
<path class="st15" d="M32.3,39.4c-0.1-0.2-0.3-0.4-0.5-0.5c0,0,0,0,0,0C31.9,39.1,32.1,39.2,32.3,39.4
	C32.2,39.4,32.3,39.4,32.3,39.4C32.3,39.4,32.3,39.4,32.3,39.4z"/>
<path class="st15" d="M38.6,40.8c0-0.3-0.1-0.7-0.4-0.9c-0.4-0.5-0.9-0.9-1.4-1.3c-0.8-0.7-1.7-0.9-2.8-0.6
	c-0.7,0.2-1.5,0.4-2.2,0.6c-0.3,0.1-0.3,0.1-0.1,0.3c0,0,0,0,0,0c0,0,0,0,0,0c0.2,0.1,0.3,0.3,0.5,0.5c0,0,0,0,0,0c0,0,0,0,0,0.1
	c0.3,0.3,0.5,0.7,0.6,1.1c0.2,0.4,0.3,0.8,0.5,1.2c0.1,0.2,0.2,0.2,0.4,0.2c0.2-0.1,0.4-0.1,0.6-0.2c0.5-0.2,1-0.5,1.6-0.7
	c0.9-0.2,1.7-0.3,2.6-0.1C38.7,41,38.6,40.9,38.6,40.8z"/>
<path class="st15" d="M32.3,39.4C32.3,39.4,32.2,39.4,32.3,39.4C32.3,39.4,32.3,39.4,32.3,39.4C32.3,39.4,32.3,39.4,32.3,39.4z"/>
<path class="st15" d="M31.8,38.9C31.8,38.9,31.8,38.9,31.8,38.9C31.8,38.9,31.8,38.9,31.8,38.9C31.8,38.9,31.8,38.9,31.8,38.9
	C31.8,38.9,31.8,38.9,31.8,38.9z"/>
<path class="st15" d="M20.9,39.5c-0.2-0.3-0.4-0.5-0.7-0.7c-0.4-0.5-0.9-1-1.4-1.5c-0.5-0.5-0.9-1-1.5-1.3c-0.8-0.5-1.7-0.5-2.6-0.3
	c-0.7,0.2-1.4,0.4-1.9,1c-0.3,0.4-0.4,0.8-0.3,1.2c0.1,0.1,0.1,0.1,0.2,0c0.2-0.2,0.5-0.4,0.8-0.5c1-0.5,2.1-0.6,3.3-0.4
	c0.1,0,0.3,0,0.3,0.1c0,0.1-0.2,0.1-0.3,0.1c-0.6,0-1.3,0-1.9,0.1c-0.7,0.1-1.3,0.3-1.9,0.7c-0.3,0.2-0.5,0.6-0.4,1
	c0.1,0.3,0.2,0.4,0.5,0.2c0,0,0.1,0,0.1-0.1c1-0.7,2.1-0.9,3.3-0.7c0.2,0,0.4,0.1,0.6,0.2c0.1,0,0.1,0.1,0.1,0.1
	c0,0.1-0.1,0.1-0.2,0.1c-0.3,0-0.5,0-0.8,0c-1-0.1-1.9,0.1-2.8,0.6c-0.2,0.2-0.3,0.4-0.3,0.6c0,0.4,0.4,0.6,0.7,0.4
	c0.2-0.1,0.4-0.3,0.7-0.3c0.8-0.3,1.5-0.4,2.3-0.1c0.1,0,0.1,0,0.1,0.1c0,0.1-0.1,0.1-0.2,0.1c-0.3,0-0.6,0-0.9,0
	c-0.6,0-1.2,0.2-1.7,0.5c-0.3,0.2-0.4,0.4-0.2,0.7c0.1,0.2,0.2,0.2,0.4,0.2c0.2-0.1,0.5-0.1,0.7-0.2c1-0.3,2-0.8,3-1
	c0.7-0.2,1.4-0.4,2.2-0.6c0,0,0,0,0,0c0,0,0,0,0,0c0,0,0,0,0,0C20.5,39.6,20.7,39.5,20.9,39.5z"/>
<polygon class="st15" points="20.3,39.6 20.3,39.6 20.3,39.6 "/>
</svg>
