<?xml version="1.0" encoding="utf-8"?>
<!-- Generator: Adobe Illustrator 24.0.2, SVG Export Plug-In . SVG Version: 6.00 Build 0)  -->
<svg version="1.1" id="Capa_1" xmlns="http://www.w3.org/2000/svg" xmlns:xlink="http://www.w3.org/1999/xlink" x="0px" y="0px"
	 viewBox="0 0 178.7 290.7" style="enable-background:new 0 0 178.7 290.7;" xml:space="preserve">
<style type="text/css">
	.st0{fill:#3F1F26;}
	.st1{fill:#87442E;}
	.st2{fill:#449889;}
	.st3{fill:#FB7687;}
	.st4{fill:#8A462F;}
	.st5{fill:#89462F;}
	.st6{fill:#235B58;}
	.st7{fill:#235C58;}
	.st8{fill:#683527;}
	.st9{fill:#613125;}
	.st10{fill:#5E3025;}
	.st11{fill:#653326;}
	.st12{fill:#4C2523;}
	.st13{fill:#3C1E24;}
	.st14{fill:#633225;}
	.st15{fill:#3E1F24;}
	.st16{fill:#3E1E24;}
	.st17{fill:#43231F;}
	.st18{fill:#432320;}
	.st19{fill:#1F5F5B;}
	.st20{fill:#673528;}
	.st21{fill:#623225;}
	.st22{fill:#4C2821;}
	.st23{fill:#88462F;}
	.st24{fill:#1F5F5C;}
	.st25{fill:#FCD2CB;}
	.st26{fill:#FCD1CA;}
	.st27{fill:#FCD3CB;}
	.st28{fill:#FCD2CA;}
	.st29{fill:#FDD1CA;}
</style>
<g>
	<path class="st0" d="M71.1,139.6c-5.2,0.4-9.3-1.8-12.8-5.4c-0.5-0.5-0.7-0.3-1.1-0.1c-4,2-8.2,2.4-12.3,0.4
		c-5.2-2.5-7.9-6.8-8.1-12.5c0-0.5-0.1-0.7-0.7-0.7c-6.8-0.4-12-5.7-12.2-12.6c-0.1-4,0.9-7.6,3.7-10.6c0.3-0.3,0.3-0.4,0-0.7
		c-5.6-4.8-5.4-13.7,0.8-19c1.5-1.3,3.2-2.3,5.1-3c0.2-0.1,0.6,0,0.4-0.4c-0.8-1.9-0.5-3.7-0.1-5.6c1.1-6.3,4.1-11.7,8.1-16.6
		c0.1-0.1,0.2-0.2,0.2-0.4c-1.2,0.4-2.4,0.9-3.7,1.1c-1.3,0.2-2.5,0.2-3.7-0.2c-3.5-1-5.1-4.3-3.7-7.9c1.1-2.7,3.1-4.5,5.2-6.3
		c0.5-0.4,1-0.8,1.6-1.3c-0.3-0.1-0.5-0.2-0.7-0.2c-3.6-0.8-5.5-4-4.5-7.6c1.3-4.5,4.4-7.4,8.4-9.4c4.5-2.4,9.3-2.6,14.2-1.3
		c0.1,0,0.2,0.1,0.5,0.1c-0.5-0.8-1-1.4-1.2-2.2c-0.9-2.8-0.1-5.2,1.7-7.3c2.6-3.1,6.1-4.8,10.1-5.3c6.7-0.9,12.6,0.9,17.5,5.6
		c4,3.9,6.1,8.7,5.8,14.4c0,0.2,0,0.3,0,0.6c2.2-0.7,4.4-1.4,6.6-1.7c4-0.6,7.9-0.4,11.9,0.3c11.3,2.1,21,7.3,29.2,15.4
		c3.6,3.5,6.6,7.5,8.3,12.3c0.9,2.5,1.2,5.1,0.8,7.8c-0.1,0.4,0.1,0.6,0.4,0.8c5,2.8,6.1,7.6,5.4,12.8c-0.2,1.2-0.4,2.3-0.7,3.5
		c-0.1,0.5,0,0.7,0.4,1c2.3,1.5,4.4,3.2,5.4,5.8c1.9,5,1,9.7-2.1,13.9c-0.5,0.7-0.6,1.1,0.1,1.8c6,7.1,3.2,17.9-5.4,21.3
		c-0.8,0.3-1,0.7-1,1.5c0,1.2-0.2,2.4-0.5,3.6c-0.5,2.1-1.7,3.8-3.5,5c-2.4,1.6-5.1,2.7-8,2.9c-0.1,0.1-0.3,0.1-0.4,0.1
		c-0.4-0.1-0.6-0.5-0.8-0.8c-0.8-1-1.6-2-2.6-2.8c-0.3-0.2-0.5-0.4-0.4-0.8c0.2-0.6,0.8-0.8,1.3-1.1c3.7-2.2,7-4.9,9.4-8.5
		c5.1-7.7,6.2-15.9,2.1-24.3c-1-2-1.4-3.9-1.4-6c0.2-5.8-0.5-11.4-2.4-16.9c-2.2-6.5-6.3-11.6-11.9-15.4c-0.8-0.6-1.2-0.8-2,0.1
		c-1.2,1.2-2.8,1.4-4.4,1.4c-2.8,0.2-5.4-0.6-7.7-2.2c-0.6-0.4-1-0.4-1.6,0.1c-3.2,2.6-6.7,2.8-10.5,1.5c-0.7-0.3-1.4-0.6-2-1
		c-0.4-0.3-0.7-0.2-1.1,0.2c-2.8,3.5-6.6,4.7-11,4.3c-0.8-0.1-1.5-0.3-2.2-0.6c-0.6-0.3-0.9-0.2-1,0.5c-0.4,1.5-1.1,2.9-2.1,4.1
		c-2.6,2.9-5.7,4.2-9.6,3.4c-0.9-0.2-0.9-0.2-0.8,0.7c0.4,5.3-1.2,9.9-4.7,13.9c-0.4,0.5-0.5,0.9-0.4,1.5c1,4,0.8,8-0.8,11.8
		c-0.4,0.8-0.8,1.6-1.4,2.3c-0.8,0.9-1.2,1-2.2,0.3c-1.5-1.1-3-2.1-4.7-2.9c-2.1-1-4.4-1.6-6.7-1.1c-4.2,0.9-6.8,3.7-7.5,8
		c-1,6,2.7,12.8,8.1,15.1c3.6,1.5,7.3,1.1,10.9-0.2c1.6-0.6,1.7-0.6,2.6,0.8c4,6.4,9.6,10.9,16.4,13.8c0.4,0.2,0.9,0.3,1.2,0.8
		c0.2,0.7,0,1.4-0.3,2.1c-0.7,0.5-1.6,0.7-2.5,0.9c-3.1,0.8-6,2-8.9,3.3C71.9,139.5,71.6,139.8,71.1,139.6z"/>
	<path class="st1" d="M83.8,133c-2.6-1.2-5.2-2.4-7.6-4c-4.2-2.8-7.7-6.4-10.3-10.8c-0.4-0.7-0.8-0.9-1.6-0.5
		c-3.7,1.5-7.4,1.9-11.2,0.5c-3.7-1.4-6.1-4.2-7.5-7.8c-1.3-3.1-1.8-6.3-0.6-9.5c1.5-4.4,5.1-6.9,9.6-6.6c2.6,0.1,5,1.2,7.1,2.6
		c0.9,0.5,1.7,1.1,2.5,1.8c0.6,0.5,0.9,0.3,1.3-0.1c1.2-1.3,1.8-3,2.3-4.6c1-3.4,0.9-6.7-0.1-10.1c-0.1-0.3-0.1-0.5,0.2-0.7
		c3.8-3.8,5.3-8.4,5.1-13.7c-0.1-1.7-0.1-1.7,1.6-1.4c3.4,0.6,6.3-0.6,8.6-3c1.3-1.4,2.1-3.1,2.5-5c0.1-0.6,0.3-0.5,0.7-0.3
		c4.1,2.3,10.9,0.7,13.6-3.6c0.3-0.5,0.5-0.5,0.9-0.2c3.7,2.5,8.5,2.6,11.9,0.2c0.2-0.1,0.4-0.2,0.5-0.4c0.7-1.2,1.3-0.9,2.3-0.2
		c2.8,2,6,2.5,9.3,1.8c1.1-0.2,2.1-0.7,2.8-1.7c0.3-0.4,0.6-0.3,0.9-0.1c1.5,0.8,2.8,1.9,4.1,3c5.9,5.1,9.1,11.7,10.4,19.3
		c0.8,4.2,0.9,8.5,0.8,12.8c0,1.1,0.3,2.1,0.9,3.1c1.5,2.5,2.3,5.2,2.7,8.1c0.6,4.8-0.3,9.3-2.2,13.7c-1.5,3.5-4,6.4-6.9,8.9
		c-1.8,1.6-3.8,2.8-5.8,4c-0.1,0.1-0.2,0.2-0.3,0.3c-0.7,0.3-1-0.3-1.4-0.6c-1.4-1.2-2.8-2.2-4.5-3c-0.7-0.3-1.4-0.5-2.1-0.4
		c-1.5,0.2-2.5,1.2-2.8,2.6c-0.5,2.1,0.3,3.8,1.5,5.6c0.3-0.7,0.1-1.1,0-1.6c-0.3-1-0.6-2-0.7-3c-0.2-1.4,0.7-2.4,2.1-2.6
		c1.1-0.1,2.1,0.3,3,0.8c1.6,0.9,3.1,2.2,4.5,3.3c1.3,1.1,2.7,2.1,4.3,2.8c0.1,0,0.3,0,0.4,0.1c0,0.1,0,0.2,0,0.3
		c3,3,4.4,6.8,5.6,10.7c0.7,2.3,1.5,4.6,1.9,6.9c0.1,0.5,0.4,0.9,0.7,1.3c3.2,4.3,5.6,9,6.7,14.3c0.9,4.5,0.6,8.7-2.2,12.5
		c-2.8,3.8-6.4,5.3-11.1,4.2c-4-0.9-7.7-2.5-10.9-5c-0.3-0.1-0.5-0.3-0.5-0.6c-0.1-0.9-0.5-1.8-0.5-2.8c0.1-0.5,0.5-0.9,0.8-1.3
		c0.9-1,1.4-2.2,2.1-3.3c0.2-0.3,0.3-0.8,0.9-0.7c0.5,1.3,0.5,2.6,1.1,3.9c0.4,0.9,0.8,1.7,1.7,2.2c-1.3-2.5-1.8-5.2-2.4-7.9
		c0-2-0.2-3.9,0.1-5.9c0.4-0.7,1-0.3,1.6-0.3c0.3,0,0.7,0.2,0.8-0.1c0.1-0.3-0.2-0.5-0.5-0.7c-0.3-0.2-0.7-0.5-1.1-0.7
		c-2.5-1.1-3.3-3.3-3.9-5.7c-0.2-0.8-0.3-1.7-0.2-2.7c-0.7,0.7-0.9,1.6-0.8,2.4c0,1.1-0.8,1.5-1.8,0.9c-0.6-0.3-0.9-0.9-1.3-1.4
		c-1.5-1.9-2.3-4-2.1-6.4c0.1-0.9,0.4-1.4,1.3-1.7c2.2-0.9,4.6-0.8,6.9-1c-1-0.6-3.2-0.9-4.7-0.6c-1.1,0.2-2.1,0.7-3,1.4
		c-0.4,0.3-0.7,0.6-1.2,0.4c-0.5-0.4-0.5-0.9-0.6-1.4c0-0.8,0-1.6,0-2.4c0.3-2,1.1-2.9,2.7-3.3c2.8,0.4,5.6-0.4,8.4-0.2
		c-0.7-0.4-1.4-0.8-2.3-0.9c-1.1,0-2.2-0.1-3.3,0c-1.3,0.1-1.4,0-1-1.2c0-1.4-0.6-2-1.9-1.6c-3.4,1.1-6.8,1.9-10.3,2.3
		c-0.4,0.1-0.9,0.1-1.3,0.1c-8.6,0.9-17-0.4-25.1-3.3C84.9,133.8,84.2,133.6,83.8,133z"/>
	<path class="st2" d="M126.3,174.9c0.2,1.2,0.3,2.4,0.8,3.5c0.1,2.2,0.7,4.3,1,6.5c0.7,3.8,1.5,7.7,2.3,11.5c0.2,0.9-0.5,1.1-1,1.5
		c-0.9,0.9-2.1,1.1-3.2,1.4c-5.2,1.6-10.7,2.3-16.1,2.9c-4.9,0.5-9.9,0.4-14.9,0.4c-1.8,0-3.6,0-5.4,0c-3.4,0.1-6.7-0.4-10-0.7
		c-5.3-0.5-10.4-1.8-15.5-3.4c-0.8-0.2-1.6-0.5-2.4-1c-0.5-0.5-0.2-1.1,0-1.6c1.5-3.8,3.1-7.6,4.4-11.5c0.7-2.2,1.4-4.3,2-6.5
		c0.3-1,0.2-1.1-0.7-1.4c-3.8-1.3-7.6-2.7-11.3-4.4c-1.8-0.8-3.6-1.8-5.3-2.8c-0.3-0.2-0.5-0.4-0.7-0.7c-0.4-0.3-0.8-0.5-1.2-0.8
		c-1.2-0.8-1.5-1.4-0.9-2.8c1-2.2,2.3-4.2,3.5-6.3c4.7-8.1,11.1-14.4,19.2-19c0.1,0,0.1-0.1,0.2-0.2c3.9-2,8-3.4,12.3-4.5
		c0.6,0.7,0.5,1.5,0.5,2.3c0.1,0.6,0.2,1.2,0.4,1.8c1,2.3,2.9,3.6,4.9,4.8c3.7,2.2,7.8,3.1,12.1,2.8c3.2-0.2,5.7-1.7,7.3-4.6
		c0.7-1.5,1.4-3,1.7-4.6c0-0.2,0.1-0.4,0.3-0.6c0.4-0.1,0.7-0.1,1.1-0.2c2.1,0.2,3.6,1.4,5.3,2.5c0.8,0.5,1.5,1.1,2.2,1.6
		c0.3,0.2,0.5,0.4,0.6,0.8c0,1,0,1.9,0.1,2.9c0,0.4,0.1,0.8,0.4,1.1c0.3,0.3,0.1,0.6,0,0.9c-1.2,3.3,0.5,7.8,3.6,9.5
		c0.6,0.3,1.2,0.4,1.8,0.3c0.6-0.1,1,0.1,1.3,0.6c0.7,1.7,1.8,3.1,3.3,4.2c0.2,0.1,0.4,0.3,0.4,0.6c0,2.1,0,4.2,0,6.3
		c-0.3,0.5-0.3,1.2-0.8,1.6c-1,1.4-1.6,2.9-2.8,4.2c-0.2-0.1-0.3-0.3-0.3-0.5c0-2.4-0.9-4.6-1.4-6.9c-0.5-2.3-1.3-4.5-2.2-6.7
		c1.2,4.6,1.9,9.3,3.2,13.8C126.4,174.1,126.5,174.5,126.3,174.9z"/>
	<path class="st3" d="M61.9,197.3c1.6,0.5,3.2,1.1,4.8,1.5c4.2,1.1,8.4,2.1,12.7,2.7c8.3,1.1,16.6,0.8,24.9,0.7
		c3.6,0,7.1-0.5,10.7-1c3.7-0.5,7.4-1.3,11-2.2c1.2-0.3,2.3-0.8,3.4-1.1c1.6,4.4,2.9,9,4.2,13.5c1.8,6.2,3.5,12.3,5.2,18.5
		c0.3,1,0.1,1.6-0.8,2.1c-2.7,1.8-5.8,2.8-8.9,3.7c-2.2,0.7-4.4,1.2-6.7,1.6c-0.3,0.4-0.8,0.5-1.2,0.6c-5.4,0.9-10.9,1.6-16.4,1.8
		c-1,0-2.1,0.3-3.1,0.2c-0.5,0-0.9,0-1.3-0.4c-3.8,0-7.7,0-11.5,0c-0.3,0.3-0.7,0.4-1.1,0.3c-5-0.2-9.9-0.6-14.8-1.4
		c-2-0.3-3.9-0.7-5.9-1.2c-0.4-0.1-0.8-0.2-1.1-0.6c-2.6-0.8-5.3-1.4-7.9-2.4c-2.8-1-5.5-2.1-8-3.7c-0.9-0.6-1.3-1.2-0.9-2.3
		c1.7-5.3,3.5-10.6,5.4-15.9c0.6,0.1,0.7,0.7,0.8,1.1c0.3,0.9,0.8,1.8,1.4,2.5c1.5,1.8,3.7,1.5,4.6-0.7c0.9-2.1,0.6-4.3,0.2-6.4
		c-0.2-1.3-0.6-2.5-0.9-3.7c-0.4-1.4-0.4-2.7,0-4.1c0.2-0.9,0.3-1.8,0.6-2.7C61.4,198,61.4,197.5,61.9,197.3z"/>
	<path class="st4" d="M61.9,197.3c-0.4,1.6-0.8,3.2-1.1,4.8c-0.3,1.5,0.2,2.9,0.6,4.2c0.6,2.2,1.1,4.5,1,6.8c0,0.9-0.2,1.8-0.6,2.7
		c-0.9,2-3.1,2.5-4.7,1c-0.8-0.7-1.3-1.6-1.7-2.6c-0.2-0.5-0.4-1.1-0.6-1.6c0-0.2,0-0.3-0.1-0.8c-0.3,0.5-0.6,0.8-0.7,1.2
		c-1.1,2.1-2.2,4.3-3.3,6.4c-0.5,0.9-1,1.7-1.6,2.5c-1.9,2.6-4.9,1.4-5.9-0.7c-0.1-0.2-0.2-0.4-0.3-0.6c-0.3-0.3,0-0.6,0.1-0.9
		c1-2.4,1.5-5,2.1-7.5c0-0.1,0-0.1,0-0.2c-0.3-0.1-0.4,0.2-0.5,0.4c-1.4,2.4-2.3,4.9-2.1,7.7c0.1,0.8-0.5,1.2-1.1,1.4
		c-0.6,0.3-1.2,0-1.8,0.1c-1.7-0.8-2.4-2.3-2.6-4c0-0.4,0-0.8,0-1.2c-0.3-0.4,0-0.7,0.2-1.1c0.7-1.4,1.2-2.8,1.8-4.2
		c0.2-0.4,0.4-0.9,0.3-1.5c-0.5,0.2-0.8,0.6-1.1,0.9c-1,1.5-1.8,3.1-1.7,4.9c0,0.5-0.1,0.9-0.5,1.2c-1.3,0.3-2.4-0.4-2.8-1.9
		c-0.3-1.2-0.2-2.3,0.1-3.5c0.5-2.1,1.6-3.9,2.7-5.7c1.7-2.6,3.6-5.1,5.4-7.5c0.5-0.6,0.8-1.3,0.9-2.1c1.3-8.1,3.7-15.9,6.7-23.5
		c0.5-1.2,1-2.4,1.5-3.7c1.9,1,3.7,2,5.6,2.9c3.8,1.8,7.7,3.4,11.8,4.6c1.4,0.4,1.3,0.4,0.9,1.8c-1.3,4.3-2.6,8.6-4.4,12.7
		c-0.8,1.9-1.6,4-2.3,5.9C62,196.8,61.9,197,61.9,197.3z"/>
	<path class="st5" d="M88.1,245.3c-0.8,5.3-1.8,10.5-2.8,15.8c-0.6,3.1-1.2,6.1-1.9,9.1c0.2,0.6,0,1-0.4,1.4
		c-0.8,0.8-1.8,1.5-2.9,1.8c-6.2,2.1-11.8,1.1-17-2.8c-0.4-0.3-0.7-0.6-0.9-1c0.3-3.4,0.7-6.9,1-10.3c0.5-4.7,1.1-9.3,1.7-14
		c0-0.3,0.1-0.6,0.2-0.9c0.3-0.9,0.3-1.8,0.4-2.7c0.2-1,0.3-1.1,1.2-0.7c2.1,0.7,4.2,1.2,6.3,1.7c4.1,0.9,8.2,1.1,12.4,1.1
		c0.4,0,0.7,0,1.1,0C88,243.8,88,243.8,88.1,245.3z"/>
	<path class="st5" d="M122.7,254.1c-0.1,3.5-0.1,6.9-0.1,10.4c0,0.4-0.2,0.8,0.2,1.1c1.1,0.8,1.1,1.8,0,2.6
		c-1.2,0.9-2.6,1.5-4.1,1.8c-4.1,0.8-8.1,0.6-12.2,0c-1.1-0.2-2.1-0.6-3.1-1.1c-0.4-0.2-0.8-0.4-0.9-0.9c-0.4-6.5-0.8-12.9-1.3-19.3
		c0-0.2,0-0.4,0-0.6c0.2-0.9,0-1.8-0.1-2.7c-0.1-1.1,0-1.2,1-1.2c5.5,0.1,11-0.5,16.4-1.6c1-0.2,2-0.5,3.1-0.8
		c1.1-0.2,1.3-0.1,1.3,1c0,3.4,0,6.8,0,10.3C122.6,253.4,122.6,253.8,122.7,254.1z"/>
	<path class="st6" d="M102.4,267.9c2.3,1.6,4.9,2.1,7.6,2.2c2.7,0.1,5.4,0.3,8.1-0.3c1.5-0.3,2.8-0.8,4.1-1.6
		c1.2-0.8,1.3-1.4,0.5-2.6c3.3,0.8,6.2,2.5,8.9,4.5c1.5,1.1,2.8,2.2,4,3.6c1.8,2,1.4,3.9-1,5.1c-1.6,0.8-3.4,1.2-5.2,1.3
		c-8.1,0.6-16.1,0.3-24.1-1.7c-0.3-0.1-0.6-0.1-0.8-0.2c-2.5-0.9-3.1-1.8-3.1-4.5C101.4,271.8,101.3,269.8,102.4,267.9z"/>
	<path class="st7" d="M62.1,269.5c1.2,0.7,2.1,1.7,3.3,2.3c3.3,1.8,6.9,2.6,10.7,2.2c2.2-0.3,4.4-0.8,6.2-2.4c0.5-0.4,0.9-0.9,1-1.5
		c2.7,1.5,5,3.4,7.1,5.8c0.5,0.6,1,1.3,1.4,2c0.8,1.7,0.3,3.1-1.2,4.1c-1.6,1-3.3,1.4-5.1,1.5c-7.4,0.6-14.6,0.2-21.7-2.1
		c-0.3-0.1-0.6-0.2-0.8-0.3c-2.5-1-3.1-1.9-2.9-4.6C60.1,274.1,60.7,271.7,62.1,269.5z"/>
	<path class="st8" d="M122.7,254.1c-0.3-0.3-0.2-0.7-0.2-1c0-3.4,0-6.8,0-10.2c0-0.9-0.2-1.1-1.1-0.9c-4,1.2-8.2,1.8-12.3,2.1
		c-2.4,0.2-4.8,0.4-7.3,0.2c-0.8-0.1-0.9,0.3-0.7,0.9c0.2,0.9,0.3,1.8,0,2.7c-0.3-2.8-0.5-5.6-0.6-8.5c7.4-0.1,14.8-0.9,22.1-2.2
		C122.9,243,122.8,248.5,122.7,254.1z"/>
	<path class="st8" d="M88.1,245.3c0-1.2-0.8-1.2-1.7-1.2c-5,0.1-9.9-0.2-14.8-1.4c-1.8-0.4-3.7-0.8-5.4-1.6
		c-0.4-0.2-0.6-0.2-0.6,0.3c-0.1,1.1-0.3,2.2-0.4,3.4c-0.2-0.1-0.1-0.3-0.2-0.4c0.2-2.6,0.7-5.1,1-7.7c3,0.6,6,1.2,9,1.7
		c4.6,0.7,9.3,0.9,13.9,1.1C88.7,241.4,88.4,243.3,88.1,245.3z"/>
	<path class="st9" d="M39.4,221.3c0.5-0.3,1-0.1,1.4-0.1c1-0.1,1.2-0.5,1.2-1.4c-0.2-2.3,0.5-4.5,1.5-6.5c0.3-0.6,0.6-1.3,1.1-1.9
		c0.1-0.1,0.2-0.4,0.5-0.3c0.3,0.1,0.3,0.3,0.3,0.6c0,0.3,0,0.6-0.1,0.9c-0.5,2.1-1.1,4.1-1.7,6.1c-0.2,0.7-0.7,1.1-0.8,1.8
		C41.8,221.3,40.7,221.9,39.4,221.3z"/>
	<path class="st10" d="M35.8,216.5c0.4-1.3,0-2.7,0.7-4c0.6-1.2,1.1-2.4,2.2-3.3c0.2-0.2,0.4-0.5,0.7-0.3c0.2,0.2,0,0.5,0,0.7
		c-0.5,2-1.5,3.9-2.4,5.8c-0.1,0.2-0.3,0.4-0.3,0.7C36.5,216.2,36.2,216.3,35.8,216.5z"/>
	<path class="st11" d="M110.7,137c-0.1,1.9-1,3.6-1.9,5.3c-1.4,0.5-2.9,0.6-4.3,0.5c-1.9-0.2-3.8-0.1-5.7-0.3
		c-4.7-0.4-9.1-1.6-13.4-3.4c-0.6-0.2-1-0.4-1.4,0.2c-0.6-1.4-0.4-2.9-0.7-4.3c0.3-0.6,0.3-1.3,0.4-2c2.2,0.8,4.4,1.6,6.6,2.2
		c3.3,0.8,6.7,1.5,10.1,1.8c2.6,0.2,5.1,0.1,7.7,0.2C109.1,137.2,109.9,136.8,110.7,137z"/>
	<path class="st9" d="M136,133c-1.2,0.1-1.9-0.7-2.8-1.3c-2.1-1.5-4-3.3-6.2-4.6c-0.8-0.5-1.6-0.8-2.6-0.8c-1.5,0-2.3,1-2,2.5
		c0.2,1,0.5,1.9,0.8,2.8c0.2,0.5,0.2,1,0.2,1.6c0,0.5-0.3,0.5-0.6,0.2c-1.8-1.5-2.3-5.4-1.1-7.4c0.7-1,2.3-1.7,3.5-1.4
		c2.2,0.5,4,1.9,5.7,3.3c0.4,0.4,0.8,0.8,1.4,0.9C133.7,130.1,134.9,131.5,136,133z"/>
	<path class="st12" d="M108.2,117.6c-2,0-3.7,0.4-5.2,1.5c-0.4,0.3-0.6,0.2-0.8-0.2c-1-1.9-1.5-3.8-1-5.9c0.6-2.6,2.1-3.6,4.6-2.8
		c4.3,1.3,8.7,1.7,13.1,1.5c0.8,0,1.6,0.1,2.3,0.5c1.9,1.1,1.9,3.1,1.2,4.7c-1.2,2.6-3.4,4.4-6,5.6c-0.5,0.2-1,0.4-1.5,0.5
		c-0.4,0.1-0.6,0-0.5-0.5c0.2-2.1-0.6-3.4-2.6-4.2C110.6,117.9,109.3,117.5,108.2,117.6z"/>
	<path class="st13" d="M98.2,93.2c0.1,1.7-0.3,3.2-1.2,4.5c-1.5,2.4-3.6,2.5-5.4,0.9c-2.5-2.1-2.7-8.1-0.5-10.5
		c1.7-1.9,4.4-1.8,5.8,0.7C97.8,90.1,98.5,91.6,98.2,93.2z"/>
	<path class="st13" d="M125.3,91.4c-0.1-1.7,0.4-3.2,1.2-4.5c0.7-1.1,1.6-1.9,3-1.9c1.4,0,2.3,0.8,3,2c1.5,2.8,1.6,5.7,0.2,8.6
		c-0.1,0.3-0.3,0.5-0.5,0.7c-2.5,2.8-4.9,1.5-6.2-1.7C125.4,93.6,125.2,92.5,125.3,91.4z"/>
	<path class="st14" d="M130.7,161.9c-1.9-1.2-3.3-2.8-4-4.9c-0.1-0.3-0.3-0.4-0.6-0.3c-1.2,0.4-2.3,0-3.2-0.8
		c-2.2-2-3.5-4.4-3.3-7.5c0.1-1,0.6-1.7,0.8-2.6c1.3-1,2.6-1.8,4.2-2.1c2-0.3,3.9,0,5.7,1c-0.4,0.5-0.9,0.3-1.2,0.3
		c-2.2,0.1-4.4,0.2-6.5,0.9c-0.8,0.3-1.2,0.6-1.2,1.6c-0.2,2.9,1.1,5.1,2.9,7.2c0.3,0.4,0.8,0.5,1.2,0.6c0.4,0.1,0.6-0.1,0.6-0.5
		c0-1.1,0.1-2.1,0.8-3c0.1-0.2,0.1-0.5,0.4-0.4c0.3,0.1,0.2,0.4,0.2,0.6c-0.1,2,0.5,3.8,1.2,5.6c0.4,1.1,1.3,1.7,2.2,2.3
		c0.7,0.4,1.4,0.8,2,1.2c0.3,0.2,0.6,0.6,0.4,1.1c-0.2,0.5-0.6,0.1-1,0.1C131.8,162,131.2,161.9,130.7,161.9z"/>
	<path class="st15" d="M92.6,73.6c-2.8,0.1-5.2,0.8-6.8,3.2c-0.3,0.4-0.4,0.8-0.5,1.1c-0.3,0.7-0.9,0.9-1.5,0.7
		c-0.6-0.1-0.9-0.6-0.9-1.2c0.1-2.1,1.4-3.6,2.9-4.8c2.4-1.8,5.2-2.1,8.1-1.8c0.9,0.1,1.5,0.8,1.4,1.5c0,0.7-0.7,1.2-1.7,1.2
		C93.2,73.6,92.9,73.6,92.6,73.6z"/>
	<path class="st16" d="M127.3,71.2c-0.3,0-0.6,0-0.9,0c-0.7,0-1.3,0-1.5-0.9c-0.2-0.9,0.2-1.5,1-1.7c2.4-0.8,4.7-0.4,6.9,1
		c1.4,0.9,2.6,2.1,3.2,3.8c0.4,1.1-0.2,2.1-1.3,2c-0.6,0-0.8-0.5-1.1-0.9C132.2,72.1,130.1,71.1,127.3,71.2z"/>
	<path class="st17" d="M111.7,99.6c1-2.4,2.9-3.3,5.3-3.6c0.8-0.1,1.6-0.1,2.5,0c2.8,0.2,4.4,2.1,3.6,4.9c-0.4,1.6-1.2,3.1-2.8,4
		c-0.5,0-0.5,0-0.4-0.8c0.2-0.5,0.5-1,0.8-1.4c0.5-0.9,0.6-1.8,0.7-2.7c0.1-0.8-0.3-1.4-1.2-1.7c-1.1-0.4-2.3-0.6-3.5-0.4
		c-1.4,0.2-2.7,0.7-3.9,1.5C112.4,99.7,112.1,99.9,111.7,99.6z"/>
	<path class="st18" d="M52.3,104.1c0.4-0.3,0.9,0.1,1.1-0.4c0,0-0.1-0.2-0.1-0.2c-0.4-0.2-0.8-0.2-1.2,0c-0.3,0.1-0.6,0.2-0.9,0.4
		c0.2-1.1,1.5-1.9,2.9-1.8c3.3,0.2,5.6,3,5.2,6.3c0,0.3-0.1,0.6-0.4,0.7c-0.4,0.1-0.5-0.3-0.7-0.6c-1.1-2.4-2.9-3.8-5.5-4.2
		C52.7,104.3,52.6,104.2,52.3,104.1z"/>
	<path class="st19" d="M126.3,174.9c-0.8-3.2-1.5-6.5-2.2-9.8c-0.4-2.1-0.9-4.1-1.3-6.2c0.6,0.5,0.9,1.2,1.1,1.8
		c1.4,3.6,2.2,7.3,3.1,11c0.2,0.7,0.1,1.5,0.1,2.3C126.8,174.3,126.6,174.6,126.3,174.9z"/>
	<path class="st20" d="M120,104.2c0.1,0.3-0.4,0.7,0.2,0.8c-0.6,0.1-1.2-0.7-1-1.2c0.4-1.2,0.8-2.3,0.5-3.6
		c-0.2-0.9-0.6-1.4-1.4-1.6c-1.7-0.4-3.2,0-4.6,1c-0.7,0.5-1.3,0.6-2.1,0.3c0,0,0-0.1,0-0.1c0-0.1,0.1-0.1,0.1-0.1
		c1.2-0.4,2.2-1.3,3.4-1.7c1.6-0.5,3.2-0.5,4.8-0.1c1.5,0.4,2.1,1.3,1.6,2.8c-0.2,0.8,0,1.7-0.8,2.3
		C120.3,103.2,120.1,103.7,120,104.2z"/>
	<path class="st21" d="M122.3,138.7c0.5-1,1.5-1.6,2.2-2.5c0.1,0.4-0.3,0.6-0.6,1.1c1.5-0.3,2.9-0.2,4.3-0.3c1-0.1,1.8,0.6,2.8,0.8
		c0.2,0,0.5,0.3,0.4,0.6c-0.1,0.3-0.4,0.2-0.6,0.3c-0.6,0.2-1.2,0-1.7,0c-1.5,0-2.9,0.1-4.4,0.3C123.9,139.1,123.1,139,122.3,138.7z
		"/>
	<path class="st22" d="M129.8,169.8c0.1-0.6,0.3-1.2,0.8-1.6c0.6,1.8,0.8,3.7,1.5,5.5c0.3,0.6,0.5,1.3,0.9,1.8
		c0.2,0.2,0.5,0.6,0.2,0.9c-0.3,0.3-0.6,0-0.9-0.2c-1.2-0.9-1.6-2.3-2-3.6C130,171.6,129.8,170.7,129.8,169.8z"/>
	<path class="st23" d="M84.1,139.3c0.4-0.4-0.2-0.7,0.1-1.2c1.6,0.8,3.3,1.5,5,2c3.2,1,6.4,1.7,9.8,2c1.9,0.2,3.9,0.1,5.8,0.3
		c1.3,0.1,2.6,0,3.9-0.3c0.1,0,0.2,0.1,0.3,0.2c-1.6,3.1-4.3,4.5-7.7,4.8c-4.2,0.3-8.2-0.6-11.8-2.7
		C87.2,143.1,85.1,141.7,84.1,139.3z"/>
	<path class="st24" d="M77.3,160.7c0.2,3.9-0.6,7.6-1.9,11.2c-0.6,1.7-1.3,3.3-2.1,4.9c-0.7,1.2-2.3,1.5-3.3,0.7
		c-0.2-0.2-0.5-0.4-0.4-0.7c0-0.4,0.4-0.2,0.7-0.2c0.8-0.2,1.1-0.8,1.5-1.3c1.5-2.2,2.1-4.8,3.1-7.2c0.8-2,1.4-4.1,2.1-6.1
		C77,161.4,77.2,161,77.3,160.7z"/>
	<path class="st25" d="M110.9,212.7c-0.1-1.5,0.4-2.8,1.2-4.1c0.2-0.4,0.6-0.7,1-1c0.4-0.3,0.9-0.4,1.4-0.1c0.4,0.3,0.3,0.8,0.2,1.2
		c-0.3,0.9-0.2,2.1-1.6,2.3c-0.1,0-0.1,0.1-0.2,0.1c-0.2,0.7,0.1,1.4,0.3,2.1c0.1,0.4,0.3,0.8,0.7,0.9c0.4,0.1,0.7-0.3,1-0.6
		c2.1-1.7,3.7-3.9,5.7-5.7c0.5-0.4,0.9-0.8,1.5-1.1c1.1-0.5,2.3-0.1,2.8,1c0.3,0.6,0.5,1.2,0.4,1.9c-0.3,1.3,0,2.6-0.3,3.9
		c-0.2,0.8,0.4,0.9,1,0.8c1-0.1,2-0.4,3-0.5c0.4-0.1,1-0.4,1.2,0.2c0.2,0.5-0.2,0.9-0.7,1.1c-1.2,0.6-2.4,1.3-3.8,1.5
		c-1.8,0.2-2.7-0.5-2.7-2.3c0-1.1,0.3-2.1,0.5-3.2c0.1-0.4,0.1-0.8,0.2-1.3c0-0.5,0.1-1.2-0.5-1.4c-0.6-0.2-1.4-0.3-1.9,0.3
		c-1.1,1-2,2.2-2.8,3.4c-0.9,1.2-1.9,2.4-3.1,3.5c-2,1.8-3.5,1.3-4.2-1.2C110.9,213.8,110.9,213.2,110.9,212.7z"/>
	<path class="st25" d="M124.6,231.4c-2.3,0-3.3-0.9-3.6-2.8c-0.1-0.8-0.1-1.7-0.2-2.6c0-0.3,0-0.6-0.4-0.7c-0.3-0.1-0.5,0.1-0.7,0.3
		c-1.8,1.6-3.8,2.8-5.9,3.9c-0.5,0.3-0.7,0.8-1.1,1.1c-0.3,0.3-0.6,0.5-1,0.3c-0.2-0.1-0.1-0.5-0.1-0.8c0-0.6,0.4-1,0.7-1.4
		c2.4-2.4,5.3-4.2,8.3-5.8c0.9-0.5,1.7,0,1.8,1c0.2,1.5,0.7,3,0.6,4.6c0,0.5,0.2,0.6,0.7,0.5c1.7-0.2,3.3-0.7,5-1.1
		c0.2-0.1,0.5-0.2,0.7,0.1c0.2,0.3-0.1,0.4-0.2,0.7C128.2,230.9,126.2,231.1,124.6,231.4z"/>
	<path class="st26" d="M94,216.3c1.5,0.1,3-0.5,4.6-0.9c0.6-0.2,1.3-0.3,1.9-0.3c0.7,0,1.4-0.1,2-0.6c0.8-0.5,1.7-0.6,2.6-0.7
		c0.3,0,0.5,0.1,0.6,0.3c0.1,0.3,0,0.5-0.2,0.7c-0.5,0.6-1.1,0.7-1.8,0.7c-2.9,0.1-5.5,1.5-8.2,2.5c-1,0.4-2,0.7-3,0.9
		c-1.9,0.4-3-0.7-2.5-2.5c1-3.2,2.6-6.1,5.2-8.3c0.3-0.3,0.7-0.4,1-0.6c0.3-0.1,0.7-0.4,0.9,0c0.2,0.4,0.6,0.9,0.1,1.4
		c-0.4,0.4-0.8,1-1.4,1.3c-1.8,0.9-2.9,2.5-3.8,4.2c-0.7,1.5-0.4,1.9,1.2,1.9C93.5,216.3,93.7,216.3,94,216.3z"/>
	<path class="st27" d="M81.7,206.7c-0.6,1-1.1,1.6-1.7,2.2c-1.8,1.9-3.6,3.7-5.2,5.8c-1.1,1.4-0.7,2.3,1.1,2.5
		c1.1,0.1,2.2-0.1,3.2-0.2c0.8-0.1,1.7-0.2,2.5-0.3c0.2,0,0.6-0.1,0.7,0.2c0.1,0.3-0.1,0.5-0.3,0.7c-1,0.9-2.3,1.3-3.6,1.4
		c-1.8,0.2-3.5,0.1-5.3-0.5c-1.4-0.5-1.8-1.3-1.2-2.7c0.8-2,2.2-3.6,3.8-5c1.6-1.4,3.2-3,5.3-3.9C81.2,206.9,81.3,206.8,81.7,206.7z
		"/>
	<path class="st25" d="M58.2,230.6c2.1-3.2,4.5-6.1,7.9-8.1c0.9-0.5,2-1.2,3-0.4c1,0.8,0.9,1.9,0.7,3.1c-0.2,0.9-0.4,1.8-1.2,2.4
		c0,0-0.1,0.1-0.1,0.1c-0.3,0.7-1,1.4-0.7,2.1c0.3,0.7,1.2,0.2,1.8,0.3c0.5,0.1,1,0,1.5,0.1c0.5,0.1,0.7,0.3,0.3,0.8
		c-0.9,1.1-3.3,1.5-4.4,0.6c-0.8-0.6-0.9-1.3-0.7-2.2c0.3-1.3,0.9-2.5,1.4-3.8c0.1-0.3,0.2-0.6,0.3-0.8c0.2-0.5,0.4-1-0.1-1.4
		c-0.4-0.3-0.8,0.1-1.2,0.4c-2.2,1.3-4,3-5.8,4.7C60.1,229.3,59.2,230.1,58.2,230.6z"/>
	<path class="st28" d="M104.6,224.7c0.1,1.2-0.7,2.1-1.5,2.9c-0.8,0.9-1.7,1.7-2.6,2.6c-0.2,0.2-0.3,0.4-0.6,0.3
		c-0.3-0.1-0.2-0.5-0.2-0.7c0.1-1,0.7-1.8,1.2-2.6c0.4-0.7,0.9-1.3,1.4-1.9c0.4-0.5,0.4-0.9,0-1.4c-0.5-0.7-1.3-1.3-1.2-2.3
		c0.1-0.7,0.2-1,1-0.5C103.6,222,104.6,223.4,104.6,224.7z"/>
	<path class="st27" d="M86.3,223.2c-1.1,2.2-6.4,5.5-8.3,5.2c0-0.9,0.6-1.4,1.3-1.9c1.9-1.1,3.8-2.1,5.8-3
		C85.6,223.3,85.9,223.1,86.3,223.2z"/>
	<path class="st25" d="M68.2,203.2c0.3,0,0.4,0.2,0.6,0.4c0.8,1.7,1.8,3.3,2.9,4.9c0.2,0.2,0.3,0.5,0.2,0.8c-0.2,0.3-0.6,0.1-0.8,0
		c-1.8-0.6-2.7-2.1-3.3-3.8c-0.2-0.5-0.2-1-0.2-1.5C67.6,203.6,67.9,203.4,68.2,203.2z"/>
	<path class="st29" d="M92.1,231.6c0,0.7-0.7,1.5-1.5,1.5c-0.4,0-0.8-0.2-0.8-0.7c0-0.8,0.6-1.8,1.2-1.8
		C91.5,230.6,92.1,231.2,92.1,231.6z"/>
	<path class="st1" d="M120,104.2c0.1-0.9,0.2-1.1,0.8-1.2C120.5,103.4,120.2,103.8,120,104.2z"/>
</g>
</svg>
