<?xml version="1.0" encoding="utf-8"?>
<!-- Generator: Adobe Illustrator 24.0.2, SVG Export Plug-In . SVG Version: 6.00 Build 0)  -->
<svg version="1.1" id="Capa_1" xmlns="http://www.w3.org/2000/svg" xmlns:xlink="http://www.w3.org/1999/xlink" x="0px" y="0px"
	 viewBox="0 0 147 139.7" style="enable-background:new 0 0 147 139.7;" xml:space="preserve">
<style type="text/css">
	.st0{fill:#4C8583;}
	.st1{fill:#E08641;}
	.st2{fill:#345D62;}
	.st3{fill:#EBAA69;}
	.st4{fill:#3F6161;}
</style>
<g>
	<path class="st0" d="M65.9,126C53,126,40.1,126,27.2,126c-2.6,0-5.2-0.1-7.8-0.1c0-0.1,0.1-0.2,0.1-0.4c1.2,0.1,2.3,0.1,2.3-1.7
		c-0.1-7.6,0-15.2-0.1-22.8c0-0.8-0.1-1.7-1.1-1.8c-1.2,0-1.1,1.1-1.2,1.9c0,1.6,0,3.3,0,4.9c0,4.8,0.5,4.4-4.3,4.4
		c-2.8,0-5.6,0-8.3,0.1c-0.1-6.4,0.6-12.6,3.1-18.6c1.7-3.8,4.5-6.6,8.3-8.4c3.9-1.8,7.8-3.6,12.1-4.4c0.6,6.3,4.8,10,11.4,9.9
		c6.3-0.1,10.2-3.8,10.6-10c10.5,2.9,15.1,5.1,19.8,12.2c1.2-2.7,2.7-5.1,4.5-7.3c2.6-2,5.6-3.3,8.5-4.7c2.2,0.5,4.3-1.6,6.5-0.5
		c0.4,0.7,0.7,1.4,1.2,2c3.6,4.8,8.7,6.2,14.3,5.3c4.7-0.7,8.5-3.2,10.4-8c2.6,0,5,1.2,7.5,1.6c2.9,0.8,5.3,2.5,7.8,4.1
		c5.8,6.7,7.3,14.6,7.1,23.1c-2,0-4,0-6,0c-4.6,0-4.6,0-4.9-4.7c-0.1-0.9-0.3-1.9-0.5-2.8c-0.2-0.9-0.1-2.3-1.4-2
		c-1.4,0.3-0.9,1.6-0.7,2.7c0.9,3.3,1.2,6.7,0.7,10c-0.7,4.5-0.3,9-0.5,13.5c-0.1,1.6,0.8,2,2.1,1.9c0.1,0,0.2,0.1,0.3,0.2
		c-1.7,0.6-3.4,0.2-5.1,0.2c-14.6,0-29.2,0-43.8,0c0.1-0.1,0.1-0.2,0.2-0.3c1,0,1.8-0.1,2-1.4c0.4-2.7,0.6-5.3,0.2-8
		c-0.7-5.2-2.4-10.3-0.4-15.6c0.1-0.3,0.1-0.8,0.1-1.1c0-0.5,0.1-1.1-0.5-1.2c-0.7-0.2-1.1,0.4-1.2,0.9c-0.6,2.2-1.2,4.5-1.6,6.7
		c-0.2,1.2-0.5,2-2,1.9c-1.4-0.2-1.7-1.1-1.6-2.3c0.2-3.1-0.7-6.1-1.2-9.1c-0.2-1.3-0.6-2.6-2.2-3.5c-0.2,1.6-0.1,2.9,0.2,4.2
		c0.7,2.8,1.4,5.6,1.4,8.5c-0.1,5.5,1,4.9-5.1,5.1c-2.1,0-3-0.8-3-2.8c0-1.8,0-3.7,0-5.5c0-0.9,0.2-2.3-1-2.4
		c-1.6-0.1-1.2,1.4-1.3,2.4c0,7,0,14-0.1,21.1c0,1.8,0.7,2.4,2.4,2.2C65.8,125.7,65.8,125.8,65.9,126z"/>
	<path class="st1" d="M85.3,79.4c-2.9,1.4-5.9,2.7-8.5,4.7c-2.3-7.8-1.5-15.7-0.5-23.5c1.1-8.2,2.3-16.4,4.2-24.4
		c3-12.1,9.9-17.7,22.3-18c5.8-0.2,11.5,0.2,16.6,3.7c5.1,3.5,7.5,8.6,9.2,14.2c2.8,9.2,4.1,18.7,5.3,28.3
		c0.8,6.6,1.3,13.2-0.9,19.7c-2.5-1.6-4.9-3.3-7.8-4.1c-2.6-6.7-1.8-14.2-0.2-20.9c1-1.1,0.1-2.9,1-4c2.9-3.6,4.2-6.5,0.2-8.6
		c-0.5-2.1-2.5-2.2-4-2.8c-8.3-2.9-15.2-7.4-18.3-16.2c-0.2-0.6-0.3-1.4-1.1-1.4c-0.7,0-0.8,0.8-1,1.3c-3.9,7.5-8.9,13.9-17.2,17.1
		c-0.8,0.3-1.8,0.7-1.9,2c-1.2,0.1-1.9,0.9-2.3,2c-1.1,2.9-0.1,5.8,2.7,8.1c-0.1,1.9,0.4,3.8,1,5.6C85.6,67.7,87.4,73.4,85.3,79.4z"
		/>
	<path class="st2" d="M17.2,48.7c-4.3-13.2,1.5-22,9.8-27c12.6-7.6,30-3.1,37.1,9.6c3.2,5.6,2.5,11.7,1.1,17.7
		c-1.5-0.3-2.3,0.5-2.8,1.8c-0.4,0.9-0.8,2.3-2.1,1.9c-1.2-0.4-0.9-1.7-0.9-2.8c0-1,0-1.9,0-2.9c0-0.7,0.1-1.4-0.7-1.7
		c-3.5-1.6-5.8-4.5-7.5-8c-2.3,3.4-4.5,6.4-8.3,7.6C40,45.7,39,44.9,38.7,42c-0.1-1,0.3-2.1-0.5-3c-2.1,1.8-4,3.5-6.1,5.1
		c-1.6,1.3-3.6,2.5-5.6,1.8c-3.1-1.1-3.2,0.6-3.4,2.7c-0.1,0.7-0.1,1.3-0.1,2c0,0.9,0.2,2.2-0.9,2.5c-1.3,0.3-1.7-1-2.2-1.9
		C19.3,50,19.1,48.4,17.2,48.7z"/>
	<path class="st3" d="M17.2,48.7c1.9-0.4,2.1,1.2,2.7,2.4c0.5,0.9,0.9,2.2,2.2,1.9c1.1-0.3,0.9-1.5,0.9-2.5c0-0.7,0.1-1.3,0.1-2
		c0.2-2.1,0.4-3.8,3.4-2.7c2,0.7,3.9-0.5,5.6-1.8c2-1.6,3.9-3.3,6.1-5.1c0.8,1,0.4,2,0.5,3c0.3,3,1.4,3.7,4.2,2.9
		c3.8-1.2,6.1-4.2,8.3-7.6c1.7,3.5,3.9,6.4,7.5,8c0.8,0.4,0.7,1.1,0.7,1.7c0,1,0,1.9,0,2.9c0,1-0.3,2.4,0.9,2.8
		c1.3,0.4,1.7-1,2.1-1.9c0.6-1.3,1.3-2.1,2.8-1.8c3.3,3.8,3.3,9.5,0.1,12.9c-1.1,1.2-2.5,2.1-4.3,1.9c-1.8-1.3-2.1,0.1-2.7,1.4
		c-4.7,10.3-14.6,14.2-24.5,9.6c-4.7-2.2-7.9-5.6-9.9-10.4c-0.5-1.2-0.8-2.8-2.7-1.7c-3.7-0.6-6.1-2.7-6.8-6.4
		C13.9,53.3,14.2,50.5,17.2,48.7z M42.3,69.1c2.3,0.1,4.3-0.3,6.1-1.7c0.5-0.4,1.2-0.8,0.8-1.6c-0.5-0.9-1.1-0.4-1.7-0.1
		c-3.6,1.7-7.2,1.8-10.8-0.1c-0.7-0.3-1.3-0.6-1.7,0.1c-0.5,0.8,0.2,1.2,0.7,1.6C37.7,68.6,40,69.2,42.3,69.1z M52.5,54.9
		c-0.2-1.3-0.3-3.1-2.1-3c-1.7,0.1-2,1.8-2,3.3c0,1.5,0.5,2.8,2.2,2.8C52.4,57.9,52.4,56.4,52.5,54.9z M35.5,54.7
		c-0.3-1.3-0.2-3-2-3c-1.8-0.1-2.1,1.5-2.1,2.9c0,1.3,0.1,2.9,2,2.9C35.1,57.5,35.2,56,35.5,54.7z M33.1,45.8
		c-1.2,0-2.3,0.1-3.3,0.6c-0.6,0.3-1.2,0.7-0.9,1.5c0.3,0.8,1,0.8,1.7,0.6c1.3-0.5,2.6-0.5,4-0.2c1,0.3,2,0.7,2.3-0.7
		c0.2-1.2-0.9-1.5-1.9-1.7C34.2,45.8,33.7,45.8,33.1,45.8z M50.3,45.8c-0.4,0-0.9,0-1.3,0.1c-1.1,0.1-2,0.5-1.9,1.7
		c0.1,1.4,1.1,1.1,2.2,0.9c0.8-0.2,1.7-0.1,2.6-0.1c1,0,2.6,1.3,2.9-0.4c0.3-1.8-1.7-1.6-2.9-2C51.4,45.7,50.9,45.8,50.3,45.8z
		 M45.7,60.4c0-0.3,0-0.6-0.1-0.8c-0.3-1.1-0.6-2.6-1.9-2.5c-1.4,0.2-0.9,1.6-0.7,2.6c0.2,0.8,0.1,1.5-0.9,1.8
		c-0.7,0.2-1.8,0.2-1.3,1.3c0.4,0.8,1.4,0.6,2.1,0.4C44.5,62.9,45.6,62.1,45.7,60.4z M61.1,58.3c0,0.7,0,1.7,0.8,1.6
		c1.9-0.4,1.9-2.2,2.1-3.7c0.1-0.7,0-1.9-1.1-1.5C61.2,55.2,61.3,56.9,61.1,58.3z M19.4,53.9c-0.9,0.2-1.1,0.8-1,1.5
		c0.2,1.1,0.4,2.4,1.7,2.7c0.7,0.2,1-0.5,0.8-1.1C20.6,56,20.6,54.6,19.4,53.9z"/>
	<path class="st4" d="M21.3,62.7c2-1.1,2.2,0.5,2.7,1.7c1.9,4.8,5.2,8.2,9.9,10.4c9.8,4.6,19.8,0.7,24.5-9.6
		c0.6-1.3,0.9-2.7,2.7-1.4c-0.8,4.4-3.5,7.8-6.8,10.5c-1.8,1.4-2.2,2.9-1.7,4.9c-0.4,6.2-4.3,9.9-10.6,10
		c-6.6,0.1-10.9-3.6-11.4-9.9c0.8-2.2,0.3-3.7-1.8-5.2C24.8,71.3,22,67.6,21.3,62.7z M41.7,86.8c4.7,0,8.5-3.4,8.5-7.6
		c0-1.2-0.2-1.9-1.6-1.3c-4.7,1.7-9.4,1.5-14-0.3c-1.3-0.5-1.8-0.3-1.8,1.3C32.8,83.4,36.6,86.8,41.7,86.8z"/>
	<path class="st3" d="M139.9,109.4c0.1,17.6-0.3,16.4-2,16.4c-2.9,0-5.8,0-8.6,0.1c-0.1-0.1-0.2-0.2-0.3-0.2
		c0.1-4.4,0.2-8.8,0.2-13.2c0-1.8,0.5-2.5,2.5-2.5C134.4,109.9,137.2,109.6,139.9,109.4z"/>
	<path class="st3" d="M80.5,125.6c0,0.1-0.1,0.2-0.2,0.3c-4.8,0-9.6,0-14.4,0c-0.1-0.1-0.1-0.2-0.1-0.4c0-2.1,0.1-4.2,0.2-6.3
		c0.2-6.8-1.4-5.6,6-5.9c1.8-0.1,2.1,0.7,2,2.2c-0.1,2.7-0.1,5.4,0,8.1c0,0.8-0.3,2,1,2c1.6,0.1,1.1-1.3,1.1-2.1c0-3.9,0-7.7,0-11.6
		c0-1,0.3-1.7,1.4-1.6c0.9,0,2-0.3,2.2,1.2c0.2,1.1,0.5,2.3,0.6,3.4C80.4,118.6,80.4,122.1,80.5,125.6z"/>
	<path class="st3" d="M19.6,125.6c0,0.1-0.1,0.2-0.1,0.4c-3.9,0.1-7.8,0.4-11.6-0.1C8,124,7.2,116.3,7,114c-0.3-2.6,2.4-1.1,5.3-0.6
		c1.3,0.2,2.7,0.2,4,0c2.3-0.2,3.2,0.5,3.1,3C19.2,119.5,19.5,122.5,19.6,125.6z"/>
	<path class="st2" d="M16.3,113.4c2.3-0.2,3.2,0.5,3.1,3c-0.2,3,0.1,6.1,0.1,9.2c1.2,0.1,2.3,0.1,2.3-1.7c-0.1-7.6,0-15.2-0.1-22.8
		c0-0.8-0.1-1.7-1.1-1.8c-1.2,0-1.1,1.1-1.2,1.9c0,1.6,0,3.3,0,4.9c0,4.8,0.5,4.4-4.3,4.4c-2.8,0-5.6,0-8.3,0.1c0,0,0.1,1.4,0.1,3.4
		C8,114,15,113.6,16.3,113.4z"/>
	<path class="st4" d="M139.9,109.4c-2.8,0.2-5.5,0.5-8.3,0.5c-1.9,0-2.5,0.8-2.5,2.5c0,4.4-0.1,8.8-0.2,13.2
		c-1.4,0.1-2.2-0.2-2.1-1.9c0.2-4.5-0.3-9,0.5-13.5c0.5-3.3,0.2-6.7-0.7-10c-0.3-1-0.7-2.4,0.7-2.7c1.3-0.3,1.2,1.1,1.4,2
		c0.2,0.9,0.4,1.9,0.5,2.8c0.4,4.7,0.3,4.7,4.9,4.7c2,0,4,0,6,0C140.3,107.9,140.2,108.7,139.9,109.4z"/>
	<path class="st2" d="M85.3,79.4c2.1-6,0.4-11.7-1.2-17.4c-0.5-1.8-2.1-5-2.1-7c1.8-1.2,3.9,0.9,4.5,2.7c0.4,1.3,0.7,2.6,1.1,3.9
		c2.8,8.3,11.2,13.9,19,12.6c6.8-1.2,11.5-5.1,13.9-11.6c0.9-2.4,1.5-8.6,5.5-6.6c-1.6,6.7-3.4,17.2-0.8,23.9
		c-2.5-0.4-4.9-1.6-7.5-1.6c-1.6-0.5-3.5-0.5-3.7-2.9c-0.1-1-1.1-0.4-1.6-0.2c-5,2.5-10,2.4-15,0.2c-0.4-0.2-1.4-0.7-1.4-0.1
		c-0.3,2.5-2.5,2.6-4,3.6C89.6,77.9,87.5,79.9,85.3,79.4z"/>
	<path class="st2" d="M80.5,125.6c-0.1-3.5-0.1-7.1-0.3-10.6c0-1.1-0.4-2.3-0.6-3.4c-0.2-1.4-1.3-1.1-2.2-1.2
		c-1.2-0.1-1.4,0.6-1.4,1.6c0,3.9,0,7.7,0,11.6c0,0.8,0.5,2.2-1.1,2.1c-1.3-0.1-1-1.2-1-2c0-2.7-0.1-5.4,0-8.1c0-1.5-0.3-2.3-2-2.2
		c-7.4,0.3-5.8-0.9-6,5.9c-0.1,2.1-0.1,4.2-0.2,6.3c-1.7,0.3-2.4-0.3-2.4-2.2c0.1-7,0-14,0.1-21.1c0-1-0.3-2.5,1.3-2.4
		c1.2,0.1,1,1.4,1,2.4c0,1.8,0,3.7,0,5.5c0,2,0.9,2.9,3,2.8c6.1-0.1,4.9,0.4,5.1-5.1c0.1-2.9-0.7-5.7-1.4-8.5
		c-0.3-1.3-0.5-2.6-0.2-4.2c1.5,0.9,1.9,2.1,2.2,3.5c0.6,3,1.4,6,1.2,9.1c-0.1,1.1,0.2,2.1,1.6,2.3c1.5,0.2,1.7-0.7,2-1.9
		c0.5-2.2,1-4.5,1.6-6.7c0.1-0.5,0.5-1.2,1.2-0.9c0.6,0.2,0.4,0.8,0.5,1.2c0,0.4,0.1,0.8-0.1,1.1c-2.1,5.2-0.4,10.4,0.4,15.6
		c0.4,2.7,0.2,5.3-0.2,8C82.3,125.6,81.5,125.6,80.5,125.6z"/>
	<path class="st3" d="M91.8,78.9c1.5-1,3.8-1,4-3.6c0.1-0.7,1-0.1,1.4,0.1c5,2.2,10,2.3,15-0.2c0.5-0.3,1.5-0.9,1.6,0.2
		c0.3,2.4,2.2,2.4,3.7,2.9c-1.8,4.8-5.7,7.2-10.4,8c-5.6,0.9-10.7-0.6-14.3-5.3C92.5,80.3,92.2,79.6,91.8,78.9z"/>
	<path class="st3" d="M127,57c-2,1-2.6-0.9-3-1c-2.1-0.3-2.7,4.4-3.5,6.6c-2.4,6.4-7.1,10.4-13.9,11.6c-7.8,1.4-16.2-4.3-19-12.6
		c-0.4-1.3-0.7-2.6-1.1-3.9c-0.5-1.6-1.3-1.4-2.7-0.8c-0.5,0.2-1,0.1-1.4-0.2c-2.3-2.2-3-5.8-2-8.5c0.4-1.1,1-1.8,2.3-2
		c1.9,0.4,1.9,1.9,2.1,3.4c0.1,0.8,0.4,1.6,1.3,1.6c1.1,0,1.2-1,1.1-1.7c-0.6-3.2,1.2-4.7,3.7-6.1c5.2-2.9,8.5-7.6,11.7-13
		c3,6.7,8.1,10.7,14.2,13.3c2.9,1.2,4.9,2.4,4.7,5.9c0,0.6-0.2,1.6,0.7,1.7c1,0.1,1-0.9,1.3-1.6c0.5-1.2,0.5-2.8,2.1-3.3
		c0.3-0.1,0.6,0,0.9,0.1C132,49,127.9,56.6,127,57z M104.2,66.2c2.4,0.1,4.5-0.9,6.4-2.1c0.6-0.4,1-1,0.5-1.7
		c-0.4-0.6-1-0.4-1.5-0.1c-3.7,2.3-7.4,2.1-11.1,0.1c-0.6-0.3-1.3-0.6-1.7,0.3c-0.3,0.8,0.3,1.3,0.9,1.6
		C99.7,65.4,101.8,66.3,104.2,66.2z M104,60.3c0.7,0,1.6,0.1,2.1-0.7c0.2-0.4,0-0.9-0.3-0.9c-3.9-0.4-2.5-2.6-1.6-4.7
		c0.2-0.5,0.4-1.2-0.1-1.6c-0.7-0.5-1.3,0-1.6,0.6c-0.5,0.9-1,1.8-1.4,2.8C100,58.3,101.3,60.2,104,60.3z M113.7,53.2
		c0-1.4-0.2-3-1.8-3.2c-1.6-0.1-1.9,1.4-1.9,2.6c0,1.3-0.1,2.9,1.8,3C113.5,55.8,113.7,54.4,113.7,53.2z"/>
	<path class="st4" d="M126.2,46.4c-2.1,0.2-2,2-2.6,3.4c-0.3,0.7-0.3,1.7-1.3,1.6c-0.9-0.1-0.7-1.1-0.7-1.7c0.2-3.4-1.8-4.7-4.7-5.9
		c-6.1-2.6-11.2-6.6-14.2-13.3c-3.2,5.4-6.6,10.1-11.7,13c-2.5,1.4-4.4,2.9-3.7,6.1c0.1,0.7,0,1.7-1.1,1.7c-0.9,0-1.2-0.9-1.3-1.6
		c-0.2-1.4-0.2-3-2.1-3.4c0.1-1.2,1-1.6,1.9-2c8.2-3.2,13.3-9.6,17.2-17.1c0.3-0.5,0.3-1.3,1-1.3c0.8,0,0.9,0.8,1.1,1.4
		c3.1,8.8,10,13.3,18.3,16.2C123.7,44.2,125.7,44.3,126.2,46.4z"/>
	<path class="st4" d="M42.3,69.1c-2.4,0.1-4.7-0.5-6.7-1.9c-0.5-0.4-1.2-0.7-0.7-1.6c0.5-0.8,1.1-0.5,1.7-0.1
		c3.6,1.9,7.2,1.8,10.8,0.1c0.6-0.3,1.3-0.7,1.7,0.1c0.4,0.8-0.2,1.2-0.8,1.6C46.7,68.7,44.6,69.2,42.3,69.1z"/>
	<path class="st4" d="M52.5,54.9c-0.1,1.5-0.1,3-1.9,3.1c-1.7,0-2.1-1.3-2.2-2.8c0-1.6,0.3-3.2,2-3.3C52.2,51.7,52.4,53.5,52.5,54.9
		z"/>
	<path class="st4" d="M35.5,54.7c-0.3,1.2-0.4,2.7-2,2.8c-1.9,0-2-1.6-2-2.9c0-1.3,0.3-3,2.1-2.9C35.3,51.8,35.2,53.5,35.5,54.7z"/>
	<path class="st2" d="M33.1,45.8c0.6,0,1.2,0,1.7,0.1c0.9,0.2,2.1,0.5,1.9,1.7c-0.2,1.4-1.3,1-2.3,0.7c-1.3-0.4-2.7-0.3-4,0.2
		c-0.7,0.2-1.4,0.2-1.7-0.6c-0.3-0.8,0.3-1.2,0.9-1.5C30.8,45.8,31.9,45.8,33.1,45.8z"/>
	<path class="st4" d="M50.3,45.8c0.6,0,1.1-0.1,1.5,0.1c1.2,0.4,3.2,0.3,2.9,2c-0.3,1.6-1.9,0.4-2.9,0.4c-0.9,0-1.8-0.1-2.6,0.1
		c-1,0.3-2,0.6-2.2-0.9c-0.1-1.2,0.8-1.6,1.9-1.7C49.4,45.8,49.9,45.8,50.3,45.8z"/>
	<path class="st4" d="M45.7,60.4c-0.1,1.8-1.2,2.6-2.7,2.8c-0.7,0.1-1.7,0.4-2.1-0.4c-0.5-1.1,0.6-1.1,1.3-1.3c1-0.3,1-1,0.9-1.8
		c-0.2-1-0.8-2.4,0.7-2.6c1.3-0.2,1.6,1.4,1.9,2.5C45.6,59.8,45.6,60.1,45.7,60.4z"/>
	<path class="st4" d="M61.1,58.3c0.3-1.4,0.1-3.1,1.8-3.6c1-0.3,1.2,0.8,1.1,1.5c-0.2,1.5-0.2,3.3-2.1,3.7
		C61,60,61.1,58.9,61.1,58.3z"/>
	<path class="st4" d="M19.4,53.9c1.2,0.7,1.2,2,1.5,3.1c0.2,0.6-0.1,1.3-0.8,1.1c-1.3-0.4-1.5-1.6-1.7-2.7
		C18.3,54.8,18.5,54.1,19.4,53.9z"/>
	<path class="st3" d="M41.7,86.8c-5.1,0-8.9-3.4-8.9-7.8c0-1.6,0.5-1.8,1.8-1.3c4.6,1.7,9.3,2,14,0.3c1.4-0.5,1.6,0.1,1.6,1.3
		C50.2,83.4,46.4,86.8,41.7,86.8z"/>
	<path class="st4" d="M104.2,66.2c-2.4,0.1-4.5-0.8-6.5-2c-0.6-0.3-1.2-0.8-0.9-1.6c0.4-0.9,1.1-0.6,1.7-0.3c3.7,2,7.4,2.2,11.1-0.1
		c0.5-0.3,1.1-0.5,1.5,0.1c0.5,0.7,0.1,1.3-0.5,1.7C108.7,65.3,106.6,66.3,104.2,66.2z"/>
	<path class="st4" d="M104,60.3c-2.7-0.1-4-2-3-4.4c0.4-1,0.9-1.9,1.4-2.8c0.4-0.6,0.9-1.1,1.6-0.6c0.6,0.4,0.4,1,0.1,1.6
		c-0.9,2-2.3,4.3,1.6,4.7c0.3,0,0.5,0.5,0.3,0.9C105.6,60.4,104.7,60.3,104,60.3z"/>
	<path class="st4" d="M98.1,52.9c0,1.3-0.2,2.7-1.8,2.8c-1.8,0.1-2.2-1.3-2.2-2.7c0-1.3,0.4-2.8,1.8-2.9C97.6,50,98,51.5,98.1,52.9z
		"/>
	<path class="st2" d="M113.7,53.2c-0.1,1.2-0.2,2.6-1.9,2.5c-1.8-0.1-1.8-1.7-1.8-3c0-1.3,0.3-2.8,1.9-2.6
		C113.6,50.2,113.7,51.8,113.7,53.2z"/>
	<path class="st4" d="M95.4,46.9c-0.9-0.2-2.5,0.9-2.5-0.8c0-1.4,1.4-1.7,2.6-1.7c1.3-0.1,3,0.1,2.9,1.6
		C98.3,47.8,96.4,46.4,95.4,46.9z"/>
	<path class="st4" d="M112.6,47c-1.6,0-2.9,1-3-1.1c-0.1-1.4,1.6-1.5,2.7-1.5c1.3,0.1,3.3,0.3,3.2,1.7C115.5,48.2,114,47,112.6,47z"
		/>
</g>
</svg>
