<?xml version="1.0" encoding="utf-8"?>
<!-- Generator: Adobe Illustrator 24.0.2, SVG Export Plug-In . SVG Version: 6.00 Build 0)  -->
<svg version="1.1" id="Capa_1" xmlns="http://www.w3.org/2000/svg" xmlns:xlink="http://www.w3.org/1999/xlink" x="0px" y="0px"
	 viewBox="0 0 37.4 29.6" style="enable-background:new 0 0 37.4 29.6;" xml:space="preserve">
<style type="text/css">
	.st0{fill:#479E99;}
	.st1{fill:#F08140;}
	.st2{fill:#55A89E;}
	.st3{fill:#166E70;}
	.st4{fill:#F9CBA5;}
	.st5{fill:#F8C9A4;}
	.st6{fill:#1C5C5D;}
	.st7{fill:#1D5859;}
	.st8{fill:#245B5F;}
	.st9{fill:#1C6D6E;}
	.st10{fill:#F9C9A3;}
	.st11{fill:#235056;}
	.st12{fill:#1D595B;}
	.st13{fill:#45514D;}
	.st14{fill:#3B5358;}
	.st15{fill:#3D5759;}
	.st16{fill:#375154;}
	.st17{fill:#194B51;}
	.st18{fill:#354C4D;}
	.st19{fill:#4C5F5C;}
	.st20{fill:#176E6F;}
	.st21{fill:#912631;}
	.st22{fill:#375256;}
	.st23{fill:#475556;}
	.st24{fill:#3A5659;}
	.st25{fill:#314F52;}
	.st26{fill:#495A5C;}
	.st27{fill:#4C5554;}
	.st28{fill:#374A4C;}
</style>
<g>
	<path class="st0" d="M18.5,16.5c0.3,0.3,0.4,0.7,0.9,0.9c0.1,0,0.2,0.1,0.2,0.2c0.1,0.5,0.3,0.9,0.6,1.3c0.3,0.9,0.7,1.7,0.9,2.6
		c0.1,0.5,0.2,0.9,0.3,1.4c-0.1,1.2-1,2-2.1,2c-0.3-0.1-0.5,0-0.8,0c-0.8,0.1-1-0.1-0.9-0.9c0.2-1,0.3-2,0.2-3.1
		c0-0.3-0.1-0.6-0.1-0.8c0.1,0.4,0.2,0.9,0.2,1.4c0,0.5,0,1-0.1,1.5c-0.1,0.5-0.2,1-0.2,1.5c0,0.3-0.2,0.5-0.5,0.5
		c-2.3,0.4-4.6,1-7,1.2c-0.6,0-0.8-0.2-1-0.7c-0.5-1.5-0.9-2.9-1.4-4.2c0.4,1.3,0.9,2.9,1.4,4.4c0.1,0.2,0.2,0.4,0.1,0.6
		c-2,0-4.1,0-6.1,0c-0.2,0-0.4,0-0.5-0.3c-0.7-2.3-1.1-4.5-0.5-6.9c0.2-0.9,0.7-1.6,1.2-2.3c0.1-0.4,0.4-0.6,0.7-0.7
		c1.1-0.7,2.3-1.4,3.7-1.7c0.6-0.2,1-0.5,1.6-0.8c0.2,0,0.4,0.2,0.7,0.3c1.1,0.6,2.3,0.6,3.5,0.3c0.5-0.3,1-0.3,1.6,0
		c0.6,0.3,1.2,0.6,1.8,0.9c0.4,0.3,0.9,0.5,1.3,0.9C18.3,16.2,18.5,16.3,18.5,16.5z"/>
	<path class="st1" d="M9.2,13.8c-0.3,0.6-0.9,0.7-1.5,0.9c-1.6,0.5-3.1,1.2-4.3,2.3c-0.8-1.2-0.7-2.5-0.4-3.8
		c0.2-0.6,0.4-1.2,0.8-1.7c1-1.4,1.5-3.1,1.8-4.8c0.3-1.6,0.9-3,2.2-4.1c1.4-1.2,3.1-1.5,4.9-1.4c0.8,0.1,1.7,0.2,2.4,0.6
		c1.7,0.8,2.6,2.3,2.7,4.1c0.1,2.4,0.4,4.7,1.2,6.9c0.4,1.3,0.3,2.6-0.4,3.8c-0.6-0.4-1.1-0.8-1.7-1.2c-0.1-0.2,0-0.4,0-0.6
		c0.5-1.4,0.4-2.8,0.1-4.2c-0.1-0.2-0.1-0.5-0.1-0.7c0-1.6,0-3.1,0-4.7c0-0.1,0,0,0,0c-0.1-0.1,0,0.1-0.1,0.1
		C16,6.1,14.4,6.5,13.5,6c-0.1-0.2,0-0.3,0.1-0.4C14.1,5,14.1,5,14.3,4.4c-0.1,0.6-0.5,1.3-1.3,1.7c-0.5,0-1,0.1-1.5,0
		c-0.3-0.2-0.1-0.3,0.1-0.5c0.4-0.4,0.7-1,0.9-1.5c-0.2,0.9-0.7,1.5-1.6,2c-0.2,0.1-0.5,0.2-0.6,0.5C10.2,7,10.1,7.3,10,7.7
		C9.8,8.3,9.6,8.3,9.2,7.9C9.1,7.8,9,7.7,8.9,7.7C8.5,7.2,7.8,7.1,7.4,7.4c-0.5,0.3-0.8,1-0.6,1.5c0.1,0.6,0.4,1,0.9,1.3
		c0.2,0.1,0.3,0.1,0.5,0.2c0.2,0.6,0.8,0.9,1.2,1.3C9.5,12.4,9.8,13.1,9.2,13.8z"/>
	<path class="st2" d="M23,14.2c1.6-0.5,3.2-1.4,4.8-2c1.6-0.6,3.2-1.3,4.8-2c0,0.1,0,0.2,0,0.2c-1,1.3-1.3,2.8-1.4,4.3
		c-0.2,1.8,0,3.6,0.4,5.4c0.2,0.7,0.4,1.3,0.8,1.9c0.1,0.2,0.2,0.3,0.1,0.5c-1.2-0.3-2.3-0.9-3.5-1.3c-1.4-0.5-2.9-1-4.3-1.6
		c-0.4-0.2-0.5-0.1-0.5,0.4c0,0.2,0,0.5-0.1,0.7c-0.2-0.1-0.2-0.2-0.2-0.4c0.1-0.5-0.2-0.8-0.6-1.1c-0.6-1.5-0.8-2.9-0.4-4.5
		C22.9,14.6,23,14.4,23,14.2z"/>
	<path class="st3" d="M23,14.2c0.3,0.1,0.1,0.2,0.1,0.3c-0.6,1.6-0.3,3.2,0.3,4.7c-0.5,0.3-1,0-1.5,0.1c-0.4,0-0.7,0-1.1,0
		c-0.3,0-0.6-0.1-0.7-0.4c-0.4-0.4-0.6-0.9-0.7-1.5c-0.1-0.7-0.1-1.3,0.1-1.9c0.2-0.7,0.7-1.1,1.4-1.2C21.6,14.3,22.3,14.2,23,14.2z
		"/>
	<path class="st4" d="M24.1,21.1c1.4-0.1,1.9,0.3,1.9,1.8c0,0.6,0,1.1-0.1,1.7c-0.1,0.9-0.9,1.6-1.9,1.8c-0.2-0.2-0.3-0.4-0.6-0.5
		c-0.2-0.1-0.4-0.3-0.4-0.5c0-0.3,0.3-0.4,0.5-0.4c0.3,0,0.5-0.1,0.8,0c-0.3-0.1-0.6,0-0.9,0.1c-0.3,0.1-0.6,0.2-0.7-0.1
		c-0.2-0.4,0.1-0.6,0.4-0.8c0.2-0.1,0.5-0.2,0.7-0.3c0.3-0.1,0.5-0.1,0.7-0.1c-0.4,0-1,0.2-1.5,0.4c-0.3,0.1-0.5,0-0.6-0.2
		c-0.1-0.2,0-0.5,0.2-0.6c0.2-0.2,0.4-0.4,0.7-0.5c0.4-0.1,0.8-0.4,1.2-0.4c-0.4,0-0.8,0.3-1.3,0.5c-0.2,0.1-0.4,0.3-0.7,0.1
		c-0.2-0.3-0.2-0.5,0-0.8c0.1-0.2,0.3-0.4,0.5-0.5C23.4,21.4,23.7,21,24.1,21.1z"/>
	<path class="st5" d="M19.2,24.7c1.1-0.2,1.8-0.8,2-2c-0.1-0.7,0.3-1.3,0.8-1.7c0.7-0.3,1-0.2,0.9,0.5c-0.3,0.4-0.7,0.9-0.3,1.4
		c-0.3,0.5,0,0.9,0.1,1.4c0,0.1,0,0.2,0,0.3c0.4,0.5,0,1.1,0,1.6c-1.1,0-2.2,0-3.3,0c-0.4-0.3-0.5-0.8-0.6-1.2
		C18.8,24.9,18.9,24.6,19.2,24.7z"/>
	<path class="st6" d="M32.5,22.6c-1.2-1.6-1.5-3.6-1.6-5.5c-0.1-1.7,0.1-3.5,0.6-5.1c0.2-0.7,0.5-1.3,1.1-1.7
		c0.8-0.2,1.3,0.1,1.7,0.8c0.7,1.1,0.9,2.3,1.1,3.5c0.3,2.3,0.3,4.6-0.5,6.8c-0.1,0.2-0.2,0.4-0.3,0.6
		C34.1,22.9,33.5,23.1,32.5,22.6z"/>
	<path class="st7" d="M19.2,24.7c-0.3,0.1-0.4,0.2-0.2,0.5c0.2,0.3,0.3,0.7,0.5,1.1c-0.1,0-0.2,0-0.3,0c-0.3-0.1-0.4-0.4-0.4-0.7
		c-0.1-0.5-0.4-0.6-0.9-0.5c-1.3,0.3-2.5,0.5-3.8,0.8c-1,0.2-2,0.2-2.9,0.3c-0.6,0-1.2,0-1.8,0c-0.6-1.9-1.2-3.7-1.8-5.6
		c0.3,0,0.3,0.2,0.4,0.4c0.5,1.5,1,3,1.5,4.5c0.1,0.4,0.3,0.6,0.8,0.5c2-0.2,3.9-0.6,5.9-1c1.5-0.3,1.5-0.3,1.7-1.9
		c0.2-1.3,0.1-2.6-0.2-3.9c0.4,0.4,0.4,0.9,0.5,1.3c0.2,1.1,0,2.2-0.2,3.4c-0.1,0.7,0,0.8,0.7,0.7C18.7,24.7,19,24.4,19.2,24.7z"/>
	<path class="st0" d="M11.1,26.4c1.6-0.3,3.2-0.6,4.9-0.9c0.7-0.1,1.4-0.3,2.1-0.5c0.4-0.1,0.6,0,0.7,0.4c0.1,0.3,0.2,0.6,0.4,1
		C16.5,26.3,13.8,26.4,11.1,26.4z"/>
	<path class="st8" d="M22.7,26.4c0-0.4-0.3-0.8,0.1-1.2c-0.4-0.3-0.2-0.7-0.3-1.1c-0.3-0.7-0.2-1.9,0.3-2.5c0-0.1,0-0.2,0.2-0.2
		c0.1,0,0.2,0.1,0.1,0.2c-0.1,0.1-0.2,0.2-0.3,0.3c-0.2,0.2-0.4,0.5-0.1,0.8c0.2,0.3,0.4-0.2,0.6-0.1c0.1-0.1,0.2-0.1,0.2,0.1
		c-0.2,0.2-0.5,0.3-0.7,0.5c-0.2,0.1-0.3,0.3-0.2,0.5c0.1,0.2,0.3,0.1,0.5,0.1c0.1,0.1,0.1,0.1,0,0.2c-0.1,0.1-0.1,0.1-0.2,0.2
		c-0.1,0.1-0.3,0.3-0.1,0.5c0.1,0.2,0.3,0.2,0.5,0.1c0.4-0.2,0.9-0.2,1.3-0.1c0.1,0,0.3,0.1,0.2,0.3c0,0.1-0.2,0.1-0.3,0
		c-0.3-0.1-0.7-0.1-1.1,0c-0.2,0-0.4,0.1-0.4,0.3c0,0.2,0.2,0.4,0.4,0.4c0.5-0.1,0.5,0.3,0.5,0.6C23.6,26.3,23.2,26.3,22.7,26.4z"/>
	<path class="st9" d="M23.2,21.6c-0.1-0.3-0.2-0.1-0.3,0c0-0.8-0.1-0.8-0.8-0.4c-0.3-0.4-0.4-0.8-0.2-1.3c0.1-0.1,0.2-0.2,0.4-0.3
		c0.5-0.2,1.6,0.2,1.9,0.6c0,0.2,0,0.3,0,0.5c0,0.1,0,0.2,0,0.4C23.8,21.3,23.5,21.5,23.2,21.6z"/>
	<path class="st10" d="M8.1,10.6c-1.2-0.4-1.8-1.3-1.5-2.3C6.9,7,8.2,6.6,9.1,7.5c0.2,0.2,0.3,0.4,0.5,0.6C9.9,7.6,10,7,10.1,6.5
		c0.4-0.2,0.8-0.6,1.3-0.5c0.6,0,1.1,0,1.7,0c0.1,0.1,0.3-0.2,0.5,0c1.2,0.2,2.2,0,3.1-0.8c0.2,0.1,0.2,0.3,0.2,0.5
		c0,1,0.1,1.9,0.1,2.9c-0.1,0.9,0,1.8-0.3,2.7c-0.6,1.9-2.3,2.9-4.3,2.3c-0.7-0.2-1.5-0.7-2-1.1c0.6,1,1.5,1.6,2.6,1.8
		c0.2,0.1,0.5,0,0.6,0.3c-1.5,0.5-3,0.2-4.3-0.7c0.2-0.7,0.1-1.4,0-2.1c0-0.1-0.1-0.2,0-0.3c0.1-0.5-0.2-0.8-0.7-0.7
		C8.4,10.7,8.2,10.7,8.1,10.6z"/>
	<path class="st11" d="M13.5,14.5c-1.7-0.1-3.5-1.6-3.5-2.8c0.5,0.6,1,1.1,1.6,1.4c0.7,0.3,1.4,0.6,2.2,0.4c1.7-0.3,2.6-1.4,2.8-3.4
		c0-0.5,0.1-1,0.1-1.4c0.3,0,0.2,0.2,0.2,0.3c0,0.3,0,0.6,0,0.8c0.4,1.5,0.6,2.9,0.3,4.5c-0.1,0.4-0.2,0.7-0.4,1.1
		c-0.6-0.3-1.2-0.5-1.7-0.8C14.6,14.2,14.1,14.1,13.5,14.5z"/>
	<path class="st12" d="M8.9,14.8c1.9,1.1,3.7,1.8,5.6,0.1c0,0.5-0.4,0.7-0.8,0.9c-1.2,0.6-2.5,0.4-3.7-0.1
		C9.6,15.5,9.2,15.3,8.9,14.8z"/>
	<path class="st13" d="M16.9,9.8C16.7,9.5,17,9,16.7,8.7c0-1.2-0.1-2.4-0.1-3.6c0.1-0.2,0-0.5,0.3-0.8C16.9,6.2,16.9,8,16.9,9.8z"/>
	<path class="st14" d="M11.4,5.9c-0.4,0.2-0.8,0.6-1.3,0.5c0-0.2,0.1-0.3,0.3-0.3c1.1-0.5,1.8-1.3,2-2.5c0-0.1,0.1-0.1,0.1-0.2
		C12.7,4,12.3,5,11.4,5.9z"/>
	<path class="st15" d="M8.1,10.6c0.1,0,0.2,0,0.3,0c1,0,1.1,0.2,0.8,1.1C8.6,11.6,8.2,11.2,8.1,10.6z"/>
	<path class="st16" d="M13.5,6c-0.2,0-0.3,0.2-0.5,0c0.8-0.5,1.1-1.4,1.3-2.3C14.5,4.6,14.2,5.3,13.5,6z"/>
	<path class="st17" d="M21.9,19.9c0-0.2,0-0.4,0-0.7c0.5-0.3,1,0,1.5,0c0.5,0.1,0.8,0.4,0.7,1C23.4,20,22.7,19.6,21.9,19.9z"/>
	<path class="st18" d="M23.2,24.1c0-0.1,0-0.1,0-0.2c0.7-0.4,1.4-0.5,2.1-0.3C24.6,23.8,23.9,23.9,23.2,24.1z"/>
	<path class="st19" d="M23.5,22.8c-0.1,0-0.2-0.1-0.2-0.1c0.5-0.3,1-0.4,1.5-0.5c0.1,0,0.3-0.1,0.4,0.1c0,0.2-0.2,0.2-0.3,0.2
		C24.4,22.4,24,22.7,23.5,22.8z"/>
	<path class="st20" d="M31.2,14.8c0-1.3,0.3-2.5,0.9-3.6c0.5-1,1.4-1,2-0.1c0.7,1.1,0.9,2.4,1.1,3.8c0.2,1.8,0.2,3.5-0.2,5.3
		c-0.1,0.6-0.3,1.3-0.7,1.8c-0.5,0.8-1.5,0.9-2,0c-0.7-1.2-1-2.4-1-3.8c0.1-0.2,0.3-0.2,0.4-0.2c0.7-0.3,1-0.8,1-1.5
		c0-0.7-0.4-1.2-1.1-1.5C31.5,15,31.4,14.9,31.2,14.8z"/>
	<path class="st21" d="M31.2,14.8c1.1,0.1,1.7,0.7,1.7,1.7c0,1-0.6,1.6-1.6,1.8c-0.2-0.4-0.1-0.8-0.1-1.2
		C31.2,16.3,31.2,15.5,31.2,14.8z"/>
	<path class="st22" d="M14.1,7.9c0.4,0.6,0.9,1.2,1,1.9c0.1,0.3-0.1,0.4-0.4,0.5c-0.3,0.1-0.6,0.1-0.9,0c0.1-0.3,0.4-0.2,0.5-0.2
		c0.4-0.1,0.5-0.2,0.3-0.6C14.5,9,14.2,8.5,14.1,7.9z"/>
	<path class="st23" d="M12.3,10.6c0.6,0.6,1.4,0.9,2.4,0.8c-0.3,0.4-0.6,0.3-0.9,0.2C13,11.5,12.4,11.1,12.3,10.6z"/>
	<path class="st24" d="M15.4,7.6c0.3,0.1,0.4,0.3,0.4,0.5c0,0.2-0.1,0.5-0.4,0.5c-0.3,0-0.4-0.3-0.4-0.5C15,7.9,15.1,7.6,15.4,7.6z"
		/>
	<path class="st25" d="M13.1,8.2c0,0.3-0.1,0.5-0.4,0.5c-0.3,0-0.3-0.3-0.3-0.5c0-0.2,0.1-0.5,0.3-0.5C13,7.7,13.1,8,13.1,8.2z"/>
	<path class="st26" d="M7.9,8.3c0.7,0,1.2,0.5,1.3,1.3C8.7,9.1,8.5,8.4,7.9,8.3z"/>
	<path class="st27" d="M15.3,6.5c0.1,0,0.2,0,0.2,0c0.2,0,0.6,0.1,0.6,0.3c-0.1,0.4-0.4,0-0.5,0c-0.2,0-0.4,0-0.6,0
		c-0.1,0-0.3,0.1-0.3-0.1c0-0.2,0.1-0.2,0.3-0.2C15,6.5,15.2,6.5,15.3,6.5z"/>
	<path class="st28" d="M11.7,6.9c0.4-0.4,0.9-0.5,1.4-0.4c0.1,0,0.2,0.1,0.2,0.2c0,0-0.1,0.1-0.1,0.1C12.7,6.6,12.2,6.9,11.7,6.9z"
		/>
</g>
</svg>
