<?xml version="1.0" encoding="utf-8"?>
<!-- Generator: Adobe Illustrator 24.0.2, SVG Export Plug-In . SVG Version: 6.00 Build 0)  -->
<svg version="1.1" id="Capa_1" xmlns="http://www.w3.org/2000/svg" xmlns:xlink="http://www.w3.org/1999/xlink" x="0px" y="0px"
	 viewBox="0 0 289.7 232.7" style="enable-background:new 0 0 289.7 232.7;" xml:space="preserve">
<style type="text/css">
	.st0{fill:#133882;}
	.st1{fill:#FBDF16;}
	.st2{fill:#133984;}
	.st3{fill:#133983;}
	.st4{fill:#143984;}
</style>
<g>
	<path class="st0" d="M18.6,186.2c0-56.4,0-112.8,0-169.2c0-0.9,0.2-1,1.1-1c84.4,0,168.8,0,253.2,0c0.8,0,1.1,0.1,1.1,1
		c0,56.4,0,112.8,0,169.2c-0.3,0.4-0.7,0.4-1.1,0.5c-0.6,0-1.1,0-1.7,0c-83.2,0-166.4,0-249.6,0c-0.6,0-1.1,0-1.7,0
		C19.3,186.6,18.9,186.5,18.6,186.2z"/>
	<path class="st1" d="M96.9,63.4c0.7,2.1,1.3,3.8,1.8,5.6c0.2,0.6,0.5,0.9,1.2,0.9c1.9-0.1,3.7,0,5.9,0c-1.4,1.1-2.7,1.9-3.9,2.9
		c-2,1.5-1.7,0.8-1,3.1c0.4,1.4,0.9,2.9,1.5,4.5c-1.6-1.1-3-2.1-4.4-3.2c-0.9-0.7-1.5-0.7-2.3,0c-1.3,1.1-2.8,2-4.3,3.2
		c0.7-2.1,1.2-3.9,1.9-5.8c0.2-0.5,0.1-0.8-0.4-1.1c-1.6-1.1-3.1-2.3-4.9-3.6c2.1,0,4-0.1,5.8,0c0.9,0.1,1.2-0.3,1.4-1.1
		C95.7,67.1,96.3,65.4,96.9,63.4z"/>
	<path class="st1" d="M112.3,157.1c0.6-1.8,1.1-3.6,1.8-5.4c0.2-0.6,0.1-0.9-0.4-1.2c-1.6-1.1-3.1-2.2-4.6-3.6c1.4,0,2.8,0,4.2,0
		c2.4,0,2.4,0,3.1-2.3c0.4-1.2,0.8-2.4,1.1-3.5c0-0.1,0.1-0.2,0.2-0.5c0.6,1.7,1.1,3.3,1.6,4.9c0.3,1.1,0.8,1.5,2,1.5
		c1.7-0.1,3.4,0,5.1,0.2c-1.5,1.1-3,2.2-4.5,3.3c-0.7,0.4-0.7,0.8-0.5,1.5c0.6,1.7,1.1,3.5,1.8,5.5c-1.8-1.3-3.3-2.3-4.8-3.5
		c-0.6-0.5-1-0.4-1.5,0c-1.4,1.1-3,2.2-4.4,3.2C112.4,157.1,112.3,157.1,112.3,157.1z"/>
	<path class="st1" d="M152.2,51.6c-1.8-1.3-3.4-2.4-4.9-3.6c-0.5-0.4-0.8-0.3-1.3,0c-1.5,1.2-3.1,2.3-4.7,3.5
		c0.4-1.9,1.1-3.6,1.6-5.3c0.3-0.9,0.1-1.3-0.6-1.8c-1.5-1-2.9-2.1-4.6-3.3c1.9,0,3.6-0.1,5.2,0c1.3,0.1,1.9-0.4,2.2-1.6
		c0.4-1.6,0.9-3.2,1.6-4.8c0.6,1.9,1.2,3.7,1.8,5.5c0.2,0.6,0.5,0.8,1.1,0.8c1.9,0,3.7,0,5.8,0c-0.9,1-2,1.5-2.9,2.3
		c-0.8,0.6-2,1-2.2,1.8c-0.2,0.8,0.4,1.8,0.7,2.7C151.4,49.1,151.8,50.2,152.2,51.6z"/>
	<path class="st1" d="M201,136.9c-1.6-1.2-3.1-2.2-4.4-3.2c-0.8-0.7-1.4-0.7-2.2,0c-1.3,1.1-2.8,2.1-4.4,3.2
		c0.6-1.9,1.1-3.6,1.7-5.2c0.4-0.9,0.2-1.5-0.6-2.1c-1.5-0.9-2.8-2-4.5-3.2c2.1,0,3.9,0,5.7,0c0.8,0,1.2-0.2,1.4-1
		c0.5-1.8,1.1-3.5,1.8-5.5c0.6,1.8,1.1,3.3,1.6,4.9c0.5,1.6,0.5,1.6,2.1,1.6c1.6,0,3.2,0,5.2,0c-1.7,1.3-3.3,2.4-4.8,3.5
		c-0.5,0.4-0.6,0.7-0.4,1.3C199.7,133,200.3,134.8,201,136.9z"/>
	<path class="st1" d="M203,91.2c0.7,2.1,1.4,3.9,1.9,5.8c0.2,0.6,0.5,0.7,1,0.7c1.9,0,3.7,0,5.9,0c-1.7,1.2-3.1,2.4-4.6,3.4
		c-0.8,0.5-0.8,0.9-0.5,1.7c0.6,1.7,1.1,3.4,1.5,5.2c-1.5-1.1-3-2.2-4.5-3.3c-0.5-0.4-0.9-0.4-1.4,0c-1.5,1.2-3.1,2.3-4.8,3.5
		c0.6-1.9,1.1-3.5,1.7-5.1c0.4-0.9,0.3-1.6-0.6-2.2c-1.4-0.9-2.8-2-4.1-3.2c1.2,0,2.3,0,3.5,0c1,0,2.1,0.3,2.8-0.1
		c0.7-0.4,0.7-1.7,1-2.6C202.2,93.8,202.5,92.6,203,91.2z"/>
	<path class="st1" d="M91.6,137.1c0.7-2.1,1.2-4,1.9-5.8c0.2-0.5,0.1-0.8-0.4-1.1c-1.6-1.1-3.1-2.3-4.9-3.6c2.1,0,4,0,5.8,0
		c0.7,0,1.1-0.2,1.3-0.9c0.5-1.8,1.1-3.6,1.8-5.6c0.7,2,1.3,3.8,1.8,5.7c0.2,0.7,0.5,0.9,1.2,0.8c1.8-0.1,3.7,0,5.8,0
		c-1.3,1-2.4,1.8-3.5,2.6c-1.9,1.4-1.9,1.4-1.2,3.6c0.4,1.3,0.9,2.7,1.4,4.3c-1.7-1.2-3.2-2.3-4.7-3.5c-0.6-0.4-1-0.5-1.6,0
		C94.9,134.8,93.4,135.8,91.6,137.1z"/>
	<path class="st1" d="M146.7,148c0.7,2,1.3,3.8,1.8,5.6c0.2,0.7,0.5,1,1.2,0.9c1.8-0.1,3.7,0,5.6,0.2c-1.3,0.9-2.6,1.9-3.9,2.8
		c-1,0.6-1.3,1.3-0.8,2.5c0.7,1.5,1,3.1,1.6,5c-1.6-1.2-3.1-2.2-4.5-3.3c-0.8-0.6-1.3-0.6-2,0c-1.4,1.1-2.8,2.1-4.4,3.2
		c0.4-2,1.2-3.8,1.7-5.6c0.2-0.7,0.1-1-0.5-1.4c-1.5-1-3-2.1-4.7-3.4c2.2,0,4,0,5.9,0c0.7,0,1-0.2,1.2-0.9
		C145.4,151.8,146,150,146.7,148z"/>
	<path class="st1" d="M174.9,140.3c0.6,1.9,1.2,3.6,1.7,5.2c0.3,1,0.7,1.3,1.7,1.3c1.7-0.1,3.5,0,5.5,0c-1.7,1.2-3.1,2.3-4.5,3.3
		c-0.8,0.5-0.9,1-0.6,1.9c0.6,1.6,1.1,3.3,1.7,5.3c-1.7-1.2-3.1-2.2-4.4-3.2c-0.7-0.6-1.2-0.8-2.1-0.1c-1.4,1.2-2.9,2.1-4.5,3.3
		c0.7-2,1.2-3.9,1.9-5.6c0.2-0.6,0.1-1-0.4-1.4c-1.5-1.1-3-2.2-4.8-3.5c2.1,0,3.9-0.1,5.8,0c0.9,0,1.2-0.3,1.5-1.1
		C173.7,144,174.3,142.3,174.9,140.3z"/>
	<path class="st1" d="M84.8,108.5c0.7-2.1,1.2-3.9,1.8-5.7c0.2-0.6,0.1-0.9-0.4-1.3c-1.5-1.1-3-2.2-4.8-3.5c2,0,3.7-0.1,5.4,0
		c1.2,0.1,1.6-0.4,1.8-1.4c0.4-1.6,1-3.2,1.6-5.1c0.6,1.8,1.2,3.4,1.6,5c0.3,1.2,0.8,1.7,2.1,1.6c1.6-0.1,3.3,0,5.2,0
		c-1.2,0.9-2.1,1.6-3.1,2.3c-0.3,0.2-0.6,0.4-0.9,0.6c-1.5,1.2-1.5,1.2-0.9,3c0.2,0.7,0.5,1.4,0.7,2.1c0.2,0.7,0.4,1.4,0.7,2.4
		c-1-0.7-1.9-1.4-2.8-2c-0.4-0.3-0.9-0.6-1.3-0.9c-1.4-1-1.4-1-2.8,0C87.6,106.5,86.3,107.4,84.8,108.5z"/>
	<path class="st1" d="M195.6,62.4c0.7,2.1,1.3,4,1.9,5.8c0.2,0.6,0.5,0.7,1,0.7c1.9,0,3.8,0,6.1,0c-1.4,1.1-2.6,1.9-3.8,2.8
		c-1.6,1.2-1.6,1.2-1,3.1c0.5,1.5,0.9,2.9,1.5,4.6c-1.7-1.2-3.2-2.2-4.7-3.4c-0.7-0.6-1.1-0.5-1.8,0c-1.4,1.1-2.9,2.1-4.5,3.3
		c0.4-1.8,1-3.4,1.6-5c0.3-1,0.4-1.6-0.7-2.2c-1.5-0.9-2.8-2-4.4-3.2c2.1,0,4,0,5.9,0c0.7,0,1.1-0.2,1.3-0.9
		C194.3,66.2,194.9,64.4,195.6,62.4z"/>
	<path class="st1" d="M182.8,48.7c-1.5,1.1-3,2.2-4.5,3.3c-0.5,0.3-0.6,0.6-0.4,1.2c0.6,1.8,1.2,3.6,1.9,5.7
		c-1.8-1.3-3.4-2.3-4.9-3.5c-0.6-0.4-0.9-0.3-1.3,0c-1.5,1.1-3.1,2.2-4.8,3.5c0.6-2,1.2-3.8,1.8-5.5c0.3-0.7,0.1-1.1-0.5-1.6
		c-1.5-1-2.9-2.1-4.4-3.2c0.1-0.4,0.5-0.2,0.7-0.2c1.6,0,3.1-0.1,4.7,0c0.9,0.1,1.2-0.3,1.5-1.1c0.5-1.7,1.1-3.4,1.7-5.2
		c0.4,0.2,0.4,0.6,0.5,0.9c0.5,1.5,1,3.1,1.5,4.6c0.2,0.6,0.5,0.7,1.1,0.7c1.9,0,3.7,0,5.6,0C182.8,48.5,182.8,48.6,182.8,48.7z"/>
	<path class="st1" d="M126.4,48.6c-1.5,1.1-3,2.2-4.4,3.2c-0.7,0.5-0.9,0.9-0.6,1.8c0.6,1.7,1.1,3.4,1.7,5.4
		c-1.8-1.3-3.3-2.3-4.8-3.5c-0.5-0.4-0.9-0.3-1.4,0c-1.5,1.1-3,2.2-4.8,3.5c0.6-2,1.1-3.8,1.8-5.5c0.3-0.8,0-1.2-0.6-1.6
		c-1.5-1-2.9-2.1-4.6-3.3c2,0,3.7-0.1,5.4,0c1.1,0.1,1.6-0.3,1.8-1.4c0.4-1.6,1-3.2,1.6-5.2c0.5,1.5,1,2.8,1.4,4.1
		c0.7,2.4,0.7,2.4,3.2,2.4c1.3,0,2.6,0,3.8,0C126.1,48.4,126.2,48.5,126.4,48.6z"/>
	<g>
		<path class="st2" d="M59.9,195.7c0,0-0.1,0-0.1,0c-0.8,0.1-1.2,0.4-1.2,1.4c0.1,4,0,8.1,0.1,12.1c0,0.8,0,1.6,0,2.6
			c-0.2-0.3-0.3-0.5-0.4-0.6c-2.2-4.7-4.7-9.2-7.1-13.8c-0.6-1.2-1.6-1.8-2.9-1.7c-0.8,0-1.6,0-2.4,0c-1,0-1.6,0.6-1.6,1.6
			c0,6.6,0,13.3,0,19.9c0,0.6,0.3,0.9,0.8,1c0.8,0.1,1.6,0.1,2.4,0c0.6-0.1,0.9-0.4,0.9-1.1c-0.1-5.2,0.1-10.5,0-15.8
			c1.1,2.5,2.4,4.8,3.7,7.2c1.4,2.7,2.9,5.4,4.3,8c0.6,1.2,1.5,1.8,2.9,1.7c0.4,0,0.8,0,1.3,0c1.7,0,2.2-0.5,2.2-2.2
			c0-5.9,0-11.8,0-17.8C62.8,195.7,62.5,195.5,59.9,195.7z"/>
		<path class="st2" d="M117.2,195.7c-1.4,0-1.6,0.2-1.6,1.6c0,4.8-0.1,9.5,0.1,14.6c-0.2-0.4-0.4-0.5-0.4-0.7
			c-1.9-4.1-4.1-8-6.2-12.1c-1.8-3.6-1.9-3.4-5.7-3.4c-1.7,0-2.1,0.4-2.1,2.1c0,6.3,0,12.5,0,18.8c0,1.4,0.1,1.6,1.6,1.6
			c0.2,0,0.4,0,0.6,0c1.7,0,1.9-0.2,1.9-1.8c0-5,0.1-10.1,0-15.1c1.1,2.5,2.4,4.9,3.7,7.2c1.4,2.6,2.8,5.2,4.2,7.9
			c0.7,1.3,1.7,2,3.3,1.9c0.3,0,0.6,0,0.8,0c2,0,2.4-0.4,2.4-2.3c0-5.9,0-11.8,0-17.8C119.8,195.7,119.7,195.7,117.2,195.7z"/>
		<path class="st3" d="M91.5,196c-2.9-1-5.9-1-8.8,0c-2,0.7-3.6,1.8-4.6,3.7c-2.6,4.8-2.6,9.8-0.3,14.7c1.3,2.9,4,3.9,7,4.3
			c4.7,0.5,8.9-0.7,11.2-4.9c1.2-2.2,1.5-4.6,1.5-7.3c0-0.6,0-1.4-0.2-2.3C96.8,200.5,95.4,197.3,91.5,196z M92.6,206.6
			c0,1.7-0.1,3.2-0.6,4.6c-0.9,2.5-2.8,3.7-5.7,3.6c-2.5-0.1-4.1-1.3-4.8-3.8c-0.7-2.6-0.8-5.3,0-7.9c0.8-2.9,3-4.3,6.1-4.1
			c2.6,0.2,4.3,1.9,4.8,4.8C92.5,204.9,92.6,205.9,92.6,206.6z"/>
		<path class="st3" d="M207.5,196c-2.9-1-5.9-1-8.8,0c-2,0.7-3.6,1.8-4.6,3.7c-2.6,4.8-2.6,9.8-0.3,14.7c1.3,2.9,4,3.9,7,4.3
			c4.7,0.5,8.9-0.7,11.2-4.9c1.2-2.2,1.5-4.6,1.5-7.3c0-0.6,0-1.4-0.2-2.3C212.7,200.5,211.3,197.3,207.5,196z M207.9,211.3
			c-0.9,2.4-2.8,3.6-5.6,3.6c-2.5,0-4.2-1.3-4.9-3.8c-0.8-2.9-0.9-5.8,0.2-8.6c0.9-2.4,3-3.5,5.9-3.3c2.4,0.2,4,1.6,4.6,4
			c0.3,1.2,0.4,2.5,0.4,3.8C208.6,208.4,208.4,209.9,207.9,211.3z"/>
		<path class="st2" d="M187.1,210.8c-0.5-1.3-1.3-2.3-2.7-3.1c1-0.5,1.8-0.8,2.5-1.5c1.9-1.8,2.1-4,1.4-6.4c-0.7-2.4-2.7-3.5-5-3.9
			c-2.7-0.5-5.5-0.2-8.3-0.2c-1.6,0-1.9,0.3-1.9,1.9c0,5.9,0,11.8,0,17.8c0,2.9,0.4,3.2,3.3,2.9c0,0,0.1,0,0.1,0
			c0.8-0.1,1.2-0.5,1.2-1.4c-0.1-2.4,0-4.7,0-7.1c0-0.6,0.2-0.8,0.8-0.8c1.8-0.1,3.1,0.7,3.8,2.3c0.6,1.4,1.2,2.9,1.8,4.3
			c1.2,3,1.2,3,4.5,2.8c1.2-0.1,1.5-0.4,1-1.5C188.8,214.8,187.9,212.8,187.1,210.8z M182.2,205.1c-1.3,0.6-2.7,0.4-4.1,0.4
			c-0.4,0-0.4-0.3-0.4-0.6c0-0.9,0-1.8,0-2.6c0-0.8,0-1.7,0-2.5c0-0.3,0-0.6,0.5-0.6c1.2,0.1,2.3-0.1,3.5,0.2
			c1.4,0.4,2.1,1.1,2.2,2.6C184,203.5,183.4,204.5,182.2,205.1z"/>
		<path class="st2" d="M38.9,196c-1.3-0.4-2.6-0.5-3.7,0.1c-0.7,0.4-0.2,1.4-0.3,2.2c0,0.3,0,0.6,0,0.8c-0.1,3.9,0.2,7.7-0.1,11.6
			c-0.2,2.6-1.8,4.1-4.2,4.2c-2.8,0.1-4.4-1.2-4.9-3.9c-0.1-0.5-0.1-1.1-0.1-1.6c0-3.6,0-7.2,0-10.8c0-2.8-0.1-3-3.1-2.8
			c-0.1,0-0.3,0-0.4,0c-0.7,0.1-1.1,0.4-1.1,1.2c0.1,2.4,0,4.7,0,7.1c0,0,0,0,0.1,0c0,2.5-0.1,5,0,7.4c0.1,2.4,1.1,4.4,3.2,5.7
			c2.2,1.4,4.6,1.6,7,1.4c4.8-0.4,7.6-3,7.9-7.8c0.3-4.7,0.1-9.4,0.1-14.1C39.4,196.4,39.3,196.1,38.9,196z"/>
		<path class="st2" d="M168.3,196.7c0-0.3,0-0.5-0.3-0.6c-1.2-0.5-2.5-0.5-3.7-0.1c-1,0.3-0.3,1.3-0.5,2c-0.1,0.2,0,0.5,0,0.7
			c-0.1,4,0.2,8-0.1,12c-0.2,2.6-1.8,4.1-4.2,4.2c-2.8,0.1-4.4-1.2-4.9-3.9c-0.1-0.5-0.1-1.1-0.1-1.6c0-3.6,0-7.2,0-10.7
			c0-2.9-0.5-3.3-3.4-2.9c0,0-0.1,0-0.1,0c-0.7,0.1-1.1,0.4-1.1,1.2c0.1,2.4,0,4.7,0,7.1c0,0,0,0,0.1,0c0,2.5-0.1,5,0,7.4
			c0.1,2.2,1,4,2.8,5.4c2.2,1.6,4.7,1.9,7.3,1.7c4.7-0.3,7.6-2.9,8-7.4C168.6,206.4,168.2,201.6,168.3,196.7z"/>
		<path class="st2" d="M271.7,216.3c-2.3-6.5-4.6-12.9-6.8-19.4c-0.3-0.8-0.8-1.2-1.5-1.2c-1.1,0-2.3,0-3.4,0
			c-0.8,0-1.3,0.4-1.5,1.2c-1.2,3.5-2.4,6.9-3.6,10.4c-1.1,3.1-2.2,6.3-3.3,9.4c-0.4,1.2-0.1,1.5,1.1,1.5c0.6,0,1.2,0,1.8,0
			c0.8,0,1.3-0.3,1.5-1.1c0.3-1.1,0.7-2.1,1-3.2c0.2-0.6,0.5-0.7,1.1-0.7c2.3,0,4.6,0,6.9,0c0.7,0,0.9,0.2,1.1,0.8c0.3,1,0.7,2,1,3
			c0.2,0.9,0.8,1.3,1.7,1.3c0.3,0,0.6,0,1,0c0,0,0,0,0,0c0.2,0,0.5,0,0.7,0C272.1,218.3,272.3,218,271.7,216.3z M258.8,209.8
			c-0.5,0-0.6-0.2-0.4-0.6c1-2.9,1.9-5.9,3-9.2c1.1,3.4,2.2,6.6,3.3,9.8C262.7,209.8,260.7,209.8,258.8,209.8z"/>
		<path class="st2" d="M226.3,195.9c-2.4-0.3-4.8-0.1-7.2-0.2c-1.5,0-1.9,0.4-1.9,2c0,3.2,0,6.4,0,9.6c0,2.7,0,5.5,0,8.2
			c0,2.9,0.1,3,3,2.8c0.1,0,0.3,0,0.4,0c0.8-0.1,1.2-0.4,1.1-1.3c-0.1-1.8,0-3.7,0-5.5c0-0.8,0.1-1.1,1-1c1.2,0.1,2.3,0,3.5-0.2
			c2.6-0.5,4.7-1.7,5.8-4.4C234,201,231.5,196.7,226.3,195.9z M224.4,206.8c-2.7,0.2-2.7,0.2-2.7-2.5c0-0.4,0-0.9,0-1.3c0-1,0-2,0-3
			c0-0.6,0.2-0.8,0.8-0.7c0.6,0,1.2,0,1.8,0c2.2,0.1,3.4,1.3,3.5,3.5C227.9,205.1,226.5,206.6,224.4,206.8z"/>
		<path class="st2" d="M146,215.7c0-0.7-0.4-1-1.1-1c-2.3,0-4.5,0-6.8,0c-0.6,0-0.8-0.1-0.8-0.7c0-1.6,0-3.3,0-4.9
			c0-0.6,0.2-0.8,0.8-0.8c1.8,0,3.5,0,5.3,0c1,0,1.4-0.4,1.4-1.3c0-0.3,0-0.6,0-0.8c0-0.9-0.3-1.3-1.3-1.2c-1.8,0.1-3.6,0-5.4,0
			c-0.6,0-0.8-0.2-0.8-0.8c0-1.3,0.1-2.6,0-3.9c0-0.7,0.2-0.9,0.9-0.9c2,0,4,0,6,0c1.8,0,1.9-0.1,1.9-1.9c0-0.1,0-0.3,0-0.4
			c-0.1-0.9-0.3-1.3-1.4-1.3c-3.3,0.1-6.7,0-10,0c-1.6,0-1.9,0.3-1.9,1.9c0,3.1,0,6.2,0,9.2c0,3.2,0,6.4,0,9.6
			c0,1.4,0.4,1.8,1.8,1.8c3.1,0,6.2,0,9.4,0c2.1,0,2.2-0.1,2.1-2.2C146,216,146,215.8,146,215.7z"/>
		<path class="st2" d="M249.4,215.6c-0.1-0.7-0.4-1-1.1-1c-2.3,0-4.6,0-6.9,0c-0.5,0-0.7-0.1-0.7-0.7c0-1.7,0-3.3,0-5
			c0-0.6,0.2-0.7,0.7-0.7c1.8,0,3.6,0,5.4,0c0.9,0,1.3-0.3,1.3-1.2c0-0.4,0-0.7,0-1.1c0-0.8-0.3-1.2-1.2-1.2c-1.8,0.1-3.5,0-5.3,0
			c-0.8,0-0.9-0.2-0.9-1c0.1-1.2,0.1-2.5,0-3.7c0-0.7,0.2-0.9,0.9-0.9c2.1,0,4.1,0,6.2,0c1.5,0,1.7-0.1,1.7-1.7c0-0.2,0-0.5,0-0.7
			c-0.1-0.8-0.4-1.2-1.3-1.2c-3.3,0.1-6.6,0-9.9,0c-1.8,0-2.1,0.3-2.1,2.1c0,3,0,6.1,0,9.1c0,3.1,0,6.2,0,9.4c0,1.6,0.4,1.9,1.9,1.9
			c3.2,0,6.3,0,9.5,0c1.9,0,2-0.1,1.9-2C249.4,216,249.4,215.8,249.4,215.6z"/>
		<path class="st3" d="M72.3,207.1c0-2.8,0-5.7,0-8.5c0-2.9-0.1-3-3-2.8c-0.1,0-0.2,0-0.3,0c-0.8,0.1-1.3,0.4-1.3,1.4
			c0,6.1,0,12.2,0,18.3c0,2.9,0.1,3,3,2.8c0.1,0,0.3,0,0.4,0c0.8-0.1,1.2-0.4,1.1-1.3C72.2,213.7,72.3,210.4,72.3,207.1z"/>
		<path class="st4" d="M85.2,194c1.3,0.1,2.7,0.2,3.7-1c0.7-0.8,1.6-1.5,2.4-2.2c0.5-0.5,1.5-0.8,1.2-1.5c-0.3-0.7-1.3-0.5-2-0.5
			c-0.9,0-1.7-0.1-2.4,0.6c-1.1,1.2-2.2,2.5-3.3,3.7C84.3,193.6,84.6,193.9,85.2,194z"/>
	</g>
</g>
</svg>
