<?xml version="1.0" encoding="utf-8"?>
<!-- Generator: Adobe Illustrator 24.0.2, SVG Export Plug-In . SVG Version: 6.00 Build 0)  -->
<svg version="1.1" id="Capa_1" xmlns="http://www.w3.org/2000/svg" xmlns:xlink="http://www.w3.org/1999/xlink" x="0px" y="0px"
	 viewBox="0 0 149.4 59.1" style="enable-background:new 0 0 149.4 59.1;" xml:space="preserve">
<style type="text/css">
	.st0{fill:#98002C;}
	.st1{fill:#77BBA0;}
	.st2{fill:#FEAB35;}
	.st3{fill:#26010B;}
	.st4{fill:#26020C;}
	.st5{fill:#27020C;}
	.st6{fill:#26010C;}
	.st7{fill:#29050F;}
	.st8{fill:#2C0812;}
</style>
<g>
	<path class="st0" d="M31.7,48.5c10.2,0,18.4-8.2,18.4-18.4c0-10.2-8.2-18.4-18.4-18.4c-10.2,0-18.4,8.2-18.4,18.4
		C13.3,40.3,21.5,48.5,31.7,48.5z M47.1,32.9c-0.8,3.9-2.7,7.1-5.8,9.6c-0.2,0.1-0.3,0.3-0.6,0.2c-0.2-0.1-0.3-0.3-0.3-0.6
		c0-0.1,0-0.3,0-0.4c0.1-2.8,1.3-5.2,3.3-7.1c0.8-0.8,1.6-1.4,2.5-2.1c0.2-0.2,0.4-0.3,0.7-0.2C47.2,32.4,47.2,32.7,47.1,32.9z
		 M45.2,23.6c0.3-0.3,0.6-0.3,0.8,0.2c0.6,1.3,0.9,2.6,1.1,4c0.1,0.4-0.2,0.7-0.5,0.9c-1.5,1.1-3,2.3-4.4,3.6
		c-3,2.7-4.6,6.1-4.5,10.2c0,0.6,0,1.1,0,1.7c0,0.3-0.1,0.5-0.4,0.6c-0.3,0.1-0.7,0.2-1,0.3c-0.5,0.1-0.7,0-0.7-0.5
		c0-0.8,0-1.6,0-2.7c-0.1-2.1,0.1-4.4,0.9-6.7c0.6-1.7,1.4-3.3,2.4-4.8C40.8,27.9,43.2,25.9,45.2,23.6z M19.6,19.9
		c2.8-3.2,6.3-5.1,10.6-5.5c5.4-0.5,9.9,1.4,13.4,5.4c0.6,0.7,0.6,1-0.1,1.6c-1.8,1.9-3.7,3.8-5.5,5.8c-3.3,3.8-5,8.3-5,13.3
		c0,1.5,0,3,0,4.5c0,0.5-0.2,0.7-0.7,0.7c-0.5,0-0.9,0-1.4,0c-0.5,0-0.7-0.2-0.7-0.7c0-1.1,0-2.1,0-3.6c0.1-3.1-0.4-6.5-2-9.7
		c-1-2.1-2.2-3.9-3.8-5.5c-1.6-1.6-3.2-3.3-4.8-5C19.1,20.8,19.1,20.5,19.6,19.9z M16.1,27.6c0.2-1.3,0.6-2.6,1.1-3.8
		c0.2-0.4,0.5-0.5,0.8-0.2c1.8,1.9,3.8,3.7,5.4,5.7c2.8,3.3,4.2,7.2,4.1,11.6c0,0.4,0,0.8,0,1.2c0,0.8,0,1.6,0,2.4
		c0,0.6-0.2,0.8-0.8,0.6c-1.4-0.4-1.4-0.4-1.4-1.8c0.1-2.2-0.1-4.4-1.1-6.4c-1-2.1-2.4-3.8-4.1-5.3c-1.2-1-2.4-2-3.7-2.9
		C16.2,28.4,16.1,28,16.1,27.6z M16.4,32.3c0.2-0.1,0.4-0.1,0.6,0.1c1.9,1.4,3.6,2.9,4.8,5c0.7,1.3,1.1,2.8,1.1,4.3
		c-0.1,0.3,0.2,0.8-0.3,1c-0.4,0.2-0.7-0.2-0.9-0.5c-2.9-2.4-4.7-5.5-5.4-9.2C16.1,32.7,16.1,32.4,16.4,32.3z"/>
	<path class="st1" d="M8.8,25.7c0.7-4.1,2.5-7.7,5.2-10.8c4.1-4.7,9.2-7.4,15.4-8c3.1-0.3,6.2,0,9.2,0.9c2.6,0.8,5,2,7.1,3.7
		c0.3,0.2,0.4,0.2,0.7,0c0.4-0.4,0.7-0.8,1.1-1.2c0.4-0.4,0.4-0.6-0.1-0.9c-4.7-3.5-10-5.3-15.8-5.3c-2.7,0-5.3,0.4-7.8,1.2
		c-4.9,1.6-9,4.3-12.3,8.3C8,17.9,6.1,22.9,5.7,28.4c-0.2,3.8,0.3,7.5,1.7,11c0.9,2.4,2.2,4.7,3.8,6.7c0.2,0.3,0.3,0.2,0.5,0
		c0.4-0.5,0.9-0.9,1.3-1.4c0.3-0.3,0.2-0.4,0-0.7C9,38.6,7.6,32.4,8.8,25.7z"/>
	<path class="st2" d="M55,18.5c-0.8-1.5-1.7-3-2.7-4.3c-0.2-0.3-0.4-0.3-0.7,0c-0.4,0.4-0.8,0.9-1.2,1.2c-0.3,0.3-0.3,0.4-0.1,0.8
		c1.8,2.4,3.1,5.1,3.8,8c0.6,2.5,0.9,5.1,0.7,7.6c-0.2,2.1-0.6,4.2-1.3,6.2c-1.4,3.7-3.5,7-6.5,9.6c-4.2,3.7-9.2,5.6-14.8,5.8
		c-3,0.1-5.9-0.4-8.7-1.4c-2.1-0.8-4-1.8-5.8-3.2c-0.2-0.2-0.4-0.2-0.6,0c-0.3,0.4-0.7,0.7-1,1.1c-0.6,0.6-0.6,0.5,0.1,1.1
		c4.6,3.4,9.7,5.1,16.4,5.1c1.3,0.1,3.4-0.3,5.5-0.8c2.7-0.7,5.3-1.8,7.7-3.3c3.2-2.1,5.9-4.7,7.9-8c2.2-3.5,3.5-7.4,3.9-11.6
		c0.3-2.8,0-5.6-0.6-8.3C56.6,22.2,55.9,20.3,55,18.5z"/>
	<path class="st3" d="M85,23.1c0,0.3,0.1,0.4,0.4,0.4c0.4,0,0.9,0,1.3,0c0.4,0,0.5-0.1,0.5-0.5c0-1.6,0-3.1,0-4.7
		c0-1.4,1.1-2.2,2.3-1.8c0.7,0.2,1.1,0.9,1.1,1.9c0,1.6,0,3.1,0,4.7c0,0.4,0.1,0.5,0.4,0.4c0.4,0,0.8,0,1.1,0c0.5,0,0.6-0.1,0.6-0.6
		c0-1.6,0-3.1,0-4.7c0-0.9,0.4-1.5,1.1-1.7c1.2-0.4,2.3,0.3,2.3,1.7c0,1.6,0,3.2,0,4.8c0,0.4,0.1,0.6,0.5,0.5c0.4,0,0.9,0,1.3,0
		c0.2,0,0.3-0.1,0.3-0.3c0-2,0-3.9,0-5.9c0-1.3-1-2.4-2.2-2.7c-1.5-0.4-2.8,0-3.7,1.2c-1.6-1.8-3.8-1.9-5.2-0.2c-0.1-1-0.1-1-1-1
		c-0.2,0-0.4,0-0.6,0c-0.3,0-0.4,0.1-0.4,0.4C85,17.7,85,20.4,85,23.1z"/>
	<path class="st3" d="M75.3,29.5c0-0.8,0-1.6-0.4-2.2c-0.9-1.3-2.2-2-3.8-2c-1.4,0-2.7,0-4.1,0c-0.4,0-0.5,0.1-0.5,0.5
		c0,1.9,0,3.7,0,5.6c0,1.5,0,3,0,4.4c0,0.6-0.3,1.4,0.1,1.6c0.4,0.3,1.1,0.1,1.7,0.1c0.3,0,0.4-0.1,0.4-0.4c0-1.1,0-2.2,0-3.4
		c0-0.7,0-0.7,0.8-0.7c0.7,0,1.3,0,2,0C73.2,33,75.2,31.6,75.3,29.5z M71.6,31c-0.9,0.2-1.7,0-2.6,0.1c-0.3,0-0.3-0.2-0.3-0.4
		c0-0.5,0-1,0-1.6c0-0.5,0-1,0-1.6c0-0.2,0-0.4,0.3-0.4c0.9,0,1.8-0.1,2.7,0.1c0.9,0.2,1.4,0.9,1.4,1.8C73,30.1,72.5,30.9,71.6,31z"
		/>
	<path class="st3" d="M90.9,36c0.2-0.3,0.2-0.4-0.1-0.6c-0.3-0.1-0.6-0.3-1-0.5c-0.3-0.2-0.4-0.2-0.7,0.1c-0.7,0.8-1.6,1-2.6,0.7
		c-1-0.3-1.4-1-1.6-2c0.2,0,0.4,0,0.6,0c1.8,0,3.6,0,5.3,0c0.3,0,0.5,0,0.5-0.3c0.2-1.8-0.8-4.2-2.9-4.8c-1.6-0.5-3.9-0.1-5,1.8
		c-1.7,2.6-0.7,7,3.3,7.4C88.4,37.9,89.9,37.4,90.9,36z M85.1,31.7c0.3-0.8,1-1.4,1.9-1.5c0.9,0,1.7,0.4,2,1.2
		c0.2,0.5,0.2,0.6-0.4,0.6c-0.5,0-1,0-1.6,0c-0.6,0-1.1,0-1.7,0C85.1,32.1,85,32,85.1,31.7z"/>
	<path class="st3" d="M130.2,28.7c-2.1,0.7-3.2,3.1-2.7,5.5c0.3,1.7,1.3,2.9,3,3.3c1.7,0.5,3.3,0.3,4.6-1c0.8-0.8,0.8-0.9-0.2-1.4
		c-0.1,0-0.2-0.1-0.3-0.1c-0.4-0.3-0.6-0.2-1,0.1c-1.2,1.3-3.4,0.7-4-1c-0.1-0.4,0-0.5,0.4-0.5c0.9,0,1.8,0,2.7,0c0.9,0,1.9,0,2.8,0
		c0.4,0,0.5-0.1,0.5-0.5c0.1-1.5-0.3-2.8-1.4-3.8C133.4,28.2,131.9,28.1,130.2,28.7z M133.4,32.1c-0.6,0-1.1,0-1.7,0
		c-0.6,0-1.1,0-1.7,0c-0.3,0-0.4-0.1-0.3-0.4c0.2-0.8,1-1.5,2-1.5c1,0,1.8,0.5,2,1.3C133.8,31.9,133.8,32.1,133.4,32.1z"/>
	<path class="st3" d="M105.1,37.7c1.7,0.2,3.1-0.3,4.1-1.7c0.2-0.3,0.2-0.4-0.2-0.6c-0.3-0.1-0.6-0.3-0.9-0.4
		c-0.3-0.2-0.5-0.2-0.8,0.2c-0.6,0.7-1.4,0.9-2.3,0.7c-0.9-0.2-1.4-0.7-1.7-1.6c-0.1-0.3-0.1-0.5,0.4-0.5c0.9,0,1.8,0,2.8,0
		c0.9,0,1.9,0,2.8,0c0.2,0,0.4,0,0.5-0.3c0.2-1.5-0.6-3.6-1.9-4.4c-1.7-1.1-4.6-0.8-6,1.3C100.2,32.8,101.1,37.3,105.1,37.7z
		 M103.4,31.8c0.2-0.9,1-1.5,2-1.5c1,0,1.7,0.5,2,1.4c0.1,0.3,0.1,0.5-0.3,0.5c-0.6,0-1.1,0-1.7,0c-0.6,0-1.2,0-1.7,0
		C103.4,32.1,103.3,32.1,103.4,31.8z"/>
	<path class="st3" d="M119.9,17.5c0-0.8-0.3-1.6-0.9-2.2c-1.6-1.6-5-1.2-6.2,0.7c-0.4,0.6-0.4,0.6,0.3,1c0.3,0.1,0.5,0.2,0.8,0.4
		c0.3,0.2,0.4,0.1,0.6-0.1c0.5-0.8,1.2-1.1,2.1-1c0.7,0.1,1.3,0.6,1.3,1.2c0,0.3,0,0.4-0.3,0.5c-0.5,0.1-1,0.1-1.5,0.2
		c-0.9,0.1-1.7,0.2-2.5,0.7c-1,0.6-1.5,1.6-1.3,2.7c0.2,1,0.9,1.8,2,2c1.4,0.3,2.6,0.1,3.8-1c0,0.9,0,0.9,0.8,0.9c0.3,0,0.5,0,0.8,0
		c0.3,0,0.4-0.1,0.4-0.4C119.9,21.2,120,19.4,119.9,17.5z M115.1,21.9c-0.4-0.1-0.7-0.4-0.7-0.8c0-0.5,0.1-0.8,0.5-1
		c0.9-0.4,1.9-0.4,2.8-0.6c0.3-0.1,0.1,0.2,0.2,0.4C117.8,21.3,116.4,22.4,115.1,21.9z"/>
	<path class="st3" d="M77.9,23.6c1.2,0.1,2.2-0.2,3.1-1c0.1,0.8,0.1,0.8,0.9,0.9c0.2,0,0.5,0,0.7,0c0.3,0,0.5-0.1,0.5-0.4
		c0-1.8,0-3.7,0-5.5c0-0.8-0.3-1.6-0.9-2.2c-1.7-1.6-5-1.2-6.2,0.7c-0.4,0.6-0.4,0.6,0.3,1c0.3,0.1,0.5,0.2,0.8,0.4
		c0.3,0.2,0.4,0.1,0.6-0.2c0.3-0.5,0.8-0.8,1.4-1c1-0.2,1.9,0.3,2,1.1c0.1,0.3,0,0.5-0.4,0.6c-0.9,0.1-1.8,0.3-2.7,0.4
		c-1.1,0.2-2,0.6-2.5,1.7C74.7,21.9,75.9,23.5,77.9,23.6z M78.3,19.9c0.8-0.2,1.6-0.3,2.4-0.4c0.3-0.1,0.2,0.2,0.2,0.4
		c0,1.2-1,2.2-2.2,2.2c-0.7,0-1.1-0.3-1.2-0.8C77.4,20.6,77.7,20.1,78.3,19.9z"/>
	<path class="st3" d="M66.6,23.4c0.3,0.3,1.1,0.1,1.6,0.1c0.4,0,0.5-0.1,0.5-0.5c0-1.3,0-2.7,0-4c0-0.3,0.1-0.4,0.4-0.4
		c1.1,0,2.2,0,3.3,0c0.5,0,1.1,0.2,1.4-0.1c0.3-0.3,0.1-0.9,0.1-1.4c0-0.4-0.1-0.5-0.5-0.5c-1.4,0-2.8,0-4.2,0
		c-0.4,0-0.5-0.1-0.5-0.5c0-0.8,0-1.6,0-2.5c0-0.4,0.1-0.4,0.5-0.4c1.3,0,2.7,0,4,0c0.5,0,1.1,0.2,1.4-0.1c0.2-0.3,0.1-0.9,0.1-1.4
		c0-0.4-0.1-0.5-0.5-0.5c-2.4,0-4.8,0-7.2,0c-0.4,0-0.5,0.1-0.5,0.5c0,1.9,0,3.7,0,5.6c0,1.5,0,2.9,0,4.4
		C66.5,22.3,66.2,23.1,66.6,23.4z"/>
	<path class="st3" d="M119.3,31.8c0-0.9-0.3-1.7-0.9-2.4c-1.3-1.4-3.4-1.4-4.9,0.1c-0.1-0.9-0.1-0.9-1.1-0.9c-0.2,0-0.3,0-0.5,0
		c-0.4-0.1-0.5,0.1-0.5,0.5c0,2.3,0,4.6,0,6.8c0,0.5-0.2,1.3,0.1,1.6c0.3,0.3,1.1,0.1,1.6,0.1c0.4,0,0.5-0.1,0.4-0.5
		c0-1.6,0-3.2,0-4.8c0-0.9,0.4-1.5,1.1-1.8c1.3-0.4,2.4,0.4,2.4,1.8c0,1.2,0,2.4,0,3.5c0,0.5-0.2,1.3,0.1,1.6
		c0.4,0.4,1.1,0.1,1.7,0.1c0.3,0,0.4-0.1,0.4-0.4C119.3,35.3,119.3,33.5,119.3,31.8z"/>
	<path class="st3" d="M142.6,32.6c-0.2-0.1-0.5-0.2-0.7-0.2c-0.5-0.2-1.1-0.3-1.6-0.5c-0.4-0.1-0.6-0.4-0.5-0.8
		c0-0.4,0.3-0.6,0.7-0.7c0.8-0.2,1.6-0.1,2,0.6c0.5,0.7,0.9,0.5,1.4,0.2c0.1-0.1,0.3-0.1,0.5-0.2c0.2-0.1,0.2-0.1,0.1-0.3
		c-0.3-0.6-0.7-1.2-1.3-1.6c-1.2-0.7-2.5-0.8-3.9-0.3c-1.3,0.5-1.9,1.9-1.5,3.2c0.3,1,1.1,1.5,2,1.8c0.7,0.2,1.4,0.4,2,0.6
		c0.4,0.1,0.7,0.4,0.6,0.8c0,0.5-0.3,0.7-0.7,0.8c-0.9,0.2-1.7-0.1-2.3-0.7c-0.2-0.2-0.3-0.7-0.6-0.7c-0.3,0-0.6,0.3-1,0.4
		c-0.1,0-0.1,0.1-0.1,0.1c-0.4,0.1-0.4,0.3-0.2,0.6c0.8,1.5,2.1,2,3.8,2.1c0.3,0,0.7-0.1,1.1-0.2c1.3-0.3,2.1-1.2,2.2-2.3
		C144.5,34,143.9,33.1,142.6,32.6z"/>
	<path class="st3" d="M94.2,28.9c-1.1,0.7-1.6,2.1-1.1,3.3c0.4,0.9,1.1,1.3,2,1.6c0.7,0.2,1.4,0.3,2,0.6c0.3,0.2,0.6,0.4,0.6,0.8
		c0,0.4-0.3,0.7-0.7,0.8c-0.9,0.3-1.7-0.1-2.4-0.7c-0.2-0.2-0.3-0.7-0.6-0.7c-0.3,0-0.6,0.3-0.9,0.4c-0.1,0-0.1,0.1-0.2,0.1
		c-0.4,0.1-0.4,0.3-0.2,0.6c0.8,1.5,2.1,2,3.7,2.1c0.8,0,1.6-0.2,2.3-0.6c1.6-1.1,1.5-3.2-0.1-4.2c-0.4-0.3-0.9-0.4-1.3-0.6
		c-0.6-0.2-1.1-0.3-1.6-0.5C95.2,31.7,95,31.4,95,31c0-0.4,0.3-0.6,0.7-0.7c0.8-0.2,1.5-0.1,2,0.6c0.5,0.7,0.9,0.6,1.4,0.2
		c0.1-0.1,0.3-0.1,0.5-0.2c0.2-0.1,0.2-0.2,0.1-0.3c-0.2-0.4-0.4-0.8-0.7-1.2C97.7,28.3,95.6,28,94.2,28.9z"/>
	<path class="st3" d="M127.7,22.9c1.3-1.1,1.2-3-0.1-4c-0.4-0.3-0.8-0.4-1.3-0.6c-0.6-0.2-1.3-0.4-1.9-0.6c-0.3-0.1-0.6-0.4-0.5-0.8
		c0-0.4,0.3-0.6,0.6-0.7c0.8-0.2,1.6-0.1,2.1,0.6c0.4,0.7,0.8,0.5,1.3,0.2c0.1-0.1,0.2-0.1,0.4-0.2c0.4-0.1,0.4-0.3,0.2-0.6
		c-0.8-1.3-1.9-1.8-3.3-1.9c-0.3,0-0.5,0-0.7,0c-1.8,0.2-2.9,1.6-2.6,3.2c0.2,1.2,1.1,1.7,2.2,2c0.6,0.2,1.2,0.3,1.8,0.5
		c0.4,0.1,0.8,0.4,0.7,0.9c-0.1,0.5-0.5,0.8-0.9,0.8c-0.8,0.1-1.5-0.2-2.1-0.7c-0.3-0.2-0.3-0.8-0.7-0.7c-0.3,0-0.7,0.3-1,0.5
		c0,0,0,0-0.1,0c-0.4,0.1-0.4,0.3-0.2,0.6C122.6,23.6,125.9,24.4,127.7,22.9z"/>
	<path class="st3" d="M124.6,30.6c0.5,0,1.2,0.2,1.5-0.1c0.3-0.3,0-1,0.1-1.5c0-0.3-0.1-0.4-0.4-0.4c-0.4,0-0.8,0-1.1,0
		c-0.4,0.1-0.5-0.1-0.5-0.5c0-0.5,0.2-1.1-0.1-1.4c-0.3-0.3-1,0-1.4-0.1c-0.5-0.1-0.6,0.2-0.6,0.6c0,0.8-0.3,1.3-0.9,1.3
		c-0.6,0-0.7,0.3-0.6,0.8c0,0.4-0.2,0.9,0.1,1.2c0.2,0.3,0.7,0.1,1.1,0.1c0.3,0,0.4,0.1,0.3,0.3c0,0.7,0,1.3,0,2c0,0.6,0,1.2,0,1.7
		c0,1.8,1.1,3,3,3c1.2,0,1.2,0,1.2-1.2c0-0.1,0-0.1,0-0.2c0.1-0.5-0.1-0.6-0.6-0.6c-1.1,0-1.5-0.4-1.5-1.5c0-1.1,0-2.1,0-3.2
		C124.1,30.7,124.2,30.6,124.6,30.6z"/>
	<path class="st3" d="M104.2,17.2c0,1.9,0,3.9,0,5.8c0,0.3,0.1,0.5,0.4,0.4c0.5,0,1,0,1.5,0c0.3,0,0.4-0.1,0.4-0.4
		c0-3.9,0-7.7,0-11.6c0-0.3-0.1-0.4-0.4-0.4c-0.5,0-0.9,0-1.4,0c-0.4,0-0.5,0.1-0.5,0.5C104.2,13.4,104.2,15.3,104.2,17.2z"/>
	<path class="st3" d="M81.3,30.5c0.4,0,0.6,0,0.6-0.5c0-0.4,0-0.7,0-1.1c0-0.3-0.1-0.4-0.4-0.4c-1,0-1.9,0.2-2.5,1.2
		c-0.1-0.4,0.1-0.9-0.1-1c-0.3-0.2-0.7-0.1-1.1-0.1c-0.1,0-0.2,0-0.3,0c-0.4-0.1-0.5,0.1-0.5,0.5c0,2.3,0,4.5,0,6.8
		c0,0.5-0.2,1.3,0.1,1.6c0.3,0.4,1.1,0.1,1.6,0.1c0.4,0,0.5-0.1,0.4-0.5c0-1.5,0-3,0-4.4c0-0.7,0.2-1.4,0.8-1.8
		C80.4,30.5,80.8,30.4,81.3,30.5z"/>
	<path class="st4" d="M100.5,23.5c0.4,0,0.9,0,1.3,0c0.4,0,0.4-0.1,0.4-0.4c0-1.3,0-2.6,0-3.9c0-1,0-1.9,0-2.9c0-1.8,0-1.8-1.8-1.7
		c-0.3,0-0.3,0.1-0.3,0.4c0,2.7,0,5.4,0,8.1C100.1,23.4,100.2,23.5,100.5,23.5z"/>
	<path class="st5" d="M108.4,19c0,1.3,0,2.7,0,4c0,0.3,0.1,0.5,0.4,0.4c0.4,0,0.8,0,1.2,0c0.4,0,0.5-0.1,0.5-0.5c0-2.2,0-4.5,0-6.7
		c0-0.5,0.2-1.2-0.1-1.6c-0.3-0.3-1,0-1.6-0.1c-0.4,0-0.5,0.1-0.5,0.5C108.4,16.4,108.4,17.7,108.4,19z"/>
	<path class="st6" d="M93.1,47.1c-0.3,0-0.6,0-1,0c-0.4,0-0.8,0-1.2,0c-0.3,0-0.5,0-0.5,0.4c0,0.4,0.2,0.4,0.5,0.4
		c0.4,0,0.9,0,1.3,0c0.5,0,0.5,0.1,0.4,0.5c-0.2,0.9-0.8,1.4-1.6,1.6c-1,0.2-1.9,0-2.5-0.9c-0.7-0.9-0.8-2.5-0.1-3.5
		c0.9-1.4,3.2-1.4,3.9,0c0.2,0.5,0.5,0,0.7,0c0.3-0.1,0.2-0.3,0.1-0.5c-0.8-1.4-3-1.8-4.5-0.9c-1.3,0.8-1.9,2.4-1.5,4.1
		c0.3,1.6,1.9,2.7,3.6,2.6c1.7-0.2,2.9-1.4,2.9-3.2C93.8,47.2,93.7,47,93.1,47.1z"/>
	<path class="st6" d="M77.1,48.4c-0.2-0.3-0.2-0.4,0.1-0.6c0.8-0.4,1.1-1.3,1-2.1c-0.1-0.9-0.7-1.5-1.6-1.7c-1-0.2-2.1-0.1-3.1-0.1
		c-0.3,0-0.2,0.2-0.2,0.3c0,2.1,0,4.2,0,6.3c0,0.5,0.3,0.3,0.5,0.3c0.3,0,0.4,0,0.4-0.4c0-0.6,0-1.3,0-1.9c0-0.3,0.1-0.4,0.4-0.4
		c0.9-0.1,1.6,0.1,1.9,1c0.1,0.3,0.4,0.6,0.5,0.9c0.3,0.7,0.7,1,1.4,0.7c0,0,0,0,0-0.1C78,49.9,77.6,49.1,77.1,48.4z M76.4,47.2
		c-0.6,0.2-1.2,0-1.8,0.1c-0.2,0-0.3-0.1-0.3-0.3c0-0.3,0-0.7,0-1c0-1.3,0-1.3,1.3-1.3c0.2,0,0.5,0,0.7,0c0.6,0.1,1,0.5,1,1.2
		C77.4,46.6,77,47.1,76.4,47.2z"/>
	<path class="st3" d="M104.9,43.8c-0.3,0-0.5,0-0.6,0.3c-0.4,1.3-0.9,2.6-1.4,3.9c-0.3,0.9-0.6,1.8-1,2.7c1,0.1,1,0.1,1.2-0.8
		c0.1-0.2,0.1-0.3,0.2-0.5c0.1-0.3,0.2-0.4,0.5-0.4c0.6,0,1.2,0.1,1.7,0c0.7-0.1,1,0.2,1.2,0.8c0.2,0.9,0.3,0.8,1.2,0.8
		c-0.8-2.2-1.6-4.4-2.4-6.7C105.5,43.7,105.2,43.9,104.9,43.8z M103.8,48.3c0.4-1.1,0.8-2.2,1.2-3.4c0.4,1.2,0.8,2.3,1.2,3.4
		C105.4,48.3,104.6,48.3,103.8,48.3z"/>
	<path class="st4" d="M100.2,43.8c-0.4,0-0.5,0.2-0.5,0.5c0,1.3,0,2.7,0,4c0,0.4-0.1,0.9-0.4,1.2c-0.5,0.5-1.2,0.7-1.9,0.4
		c-0.6-0.2-1-0.8-1-1.5c0-1.4,0-2.7,0-4.1c0-0.3-0.1-0.5-0.4-0.5c-0.4,0-0.5,0.1-0.5,0.5c0,0.7,0,1.4,0,2.1c0,0,0,0,0,0
		c0,0.8-0.1,1.6,0,2.4c0.1,1.3,1.3,2.2,2.7,2.1c1.4-0.1,2.4-1,2.4-2.4c0-1.4,0-2.7,0-4.1C100.7,44,100.7,43.8,100.2,43.8z"/>
	<path class="st5" d="M70.8,43.8c-0.3,0-0.5,0.1-0.5,0.5c0,1.4,0,2.8,0,4.1c0,0.7-0.3,1.2-1,1.5c-1.2,0.5-2.3-0.3-2.3-1.5
		c0-1.4,0-2.8,0-4.2c0-0.3-0.1-0.4-0.4-0.4c-0.2,0-0.6-0.2-0.6,0.3c0,1.5,0,3.1,0,4.6c0.1,1.4,1.2,2.2,2.7,2.2c1.4,0,2.4-1,2.4-2.4
		c0-0.7,0-1.4,0-2.1c0-0.7,0-1.5,0-2.2C71.2,43.9,71.1,43.8,70.8,43.8z"/>
	<path class="st6" d="M84.8,43.8c-0.3,0-0.5,0-0.5,0.4c0,1.3,0,2.7,0,4c0,0.5-0.1,0.9-0.4,1.3c-0.4,0.5-1.2,0.7-1.9,0.4
		c-0.7-0.3-1-0.8-1-1.5c0-1.4,0-2.8,0-4.2c0-0.4-0.1-0.4-0.4-0.4c-0.2,0-0.5-0.1-0.5,0.3c0,1.5,0,2.9,0,4.4c0,1.4,1.1,2.4,2.6,2.4
		c1.5,0,2.5-1,2.5-2.4c0-0.7,0-1.3,0-2c0-0.7,0-1.5,0-2.2C85.3,43.9,85.2,43.8,84.8,43.8z"/>
	<path class="st6" d="M112.4,44.6c-0.4,0.7-0.9,1.4-1.3,2.1c-0.5-0.8-1-1.5-1.4-2.2c-0.3-0.6-0.8-0.8-1.4-0.6
		c0.7,1.1,1.4,2.2,2.1,3.3c0.2,0.3,0.2,0.5,0.2,0.8c0,0.8,0,1.6,0,2.4c0,0.2,0,0.3,0.3,0.3c0.4,0,0.7,0,0.6-0.6
		c-0.1-0.4,0-0.7,0-1.1c-0.1-1,0.2-1.9,0.8-2.8c0.6-0.8,1.1-1.6,1.6-2.5C113.2,43.7,112.8,43.9,112.4,44.6z"/>
	<path class="st7" d="M109.5,13.6c1,0,1,0,1-1.3c0-1,0-1-1-1c-1.1,0-1.1,0-1.1,1.1C108.3,13.6,108.3,13.6,109.5,13.6z"/>
	<path class="st8" d="M101.1,13.6c1.1,0,1.1,0,1.1-1.1c0-1.2,0-1.2-0.9-1.2c-1.3,0-1.3,0-1.3,1.3C100.1,13.6,100.1,13.6,101.1,13.6z
		"/>
	<path class="st0" d="M31.7,28.3c3.1,0,5.7-2.6,5.7-5.7c0-3.2-2.5-5.7-5.7-5.7c-3.2,0-5.7,2.5-5.8,5.7
		C25.9,25.7,28.5,28.3,31.7,28.3z M31.7,19.5c1.7,0,3.1,1.4,3,3.1c0,1.7-1.4,3-3.1,3c-1.7,0-3-1.4-3-3.1
		C28.6,20.9,30,19.5,31.7,19.5z"/>
</g>
</svg>
